<svg width="102" height="127" viewBox="0 0 102 127" fill="none" xmlns="http://www.w3.org/2000/svg">
<path fill-rule="evenodd" clip-rule="evenodd" d="M15.2596 24.1189C19.4505 15.7313 24.5878 7.95589 30.0172 0.388436C30.6376 0.547903 30.0925 0.934353 30.3137 1.17832C30.6654 1.34068 31.0568 0.493229 31.5091 1.24707C31.925 1.93962 31.6785 2.46027 31.3857 2.99749C29.8444 5.82524 27.6185 8.21352 26.2753 11.1958C25.8155 12.2155 25.6146 13.4644 24.4809 14.2588C23.783 14.7475 23.9474 15.9835 23.3307 16.7974C22.9447 17.3073 22.7301 18.0206 22.3006 18.5959C20.5891 20.8864 19.6029 23.4773 19.3217 26.3249C19.2711 26.8377 19.0574 27.302 18.5819 27.3177C17.2854 27.3612 15.9977 27.8984 14.7269 26.7639C13.8045 25.9401 13.7188 25.1941 13.9797 24.2009C14.6089 21.808 15.8569 19.6964 17.0817 17.5865C18.5144 15.1187 20.1414 12.7673 21.659 10.3541C23.7002 7.10844 25.9853 4.04335 28.1528 0.892519C28.3591 0.593051 28.5567 -0.0261797 29.009 0.246365C29.3495 0.451394 28.9908 0.941809 28.7965 1.24003C27.5713 3.12051 26.2595 4.93719 24.9159 6.73814C23.6281 8.46412 22.5487 10.3549 21.4734 12.228C19.7359 15.2558 17.8214 18.1821 16.2491 21.3044C15.8009 22.1945 15.3573 23.0962 15.2596 24.1189Z" fill="#3777F9"/>
<path fill-rule="evenodd" clip-rule="evenodd" d="M8.636 60.3162C7.84861 60.9491 7.27908 59.9642 7.03014 59.7641C6.35665 59.2232 5.30085 59.7811 5.03784 59.1407C4.63979 58.1711 3.78115 57.3506 4.13736 56.0516C4.82577 53.5391 5.86914 51.174 6.8392 48.7754C7.54251 47.0365 8.21269 45.2807 9.23991 43.691C9.69801 42.9823 10.2245 42.3573 11.0019 42.0011C11.7993 41.6354 12.4993 41.6093 13.2672 42.2666C13.8355 42.7529 14.5682 43.0722 15.0942 43.6438C15.595 44.1873 15.9926 44.756 15.402 45.4965C14.9874 46.016 15.0623 46.6969 14.8536 47.2892C14.0144 49.6692 13.6951 52.2323 12.3489 54.4329C11.3507 56.0653 10.613 57.8219 9.8434 59.5649C9.62304 60.064 9.40973 60.6671 8.636 60.3162Z" fill="#3777F9"/>
<path fill-rule="evenodd" clip-rule="evenodd" d="M58.2784 42.4917C58.0933 42.9092 57.974 43.1776 57.8588 43.4369C57.9955 43.6154 58.1218 43.509 58.2577 43.4709C58.5365 43.3922 58.6321 42.8583 58.9697 43.0716C59.3781 43.3296 58.8529 43.6386 58.8844 43.9443C59.3313 44.0483 59.4502 43.4961 59.8147 43.4808C60.3797 44.3498 60.0831 45.0494 59.5571 45.8289C58.1276 47.9471 56.8888 50.1735 56.0546 52.6098C55.7398 53.5297 54.5614 53.9792 54.5386 55.047C54.5096 56.4014 53.8775 57.5773 53.1672 58.5457C51.9403 60.2183 51.6781 62.1861 50.9479 64.0041C50.7424 64.5156 51.0241 65.1456 50.5188 65.5648C50.3556 65.7002 50.0992 66.0088 49.9927 65.7487C49.6274 64.8598 48.9154 65.2881 48.326 65.1406C47.2321 64.8668 47.0167 63.7941 46.9098 62.8505C46.7417 61.3635 47.1708 59.9254 47.7743 58.6C50.0839 53.5248 52.77 48.6558 56.0931 44.1647C56.5992 43.4804 57.0532 42.6218 58.2784 42.4917Z" fill="#3777F9"/>
<path fill-rule="evenodd" clip-rule="evenodd" d="M42.9744 22.3395C42.7209 23.1294 42.4762 23.9561 42.1912 24.7692C40.3865 29.9235 38.0454 34.8363 35.5097 39.6643C34.5376 41.5149 33.4172 43.291 32.6815 45.2659C32.4711 45.8317 32.093 46.2782 31.4182 45.6764C31.2592 45.5343 31.0231 45.4701 30.8127 45.3956C29.4131 44.9002 28.8663 43.8274 29.3054 42.3715C29.7552 40.8779 30.5873 39.5698 31.3938 38.2585C34.806 32.7119 38.0156 27.061 40.4656 21.0087C40.7763 20.2416 40.8662 20.2424 41.4108 20.8264C41.4701 20.8898 41.5902 20.9358 41.6763 20.9279C42.6924 20.8372 42.7847 21.5819 42.9744 22.3395Z" fill="#3777F9"/>
<path fill-rule="evenodd" clip-rule="evenodd" d="M8.76018 80.2291C7.82989 82.5184 6.30894 84.2705 5.42255 86.3436C4.52663 88.439 3.44184 90.4591 2.87936 92.6958C3.69492 90.9027 4.50592 89.1071 5.32687 87.3161C6.26959 85.2613 7.46498 83.3522 8.64007 81.4253C9.22989 80.4586 9.8922 80.5079 10.5562 81.0401C11.2044 81.5604 11.339 82.4364 10.7285 83.0469C9.48462 84.2908 8.78504 85.8801 8.33066 87.4412C7.53953 90.16 6.14865 92.68 5.72947 95.5194C5.63296 96.1738 5.15953 96.7317 5.0622 97.4607C4.95285 98.2808 4.91018 98.9833 5.31693 99.7475C5.55261 100.192 6.13415 100.776 5.61764 101.271C5.19515 101.676 4.57634 101.974 3.8722 101.604C3.60338 101.464 3.21154 101.556 2.87563 101.544C0.911485 101.478 -0.247864 100.198 0.0449764 98.2171C0.437639 95.5604 1.43545 93.0756 2.48918 90.6218C3.86971 87.4064 5.37078 84.2531 7.41403 81.3893C7.71557 80.9668 7.96823 80.5 8.76018 80.2291Z" fill="#3777F9"/>
<path fill-rule="evenodd" clip-rule="evenodd" d="M62.3141 105.284C59.6541 105.278 58.8526 104.113 59.7527 101.908C60.4564 100.183 61.6534 98.7615 62.8091 97.3375C65.5067 94.0139 68.3146 90.7857 71.3039 87.7144C72.035 86.963 72.9226 86.6942 73.8338 86.4154C74.152 86.3185 74.8611 86.1271 74.8341 86.4042C74.7778 86.9709 75.3465 87.4857 74.8346 88.0921C72.5482 90.7997 70.5078 93.6983 68.3937 96.5397C67.4618 97.7927 66.4304 98.974 65.5328 100.25C64.926 101.113 64.3056 102.046 64.9211 103.208C64.9948 103.347 64.9567 103.711 64.8912 103.733C63.8408 104.083 63.2059 105.202 62.3141 105.284Z" fill="#3777F9"/>
<path fill-rule="evenodd" clip-rule="evenodd" d="M89.5052 45.0512C90.8713 43.5166 91.7212 41.6502 93.0682 40.1251C93.465 39.6761 93.9405 39.2864 94.2797 38.7993C94.8397 37.9945 95.4159 38.6079 95.7862 38.8614C96.1457 39.107 96.3143 39.6778 95.9286 40.2179C94.3539 42.4235 93.0872 44.8379 92.0236 47.295C91.2656 49.0466 90.0072 50.5808 89.7446 52.6191C89.6448 53.3908 89.1175 54.2813 88.8251 55.1453C88.4341 56.3005 87.631 55.3441 87.0113 55.3019C86.9136 55.2952 86.827 55.0078 86.7375 55.0094C86.356 55.0148 86.1315 55.9861 85.6846 55.3122C85.0782 54.3977 84.4308 53.5349 84.855 52.1829C85.5289 50.037 86.564 48.101 87.6968 46.201C89.2327 43.6251 90.6492 40.9585 92.835 38.8328C92.9961 38.6763 93.144 38.5044 93.3163 38.361C93.494 38.2132 93.733 38.0868 93.9235 38.2687C94.1658 38.5002 94.0374 38.7802 93.8253 38.9542C91.9718 40.4718 91.0485 42.6609 89.7496 44.5778C89.651 44.7236 89.586 44.893 89.5052 45.0512Z" fill="#3777F9"/>
<path fill-rule="evenodd" clip-rule="evenodd" d="M43.7832 83.1744C44.3548 82.6351 45.0001 82.1538 45.4785 81.542C46.0369 80.8284 46.6586 80.6718 47.4452 80.9829C47.9128 81.1684 47.8134 81.6588 47.7682 81.9716C47.6519 82.7763 47.1755 83.3964 46.3976 83.683C46.2117 83.7514 45.9317 83.6105 45.9321 83.9469C45.9362 85.59 44.4952 86.4648 43.876 87.7811C43.6859 88.1846 43.3317 88.5677 43.0824 88.9815C42.3542 90.1897 41.7586 91.5023 40.2153 91.965C39.8558 92.0727 39.2858 92.3945 39.4801 92.9408C40.0728 94.6072 38.9056 95.7201 38.2433 96.9557C37.1547 98.9857 35.7738 100.85 34.7644 102.93C34.6505 103.165 34.5801 103.498 34.2529 103.417C33.844 103.315 34.3858 102.952 34.1021 102.738C33.5926 103.01 33.1453 103.742 32.4349 102.878C32.1814 102.569 31.8091 103.091 31.6268 103.418C31.4881 103.667 31.3356 103.902 31.0229 103.719C30.6448 103.497 30.9707 103.266 31.0705 103.062C32.8897 99.3547 35.1368 95.9069 37.4687 92.5105C39.5223 89.5191 41.5755 86.5274 43.6287 83.5368C43.6797 83.4167 43.7314 83.2958 43.7832 83.1744Z" fill="#3777F9"/>
<path fill-rule="evenodd" clip-rule="evenodd" d="M63.6666 70.0148C64.9258 68.0664 66.1945 66.1204 67.5957 64.2632C65.9973 65.4619 64.0704 68.2436 63.6666 70.0148ZM66.1307 72.9724C65.7389 73.0868 66.7379 71.7249 65.6701 72.5611C65.6415 72.5835 65.5852 72.6179 65.5724 72.6079C64.8686 72.0616 64.249 72.0923 63.6049 72.76C63.4359 72.9352 62.1245 71.4656 62.0964 71.0315C62.0541 70.3762 62.2198 69.7558 62.5081 69.1821C64.1351 65.9422 66.4239 63.2503 69.3159 61.072C70.7325 60.0046 72.2186 60.121 73.7019 60.9159C74.4984 61.3429 74.4947 61.8561 73.8324 62.4952C73.1353 63.1675 72.4721 63.8803 71.8479 64.6209C71.1276 65.4754 70.5245 66.4136 69.7318 67.2266C68.6905 68.294 68.3318 69.8079 67.5746 71.0754C67.1558 71.775 66.7872 72.4849 66.1307 72.9724Z" fill="#3777F9"/>
<path fill-rule="evenodd" clip-rule="evenodd" d="M99.1334 74.9196C98.9677 75.4849 98.8679 75.825 98.7159 76.3436C98.9685 76.1481 99.1226 76.0888 99.169 75.9824C99.5459 75.1209 100.238 75.3437 100.784 75.6225C101.368 75.9207 101.52 76.5942 101.286 77.1749C100.905 78.1226 100.464 79.0612 99.9266 79.9281C99.1848 81.1243 98.3456 82.2803 97.8403 83.5867C97.3122 84.9511 96.5422 86.2786 96.8714 87.8828C97.0272 88.64 96.3947 89.0848 95.703 88.775C95.3273 88.606 94.9893 88.6251 94.6178 88.6437C92.2635 88.7613 91.0478 87.0917 91.9623 84.8438C93.2517 81.6756 95.3327 78.9974 97.4998 76.3925C97.914 75.8946 98.1994 75.2323 99.1334 74.9196Z" fill="#3777F9"/>
<path fill-rule="evenodd" clip-rule="evenodd" d="M13.3097 124.399C13.2956 125.245 14.0093 125.656 14.1079 126.331C13.0649 126.473 12.4076 125.908 12.1794 124.743C11.9317 123.478 12.3272 122.313 12.9427 121.305C14.2525 119.159 15.3455 116.89 17.1751 115.036C17.8908 114.312 18.3858 113.139 19.082 112.262C21.0665 109.761 23.1379 107.329 25.1841 104.877C25.5949 104.384 26.0825 103.971 26.6449 103.65C26.9328 103.485 27.2165 103.448 27.4845 103.663C27.7724 103.895 27.7405 104.191 27.5798 104.476C27.3408 104.901 27.1262 105.349 26.8276 105.729C24.0628 109.241 21.223 112.697 18.5361 116.268C17.4894 117.66 16.6722 119.258 16.1089 120.928C15.8488 121.7 16.1275 122.547 16.2158 123.358C16.2394 123.579 16.548 123.88 16.1569 124.046C15.406 124.365 14.7768 124.68 15.4375 125.658C15.5878 125.881 15.2461 125.998 15.0084 126.004C14.5834 126.014 14.0942 126.007 14.0441 125.479C13.9985 124.994 13.7239 124.748 13.3097 124.399Z" fill="#3777F9"/>
<path fill-rule="evenodd" clip-rule="evenodd" d="M31.3129 66.7095C31.0693 66.5368 30.9326 66.5037 30.8262 66.7625C30.4385 67.7057 30.1154 68.6886 29.6093 69.5646C29.3032 70.094 29.369 71.1858 28.1968 70.8673C28.0105 70.8167 28.0486 71.0516 28.1331 71.1846C28.3306 71.4952 28.208 71.723 27.9939 71.9844C27.6286 72.4296 27.5279 72.9238 27.6228 73.5343C27.7988 74.6618 27.0143 75.2114 25.9829 74.7488C25.8591 74.6928 25.6392 74.5048 25.628 74.5827C25.3645 76.4201 24.3688 73.9837 23.9625 74.8738C23.6576 74.6203 23.5143 74.2977 23.4795 73.8992C23.4 72.9859 23.7736 72.2134 24.1973 71.455C25.8028 68.5817 28.1024 66.2883 30.4609 64.0561C31.0287 63.5181 31.8845 63.4891 32.6205 63.2725C33.0525 63.1453 33.3073 63.5032 33.4709 63.8453C33.695 64.3142 33.4481 64.3631 33.0645 64.238C33.0136 65.0792 32.4635 65.6616 32.0121 66.3003C31.8132 66.5815 31.6844 66.9216 31.3129 66.7095Z" fill="#3777F9"/>
<path fill-rule="evenodd" clip-rule="evenodd" d="M64.8874 20.5227C64.7946 20.4539 64.7022 20.3852 64.6098 20.3164C64.0772 21.1602 63.5395 22.0006 63.0197 22.8522C62.9593 22.9516 62.8408 23.1309 63.0206 23.2395C63.1456 23.3148 63.3602 23.3364 63.4029 23.1782C63.6733 22.1696 64.6198 21.528 64.8874 20.5227ZM60.962 30.7642C60.6327 31.2402 60.8675 32.0537 59.83 32.1191C59.0798 32.1667 59.2153 31.8043 59.2149 31.4183C58.57 31.4763 58.828 32.2425 58.2568 32.3945C58.0216 31.3578 58.4039 30.3654 58.3575 29.3692C58.3645 29.3398 58.3691 29.3075 58.372 29.2727C59.173 28.5851 59.3578 27.5563 59.8018 26.6724C59.9849 26.307 60.0491 25.8713 60.274 25.5403C62.084 22.8774 63.5569 20.0021 65.5066 17.422C67.0346 15.3999 68.3878 13.2468 70.0197 11.2989C70.395 10.8511 70.7268 10.3603 71.532 9.89099C70.9107 11.016 70.4377 11.8717 69.9651 12.7274C69.9767 12.6935 69.987 12.6587 69.9961 12.6226C68.7506 13.6089 68.2432 15.1315 67.1767 16.268C67.5411 16.5766 67.6505 16.2548 67.8257 16.2183C68.1256 16.1566 68.3107 16.3447 68.4267 16.6027C68.4839 16.729 68.5978 16.9154 68.3961 16.9672C67.5014 17.1971 67.7159 17.9393 67.6898 18.5279C67.6609 19.1786 67.3071 19.5361 66.7985 19.8268C66.0148 20.2746 65.5488 20.9096 65.6329 21.8577C65.4954 22.0611 65.3583 22.2648 65.2208 22.4682C64.3642 22.8882 63.139 24.9339 63.226 25.7984C62.7372 25.8237 62.5442 26.7498 61.879 26.242C61.6819 25.6944 61.57 25.4351 61.0581 26.1169C60.4111 26.9776 60.5151 28.1498 59.7347 28.919C59.6187 29.0329 59.6266 29.201 59.7856 29.2984C59.9923 29.4251 60.1841 29.3324 60.2156 29.1294C60.3531 28.2521 61.0535 27.6354 61.2656 26.8008C61.3555 26.4487 61.4503 26.1405 61.9105 26.2101C62.1901 27.8358 60.9384 28.9463 60.5093 30.3343C60.4525 30.5182 59.7629 30.0228 60.013 30.6416C60.1348 30.9436 60.5942 31.0935 60.962 30.7642Z" fill="#3777F9"/>
<path fill-rule="evenodd" clip-rule="evenodd" d="M86.5812 105.856C86.3517 106.488 86.5294 107.059 86.7316 107.607C86.838 107.895 86.9184 108.114 86.5729 108.233C86.2577 108.343 86.0639 108.121 85.952 107.88C85.6667 107.267 85.7375 106.584 85.9069 106C86.5526 103.769 87.7633 101.832 89.2565 100.067C89.6997 99.543 90.2249 99.0687 90.572 98.4876C91.2029 97.4314 92.2765 97.1303 93.3 96.7964C93.778 96.6403 93.8695 97.2815 93.9677 97.6265C94.0236 97.8241 93.8782 98.2072 93.7022 98.3223C92.001 99.4349 91.7273 101.508 90.5733 102.999C90.1931 103.49 90.3674 104.486 89.8762 105.138C89.4881 105.653 89.2789 106.297 88.5574 106.543C88.1411 106.684 88.4563 107.22 88.2683 107.539C88.1717 107.702 88.1125 107.899 87.9071 107.926C87.7025 107.952 87.4444 107.777 87.4813 107.646C87.7294 106.767 86.691 106.543 86.5812 105.856Z" fill="#3777F9"/>
<path fill-rule="evenodd" clip-rule="evenodd" d="M43.7828 83.1745C43.731 83.2958 43.6792 83.4168 43.6283 83.5369C42.1343 84.8537 40.9289 86.4413 39.7592 88.0215C38.1501 90.1952 36.695 92.4911 35.2937 94.8073C34.1079 96.7677 32.5952 98.5293 31.7635 100.713C31.4259 101.599 30.8659 102.408 29.8884 103.013C29.6581 101.679 30.508 100.824 30.998 99.8834C32.2887 97.4044 33.919 95.1329 35.5224 92.8531C38.4151 88.7405 41.1327 84.4883 44.7379 80.9241C44.9442 80.7203 45.109 80.4399 45.6053 80.5915C45.2814 81.6709 44.2458 82.2376 43.7828 83.1745Z" fill="#3777F9"/>
<path fill-rule="evenodd" clip-rule="evenodd" d="M87.5652 67.4278C87.1216 67.7529 87.6443 68.631 86.965 68.4881C86.3859 68.3659 86.5951 67.6597 86.7405 67.2116C87.643 64.4364 89.422 62.3828 91.998 61.0379C92.3881 60.8341 92.9543 60.523 93.3151 61.1C93.6357 61.6116 93.1399 61.9226 92.857 62.2428C91.6712 63.5865 90.5462 64.9583 90.25 66.8102C90.1759 67.2753 89.7985 67.4431 89.4142 67.6005C89.28 67.6556 89.1449 67.7455 89.0497 67.8536C88.2971 68.7093 87.7292 68.7996 87.5652 67.4278Z" fill="#3777F9"/>
<path fill-rule="evenodd" clip-rule="evenodd" d="M64.3404 17.631C64.2161 19.0132 63.0344 19.7761 62.392 20.8522C61.9161 21.6491 61.528 22.5533 60.7675 23.1862C60.5782 23.3436 60.5024 23.6907 60.1901 23.5151C59.9416 23.3751 59.8911 23.0918 60.0588 22.8255C61.069 21.2238 62.0515 19.6026 63.2585 18.1359C63.5435 17.7896 63.9929 17.7991 64.3727 17.6583L64.3404 17.631Z" fill="#3777F9"/>
<path fill-rule="evenodd" clip-rule="evenodd" d="M64.3727 17.6584C64.2315 17.3523 64.0674 17.0678 64.3243 16.7186C65.7793 14.7383 67.2042 12.7348 68.8908 10.9376C69.0213 10.7984 69.0934 10.4687 69.3883 10.675C69.5751 10.8059 69.5287 11.0084 69.4007 11.1704C67.7518 13.2551 66.1517 15.3754 64.654 17.5723C64.6117 17.634 64.4477 17.6133 64.3404 17.6311L64.3727 17.6584Z" fill="#3777F9"/>
<path fill-rule="evenodd" clip-rule="evenodd" d="M58.3719 29.2725C58.3694 29.3072 58.3644 29.34 58.3578 29.3694C58.1586 29.8735 57.7237 30.2814 57.761 30.8837C57.7742 31.0983 57.8028 31.4031 57.476 31.3749C57.184 31.3497 57.2233 31.0784 57.249 30.8472C57.4781 28.7924 58.1764 26.8709 58.9547 24.9784C59.0885 24.6537 59.4799 24.3049 59.8373 24.4714C60.2607 24.6686 59.9409 25.0869 59.791 25.3322C59.045 26.552 58.7198 27.9143 58.3719 29.2725Z" fill="#3777F9"/>
<path fill-rule="evenodd" clip-rule="evenodd" d="M69.9969 12.6228C69.9878 12.6584 69.9774 12.6932 69.9654 12.7272C70.4418 12.243 71.2706 12.0996 71.3509 11.2066C71.3642 11.0592 71.7395 10.5199 72.1189 10.8525C72.4796 11.1685 72.0944 11.5024 71.8857 11.6999C70.9421 12.5934 70.1932 13.6028 69.7645 14.958C69.4021 14.5347 68.8608 14.2585 69.5815 13.7444C69.9687 13.4682 69.8138 12.9806 69.9969 12.6228Z" fill="#3777F9"/>
<path fill-rule="evenodd" clip-rule="evenodd" d="M65.2209 22.4683C65.3584 22.2649 65.4959 22.0612 65.633 21.8578C65.7983 21.7277 65.9636 21.5981 66.1284 21.468C66.1868 21.5082 66.2444 21.5484 66.3024 21.5886C65.9226 22.2666 65.5423 22.9442 65.1625 23.6223C65.0813 23.5958 65.0001 23.5688 64.9189 23.5419C65.0196 23.1845 65.1202 22.8262 65.2209 22.4683Z" fill="#3777F9"/>
<path fill-rule="evenodd" clip-rule="evenodd" d="M61.4025 30.1792C61.1813 29.4009 61.7484 28.8844 62.0458 28.2842C62.3374 27.6956 62.677 27.1307 62.996 26.5549C63.1086 26.8478 63.0821 27.1071 62.9189 27.3937C62.3958 28.3124 61.9054 29.2493 61.4025 30.1792Z" fill="#3777F9"/>
</svg>
