<svg width="103" height="127" viewBox="0 0 103 127" fill="none" xmlns="http://www.w3.org/2000/svg">
<path fill-rule="evenodd" clip-rule="evenodd" d="M15.9461 24.1189C20.137 15.7313 25.2743 7.95589 30.7037 0.388436C31.3242 0.547903 30.7791 0.934353 31.0002 1.17832C31.3519 1.34068 31.7433 0.493229 32.1956 1.24707C32.6115 1.93962 32.365 2.46027 32.0722 2.99749C30.531 5.82524 28.305 8.21352 26.9618 11.1958C26.502 12.2155 26.3011 13.4644 25.1675 14.2588C24.4695 14.7475 24.634 15.9835 24.0172 16.7974C23.6312 17.3073 23.4166 18.0206 22.9871 18.5959C21.2756 20.8864 20.2894 23.4773 20.0082 26.3249C19.9576 26.8377 19.7439 27.302 19.2684 27.3177C17.972 27.3612 16.6842 27.8984 15.4134 26.7639C14.491 25.9401 14.4053 25.1941 14.6662 24.2009C15.2954 21.808 16.5434 19.6964 17.7682 17.5865C19.2009 15.1187 20.8279 12.7673 22.3455 10.3541C24.3867 7.10844 26.6718 4.04335 28.8394 0.892519C29.0456 0.593051 29.2432 -0.0261797 29.6955 0.246365C30.036 0.451394 29.6773 0.941809 29.483 1.24003C28.2578 3.12051 26.946 4.93719 25.6024 6.73814C24.3146 8.46412 23.2352 10.3549 22.1599 12.228C20.4224 15.2558 18.5079 18.1821 16.9356 21.3044C16.4875 22.1945 16.0439 23.0962 15.9461 24.1189Z" fill="#3734A9"/>
<path fill-rule="evenodd" clip-rule="evenodd" d="M9.32253 60.3162C8.53513 60.9491 7.9656 59.9642 7.71667 59.7641C7.04318 59.2232 5.98738 59.7811 5.72436 59.1407C5.32631 58.1711 4.46767 57.3506 4.82389 56.0516C5.51229 53.5391 6.55566 51.174 7.52572 48.7754C8.22904 47.0365 8.89921 45.2807 9.92643 43.691C10.3845 42.9823 10.911 42.3573 11.6884 42.0011C12.4858 41.6354 13.1858 41.6093 13.9537 42.2666C14.522 42.7529 15.2547 43.0722 15.7808 43.6438C16.2815 44.1873 16.6792 44.756 16.0885 45.4965C15.6739 46.016 15.7489 46.6969 15.5401 47.2892C14.7009 49.6692 14.3816 52.2323 13.0354 54.4329C12.0372 56.0653 11.2995 57.8219 10.5299 59.5649C10.3096 60.064 10.0963 60.6671 9.32253 60.3162Z" fill="#3734A9"/>
<path fill-rule="evenodd" clip-rule="evenodd" d="M58.9649 42.4917C58.7798 42.9092 58.6605 43.1776 58.5454 43.4369C58.682 43.6154 58.8084 43.509 58.9442 43.4709C59.223 43.3922 59.3187 42.8583 59.6562 43.0716C60.0646 43.3296 59.5394 43.6386 59.5709 43.9443C60.0178 44.0483 60.1367 43.4961 60.5012 43.4808C61.0662 44.3498 60.7696 45.0494 60.2436 45.8289C58.8142 47.9471 57.5753 50.1735 56.7411 52.6098C56.4263 53.5297 55.2479 53.9792 55.2251 55.047C55.1961 56.4014 54.5641 57.5773 53.8537 58.5457C52.6268 60.2183 52.3646 62.1861 51.6344 64.0041C51.429 64.5156 51.7106 65.1456 51.2053 65.5648C51.0421 65.7002 50.7857 66.0088 50.6793 65.7487C50.3139 64.8598 49.6019 65.2881 49.0125 65.1406C47.9186 64.8668 47.7032 63.7941 47.5964 62.8505C47.4282 61.3635 47.8573 59.9254 48.4608 58.6C50.7704 53.5248 53.4565 48.6558 56.7796 44.1647C57.2858 43.4804 57.7397 42.6218 58.9649 42.4917Z" fill="#3734A9"/>
<path fill-rule="evenodd" clip-rule="evenodd" d="M43.661 22.3395C43.4075 23.1294 43.1627 23.9561 42.8777 24.7692C41.073 29.9235 38.732 34.8363 36.1962 39.6643C35.2241 41.5149 34.1037 43.291 33.3681 45.2659C33.1577 45.8317 32.7795 46.2782 32.1048 45.6764C31.9457 45.5343 31.7096 45.4701 31.4992 45.3956C30.0996 44.9002 29.5529 43.8274 29.9919 42.3715C30.4417 40.8779 31.2739 39.5698 32.0803 38.2585C35.4925 32.7119 38.7021 27.061 41.1521 21.0087C41.4628 20.2416 41.5527 20.2424 42.0974 20.8264C42.1566 20.8898 42.2767 20.9358 42.3629 20.9279C43.3789 20.8372 43.4713 21.5819 43.661 22.3395Z" fill="#3734A9"/>
<path fill-rule="evenodd" clip-rule="evenodd" d="M9.44671 80.2291C8.51641 82.5184 6.99546 84.2705 6.10907 86.3436C5.21316 88.439 4.12836 90.4591 3.56588 92.6958C4.38144 90.9027 5.19245 89.1071 6.01339 87.3161C6.95612 85.2613 8.1515 83.3522 9.32659 81.4253C9.91641 80.4586 10.5787 80.5079 11.2427 81.0401C11.8909 81.5604 12.0255 82.4364 11.415 83.0469C10.1711 84.2908 9.47156 85.8801 9.01718 87.4412C8.22606 90.16 6.83517 92.68 6.416 95.5194C6.31949 96.1738 5.84606 96.7317 5.74872 97.4607C5.63937 98.2808 5.59671 98.9833 6.00345 99.7475C6.23913 100.192 6.82067 100.776 6.30416 101.271C5.88168 101.676 5.26286 101.974 4.55872 101.604C4.2899 101.464 3.89807 101.556 3.56215 101.544C1.59801 101.478 0.43866 100.198 0.7315 98.2171C1.12416 95.5604 2.12197 93.0756 3.1757 90.6218C4.55623 87.4064 6.0573 84.2531 8.10055 81.3893C8.40209 80.9668 8.65475 80.5 9.44671 80.2291Z" fill="#3734A9"/>
<path fill-rule="evenodd" clip-rule="evenodd" d="M63.0006 105.284C60.3406 105.278 59.5391 104.113 60.4392 101.908C61.1429 100.183 62.34 98.7615 63.4956 97.3375C66.1933 94.0139 69.0011 90.7857 71.9904 87.7144C72.7215 86.963 73.6091 86.6942 74.5204 86.4154C74.8385 86.3185 75.5476 86.1271 75.5207 86.4042C75.4643 86.9709 76.033 87.4857 75.5211 88.0921C73.2347 90.7997 71.1943 93.6983 69.0803 96.5397C68.1483 97.7927 67.1169 98.974 66.2194 100.25C65.6126 101.113 64.9921 102.046 65.6076 103.208C65.6813 103.347 65.6432 103.711 65.5778 103.733C64.5274 104.083 63.8924 105.202 63.0006 105.284Z" fill="#3734A9"/>
<path fill-rule="evenodd" clip-rule="evenodd" d="M90.1908 45.0512C91.5568 43.5166 92.4067 41.6502 93.7537 40.1251C94.1505 39.6761 94.626 39.2864 94.9653 38.7993C95.5253 37.9945 96.1014 38.6079 96.4717 38.8614C96.8312 39.107 96.9998 39.6778 96.6142 40.2179C95.0394 42.4235 93.7728 44.8379 92.7091 47.295C91.9511 49.0466 90.6928 50.5808 90.4302 52.6191C90.3304 53.3908 89.8031 54.2813 89.5106 55.1453C89.1196 56.3005 88.3165 55.3441 87.6969 55.3019C87.5991 55.2952 87.5125 55.0078 87.4231 55.0094C87.0416 55.0148 86.8171 55.9861 86.3702 55.3122C85.7638 54.3977 85.1164 53.5349 85.5405 52.1829C86.2144 50.037 87.2495 48.101 88.3824 46.201C89.9182 43.6251 91.3348 40.9585 93.5205 38.8328C93.6817 38.6763 93.8295 38.5044 94.0018 38.361C94.1795 38.2132 94.4185 38.0868 94.609 38.2687C94.8514 38.5002 94.723 38.7802 94.5109 38.9542C92.6573 40.4718 91.7341 42.6609 90.4351 44.5778C90.3366 44.7236 90.2715 44.893 90.1908 45.0512Z" fill="#3734A9"/>
<path fill-rule="evenodd" clip-rule="evenodd" d="M44.4697 83.1744C45.0413 82.6351 45.6867 82.1538 46.1651 81.542C46.7234 80.8284 47.3451 80.6718 48.1317 80.9829C48.5993 81.1684 48.4999 81.6588 48.4548 81.9716C48.3384 82.7763 47.862 83.3964 47.0842 83.683C46.8982 83.7514 46.6182 83.6105 46.6186 83.9469C46.6228 85.59 45.1817 86.4648 44.5625 87.7811C44.3724 88.1846 44.0183 88.5677 43.7689 88.9815C43.0407 90.1897 42.4451 91.5023 40.9018 91.965C40.5423 92.0727 39.9723 92.3945 40.1666 92.9408C40.7593 94.6072 39.5921 95.7201 38.9298 96.9557C37.8413 98.9857 36.4603 100.85 35.4509 102.93C35.337 103.165 35.2666 103.498 34.9394 103.417C34.5306 103.315 35.0723 102.952 34.7886 102.738C34.2791 103.01 33.8318 103.742 33.1215 102.878C32.868 102.569 32.4956 103.091 32.3133 103.418C32.1746 103.667 32.0222 103.902 31.7094 103.719C31.3313 103.497 31.6573 103.266 31.7571 103.062C33.5762 99.3547 35.8233 95.9069 38.1552 92.5105C40.2088 89.5191 42.262 86.5274 44.3152 83.5368C44.3662 83.4167 44.418 83.2958 44.4697 83.1744Z" fill="#3734A9"/>
<path fill-rule="evenodd" clip-rule="evenodd" d="M64.3531 70.0148C65.6123 68.0664 66.881 66.1204 68.2822 64.2632C66.6838 65.4619 64.757 68.2436 64.3531 70.0148ZM66.8172 72.9724C66.4254 73.0868 67.4244 71.7249 66.3566 72.5611C66.328 72.5835 66.2717 72.6179 66.2589 72.6079C65.5551 72.0616 64.9355 72.0923 64.2914 72.76C64.1224 72.9352 62.8111 71.4656 62.7829 71.0315C62.7406 70.3762 62.9063 69.7558 63.1946 69.1821C64.8216 65.9422 67.1105 63.2503 70.0024 61.072C71.419 60.0046 72.9051 60.121 74.3884 60.9159C75.1849 61.3429 75.1812 61.8561 74.5189 62.4952C73.8218 63.1675 73.1586 63.8803 72.5344 64.6209C71.8141 65.4754 71.2111 66.4136 70.4183 67.2266C69.377 68.294 69.0183 69.8079 68.2611 71.0754C67.8424 71.775 67.4737 72.4849 66.8172 72.9724Z" fill="#3734A9"/>
<path fill-rule="evenodd" clip-rule="evenodd" d="M99.8199 74.9196C99.6542 75.4849 99.5544 75.825 99.4024 76.3436C99.6551 76.1481 99.8092 76.0888 99.8555 75.9824C100.232 75.1209 100.925 75.3437 101.471 75.6225C102.055 75.9207 102.206 76.5942 101.973 77.1749C101.591 78.1226 101.151 79.0612 100.613 79.9281C99.8713 81.1243 99.0321 82.2803 98.5268 83.5867C97.9987 84.9511 97.2287 86.2786 97.558 87.8828C97.7137 88.64 97.0812 89.0848 96.3895 88.775C96.0138 88.606 95.6758 88.6251 95.3043 88.6437C92.95 88.7613 91.7343 87.0917 92.6489 84.8438C93.9383 81.6756 96.0192 78.9974 98.1863 76.3925C98.6005 75.8946 98.8859 75.2323 99.8199 74.9196Z" fill="#3734A9"/>
<path fill-rule="evenodd" clip-rule="evenodd" d="M13.9963 124.399C13.9822 125.245 14.6958 125.656 14.7944 126.331C13.7515 126.473 13.0941 125.908 12.8659 124.743C12.6182 123.478 13.0138 122.313 13.6293 121.305C14.939 119.159 16.0321 116.89 17.8616 115.036C18.5773 114.312 19.0723 113.139 19.7686 112.262C21.753 109.761 23.8244 107.329 25.8706 104.877C26.2815 104.384 26.769 103.971 27.3315 103.65C27.6193 103.485 27.9031 103.448 28.171 103.663C28.4589 103.895 28.427 104.191 28.2663 104.476C28.0273 104.901 27.8128 105.349 27.5141 105.729C24.7493 109.241 21.9096 112.697 19.2226 116.268C18.176 117.66 17.3587 119.258 16.7954 120.928C16.5353 121.7 16.8141 122.547 16.9023 123.358C16.9259 123.579 17.2345 123.88 16.8435 124.046C16.0925 124.365 15.4634 124.68 16.124 125.658C16.2744 125.881 15.9326 125.998 15.6949 126.004C15.2699 126.014 14.7808 126.007 14.7306 125.479C14.6851 124.994 14.4105 124.748 13.9963 124.399Z" fill="#3734A9"/>
<path fill-rule="evenodd" clip-rule="evenodd" d="M31.9994 66.7095C31.7559 66.5368 31.6192 66.5037 31.5127 66.7625C31.125 67.7057 30.8019 68.6886 30.2958 69.5646C29.9897 70.094 30.0556 71.1858 28.8834 70.8673C28.697 70.8167 28.7351 71.0516 28.8196 71.1846C29.0172 71.4952 28.8946 71.723 28.6804 71.9844C28.3151 72.4296 28.2144 72.9238 28.3093 73.5343C28.4853 74.6618 27.7008 75.2114 26.6695 74.7488C26.5456 74.6928 26.3257 74.5048 26.3145 74.5827C26.0511 76.4201 25.0553 73.9837 24.649 74.8738C24.3441 74.6203 24.2008 74.2977 24.166 73.8992C24.0865 72.9859 24.4601 72.2134 24.8838 71.455C26.4893 68.5817 28.7889 66.2883 31.1474 64.0561C31.7153 63.5181 32.571 63.4891 33.307 63.2725C33.739 63.1453 33.9938 63.5032 34.1574 63.8453C34.3815 64.3142 34.1346 64.3631 33.7511 64.238C33.7001 65.0792 33.1501 65.6616 32.6986 66.3003C32.4998 66.5815 32.3709 66.9216 31.9994 66.7095Z" fill="#3734A9"/>
<path fill-rule="evenodd" clip-rule="evenodd" d="M65.5739 20.5227C65.4811 20.4539 65.3887 20.3852 65.2964 20.3164C64.7637 21.1602 64.2261 22.0006 63.7063 22.8522C63.6458 22.9516 63.5273 23.1309 63.7071 23.2395C63.8322 23.3148 64.0467 23.3364 64.0894 23.1782C64.3599 22.1696 65.3063 21.528 65.5739 20.5227ZM61.6485 30.7642C61.3192 31.2402 61.5541 32.0537 60.5165 32.1191C59.7664 32.1667 59.9018 31.8043 59.9014 31.4183C59.2565 31.4763 59.5145 32.2425 58.9434 32.3945C58.7081 31.3578 59.0904 30.3654 59.044 29.3692C59.051 29.3398 59.0556 29.3075 59.0585 29.2727C59.8596 28.5851 60.0443 27.5563 60.4883 26.6724C60.6714 26.307 60.7356 25.8713 60.9605 25.5403C62.7706 22.8774 64.2435 20.0021 66.1931 17.422C67.7211 15.3999 69.0743 13.2468 70.7063 11.2989C71.0815 10.8511 71.4133 10.3603 72.2185 9.89099C71.5972 11.016 71.1242 11.8717 70.6516 12.7274C70.6632 12.6935 70.6735 12.6587 70.6826 12.6226C69.4371 13.6089 68.9297 15.1315 67.8632 16.268C68.2277 16.5766 68.337 16.2548 68.5122 16.2183C68.8121 16.1566 68.9973 16.3447 69.1132 16.6027C69.1704 16.729 69.2843 16.9154 69.0826 16.9672C68.1879 17.1971 68.4025 17.9393 68.3764 18.5279C68.3474 19.1786 67.9936 19.5361 67.485 19.8268C66.7013 20.2746 66.2354 20.9096 66.3194 21.8577C66.1819 22.0611 66.0448 22.2648 65.9073 22.4682C65.0507 22.8882 63.8255 24.9339 63.9125 25.7984C63.4238 25.8237 63.2307 26.7498 62.5655 26.242C62.3684 25.6944 62.2565 25.4351 61.7446 26.1169C61.0976 26.9776 61.2016 28.1498 60.4212 28.919C60.3052 29.0329 60.3131 29.201 60.4722 29.2984C60.6789 29.4251 60.8706 29.3324 60.9021 29.1294C61.0396 28.2521 61.74 27.6354 61.9521 26.8008C62.042 26.4487 62.1368 26.1405 62.597 26.2101C62.8766 27.8358 61.6249 28.9463 61.1958 30.3343C61.139 30.5182 60.4494 30.0228 60.6996 30.6416C60.8213 30.9436 61.2807 31.0935 61.6485 30.7642Z" fill="#3734A9"/>
<path fill-rule="evenodd" clip-rule="evenodd" d="M87.2677 105.856C87.0383 106.488 87.216 107.059 87.4181 107.607C87.5245 107.895 87.6049 108.114 87.2595 108.233C86.9442 108.343 86.7504 108.121 86.6386 107.88C86.3532 107.267 86.424 106.584 86.5934 106C87.2392 103.769 88.4499 101.832 89.9431 100.067C90.3863 99.543 90.9115 99.0687 91.2586 98.4876C91.8894 97.4314 92.963 97.1303 93.9865 96.7964C94.4645 96.6403 94.556 97.2815 94.6542 97.6265C94.7101 97.8241 94.5647 98.2072 94.3887 98.3223C92.6876 99.4349 92.4138 101.508 91.2598 102.999C90.8796 103.49 91.054 104.486 90.5627 105.138C90.1746 105.653 89.9654 106.297 89.2439 106.543C88.8276 106.684 89.1428 107.22 88.9548 107.539C88.8583 107.702 88.799 107.899 88.5936 107.926C88.389 107.952 88.1309 107.777 88.1678 107.646C88.4159 106.767 87.3775 106.543 87.2677 105.856Z" fill="#3734A9"/>
<path fill-rule="evenodd" clip-rule="evenodd" d="M44.4693 83.1745C44.4175 83.2958 44.3657 83.4168 44.3148 83.5369C42.8208 84.8537 41.6154 86.4413 40.4457 88.0215C38.8366 90.1952 37.3815 92.4911 35.9802 94.8073C34.7944 96.7677 33.2817 98.5293 32.45 100.713C32.1124 101.599 31.5524 102.408 30.5749 103.013C30.3446 101.679 31.1946 100.824 31.6846 99.8834C32.9752 97.4044 34.6055 95.1329 36.2089 92.8531C39.1017 88.7405 41.8192 84.4883 45.4244 80.9241C45.6307 80.7203 45.7956 80.4399 46.2918 80.5915C45.9679 81.6709 44.9324 82.2376 44.4693 83.1745Z" fill="#3734A9"/>
<path fill-rule="evenodd" clip-rule="evenodd" d="M88.2517 67.4278C87.8081 67.7529 88.3308 68.631 87.6515 68.4881C87.0725 68.3659 87.2816 67.6597 87.427 67.2116C88.3296 64.4364 90.1086 62.3828 92.6845 61.0379C93.0747 60.8341 93.6409 60.523 94.0016 61.1C94.3222 61.6116 93.8264 61.9226 93.5435 62.2428C92.3577 63.5865 91.2327 64.9583 90.9366 66.8102C90.8624 67.2753 90.4851 67.4431 90.1007 67.6005C89.9665 67.6556 89.8315 67.7455 89.7362 67.8536C88.9836 68.7093 88.4157 68.7996 88.2517 67.4278Z" fill="#3734A9"/>
<path fill-rule="evenodd" clip-rule="evenodd" d="M65.0269 17.631C64.9027 19.0132 63.721 19.7761 63.0785 20.8522C62.6026 21.6491 62.2145 22.5533 61.454 23.1862C61.2647 23.3436 61.1889 23.6907 60.8766 23.5151C60.6281 23.3751 60.5776 23.0918 60.7453 22.8255C61.7556 21.2238 62.7381 19.6026 63.945 18.1359C64.23 17.7896 64.6794 17.7991 65.0592 17.6583L65.0269 17.631Z" fill="#3734A9"/>
<path fill-rule="evenodd" clip-rule="evenodd" d="M65.0592 17.6584C64.918 17.3523 64.754 17.0678 65.0108 16.7186C66.4659 14.7383 67.8907 12.7348 69.5773 10.9376C69.7078 10.7984 69.7799 10.4687 70.0748 10.675C70.2616 10.8059 70.2152 11.0084 70.0872 11.1704C68.4383 13.2551 66.8382 15.3754 65.3405 17.5723C65.2982 17.634 65.1342 17.6133 65.0269 17.6311L65.0592 17.6584Z" fill="#3734A9"/>
<path fill-rule="evenodd" clip-rule="evenodd" d="M59.0584 29.2725C59.0559 29.3072 59.051 29.34 59.0443 29.3694C58.8451 29.8735 58.4102 30.2814 58.4475 30.8837C58.4607 31.0983 58.4893 31.4031 58.1625 31.3749C57.8705 31.3497 57.9098 31.0784 57.9355 30.8472C58.1646 28.7924 58.8629 26.8709 59.6412 24.9784C59.775 24.6537 60.1664 24.3049 60.5239 24.4714C60.9472 24.6686 60.6274 25.0869 60.4775 25.3322C59.7315 26.552 59.4063 27.9143 59.0584 29.2725Z" fill="#3734A9"/>
<path fill-rule="evenodd" clip-rule="evenodd" d="M70.6834 12.6228C70.6743 12.6584 70.664 12.6932 70.652 12.7272C71.1283 12.243 71.9571 12.0996 72.0375 11.2066C72.0507 11.0592 72.426 10.5199 72.8054 10.8525C73.1662 11.1685 72.781 11.5024 72.5722 11.6999C71.6286 12.5934 70.8798 13.6028 70.4511 14.958C70.0886 14.5347 69.5473 14.2585 70.268 13.7444C70.6553 13.4682 70.5004 12.9806 70.6834 12.6228Z" fill="#3734A9"/>
<path fill-rule="evenodd" clip-rule="evenodd" d="M65.9074 22.4683C66.0449 22.2649 66.1825 22.0612 66.3196 21.8578C66.4848 21.7277 66.6501 21.5981 66.8149 21.468C66.8733 21.5082 66.9309 21.5484 66.9889 21.5886C66.6091 22.2666 66.2288 22.9442 65.849 23.6223C65.7678 23.5958 65.6867 23.5688 65.6055 23.5419C65.7061 23.1845 65.8068 22.8262 65.9074 22.4683Z" fill="#3734A9"/>
<path fill-rule="evenodd" clip-rule="evenodd" d="M62.089 30.1792C61.8679 29.4009 62.4349 28.8844 62.7323 28.2842C63.0239 27.6956 63.3635 27.1307 63.6825 26.5549C63.7951 26.8478 63.7686 27.1071 63.6054 27.3937C63.0823 28.3124 62.5919 29.2493 62.089 30.1792Z" fill="#3734A9"/>
</svg>
