<svg width="102" height="127" viewBox="0 0 102 127" fill="none" xmlns="http://www.w3.org/2000/svg">
<path fill-rule="evenodd" clip-rule="evenodd" d="M15.2596 24.3527C19.4505 15.9652 24.5878 8.18978 30.0172 0.622322C30.6376 0.78179 30.0925 1.16824 30.3137 1.4122C30.6654 1.57457 31.0568 0.727115 31.5091 1.48096C31.925 2.17351 31.6785 2.69416 31.3857 3.23138C29.8444 6.05913 27.6185 8.44741 26.2753 11.4297C25.8155 12.4494 25.6146 13.6982 24.4809 14.4927C23.783 14.9814 23.9474 16.2174 23.3307 17.0313C22.9447 17.5412 22.7301 18.2545 22.3006 18.8298C20.5891 21.1203 19.6029 23.7111 19.3217 26.5588C19.2711 27.0716 19.0574 27.5359 18.5819 27.5516C17.2854 27.5951 15.9977 28.1323 14.7269 26.9978C13.8045 26.174 13.7188 25.428 13.9797 24.4347C14.6089 22.0419 15.8569 19.9303 17.0817 17.8204C18.5144 15.3526 20.1414 13.0011 21.659 10.588C23.7002 7.34232 25.9853 4.27723 28.1528 1.12641C28.3591 0.826938 28.5567 0.207707 29.009 0.480251C29.3495 0.685281 28.9908 1.1757 28.7965 1.47392C27.5713 3.35439 26.2595 5.17108 24.9159 6.97203C23.6281 8.698 22.5487 10.5888 21.4734 12.4618C19.7359 15.4897 17.8214 18.416 16.2491 21.5382C15.8009 22.4284 15.3573 23.3301 15.2596 24.3527Z" fill="#FFA051"/>
<path fill-rule="evenodd" clip-rule="evenodd" d="M8.636 60.5499C7.84861 61.1828 7.27908 60.1978 7.03014 59.9978C6.35665 59.4568 5.30085 60.0147 5.03784 59.3744C4.63979 58.4047 3.78115 57.5842 4.13736 56.2853C4.82577 53.7727 5.86914 51.4076 6.8392 49.009C7.54251 47.2702 8.21269 45.5144 9.23991 43.9247C9.69801 43.216 10.2245 42.591 11.0019 42.2347C11.7993 41.869 12.4993 41.8429 13.2672 42.5002C13.8355 42.9865 14.5682 43.3059 15.0942 43.8775C15.595 44.4209 15.9926 44.9896 15.402 45.7302C14.9874 46.2496 15.0623 46.9305 14.8536 47.5228C14.0144 49.9028 13.6951 52.4659 12.3489 54.6666C11.3507 56.2989 10.613 58.0556 9.8434 59.7985C9.62304 60.2976 9.40973 60.9007 8.636 60.5499Z" fill="#FFA051"/>
<path fill-rule="evenodd" clip-rule="evenodd" d="M58.2784 42.7256C58.0933 43.1431 57.974 43.4115 57.8588 43.6708C57.9955 43.8493 58.1218 43.7429 58.2577 43.7048C58.5365 43.6261 58.6321 43.0922 58.9697 43.3055C59.3781 43.5635 58.8529 43.8725 58.8844 44.1782C59.3313 44.2822 59.4502 43.73 59.8147 43.7147C60.3797 44.5837 60.0831 45.2833 59.5571 46.0628C58.1276 48.181 56.8888 50.4074 56.0546 52.8437C55.7398 53.7636 54.5614 54.213 54.5386 55.2809C54.5096 56.6353 53.8775 57.8112 53.1672 58.7796C51.9403 60.4522 51.6781 62.42 50.9479 64.238C50.7424 64.7495 51.0241 65.3795 50.5188 65.7987C50.3556 65.9341 50.0992 66.2427 49.9927 65.9826C49.6274 65.0937 48.9154 65.522 48.326 65.3745C47.2321 65.1007 47.0167 64.028 46.9098 63.0844C46.7417 61.5974 47.1708 60.1593 47.7743 58.8339C50.0839 53.7587 52.77 48.8897 56.0931 44.3985C56.5992 43.7143 57.0532 42.8556 58.2784 42.7256Z" fill="#FFA051"/>
<path fill-rule="evenodd" clip-rule="evenodd" d="M42.9744 22.5735C42.7209 23.3634 42.4762 24.1901 42.1912 25.0032C40.3865 30.1575 38.0454 35.0704 35.5097 39.8983C34.5376 41.7489 33.4172 43.525 32.6815 45.4999C32.4711 46.0657 32.093 46.5122 31.4182 45.9104C31.2592 45.7683 31.0231 45.7041 30.8127 45.6296C29.4131 45.1342 28.8663 44.0614 29.3054 42.6055C29.7552 41.1119 30.5873 39.8038 31.3938 38.4925C34.806 32.9459 38.0156 27.295 40.4656 21.2427C40.7763 20.4756 40.8662 20.4764 41.4108 21.0604C41.4701 21.1238 41.5902 21.1698 41.6763 21.1619C42.6924 21.0712 42.7847 21.8159 42.9744 22.5735Z" fill="#FFA051"/>
<path fill-rule="evenodd" clip-rule="evenodd" d="M8.76018 80.4629C7.82989 82.7522 6.30894 84.5043 5.42255 86.5773C4.52663 88.6728 3.44184 90.6928 2.87936 92.9295C3.69492 91.1364 4.50592 89.3409 5.32687 87.5499C6.26959 85.495 7.46498 83.586 8.64007 81.6591C9.22989 80.6924 9.8922 80.7416 10.5562 81.2739C11.2044 81.7941 11.339 82.6702 10.7285 83.2807C9.48462 84.5245 8.78504 86.1138 8.33066 87.675C7.53953 90.3938 6.14865 92.9138 5.72947 95.7531C5.63296 96.4076 5.15953 96.9655 5.0622 97.6945C4.95285 98.5146 4.91018 99.2171 5.31693 99.9813C5.55261 100.425 6.13415 101.009 5.61764 101.505C5.19515 101.91 4.57634 102.208 3.8722 101.838C3.60338 101.697 3.21154 101.79 2.87563 101.778C0.911485 101.712 -0.247864 100.432 0.0449764 98.4508C0.437639 95.7941 1.43545 93.3093 2.48918 90.8556C3.86971 87.6402 5.37078 84.4869 7.41403 81.6231C7.71557 81.2006 7.96823 80.7338 8.76018 80.4629Z" fill="#FFA051"/>
<path fill-rule="evenodd" clip-rule="evenodd" d="M62.3141 105.517C59.6541 105.512 58.8526 104.347 59.7527 102.142C60.4564 100.417 61.6534 98.9953 62.8091 97.5713C65.5067 94.2477 68.3146 91.0194 71.3039 87.9481C72.035 87.1968 72.9226 86.9279 73.8338 86.6492C74.152 86.5523 74.8611 86.3609 74.8341 86.638C74.7778 87.2046 75.3465 87.7195 74.8346 88.3259C72.5482 91.0335 70.5078 93.9321 68.3937 96.7735C67.4618 98.0265 66.4304 99.2078 65.5328 100.484C64.926 101.347 64.3056 102.28 64.9211 103.442C64.9948 103.581 64.9567 103.945 64.8912 103.967C63.8408 104.317 63.2059 105.436 62.3141 105.517Z" fill="#FFA051"/>
<path fill-rule="evenodd" clip-rule="evenodd" d="M89.5052 45.2851C90.8713 43.7505 91.7212 41.8841 93.0682 40.359C93.465 39.91 93.9405 39.5203 94.2797 39.0332C94.8397 38.2284 95.4159 38.8418 95.7862 39.0953C96.1457 39.3409 96.3143 39.9117 95.9286 40.4518C94.3539 42.6574 93.0872 45.0718 92.0236 47.5288C91.2656 49.2805 90.0072 50.8147 89.7446 52.853C89.6448 53.6246 89.1175 54.5152 88.8251 55.3792C88.4341 56.5344 87.631 55.578 87.0113 55.5358C86.9136 55.5291 86.827 55.2417 86.7375 55.2433C86.356 55.2487 86.1315 56.22 85.6846 55.5461C85.0782 54.6316 84.4308 53.7688 84.855 52.4168C85.5289 50.2709 86.564 48.3349 87.6968 46.4349C89.2327 43.859 90.6492 41.1924 92.835 39.0667C92.9961 38.9101 93.144 38.7382 93.3163 38.5949C93.494 38.4471 93.733 38.3207 93.9235 38.5026C94.1658 38.7341 94.0374 39.0141 93.8253 39.1881C91.9718 40.7057 91.0485 42.8948 89.7496 44.8117C89.651 44.9575 89.586 45.1269 89.5052 45.2851Z" fill="#FFA051"/>
<path fill-rule="evenodd" clip-rule="evenodd" d="M43.7832 83.4085C44.3548 82.8692 45.0001 82.3879 45.4785 81.7762C46.0369 81.0625 46.6586 80.9059 47.4452 81.217C47.9128 81.4025 47.8134 81.893 47.7682 82.2057C47.6519 83.0105 47.1755 83.6305 46.3976 83.9172C46.2117 83.9855 45.9317 83.8447 45.9321 84.181C45.9362 85.8241 44.4952 86.6989 43.876 88.0153C43.6859 88.4187 43.3317 88.8018 43.0824 89.2156C42.3542 90.4239 41.7586 91.7365 40.2153 92.1991C39.8558 92.3068 39.2858 92.6286 39.4801 93.175C40.0728 94.8413 38.9056 95.9543 38.2433 97.1898C37.1547 99.2198 35.7738 101.085 34.7644 103.164C34.6505 103.399 34.5801 103.732 34.2529 103.651C33.844 103.549 34.3858 103.186 34.1021 102.972C33.5926 103.244 33.1453 103.977 32.4349 103.112C32.1814 102.803 31.8091 103.325 31.6268 103.653C31.4881 103.902 31.3356 104.136 31.0229 103.953C30.6448 103.731 30.9707 103.5 31.0705 103.296C32.8897 99.5889 35.1368 96.1411 37.4687 92.7446C39.5223 89.7533 41.5755 86.7615 43.6287 83.771C43.6797 83.6508 43.7314 83.5299 43.7832 83.4085Z" fill="#FFA051"/>
<path fill-rule="evenodd" clip-rule="evenodd" d="M63.6666 70.2485C64.9258 68.3001 66.1945 66.3542 67.5957 64.4969C65.9973 65.6956 64.0704 68.4774 63.6666 70.2485ZM66.1307 73.2062C65.7389 73.3205 66.7379 71.9586 65.6701 72.7949C65.6415 72.8173 65.5852 72.8517 65.5724 72.8417C64.8686 72.2954 64.249 72.326 63.6049 72.9937C63.4359 73.1689 62.1245 71.6993 62.0964 71.2653C62.0541 70.61 62.2198 69.9895 62.5081 69.4159C64.1351 66.176 66.4239 63.4841 69.3159 61.3058C70.7325 60.2384 72.2186 60.3548 73.7019 61.1496C74.4984 61.5767 74.4947 62.0899 73.8324 62.729C73.1353 63.4012 72.4721 64.1141 71.8479 64.8547C71.1276 65.7092 70.5245 66.6473 69.7318 67.4604C68.6905 68.5278 68.3318 70.0417 67.5746 71.3092C67.1558 72.0088 66.7872 72.7187 66.1307 73.2062Z" fill="#FFA051"/>
<path fill-rule="evenodd" clip-rule="evenodd" d="M99.1334 75.1533C98.9677 75.7187 98.8679 76.0588 98.7159 76.5773C98.9685 76.3818 99.1226 76.3226 99.169 76.2162C99.5459 75.3546 100.238 75.5775 100.784 75.8562C101.368 76.1544 101.52 76.8279 101.286 77.4086C100.905 78.3563 100.464 79.2949 99.9266 80.1618C99.1848 81.3581 98.3456 82.5141 97.8403 83.8205C97.3122 85.1849 96.5422 86.5124 96.8714 88.1166C97.0272 88.8737 96.3947 89.3186 95.703 89.0088C95.3273 88.8398 94.9893 88.8588 94.6178 88.8775C92.2635 88.9951 91.0478 87.3254 91.9623 85.0776C93.2517 81.9094 95.3327 79.2311 97.4998 76.6262C97.914 76.1283 98.1994 75.466 99.1334 75.1533Z" fill="#FFA051"/>
<path fill-rule="evenodd" clip-rule="evenodd" d="M13.3097 124.633C13.2956 125.479 14.0093 125.889 14.1079 126.565C13.0649 126.707 12.4076 126.141 12.1794 124.977C11.9317 123.712 12.3272 122.547 12.9427 121.538C14.2525 119.393 15.3455 117.123 17.1751 115.27C17.8908 114.545 18.3858 113.372 19.082 112.495C21.0665 109.994 23.1379 107.562 25.1841 105.111C25.5949 104.618 26.0825 104.204 26.6449 103.883C26.9328 103.719 27.2165 103.682 27.4845 103.897C27.7724 104.129 27.7405 104.424 27.5798 104.71C27.3408 105.134 27.1262 105.582 26.8276 105.962C24.0628 109.475 21.223 112.931 18.5361 116.502C17.4894 117.893 16.6722 119.492 16.1089 121.162C15.8488 121.934 16.1275 122.78 16.2158 123.592C16.2394 123.813 16.548 124.114 16.1569 124.279C15.406 124.598 14.7768 124.914 15.4375 125.892C15.5878 126.114 15.2461 126.232 15.0084 126.237C14.5834 126.247 14.0942 126.241 14.0441 125.713C13.9985 125.228 13.7239 124.981 13.3097 124.633Z" fill="#FFA051"/>
<path fill-rule="evenodd" clip-rule="evenodd" d="M31.3129 66.9433C31.0693 66.7706 30.9326 66.7374 30.8262 66.9963C30.4385 67.9394 30.1154 68.9223 29.6093 69.7984C29.3032 70.3277 29.369 71.4196 28.1968 71.101C28.0105 71.0505 28.0486 71.2854 28.1331 71.4183C28.3306 71.729 28.208 71.9568 27.9939 72.2181C27.6286 72.6634 27.5279 73.1575 27.6228 73.7681C27.7988 74.8955 27.0143 75.4452 25.9829 74.9825C25.8591 74.9266 25.6392 74.7386 25.628 74.8164C25.3645 76.6538 24.3688 74.2175 23.9625 75.1076C23.6576 74.8541 23.5143 74.5315 23.4795 74.133C23.4 73.2197 23.7736 72.4472 24.1973 71.6888C25.8028 68.8155 28.1024 66.522 30.4609 64.2899C31.0287 63.7519 31.8845 63.7229 32.6205 63.5062C33.0525 63.3791 33.3073 63.737 33.4709 64.0791C33.695 64.548 33.4481 64.5968 33.0645 64.4717C33.0136 65.313 32.4635 65.8954 32.0121 66.5341C31.8132 66.8153 31.6844 67.1554 31.3129 66.9433Z" fill="#FFA051"/>
<path fill-rule="evenodd" clip-rule="evenodd" d="M64.8874 20.7567C64.7946 20.688 64.7022 20.6192 64.6098 20.5504C64.0772 21.3942 63.5395 22.2346 63.0197 23.0862C62.9593 23.1856 62.8408 23.3649 63.0206 23.4735C63.1456 23.5488 63.3602 23.5704 63.4029 23.4122C63.6733 22.4036 64.6198 21.762 64.8874 20.7567ZM60.962 30.9983C60.6327 31.4742 60.8675 32.2877 59.83 32.3531C59.0798 32.4007 59.2153 32.0383 59.2149 31.6523C58.57 31.7103 58.828 32.4765 58.2568 32.6285C58.0216 31.5918 58.4039 30.5994 58.3575 29.6032C58.3645 29.5738 58.3691 29.5415 58.372 29.5067C59.173 28.8191 59.3578 27.7903 59.8018 26.9064C59.9849 26.541 60.0491 26.1053 60.274 25.7743C62.084 23.1115 63.5569 20.2361 65.5066 17.656C67.0346 15.6339 68.3878 13.4809 70.0197 11.5329C70.395 11.0851 70.7268 10.5943 71.532 10.125C70.9107 11.25 70.4377 12.1057 69.9651 12.9614C69.9767 12.9275 69.987 12.8927 69.9961 12.8567C68.7506 13.8429 68.2432 15.3655 67.1767 16.502C67.5411 16.8106 67.6505 16.4888 67.8257 16.4523C68.1256 16.3906 68.3107 16.5787 68.4267 16.8367C68.4839 16.963 68.5978 17.1494 68.3961 17.2012C67.5014 17.4311 67.7159 18.1733 67.6898 18.7619C67.6609 19.4126 67.3071 19.7701 66.7985 20.0609C66.0148 20.5086 65.5488 21.1436 65.6329 22.0917C65.4954 22.2951 65.3583 22.4988 65.2208 22.7022C64.3642 23.1222 63.139 25.168 63.226 26.0324C62.7372 26.0577 62.5442 26.9838 61.879 26.476C61.6819 25.9284 61.57 25.6691 61.0581 26.3509C60.4111 27.2116 60.5151 28.3838 59.7347 29.153C59.6187 29.2669 59.6266 29.4351 59.7856 29.5324C59.9923 29.6591 60.1841 29.5664 60.2156 29.3634C60.3531 28.4861 61.0535 27.8694 61.2656 27.0348C61.3555 26.6827 61.4503 26.3745 61.9105 26.4441C62.1901 28.0699 60.9384 29.1803 60.5093 30.5683C60.4525 30.7522 59.7629 30.2568 60.013 30.8757C60.1348 31.1776 60.5942 31.3275 60.962 30.9983Z" fill="#FFA051"/>
<path fill-rule="evenodd" clip-rule="evenodd" d="M86.5812 106.09C86.3517 106.722 86.5294 107.293 86.7316 107.841C86.838 108.129 86.9184 108.348 86.5729 108.467C86.2577 108.577 86.0639 108.355 85.952 108.114C85.6667 107.501 85.7375 106.818 85.9069 106.234C86.5526 104.003 87.7633 102.066 89.2565 100.301C89.6997 99.777 90.2249 99.3027 90.572 98.7216C91.2029 97.6654 92.2765 97.3643 93.3 97.0304C93.778 96.8743 93.8695 97.5155 93.9677 97.8605C94.0236 98.0581 93.8782 98.4412 93.7022 98.5563C92.001 99.6689 91.7273 101.742 90.5733 103.233C90.1931 103.724 90.3674 104.72 89.8762 105.372C89.4881 105.887 89.2789 106.531 88.5574 106.777C88.1411 106.918 88.4563 107.454 88.2683 107.773C88.1717 107.936 88.1125 108.133 87.9071 108.16C87.7025 108.186 87.4444 108.011 87.4813 107.88C87.7294 107.001 86.691 106.777 86.5812 106.09Z" fill="#FFA051"/>
<path fill-rule="evenodd" clip-rule="evenodd" d="M43.7828 83.4084C43.731 83.5297 43.6792 83.6507 43.6283 83.7708C42.1343 85.0875 40.9289 86.6752 39.7592 88.2554C38.1501 90.4291 36.695 92.725 35.2937 95.0412C34.1079 97.0016 32.5952 98.7632 31.7635 100.947C31.4259 101.833 30.8659 102.642 29.8884 103.247C29.6581 101.913 30.508 101.058 30.998 100.117C32.2887 97.6383 33.919 95.3668 35.5224 93.087C38.4151 88.9744 41.1327 84.7222 44.7379 81.158C44.9442 80.9542 45.109 80.6738 45.6053 80.8254C45.2814 81.9048 44.2458 82.4715 43.7828 83.4084Z" fill="#FFA051"/>
<path fill-rule="evenodd" clip-rule="evenodd" d="M87.5652 67.6615C87.1216 67.9867 87.6443 68.8648 86.965 68.7219C86.3859 68.5997 86.5951 67.8935 86.7405 67.4453C87.643 64.6702 89.422 62.6166 91.998 61.2717C92.3881 61.0679 92.9543 60.7568 93.3151 61.3338C93.6357 61.8453 93.1399 62.1564 92.857 62.4766C91.6712 63.8202 90.5462 65.1921 90.25 67.044C90.1759 67.5091 89.7985 67.6769 89.4142 67.8343C89.28 67.8893 89.1449 67.9792 89.0497 68.0873C88.2971 68.9431 87.7292 69.0334 87.5652 67.6615Z" fill="#FFA051"/>
<path fill-rule="evenodd" clip-rule="evenodd" d="M64.3404 17.8647C64.2161 19.2469 63.0344 20.0099 62.392 21.086C61.9161 21.8829 61.528 22.7871 60.7675 23.42C60.5782 23.5774 60.5024 23.9245 60.1901 23.7489C59.9416 23.6089 59.8911 23.3256 60.0588 23.0592C61.069 21.4575 62.0515 19.8363 63.2585 18.3697C63.5435 18.0234 63.9929 18.0329 64.3727 17.8921L64.3404 17.8647Z" fill="#FFA051"/>
<path fill-rule="evenodd" clip-rule="evenodd" d="M64.3727 17.8923C64.2315 17.5862 64.0674 17.3017 64.3243 16.9525C65.7793 14.9722 67.2042 12.9687 68.8908 11.1715C69.0213 11.0323 69.0934 10.7026 69.3883 10.9089C69.5751 11.0398 69.5287 11.2423 69.4007 11.4043C67.7518 13.4889 66.1517 15.6092 64.654 17.8062C64.6117 17.8679 64.4477 17.8472 64.3404 17.865L64.3727 17.8923Z" fill="#FFA051"/>
<path fill-rule="evenodd" clip-rule="evenodd" d="M58.3719 29.5066C58.3694 29.5414 58.3644 29.5741 58.3578 29.6035C58.1586 30.1076 57.7237 30.5156 57.761 31.1178C57.7742 31.3324 57.8028 31.6372 57.476 31.6091C57.184 31.5838 57.2233 31.3125 57.249 31.0814C57.4781 29.0265 58.1764 27.105 58.9547 25.2126C59.0885 24.8878 59.4799 24.5391 59.8373 24.7056C60.2607 24.9027 59.9409 25.3211 59.791 25.5663C59.045 26.7861 58.7198 28.1484 58.3719 29.5066Z" fill="#FFA051"/>
<path fill-rule="evenodd" clip-rule="evenodd" d="M69.9969 12.8568C69.9878 12.8924 69.9774 12.9272 69.9654 12.9612C70.4418 12.477 71.2706 12.3336 71.3509 11.4406C71.3642 11.2932 71.7395 10.7539 72.1189 11.0865C72.4796 11.4025 72.0944 11.7364 71.8857 11.9339C70.9421 12.8274 70.1932 13.8368 69.7645 15.192C69.4021 14.7687 68.8608 14.4925 69.5815 13.9784C69.9687 13.7022 69.8138 13.2147 69.9969 12.8568Z" fill="#FFA051"/>
<path fill-rule="evenodd" clip-rule="evenodd" d="M65.2209 22.702C65.3584 22.4986 65.4959 22.2948 65.633 22.0914C65.7983 21.9614 65.9636 21.8317 66.1284 21.7017C66.1868 21.7418 66.2444 21.782 66.3024 21.8222C65.9226 22.5002 65.5423 23.1779 65.1625 23.8559C65.0813 23.8294 65.0001 23.8025 64.9189 23.7756C65.0196 23.4181 65.1202 23.0598 65.2209 22.702Z" fill="#FFA051"/>
<path fill-rule="evenodd" clip-rule="evenodd" d="M61.4025 30.4128C61.1813 29.6346 61.7484 29.118 62.0458 28.5179C62.3374 27.9293 62.677 27.3643 62.996 26.7886C63.1086 27.0814 63.0821 27.3407 62.9189 27.6273C62.3958 28.546 61.9054 29.483 61.4025 30.4128Z" fill="#FFA051"/>
</svg>
