<svg width="321" height="132" viewBox="0 0 321 132" fill="none" xmlns="http://www.w3.org/2000/svg">
<path d="M18.341 81.9354L0.655273 94.3811V131.924L320.251 131.924V2.35063C315.669 2.15676 301.082 1.21502 286.248 3.81352C273.374 6.0688 260.314 11.6059 253.449 14.9833C234.981 24.0691 238.142 37.4015 228.365 46.0923C218.587 54.7831 207.921 56.857 195.873 53.203C183.824 49.5489 185.997 45.401 174.64 38.1916C163.282 30.9822 151.135 30.3896 140.173 32.0685C129.316 33.7313 123.972 38.2375 115.954 44.9989L115.719 45.1965C107.57 52.0676 98.9107 71.2365 82.644 76.04C66.3772 80.8436 63.8663 73.5291 48.4729 71.2364C36.1582 69.4023 23.2538 77.6049 18.341 81.9354Z" fill="url(#paint0_linear_16_468)"/>
<path d="M0.700195 94.3466L18.3859 81.9009C23.2987 77.5703 36.2031 69.3678 48.5178 71.2019C63.9112 73.4946 66.4222 80.8091 82.6889 76.0055C98.9557 71.2019 107.615 52.0331 115.764 45.162C123.914 38.2908 129.255 33.7129 140.218 32.034C151.18 30.3551 163.327 30.9477 174.685 38.1571C186.042 45.3665 183.869 49.5144 195.918 53.1684C207.966 56.8225 218.632 54.7486 228.409 46.0578C238.187 37.367 235.026 24.0346 253.494 14.9487C262.706 9.28727 289.028 -1.2313 320.618 1.9862" stroke="#0177FB" stroke-width="1.4625"/>
<circle cx="57.2146" cy="72.6822" r="8.04375" fill="white"/>
<path fill-rule="evenodd" clip-rule="evenodd" d="M57.759 71.1182L59.1971 72.6081C59.4075 72.826 59.7547 72.8322 59.9726 72.6218C60.1905 72.4115 60.1967 72.0643 59.9863 71.8464L57.8966 69.6812C57.5372 69.3089 56.9406 69.3089 56.5812 69.6812L54.4429 71.8964C54.2325 72.1143 54.2387 72.4615 54.4566 72.6719C54.6745 72.8822 55.0217 72.8761 55.2321 72.6582L56.669 71.1696V75.9635H57.759V71.1182Z" fill="#A5B4CB"/>
<circle cx="148.885" cy="30.3687" r="8.04375" transform="rotate(-180 148.885 30.3687)" fill="white"/>
<path fill-rule="evenodd" clip-rule="evenodd" d="M148.34 31.9331L146.902 30.4432C146.691 30.2252 146.344 30.2191 146.126 30.4294C145.908 30.6398 145.902 30.987 146.112 31.2049L148.202 33.37C148.561 33.7424 149.158 33.7424 149.517 33.3701L151.656 31.1549C151.866 30.937 151.86 30.5898 151.642 30.3794C151.424 30.169 151.077 30.1752 150.867 30.3931L149.43 31.8817L149.43 27.0877L148.34 27.0877L148.34 31.9331Z" fill="#A5B4CB"/>
<circle cx="241.07" cy="25.8384" r="8.04375" fill="white"/>
<path fill-rule="evenodd" clip-rule="evenodd" d="M241.614 24.2743L243.053 25.7642C243.263 25.9822 243.61 25.9883 243.828 25.778C244.046 25.5676 244.052 25.2204 243.842 25.0025L241.752 22.8374C241.393 22.465 240.796 22.465 240.437 22.8373L238.298 25.0525C238.088 25.2704 238.094 25.6176 238.312 25.828C238.53 26.0384 238.877 26.0322 239.088 25.8143L240.525 24.3257V29.1195H241.614V24.2743Z" fill="#A5B4CB"/>
<defs>
<linearGradient id="paint0_linear_16_468" x1="149.125" y1="6.9227" x2="149.125" y2="131.923" gradientUnits="userSpaceOnUse">
<stop stop-color="#E0ECFC"/>
<stop offset="1" stop-color="white" stop-opacity="0"/>
</linearGradient>
</defs>
</svg>
