<svg width="321" height="132" viewBox="0 0 321 132" fill="none" xmlns="http://www.w3.org/2000/svg">
<path d="M18.1847 81.4412L0.499023 93.8869V131.43L320.095 131.43V1.85649C315.513 1.66262 300.926 0.720884 286.092 3.31937C273.218 5.57466 260.158 11.1118 253.293 14.4891C234.825 23.5749 237.985 36.9074 228.208 45.5982C218.431 54.289 207.765 56.3629 195.717 52.7088C183.668 49.0547 185.841 44.9068 174.483 37.6974C163.126 30.488 150.979 29.8955 140.017 31.5744C129.16 33.2371 123.816 37.7434 115.797 44.5047L115.563 44.7023C107.413 51.5735 98.7545 70.7423 82.4877 75.5459C66.221 80.3495 63.71 73.0349 48.3166 70.7423C36.0019 68.9082 23.0976 77.1107 18.1847 81.4412Z" fill="url(#paint0_linear_16_468)"/>
<path d="M0.543945 93.8524L18.2296 81.4067C23.1425 77.0762 36.0469 68.8737 48.3616 70.7078C63.7549 73.0004 66.2659 80.315 82.5327 75.5114C98.7994 70.7078 107.458 51.539 115.608 44.6678C123.757 37.7967 129.099 33.2188 140.061 31.5399C151.024 29.861 163.171 30.4535 174.528 37.6629C185.886 44.8723 183.713 49.0202 195.762 52.6743C207.81 56.3284 218.476 54.2545 228.253 45.5637C238.03 36.8729 234.87 23.5404 253.338 14.4546C262.55 8.79313 288.872 -1.72544 320.462 1.49206" stroke="#0177FB" stroke-width="1.4625"/>
<circle cx="57.0584" cy="72.188" r="8.04375" fill="white"/>
<path fill-rule="evenodd" clip-rule="evenodd" d="M57.6028 70.624L59.0409 72.114C59.2512 72.3319 59.5984 72.338 59.8163 72.1277C60.0343 71.9173 60.0404 71.5701 59.8301 71.3522L57.7403 69.1871C57.3809 68.8148 56.7844 68.8147 56.425 69.1871L54.2867 71.4022C54.0763 71.6202 54.0824 71.9674 54.3004 72.1777C54.5183 72.3881 54.8655 72.382 55.0758 72.164L56.5128 70.6754V75.4694H57.6028V70.624Z" fill="#A5B4CB"/>
<circle cx="148.729" cy="29.8746" r="8.04375" transform="rotate(-180 148.729 29.8746)" fill="white"/>
<path fill-rule="evenodd" clip-rule="evenodd" d="M148.183 31.4389L146.745 29.949C146.535 29.7311 146.188 29.7249 145.97 29.9353C145.752 30.1456 145.746 30.4928 145.956 30.7108L148.046 32.8759C148.405 33.2482 149.002 33.2482 149.361 32.8759L151.499 30.6608C151.71 30.4428 151.704 30.0956 151.486 29.8853C151.268 29.6749 150.921 29.681 150.71 29.899L149.273 31.3875L149.273 26.5936L148.183 26.5936L148.183 31.4389Z" fill="#A5B4CB"/>
<circle cx="240.914" cy="25.3443" r="8.04375" fill="white"/>
<path fill-rule="evenodd" clip-rule="evenodd" d="M241.458 23.7802L242.896 25.2701C243.107 25.488 243.454 25.4942 243.672 25.2838C243.89 25.0735 243.896 24.7263 243.686 24.5083L241.596 22.3432C241.236 21.9709 240.64 21.9709 240.28 22.3432L238.142 24.5584C237.932 24.7763 237.938 25.1235 238.156 25.3338C238.374 25.5442 238.721 25.5381 238.931 25.3202L240.368 23.8316V28.6254H241.458V23.7802Z" fill="#A5B4CB"/>
<defs>
<linearGradient id="paint0_linear_16_468" x1="148.969" y1="6.42856" x2="148.969" y2="131.429" gradientUnits="userSpaceOnUse">
<stop stop-color="#E0ECFC"/>
<stop offset="1" stop-color="white" stop-opacity="0"/>
</linearGradient>
</defs>
</svg>
