<svg width="12" height="12" viewBox="0 0 12 12" fill="none" xmlns="http://www.w3.org/2000/svg">
<path fill-rule="evenodd" clip-rule="evenodd" d="M2.25054 8.99703C0.359196 7.10568 0.359196 4.03922 2.25054 2.14788C4.14188 0.256535 7.20835 0.256535 9.09969 2.14788C10.8286 3.87675 10.9771 6.58754 9.54521 8.48511L11.4558 10.3957C11.9543 10.8942 11.2066 11.6419 10.7081 11.1434L10.7078 11.1432L10.7078 11.1432L8.82021 9.25568C6.91741 10.884 4.05133 10.7978 2.25054 8.99703ZM8.35165 2.89578C6.87327 1.41739 4.47633 1.41739 2.99795 2.89578C1.51956 4.37416 1.51956 6.77109 2.99795 8.24948C4.47633 9.72786 6.87327 9.72786 8.35165 8.24948C9.83003 6.77109 9.83003 4.37416 8.35165 2.89578Z" fill="#0276FD"/>
</svg>
