<svg width="19" height="18" viewBox="0 0 19 18" fill="none" xmlns="http://www.w3.org/2000/svg">
<path d="M9.50977 5.14371C9.31583 5.14371 9.12983 5.22075 8.9927 5.35789C8.85556 5.49502 8.77852 5.68102 8.77852 5.87496V8.79996C8.77852 8.9939 8.85556 9.17989 8.9927 9.31703C9.12983 9.45417 9.31583 9.53121 9.50977 9.53121C9.70371 9.53121 9.8897 9.45417 10.0268 9.31703C10.164 9.17989 10.241 8.9939 10.241 8.79996V5.87496C10.241 5.68102 10.164 5.49502 10.0268 5.35789C9.8897 5.22075 9.70371 5.14371 9.50977 5.14371ZM10.1825 11.4471C10.1665 11.4005 10.1444 11.3562 10.1167 11.3155L10.029 11.2058C9.92613 11.1043 9.79554 11.0356 9.65369 11.0082C9.51183 10.9809 9.36506 10.9962 9.23189 11.0522C9.14328 11.0892 9.06166 11.1412 8.99058 11.2058C8.92281 11.2741 8.86919 11.3551 8.8328 11.4442C8.79641 11.5333 8.77796 11.6287 8.77852 11.725C8.77967 11.8205 8.79955 11.9149 8.83702 12.0028C8.86986 12.0936 8.92226 12.176 8.9905 12.2442C9.05874 12.3125 9.14115 12.3649 9.23189 12.3977C9.31942 12.4364 9.41407 12.4564 9.50977 12.4564C9.60547 12.4564 9.70011 12.4364 9.78764 12.3977C9.87839 12.3649 9.9608 12.3125 10.029 12.2442C10.0973 12.176 10.1497 12.0936 10.1825 12.0028C10.22 11.9149 10.2399 11.8205 10.241 11.725C10.2446 11.6763 10.2446 11.6274 10.241 11.5787C10.2284 11.5321 10.2087 11.4877 10.1825 11.4471ZM9.50977 1.48746C8.06349 1.48746 6.6497 1.91633 5.44716 2.71984C4.24463 3.52334 3.30737 4.6654 2.7539 6.00158C2.20043 7.33777 2.05562 8.80807 2.33778 10.2266C2.61993 11.645 3.31638 12.948 4.33905 13.9707C5.36172 14.9933 6.66469 15.6898 8.08317 15.972C9.50166 16.2541 10.972 16.1093 12.3081 15.5558C13.6443 15.0024 14.7864 14.0651 15.5899 12.8626C16.3934 11.66 16.8223 10.2462 16.8223 8.79996C16.8223 7.83967 16.6331 6.88878 16.2656 6.00158C15.8982 5.11439 15.3595 4.30827 14.6805 3.62924C14.0015 2.95021 13.1953 2.41158 12.3081 2.04409C11.4209 1.6766 10.4701 1.48746 9.50977 1.48746ZM9.50977 14.65C8.35275 14.65 7.22171 14.3069 6.25968 13.6641C5.29766 13.0212 4.54785 12.1076 4.10507 11.0387C3.6623 9.96971 3.54645 8.79347 3.77218 7.65868C3.9979 6.52389 4.55506 5.48152 5.37319 4.66338C6.19133 3.84525 7.2337 3.28809 8.36849 3.06236C9.50328 2.83664 10.6795 2.95249 11.7485 3.39526C12.8174 3.83803 13.7311 4.58784 14.3739 5.54987C15.0167 6.5119 15.3598 7.64294 15.3598 8.79996C15.3598 10.3515 14.7434 11.8394 13.6463 12.9365C12.5493 14.0336 11.0613 14.65 9.50977 14.65Z" fill="#A4B4CB"/>
</svg>
