<svg width="26" height="27" viewBox="0 0 26 27" fill="none" xmlns="http://www.w3.org/2000/svg">
<path d="M12.9262 26.3351C20.0651 26.3351 25.8524 20.5601 25.8524 13.4363C25.8524 6.31256 20.0651 0.537598 12.9262 0.537598C5.78725 0.537598 0 6.31256 0 13.4363C0 20.5601 5.78725 26.3351 12.9262 26.3351Z" fill="#FFA051"/>
<path d="M6.78809 9.68689C6.78809 9.05973 7.29609 8.55176 7.92265 8.55176H17.9276C18.5542 8.55176 19.0622 9.05973 19.0622 9.68689V16.9427C19.0622 17.5698 18.5542 18.0778 17.9276 18.0778H7.92265C7.29609 18.0778 6.78809 17.5698 6.78809 16.9427V9.68689Z" stroke="white" stroke-width="1.62854" stroke-linecap="round" stroke-linejoin="round"/>
<path d="M6.78809 11.9545H19.0622" stroke="white" stroke-width="1.62854" stroke-linecap="round" stroke-linejoin="round"/>
</svg>
