<svg width="26" height="26" viewBox="0 0 26 26" fill="none" xmlns="http://www.w3.org/2000/svg">
<path d="M12.9262 25.7975C20.0651 25.7975 25.8524 20.0225 25.8524 12.8988C25.8524 5.77496 20.0651 0 12.9262 0C5.78725 0 0 5.77496 0 12.8988C0 20.0225 5.78725 25.7975 12.9262 25.7975Z" fill="#FFA051"/>
<path d="M6.78809 9.1493C6.78809 8.52213 7.29609 8.01416 7.92265 8.01416H17.9276C18.5542 8.01416 19.0622 8.52213 19.0622 9.1493V16.4051C19.0622 17.0322 18.5542 17.5402 17.9276 17.5402H7.92265C7.29609 17.5402 6.78809 17.0322 6.78809 16.4051V9.1493Z" stroke="white" stroke-width="1.62854" stroke-linecap="round" stroke-linejoin="round"/>
<path d="M6.78809 11.4169H19.0622" stroke="white" stroke-width="1.62854" stroke-linecap="round" stroke-linejoin="round"/>
</svg>
