<svg width="19" height="18" viewBox="0 0 19 18" fill="none" xmlns="http://www.w3.org/2000/svg">
<path d="M14.6285 9.01306H9.50977V3.89431C9.50977 3.45556 9.21727 3.16306 8.77852 3.16306C5.12227 3.16306 2.19727 6.08806 2.19727 9.74431C2.19727 13.4006 5.12227 16.3256 8.77852 16.3256C12.4348 16.3256 15.3598 13.4006 15.3598 9.74431C15.3598 9.30556 15.0673 9.01306 14.6285 9.01306ZM9.50977 14.7899C6.73102 15.2287 4.09852 13.2543 3.73289 10.4756C3.29414 7.69681 5.26852 5.06431 8.04727 4.69869V9.74431C8.04727 10.1831 8.33977 10.4756 8.77852 10.4756H13.8241C13.5316 12.7424 11.7766 14.4974 9.50977 14.7899ZM11.7035 1.70056C11.2648 1.70056 10.9723 1.99306 10.9723 2.43181V6.81931C10.9723 7.25806 11.2648 7.55056 11.7035 7.55056H16.091C16.5298 7.55056 16.8223 7.25806 16.8223 6.81931C16.8223 3.96744 14.5554 1.70056 11.7035 1.70056ZM12.4348 6.08806V3.23619C13.8973 3.52869 14.9941 4.62556 15.2866 6.08806H12.4348Z" fill="#A4B4CB"/>
</svg>
