<svg width="19" height="19" viewBox="0 0 19 19" fill="none" xmlns="http://www.w3.org/2000/svg">
<path d="M8.04648 6.51274H12.434C12.6279 6.51274 12.8139 6.4357 12.9511 6.29857C13.0882 6.16143 13.1652 5.97543 13.1652 5.78149C13.1652 5.58755 13.0882 5.40156 12.9511 5.26442C12.8139 5.12729 12.6279 5.05024 12.434 5.05024H8.04648C7.85255 5.05024 7.66655 5.12729 7.52941 5.26442C7.39228 5.40156 7.31523 5.58755 7.31523 5.78149C7.31523 5.97543 7.39228 6.16143 7.52941 6.29857C7.66655 6.4357 7.85255 6.51274 8.04648 6.51274ZM6.58398 9.43774H12.434C12.6279 9.43774 12.8139 9.3607 12.9511 9.22357C13.0882 9.08643 13.1652 8.90043 13.1652 8.70649C13.1652 8.51256 13.0882 8.32656 12.9511 8.18942C12.8139 8.05229 12.6279 7.97524 12.434 7.97524H6.58398C6.39004 7.97524 6.20405 8.05229 6.06691 8.18942C5.92978 8.32656 5.85273 8.51256 5.85273 8.70649C5.85273 8.90043 5.92978 9.08643 6.06691 9.22357C6.20405 9.3607 6.39004 9.43774 6.58398 9.43774ZM6.58398 12.3627H12.434C12.6279 12.3627 12.8139 12.2857 12.9511 12.1486C13.0882 12.0114 13.1652 11.8254 13.1652 11.6315C13.1652 11.4376 13.0882 11.2516 12.9511 11.1144C12.8139 10.9773 12.6279 10.9002 12.434 10.9002H6.58398C6.39004 10.9002 6.20405 10.9773 6.06691 11.1144C5.92978 11.2516 5.85273 11.4376 5.85273 11.6315C5.85273 11.8254 5.92978 12.0114 6.06691 12.1486C6.20405 12.2857 6.39004 12.3627 6.58398 12.3627ZM15.359 2.12524H3.65898C3.46504 2.12524 3.27905 2.20229 3.14191 2.33942C3.00478 2.47656 2.92773 2.66255 2.92773 2.85649V16.019C2.92773 16.1548 2.96555 16.2879 3.03695 16.4034C3.10834 16.519 3.21049 16.6123 3.33196 16.673C3.45342 16.7338 3.5894 16.7595 3.72465 16.7473C3.85991 16.7351 3.98909 16.6855 4.09773 16.604L5.61142 15.4706L7.1178 16.604C7.24437 16.6989 7.39833 16.7502 7.55655 16.7502C7.71477 16.7502 7.86872 16.6989 7.9953 16.604L9.50898 15.4706L11.0227 16.604C11.1492 16.6989 11.3032 16.7502 11.4614 16.7502C11.6196 16.7502 11.7736 16.6989 11.9002 16.604L13.4065 15.4706L14.9202 16.604C15.0294 16.6854 15.1591 16.7346 15.2948 16.7463C15.4304 16.7579 15.5666 16.7314 15.688 16.6698C15.8086 16.609 15.9101 16.5161 15.981 16.4012C16.052 16.2863 16.0898 16.154 16.0902 16.019V2.85649C16.0902 2.66255 16.0132 2.47656 15.8761 2.33942C15.7389 2.20229 15.5529 2.12524 15.359 2.12524ZM14.6277 14.5565L13.8453 13.9715C13.7187 13.8766 13.5648 13.8252 13.4065 13.8252C13.2483 13.8252 13.0944 13.8766 12.9678 13.9715L11.4614 15.1049L9.94774 13.9715C9.82116 13.8766 9.66721 13.8252 9.50898 13.8252C9.35076 13.8252 9.19681 13.8766 9.07023 13.9715L7.55655 15.1049L6.05017 13.9715C5.9236 13.8766 5.76964 13.8252 5.61142 13.8252C5.4532 13.8252 5.29925 13.8766 5.17267 13.9715L4.39023 14.5565V3.58774H14.6277V14.5565Z" fill="#A4B4CB"/>
</svg>
