<svg width="18" height="18" viewBox="0 0 18 18" fill="none" xmlns="http://www.w3.org/2000/svg">
<path d="M6.16104 8.33186C6.01641 8.33186 5.87503 8.37475 5.75478 8.4551C5.63453 8.53545 5.5408 8.64965 5.48545 8.78327C5.43011 8.91689 5.41563 9.06392 5.44384 9.20577C5.47206 9.34762 5.5417 9.47792 5.64397 9.58018C5.74624 9.68245 5.87653 9.75209 6.01838 9.78031C6.16023 9.80853 6.30726 9.79404 6.44088 9.7387C6.5745 9.68335 6.6887 9.58963 6.76905 9.46937C6.8494 9.34912 6.89229 9.20774 6.89229 9.06311C6.89229 8.86917 6.81525 8.68318 6.67811 8.54604C6.54098 8.4089 6.35498 8.33186 6.16104 8.33186ZM9.08604 8.33186C8.94141 8.33186 8.80003 8.37475 8.67978 8.4551C8.55953 8.53545 8.4658 8.64965 8.41045 8.78327C8.35511 8.91689 8.34063 9.06392 8.36884 9.20577C8.39706 9.34762 8.4667 9.47792 8.56897 9.58018C8.67124 9.68245 8.80153 9.75209 8.94338 9.78031C9.08523 9.80853 9.23226 9.79404 9.36588 9.7387C9.4995 9.68335 9.6137 9.58963 9.69405 9.46937C9.7744 9.34912 9.81729 9.20774 9.81729 9.06311C9.81729 8.86917 9.74025 8.68318 9.60311 8.54604C9.46598 8.4089 9.27998 8.33186 9.08604 8.33186ZM12.011 8.33186C11.8664 8.33186 11.725 8.37475 11.6048 8.4551C11.4845 8.53545 11.3908 8.64965 11.3355 8.78327C11.2801 8.91689 11.2656 9.06392 11.2938 9.20577C11.3221 9.34762 11.3917 9.47792 11.494 9.58018C11.5962 9.68245 11.7265 9.75209 11.8684 9.78031C12.0102 9.80853 12.1573 9.79404 12.2909 9.7387C12.4245 9.68335 12.5387 9.58963 12.6191 9.46937C12.6994 9.34912 12.7423 9.20774 12.7423 9.06311C12.7423 8.86917 12.6652 8.68318 12.5281 8.54604C12.391 8.4089 12.205 8.33186 12.011 8.33186ZM9.08604 1.75061C8.12575 1.75061 7.17486 1.93975 6.28767 2.30724C5.40047 2.67473 4.59435 3.21336 3.91532 3.89239C2.54396 5.26375 1.77354 7.12371 1.77354 9.06311C1.76715 10.7517 2.35181 12.3892 3.42617 13.6919L1.96367 15.1544C1.8622 15.2573 1.79346 15.3878 1.76613 15.5297C1.73881 15.6715 1.7541 15.8183 1.8101 15.9515C1.87084 16.0831 1.9693 16.1936 2.09299 16.2691C2.21667 16.3446 2.36 16.3817 2.50479 16.3756H9.08604C11.0254 16.3756 12.8854 15.6052 14.2568 14.2338C15.6281 12.8625 16.3985 11.0025 16.3985 9.06311C16.3985 7.12371 15.6281 5.26375 14.2568 3.89239C12.8854 2.52103 11.0254 1.75061 9.08604 1.75061ZM9.08604 14.9131H4.2671L4.94717 14.233C5.01626 14.1653 5.07123 14.0846 5.10889 13.9954C5.14654 13.9063 5.16614 13.8106 5.16654 13.7139C5.16379 13.521 5.08494 13.337 4.94717 13.202C3.98966 12.2455 3.39339 10.9867 3.25995 9.63992C3.12651 8.29314 3.46415 6.94176 4.21535 5.81601C4.96655 4.69026 6.08484 3.8598 7.37968 3.4661C8.67452 3.07241 10.0658 3.13984 11.3165 3.65692C12.5672 4.17399 13.5999 5.10871 14.2387 6.30183C14.8776 7.49495 15.0829 8.87265 14.8199 10.2002C14.5568 11.5278 13.8416 12.7231 12.7961 13.5824C11.7505 14.4418 10.4394 14.912 9.08604 14.9131Z" fill="#A4B4CB"/>
</svg>
