<svg width="19" height="18" viewBox="0 0 19 18" fill="none" xmlns="http://www.w3.org/2000/svg">
<path d="M16.325 6.99576L14.943 6.53508L15.5938 5.23345C15.6597 5.09721 15.6818 4.94385 15.6569 4.79453C15.632 4.64522 15.5614 4.50731 15.4548 4.39983L13.8973 2.84226C13.7892 2.7341 13.65 2.66253 13.4991 2.6376C13.3483 2.61268 13.1934 2.63567 13.0563 2.70333L11.7547 3.35414L11.294 1.97208C11.2454 1.82801 11.153 1.7027 11.0298 1.61358C10.9066 1.52446 10.7587 1.47595 10.6066 1.47483H8.41289C8.25959 1.47443 8.11004 1.52222 7.98538 1.61145C7.86072 1.70068 7.76726 1.82683 7.71821 1.97208L7.25752 3.35414L5.95589 2.70333C5.81965 2.63735 5.66629 2.61529 5.51698 2.64017C5.36766 2.66506 5.22975 2.73567 5.12227 2.84226L3.56471 4.39983C3.45654 4.50788 3.38497 4.64712 3.36005 4.79796C3.33513 4.9488 3.35811 5.10366 3.42577 5.24076L4.07658 6.54239L2.69452 7.00308C2.55046 7.05173 2.42514 7.14408 2.33602 7.26728C2.2469 7.39048 2.1984 7.5384 2.19727 7.69045V9.8842C2.19687 10.0375 2.24467 10.1871 2.3339 10.3117C2.42313 10.4364 2.54928 10.5298 2.69452 10.5789L4.07658 11.0396L3.42577 12.3412C3.35979 12.4774 3.33773 12.6308 3.36261 12.7801C3.3875 12.9294 3.45811 13.0673 3.56471 13.1748L5.12227 14.7324C5.23032 14.8406 5.36956 14.9121 5.5204 14.937C5.67124 14.962 5.8261 14.939 5.96321 14.8713L7.26483 14.2205L7.72552 15.6026C7.77458 15.7478 7.86804 15.874 7.9927 15.9632C8.11735 16.0524 8.2669 16.1002 8.42021 16.0998H10.614C10.7673 16.1002 10.9168 16.0524 11.0415 15.9632C11.1661 15.874 11.2596 15.7478 11.3086 15.6026L11.7693 14.2205L13.071 14.8713C13.2063 14.9356 13.3582 14.9568 13.506 14.9319C13.6538 14.9071 13.7904 14.8374 13.8973 14.7324L15.4548 13.1748C15.563 13.0668 15.6346 12.9275 15.6595 12.7767C15.6844 12.6259 15.6614 12.471 15.5938 12.3339L14.943 11.0323L16.325 10.5716C16.4691 10.5229 16.5944 10.4306 16.6835 10.3074C16.7726 10.1842 16.8211 10.0363 16.8223 9.8842V7.69045C16.8227 7.53715 16.7749 7.3876 16.6856 7.26294C16.5964 7.13828 16.4703 7.04482 16.325 6.99576ZM15.3598 9.3577L14.4823 9.6502C14.2805 9.71565 14.0954 9.82422 13.9397 9.96837C13.7841 10.1125 13.6617 10.2888 13.581 10.485C13.5003 10.6812 13.4632 10.8926 13.4724 11.1045C13.4815 11.3164 13.5367 11.5238 13.634 11.7123L14.0508 12.5459L13.2465 13.3503L12.4348 12.9116C12.2472 12.8181 12.0418 12.7661 11.8324 12.759C11.6231 12.7518 11.4146 12.7898 11.2211 12.8702C11.0277 12.9506 10.8538 13.0717 10.7112 13.2252C10.5686 13.3787 10.4606 13.561 10.3946 13.7598L10.1021 14.6373H8.93939L8.64689 13.7598C8.58144 13.558 8.47287 13.3729 8.32873 13.2173C8.18458 13.0616 8.0083 12.9392 7.81211 12.8585C7.61593 12.7778 7.40454 12.7408 7.1926 12.7499C6.98067 12.7591 6.77326 12.8143 6.58477 12.9116L5.75114 13.3284L4.94677 12.524L5.38552 11.7123C5.48284 11.5238 5.538 11.3164 5.54716 11.1045C5.55632 10.8926 5.51926 10.6812 5.43856 10.485C5.35786 10.2888 5.23545 10.1125 5.07982 9.96837C4.92418 9.82422 4.73905 9.71565 4.53727 9.6502L3.65977 9.3577V8.21695L4.53727 7.92445C4.73905 7.859 4.92418 7.75043 5.07982 7.60628C5.23545 7.46213 5.35786 7.28585 5.43856 7.08967C5.51926 6.89349 5.55632 6.68209 5.54716 6.47016C5.538 6.25822 5.48284 6.05082 5.38552 5.86233L4.96871 5.05064L5.77308 4.24626L6.58477 4.66308C6.77326 4.7604 6.98067 4.81556 7.1926 4.82472C7.40454 4.83387 7.61593 4.79682 7.81211 4.71612C8.0083 4.63542 8.18458 4.51301 8.32873 4.35737C8.47287 4.20174 8.58144 4.01661 8.64689 3.81483L8.93939 2.93733H10.0801L10.3726 3.81483C10.4381 4.01661 10.5467 4.20174 10.6908 4.35737C10.835 4.51301 11.0112 4.63542 11.2074 4.71612C11.4036 4.79682 11.615 4.83387 11.8269 4.82472C12.0389 4.81556 12.2463 4.7604 12.4348 4.66308L13.2684 4.24626L14.0728 5.05064L13.634 5.86233C13.5406 6.04985 13.4885 6.25526 13.4814 6.46465C13.4743 6.67404 13.5122 6.88251 13.5926 7.07597C13.6731 7.26942 13.7941 7.44334 13.9476 7.58594C14.1011 7.72854 14.2834 7.8365 14.4823 7.90251L15.3598 8.19501V9.3577ZM9.50977 5.86233C8.93126 5.86233 8.36574 6.03387 7.88473 6.35528C7.40371 6.67668 7.02881 7.1335 6.80742 7.66798C6.58603 8.20245 6.52811 8.79057 6.64097 9.35796C6.75383 9.92536 7.03241 10.4465 7.44148 10.8556C7.85055 11.2647 8.37173 11.5433 8.93913 11.6561C9.50652 11.769 10.0946 11.7111 10.6291 11.4897C11.1636 11.2683 11.6204 10.8934 11.9418 10.4124C12.2632 9.93135 12.4348 9.36584 12.4348 8.78733C12.4348 8.01157 12.1266 7.26758 11.5781 6.71904C11.0295 6.17049 10.2855 5.86233 9.50977 5.86233ZM9.50977 10.2498C9.22051 10.2498 8.93775 10.1641 8.69725 10.0034C8.45674 9.84265 8.26929 9.61424 8.15859 9.347C8.0479 9.07976 8.01894 8.7857 8.07537 8.50201C8.1318 8.21831 8.27109 7.95772 8.47562 7.75318C8.68016 7.54865 8.94075 7.40936 9.22445 7.35293C9.50815 7.2965 9.80221 7.32546 10.0694 7.43615C10.3367 7.54684 10.5651 7.7343 10.7258 7.9748C10.8865 8.21531 10.9723 8.49807 10.9723 8.78733C10.9723 9.1752 10.8182 9.5472 10.5439 9.82147C10.2696 10.0957 9.89765 10.2498 9.50977 10.2498Z" fill="#A4B4CB"/>
</svg>
