<svg width="19" height="18" viewBox="0 0 19 18" fill="none" xmlns="http://www.w3.org/2000/svg">
<path d="M5.85352 10.5255H8.04727C8.24121 10.5255 8.4272 10.4485 8.56434 10.3113C8.70147 10.1742 8.77852 9.9882 8.77852 9.79426C8.77852 9.60032 8.70147 9.41433 8.56434 9.27719C8.4272 9.14005 8.24121 9.06301 8.04727 9.06301H5.85352C5.65958 9.06301 5.47358 9.14005 5.33644 9.27719C5.19931 9.41433 5.12227 9.60032 5.12227 9.79426C5.12227 9.9882 5.19931 10.1742 5.33644 10.3113C5.47358 10.4485 5.65958 10.5255 5.85352 10.5255ZM14.6285 3.21301H4.39102C3.8092 3.21301 3.25121 3.44414 2.8398 3.85555C2.42839 4.26696 2.19727 4.82494 2.19727 5.40676V11.988C2.19727 12.5698 2.42839 13.1278 2.8398 13.5392C3.25121 13.9506 3.8092 14.1818 4.39102 14.1818H14.6285C15.2103 14.1818 15.7683 13.9506 16.1797 13.5392C16.5911 13.1278 16.8223 12.5698 16.8223 11.988V5.40676C16.8223 4.82494 16.5911 4.26696 16.1797 3.85555C15.7683 3.44414 15.2103 3.21301 14.6285 3.21301ZM15.3598 11.988C15.3598 12.182 15.2827 12.3679 15.1456 12.5051C15.0085 12.6422 14.8225 12.7193 14.6285 12.7193H4.39102C4.19708 12.7193 4.01108 12.6422 3.87394 12.5051C3.73681 12.3679 3.65977 12.182 3.65977 11.988V7.60051H15.3598V11.988ZM15.3598 6.13801H3.65977V5.40676C3.65977 5.21282 3.73681 5.02683 3.87394 4.88969C4.01108 4.75256 4.19708 4.67551 4.39102 4.67551H14.6285C14.8225 4.67551 15.0085 4.75256 15.1456 4.88969C15.2827 5.02683 15.3598 5.21282 15.3598 5.40676V6.13801Z" fill="#A4B4CB"/>
</svg>
