<svg width="18" height="18" viewBox="0 0 18 18" fill="none" xmlns="http://www.w3.org/2000/svg">
<path d="M14.6286 5.98032L10.2411 2.13394C9.83888 1.7742 9.3182 1.57532 8.77858 1.57532C8.23897 1.57532 7.71829 1.7742 7.31608 2.13394L2.92858 5.98032C2.69632 6.18805 2.51097 6.44287 2.38488 6.72783C2.25879 7.01279 2.19486 7.32134 2.19733 7.63294V14.0241C2.19733 14.6059 2.42846 15.1639 2.83987 15.5753C3.25128 15.9867 3.80927 16.2178 4.39108 16.2178H13.1661C13.7479 16.2178 14.3059 15.9867 14.7173 15.5753C15.1287 15.1639 15.3598 14.6059 15.3598 14.0241V7.62563C15.3613 7.31526 15.2968 7.00812 15.1708 6.7245C15.0447 6.44087 14.8599 6.18723 14.6286 5.98032ZM10.2411 14.7553H7.31608V11.0991C7.31608 10.9051 7.39313 10.7191 7.53026 10.582C7.6674 10.4449 7.85339 10.3678 8.04733 10.3678H9.50983C9.70377 10.3678 9.88977 10.4449 10.0269 10.582C10.164 10.7191 10.2411 10.9051 10.2411 11.0991V14.7553ZM13.8973 14.0241C13.8973 14.218 13.8203 14.404 13.6832 14.5411C13.546 14.6783 13.36 14.7553 13.1661 14.7553H11.7036V11.0991C11.7036 10.5172 11.4725 9.95926 11.0611 9.54785C10.6496 9.13644 10.0917 8.90532 9.50983 8.90532H8.04733C7.46552 8.90532 6.90753 9.13644 6.49612 9.54785C6.08471 9.95926 5.85359 10.5172 5.85359 11.0991V14.7553H4.39108C4.19715 14.7553 4.01115 14.6783 3.87401 14.5411C3.73688 14.404 3.65983 14.218 3.65983 14.0241V7.62563C3.65997 7.5218 3.68221 7.4192 3.72508 7.32463C3.76794 7.23007 3.83046 7.14572 3.90846 7.07719L8.29596 3.23813C8.4294 3.1209 8.60096 3.05624 8.77858 3.05624C8.95621 3.05624 9.12776 3.1209 9.26121 3.23813L13.6487 7.07719C13.7267 7.14572 13.7892 7.23007 13.8321 7.32463C13.875 7.4192 13.8972 7.5218 13.8973 7.62563V14.0241Z" fill="#0177FD"/>
</svg>
