<svg width="19" height="18" viewBox="0 0 19 18" fill="none" xmlns="http://www.w3.org/2000/svg">
<path d="M9.50977 4.62599C9.31583 4.62599 9.12983 4.70303 8.99269 4.84017C8.85556 4.9773 8.77852 5.1633 8.77852 5.35724V12.6697C8.77852 12.8637 8.85556 13.0497 8.99269 13.1868C9.12983 13.3239 9.31583 13.401 9.50977 13.401C9.7037 13.401 9.8897 13.3239 10.0268 13.1868C10.164 13.0497 10.241 12.8637 10.241 12.6697V5.35724C10.241 5.1633 10.164 4.9773 10.0268 4.84017C9.8897 4.70303 9.7037 4.62599 9.50977 4.62599ZM5.85352 9.01349C5.65958 9.01349 5.47358 9.09053 5.33644 9.22767C5.19931 9.3648 5.12227 9.5508 5.12227 9.74474V12.6697C5.12227 12.8637 5.19931 13.0497 5.33644 13.1868C5.47358 13.3239 5.65958 13.401 5.85352 13.401C6.04746 13.401 6.23345 13.3239 6.37059 13.1868C6.50772 13.0497 6.58477 12.8637 6.58477 12.6697V9.74474C6.58477 9.5508 6.50772 9.3648 6.37059 9.22767C6.23345 9.09053 6.04746 9.01349 5.85352 9.01349ZM13.166 7.55099C12.9721 7.55099 12.7861 7.62803 12.6489 7.76517C12.5118 7.9023 12.4348 8.0883 12.4348 8.28224V12.6697C12.4348 12.8637 12.5118 13.0497 12.6489 13.1868C12.7861 13.3239 12.9721 13.401 13.166 13.401C13.36 13.401 13.546 13.3239 13.6831 13.1868C13.8202 13.0497 13.8973 12.8637 13.8973 12.6697V8.28224C13.8973 8.0883 13.8202 7.9023 13.6831 7.76517C13.546 7.62803 13.36 7.55099 13.166 7.55099ZM14.6285 1.70099H4.39102C3.8092 1.70099 3.25121 1.93212 2.8398 2.34352C2.42839 2.75493 2.19727 3.31292 2.19727 3.89474V14.1322C2.19727 14.7141 2.42839 15.272 2.8398 15.6835C3.25121 16.0949 3.8092 16.326 4.39102 16.326H14.6285C15.2103 16.326 15.7683 16.0949 16.1797 15.6835C16.5911 15.272 16.8223 14.7141 16.8223 14.1322V3.89474C16.8223 3.31292 16.5911 2.75493 16.1797 2.34352C15.7683 1.93212 15.2103 1.70099 14.6285 1.70099ZM15.3598 14.1322C15.3598 14.3262 15.2827 14.5122 15.1456 14.6493C15.0085 14.7864 14.8225 14.8635 14.6285 14.8635H4.39102C4.19708 14.8635 4.01108 14.7864 3.87394 14.6493C3.73681 14.5122 3.65977 14.3262 3.65977 14.1322V3.89474C3.65977 3.7008 3.73681 3.5148 3.87394 3.37767C4.01108 3.24053 4.19708 3.16349 4.39102 3.16349H14.6285C14.8225 3.16349 15.0085 3.24053 15.1456 3.37767C15.2827 3.5148 15.3598 3.7008 15.3598 3.89474V14.1322Z" fill="#A4B4CB"/>
</svg>
