<svg width="102" height="785" viewBox="0 0 102 785" fill="none" xmlns="http://www.w3.org/2000/svg">
<g clip-path="url(#clip0_103_16255)">
<path fill-rule="evenodd" clip-rule="evenodd" d="M15.869 681.94C20.0598 673.553 25.1972 665.777 30.6265 658.21C31.247 658.369 30.7019 658.756 30.9231 659C31.2748 659.162 31.6662 658.315 32.1185 659.068C32.5343 659.761 32.2879 660.282 31.995 660.819C30.4538 663.647 28.2279 666.035 26.8846 669.017C26.4249 670.037 26.224 671.286 25.0903 672.08C24.3924 672.569 24.5568 673.805 23.9401 674.619C23.554 675.129 23.3395 675.842 22.91 676.417C21.1985 678.708 20.2123 681.299 19.931 684.146C19.8805 684.659 19.6668 685.123 19.1913 685.139C17.8948 685.183 16.6071 685.72 15.3363 684.585C14.4139 683.761 14.3281 683.015 14.5891 682.022C15.2182 679.629 16.4662 677.518 17.691 675.408C19.1237 672.94 20.7507 670.589 22.2684 668.175C24.3095 664.93 26.5947 661.865 28.7622 658.714C28.9685 658.414 29.1661 657.795 29.6184 658.068C29.9588 658.273 29.6001 658.763 29.4059 659.061C28.1807 660.942 26.8689 662.758 25.5252 664.559C24.2375 666.285 23.1581 668.176 22.0828 670.049C20.3452 673.077 18.4308 676.003 16.8585 679.126C16.4103 680.016 15.9667 680.917 15.869 681.94Z" fill="#FFA051"/>
<path fill-rule="evenodd" clip-rule="evenodd" d="M9.24538 718.138C8.45798 718.77 7.88845 717.785 7.63952 717.585C6.96603 717.044 5.91023 717.602 5.64721 716.962C5.24916 715.992 4.39053 715.172 4.74674 713.873C5.43514 711.36 6.47851 708.995 7.44857 706.597C8.15189 704.858 8.82206 703.102 9.84928 701.512C10.3074 700.804 10.8338 700.179 11.6113 699.822C12.4086 699.457 13.1086 699.431 13.8766 700.088C14.4448 700.574 15.1776 700.894 15.7036 701.465C16.2044 702.009 16.602 702.577 16.0114 703.318C15.5967 703.837 15.6717 704.518 15.463 705.11C14.6238 707.49 14.3044 710.054 12.9583 712.254C11.9601 713.887 11.2224 715.643 10.4528 717.386C10.2324 717.885 10.0191 718.488 9.24538 718.138Z" fill="#FFA051"/>
<path fill-rule="evenodd" clip-rule="evenodd" d="M58.8878 700.313C58.7026 700.731 58.5834 700.999 58.4682 701.258C58.6049 701.437 58.7312 701.33 58.8671 701.292C59.1458 701.213 59.2415 700.68 59.5791 700.893C59.9875 701.151 59.4623 701.46 59.4938 701.766C59.9407 701.87 60.0596 701.317 60.4241 701.302C60.989 702.171 60.6925 702.871 60.1664 703.65C58.737 705.768 57.4981 707.995 56.6639 710.431C56.3492 711.351 55.1707 711.8 55.148 712.868C55.119 714.223 54.4869 715.399 53.7765 716.367C52.5497 718.04 52.2875 720.007 51.5573 721.825C51.3518 722.337 51.6335 722.967 51.1281 723.386C50.965 723.522 50.7086 723.83 50.6021 723.57C50.2368 722.681 49.5248 723.109 48.9354 722.962C47.8415 722.688 47.6261 721.615 47.5192 720.672C47.351 719.185 47.7802 717.747 48.3836 716.421C50.6932 711.346 53.3793 706.477 56.7025 701.986C57.2086 701.302 57.6626 700.443 58.8878 700.313Z" fill="#FFA051"/>
<path fill-rule="evenodd" clip-rule="evenodd" d="M43.5838 680.161C43.3303 680.951 43.0855 681.777 42.8006 682.59C40.9959 687.745 38.6548 692.658 36.1191 697.486C35.147 699.336 34.0265 701.112 33.2909 703.087C33.0805 703.653 32.7023 704.1 32.0276 703.498C31.8685 703.356 31.6325 703.291 31.422 703.217C30.0225 702.721 29.4757 701.649 29.9148 700.193C30.3646 698.699 31.1967 697.391 32.0032 696.08C35.4154 690.533 38.625 684.882 41.075 678.83C41.3856 678.063 41.4755 678.064 42.0202 678.648C42.0794 678.711 42.1996 678.757 42.2857 678.749C43.3017 678.658 43.3941 679.403 43.5838 680.161Z" fill="#FFA051"/>
<path fill-rule="evenodd" clip-rule="evenodd" d="M9.36956 738.05C8.43926 740.34 6.91832 742.092 6.03193 744.165C5.13601 746.26 4.05122 748.28 3.48873 750.517C4.30429 748.724 5.1153 746.928 5.93624 745.137C6.87897 743.083 8.07435 741.173 9.24944 739.247C9.83926 738.28 10.5016 738.329 11.1655 738.861C11.8138 739.382 11.9484 740.258 11.3378 740.868C10.094 742.112 9.39441 743.701 8.94003 745.262C8.14891 747.981 6.75802 750.501 6.33885 753.341C6.24234 753.995 5.76891 754.553 5.67157 755.282C5.56222 756.102 5.51956 756.805 5.9263 757.569C6.16198 758.013 6.74352 758.597 6.22701 759.092C5.80453 759.498 5.18571 759.795 4.48157 759.426C4.21275 759.285 3.82092 759.377 3.485 759.366C1.52086 759.299 0.361511 758.019 0.654351 756.038C1.04701 753.382 2.04482 750.897 3.09855 748.443C4.47908 745.228 5.98015 742.074 8.0234 739.211C8.32494 738.788 8.57761 738.321 9.36956 738.05Z" fill="#FFA051"/>
<path fill-rule="evenodd" clip-rule="evenodd" d="M62.9235 763.105C60.2635 763.099 59.462 761.935 60.362 759.729C61.0658 758.004 62.2628 756.583 63.4184 755.159C66.1161 751.835 68.924 748.607 71.9133 745.536C72.6443 744.784 73.532 744.515 74.4432 744.237C74.7613 744.14 75.4704 743.948 75.4435 744.226C75.3872 744.792 75.9559 745.307 75.4439 745.913C73.1575 748.621 71.1172 751.52 69.0031 754.361C68.0711 755.614 67.0398 756.795 66.1422 758.071C65.5354 758.935 64.9149 759.867 65.5304 761.03C65.6042 761.168 65.5661 761.533 65.5006 761.554C64.4502 761.904 63.8152 763.023 62.9235 763.105Z" fill="#FFA051"/>
<path fill-rule="evenodd" clip-rule="evenodd" d="M90.1146 702.873C91.4806 701.338 92.3306 699.472 93.6776 697.946C94.0744 697.497 94.5499 697.108 94.8891 696.621C95.4491 695.816 96.0252 696.429 96.3955 696.683C96.7551 696.928 96.9236 697.499 96.538 698.039C94.9632 700.245 93.6966 702.659 92.6329 705.116C91.8749 706.868 90.6166 708.402 90.354 710.44C90.2542 711.212 89.7269 712.103 89.4345 712.967C89.0435 714.122 88.2403 713.165 87.6207 713.123C87.5229 713.117 87.4364 712.829 87.3469 712.831C86.9654 712.836 86.7409 713.807 86.294 713.134C85.6876 712.219 85.0402 711.356 85.4644 710.004C86.1383 707.858 87.1734 705.922 88.3062 704.022C89.842 701.446 91.2586 698.78 93.4444 696.654C93.6055 696.498 93.7534 696.326 93.9257 696.182C94.1034 696.034 94.3423 695.908 94.5329 696.09C94.7752 696.322 94.6468 696.602 94.4347 696.775C92.5812 698.293 91.6579 700.482 90.359 702.399C90.2604 702.545 90.1954 702.714 90.1146 702.873Z" fill="#FFA051"/>
<path fill-rule="evenodd" clip-rule="evenodd" d="M44.3926 740.996C44.9642 740.456 45.6095 739.975 46.0879 739.363C46.6463 738.65 47.268 738.493 48.0545 738.804C48.5222 738.99 48.4228 739.48 48.3776 739.793C48.2612 740.598 47.7849 741.218 47.007 741.504C46.821 741.573 46.541 741.432 46.5415 741.768C46.5456 743.411 45.1046 744.286 44.4854 745.602C44.2952 746.006 43.9411 746.389 43.6918 746.803C42.9636 748.011 42.368 749.324 40.8247 749.786C40.4651 749.894 39.8952 750.216 40.0895 750.762C40.6822 752.428 39.515 753.541 38.8526 754.777C37.7641 756.807 36.3832 758.672 35.3738 760.751C35.2599 760.986 35.1895 761.319 34.8622 761.238C34.4534 761.136 34.9952 760.773 34.7115 760.56C34.202 760.831 33.7547 761.564 33.0443 760.699C32.7908 760.391 32.4184 760.912 32.2362 761.24C32.0974 761.489 31.945 761.723 31.6323 761.54C31.2541 761.318 31.5801 761.087 31.6799 760.884C33.4991 757.176 35.7461 753.728 38.0781 750.332C40.1317 747.34 42.1849 744.349 44.2381 741.358C44.289 741.238 44.3408 741.117 44.3926 740.996Z" fill="#FFA051"/>
<path fill-rule="evenodd" clip-rule="evenodd" d="M64.276 727.836C65.5351 725.888 66.8038 723.942 68.2051 722.084C66.6067 723.283 64.6798 726.065 64.276 727.836ZM66.7401 730.794C66.3482 730.908 67.3473 729.546 66.2795 730.382C66.2509 730.405 66.1946 730.439 66.1817 730.429C65.478 729.883 64.8584 729.914 64.2143 730.581C64.0453 730.756 62.7339 729.287 62.7057 728.853C62.6635 728.198 62.8292 727.577 63.1175 727.003C64.7444 723.763 67.0333 721.072 69.9253 718.893C71.3418 717.826 72.828 717.942 74.3113 718.737C75.1078 719.164 75.104 719.677 74.4417 720.317C73.7446 720.989 73.0815 721.702 72.4573 722.442C71.737 723.297 71.1339 724.235 70.3411 725.048C69.2998 726.115 68.9411 727.629 68.184 728.897C67.7652 729.596 67.3966 730.306 66.7401 730.794Z" fill="#FFA051"/>
<path fill-rule="evenodd" clip-rule="evenodd" d="M99.7428 732.741C99.5771 733.306 99.4773 733.646 99.3253 734.165C99.5779 733.969 99.732 733.91 99.7784 733.804C100.155 732.942 100.848 733.165 101.393 733.444C101.977 733.742 102.129 734.415 101.895 734.996C101.514 735.944 101.074 736.882 100.536 737.749C99.7941 738.946 98.955 740.102 98.4496 741.408C97.9215 742.772 97.1515 744.1 97.4808 745.704C97.6366 746.461 97.0041 746.906 96.3124 746.596C95.9367 746.427 95.5987 746.446 95.2272 746.465C92.8728 746.583 91.6572 744.913 92.5717 742.665C93.8611 739.497 95.9421 736.819 98.1092 734.214C98.5234 733.716 98.8087 733.054 99.7428 732.741Z" fill="#FFA051"/>
<path fill-rule="evenodd" clip-rule="evenodd" d="M13.9191 782.22C13.905 783.066 14.6187 783.477 14.7173 784.152C13.6743 784.295 13.017 783.729 12.7888 782.565C12.5411 781.3 12.9366 780.134 13.5521 779.126C14.8618 776.98 15.9549 774.711 17.7844 772.858C18.5002 772.133 18.9951 770.96 19.6914 770.083C21.6759 767.582 23.7473 765.15 25.7934 762.698C26.2043 762.206 26.6918 761.792 27.2543 761.471C27.5422 761.307 27.8259 761.269 28.0939 761.485C28.3818 761.716 28.3499 762.012 28.1892 762.297C27.9502 762.722 27.7356 763.17 27.437 763.55C24.6722 767.063 21.8324 770.519 19.1455 774.09C18.0988 775.481 17.2816 777.08 16.7183 778.75C16.4582 779.521 16.7369 780.368 16.8251 781.179C16.8488 781.401 17.1573 781.701 16.7663 781.867C16.0154 782.186 15.3862 782.501 16.0469 783.48C16.1972 783.702 15.8555 783.82 15.6177 783.825C15.1928 783.835 14.7036 783.828 14.6535 783.3C14.6079 782.816 14.3333 782.569 13.9191 782.22Z" fill="#FFA051"/>
<path fill-rule="evenodd" clip-rule="evenodd" d="M31.9223 724.531C31.6787 724.358 31.542 724.325 31.4356 724.584C31.0479 725.527 30.7248 726.51 30.2186 727.386C29.9126 727.915 29.9784 729.007 28.8062 728.689C28.6198 728.638 28.6579 728.873 28.7424 729.006C28.94 729.316 28.8174 729.544 28.6033 729.806C28.2379 730.251 28.1373 730.745 28.2321 731.356C28.4082 732.483 27.6237 733.033 26.5923 732.57C26.4685 732.514 26.2485 732.326 26.2373 732.404C25.9739 734.241 24.9782 731.805 24.5718 732.695C24.267 732.442 24.1237 732.119 24.0889 731.721C24.0094 730.807 24.383 730.035 24.8067 729.276C26.4121 726.403 28.7118 724.11 31.0702 721.877C31.6381 721.339 32.4939 721.31 33.2299 721.094C33.6619 720.967 33.9166 721.324 34.0802 721.667C34.3043 722.135 34.0575 722.184 33.6739 722.059C33.623 722.901 33.0729 723.483 32.6214 724.122C32.4226 724.403 32.2938 724.743 31.9223 724.531Z" fill="#FFA051"/>
<path fill-rule="evenodd" clip-rule="evenodd" d="M65.4967 678.344C65.404 678.275 65.3116 678.206 65.2192 678.138C64.6866 678.981 64.1489 679.822 63.6291 680.673C63.5686 680.773 63.4502 680.952 63.6299 681.061C63.755 681.136 63.9696 681.158 64.0122 680.999C64.2827 679.991 65.2292 679.349 65.4967 678.344ZM61.5714 688.586C61.2421 689.061 61.4769 689.875 60.4393 689.94C59.6892 689.988 59.8247 689.626 59.8243 689.24C59.1793 689.298 59.4374 690.064 58.8662 690.216C58.6309 689.179 59.0132 688.187 58.9669 687.191C58.9739 687.161 58.9785 687.129 58.9814 687.094C59.7824 686.406 59.9671 685.378 60.4112 684.494C60.5943 684.128 60.6585 683.693 60.8834 683.362C62.6934 680.699 64.1663 677.823 66.116 675.243C67.644 673.221 68.9971 671.068 70.6291 669.12C71.0044 668.672 71.3361 668.182 72.1414 667.712C71.52 668.837 71.047 669.693 70.5744 670.549C70.586 670.515 70.5964 670.48 70.6055 670.444C69.36 671.43 68.8526 672.953 67.786 674.089C68.1505 674.398 68.2599 674.076 68.4351 674.04C68.735 673.978 68.9201 674.166 69.0361 674.424C69.0932 674.55 69.2071 674.737 69.0054 674.788C68.1108 675.018 68.3253 675.761 68.2992 676.349C68.2702 677 67.9165 677.357 67.4079 677.648C66.6242 678.096 66.1582 678.731 66.2423 679.679C66.1048 679.882 65.9677 680.086 65.8302 680.289C64.9736 680.709 63.7484 682.755 63.8354 683.62C63.3466 683.645 63.1536 684.571 62.4884 684.063C62.2912 683.516 62.1794 683.256 61.6674 683.938C61.0205 684.799 61.1244 685.971 60.3441 686.74C60.2281 686.854 60.236 687.022 60.395 687.12C60.6017 687.246 60.7935 687.154 60.825 686.951C60.9625 686.073 61.6629 685.457 61.875 684.622C61.9648 684.27 62.0597 683.962 62.5199 684.031C62.7995 685.657 61.5477 686.768 61.1186 688.156C61.0619 688.339 60.3722 687.844 60.6224 688.463C60.7442 688.765 61.2035 688.915 61.5714 688.586Z" fill="#FFA051"/>
<path fill-rule="evenodd" clip-rule="evenodd" d="M87.1906 763.677C86.9611 764.309 87.1388 764.88 87.3409 765.428C87.4474 765.716 87.5278 765.935 87.1823 766.055C86.8671 766.164 86.6733 765.942 86.5614 765.702C86.276 765.089 86.3469 764.405 86.5163 763.821C87.162 761.59 88.3727 759.654 89.8659 757.888C90.3091 757.364 90.8343 756.89 91.1814 756.309C91.8122 755.253 92.8859 754.952 93.9093 754.618C94.3873 754.462 94.4789 755.103 94.577 755.448C94.633 755.645 94.4876 756.028 94.3115 756.144C92.6104 757.256 92.3366 759.329 91.1827 760.82C90.8024 761.311 90.9768 762.307 90.4856 762.959C90.0975 763.475 89.8883 764.119 89.1667 764.364C88.7505 764.506 89.0657 765.041 88.8776 765.36C88.7811 765.524 88.7219 765.72 88.5165 765.747C88.3118 765.773 88.0538 765.599 88.0907 765.468C88.3388 764.588 87.3004 764.364 87.1906 763.677Z" fill="#FFA051"/>
<path fill-rule="evenodd" clip-rule="evenodd" d="M44.3921 740.996C44.3404 741.117 44.2886 741.238 44.2377 741.358C42.7436 742.675 41.5383 744.263 40.3686 745.843C38.7594 748.016 37.3043 750.312 35.9031 752.629C34.7172 754.589 33.2046 756.351 32.3729 758.534C32.0353 759.421 31.4753 760.23 30.4978 760.835C30.2675 759.5 31.1174 758.645 31.6074 757.705C32.8981 755.226 34.5284 752.954 36.1317 750.674C39.0245 746.562 41.7421 742.31 45.3473 738.745C45.5536 738.542 45.7184 738.261 46.2146 738.413C45.8907 739.492 44.8552 740.059 44.3921 740.996Z" fill="#FFA051"/>
<path fill-rule="evenodd" clip-rule="evenodd" d="M88.1746 725.249C87.7309 725.574 88.2537 726.452 87.5744 726.309C86.9953 726.187 87.2045 725.481 87.3499 725.033C88.2524 722.258 90.0314 720.204 92.6073 718.859C92.9975 718.655 93.5637 718.344 93.9245 718.921C94.2451 719.433 93.7493 719.744 93.4664 720.064C92.2805 721.408 91.1556 722.78 90.8594 724.631C90.7853 725.097 90.4079 725.264 90.0235 725.422C89.8893 725.477 89.7543 725.567 89.659 725.675C88.9064 726.531 88.3386 726.621 88.1746 725.249Z" fill="#FFA051"/>
<path fill-rule="evenodd" clip-rule="evenodd" d="M64.9498 675.452C64.8255 676.834 63.6438 677.597 63.0014 678.674C62.5255 679.47 62.1374 680.375 61.3769 681.008C61.1876 681.165 61.1118 681.512 60.7995 681.336C60.551 681.196 60.5004 680.913 60.6682 680.647C61.6784 679.045 62.6609 677.424 63.8679 675.957C64.1529 675.611 64.6023 675.62 64.9821 675.48L64.9498 675.452Z" fill="#FFA051"/>
<path fill-rule="evenodd" clip-rule="evenodd" d="M64.9821 675.48C64.8408 675.174 64.6768 674.889 64.9336 674.54C66.3887 672.56 67.8136 670.556 69.5002 668.759C69.6307 668.62 69.7027 668.29 69.9977 668.496C70.1845 668.627 70.1381 668.83 70.0101 668.992C68.3611 671.076 66.7611 673.197 65.2633 675.394C65.2211 675.455 65.0571 675.435 64.9498 675.452L64.9821 675.48Z" fill="#FFA051"/>
<path fill-rule="evenodd" clip-rule="evenodd" d="M58.9813 687.094C58.9788 687.129 58.9738 687.161 58.9672 687.191C58.768 687.695 58.333 688.103 58.3703 688.705C58.3836 688.92 58.4122 689.224 58.0854 689.196C57.7933 689.171 57.8327 688.9 57.8584 688.669C58.0874 686.614 58.7858 684.692 59.5641 682.8C59.6978 682.475 60.0893 682.126 60.4467 682.293C60.87 682.49 60.5503 682.908 60.4003 683.153C59.6543 684.373 59.3292 685.736 58.9813 687.094Z" fill="#FFA051"/>
<path fill-rule="evenodd" clip-rule="evenodd" d="M70.6063 670.444C70.5972 670.48 70.5868 670.514 70.5748 670.548C71.0511 670.064 71.88 669.921 71.9603 669.028C71.9736 668.88 72.3488 668.341 72.7282 668.674C73.089 668.99 72.7038 669.324 72.495 669.521C71.5515 670.415 70.8026 671.424 70.3739 672.779C70.0115 672.356 69.4701 672.08 70.1908 671.566C70.5781 671.289 70.4232 670.802 70.6063 670.444Z" fill="#FFA051"/>
<path fill-rule="evenodd" clip-rule="evenodd" d="M65.8303 680.29C65.9678 680.086 66.1053 679.882 66.2424 679.679C66.4077 679.549 66.5729 679.419 66.7378 679.289C66.7962 679.329 66.8538 679.37 66.9118 679.41C66.5319 680.088 66.1517 680.766 65.7719 681.444C65.6907 681.417 65.6095 681.39 65.5283 681.363C65.629 681.006 65.7296 680.647 65.8303 680.29Z" fill="#FFA051"/>
<path fill-rule="evenodd" clip-rule="evenodd" d="M62.0119 688C61.7907 687.222 62.3578 686.706 62.6552 686.106C62.9468 685.517 63.2864 684.952 63.6053 684.376C63.718 684.669 63.6915 684.928 63.5283 685.215C63.0052 686.134 62.5147 687.071 62.0119 688Z" fill="#FFA051"/>
</g>
<defs>
<clipPath id="clip0_103_16255">
<rect width="101.391" height="784.174" fill="white" transform="translate(0.609375)"/>
</clipPath>
</defs>
</svg>
