<svg width="180" height="40" viewBox="0 0 180 40" fill="none" xmlns="http://www.w3.org/2000/svg">
<g clip-path="url(#clip0_103_25447)">
<path d="M111.987 17.1122H116.374C116.568 17.1122 116.754 17.0352 116.891 16.898C117.029 16.7609 117.106 16.5749 117.106 16.381C117.106 16.187 117.029 16.001 116.891 15.8639C116.754 15.7267 116.568 15.6497 116.374 15.6497H111.987C111.793 15.6497 111.607 15.7267 111.47 15.8639C111.333 16.001 111.256 16.187 111.256 16.381C111.256 16.5749 111.333 16.7609 111.47 16.898C111.607 17.0352 111.793 17.1122 111.987 17.1122ZM110.524 20.0372H116.374C116.568 20.0372 116.754 19.9602 116.891 19.823C117.029 19.6859 117.106 19.4999 117.106 19.306C117.106 19.112 117.029 18.926 116.891 18.7889C116.754 18.6517 116.568 18.5747 116.374 18.5747H110.524C110.33 18.5747 110.144 18.6517 110.007 18.7889C109.87 18.926 109.793 19.112 109.793 19.306C109.793 19.4999 109.87 19.6859 110.007 19.823C110.144 19.9602 110.33 20.0372 110.524 20.0372ZM110.524 22.9622H116.374C116.568 22.9622 116.754 22.8852 116.891 22.748C117.029 22.6109 117.106 22.4249 117.106 22.231C117.106 22.037 117.029 21.851 116.891 21.7139C116.754 21.5767 116.568 21.4997 116.374 21.4997H110.524C110.33 21.4997 110.144 21.5767 110.007 21.7139C109.87 21.851 109.793 22.037 109.793 22.231C109.793 22.4249 109.87 22.6109 110.007 22.748C110.144 22.8852 110.33 22.9622 110.524 22.9622ZM119.299 12.7247H107.599C107.405 12.7247 107.219 12.8017 107.082 12.9389C106.945 13.076 106.868 13.262 106.868 13.456V26.6185C106.868 26.7543 106.906 26.8874 106.977 27.0029C107.049 27.1184 107.151 27.2118 107.272 27.2725C107.394 27.3332 107.53 27.3589 107.665 27.3467C107.8 27.3346 107.93 27.2849 108.038 27.2035L109.552 26.07L111.058 27.2035C111.185 27.2984 111.339 27.3497 111.497 27.3497C111.655 27.3497 111.809 27.2984 111.936 27.2035L113.449 26.07L114.963 27.2035C115.09 27.2984 115.244 27.3497 115.402 27.3497C115.56 27.3497 115.714 27.2984 115.841 27.2035L117.347 26.07L118.861 27.2035C118.97 27.2848 119.1 27.3341 119.235 27.3457C119.371 27.3573 119.507 27.3309 119.628 27.2693C119.749 27.2085 119.85 27.1155 119.921 27.0007C119.992 26.8858 120.03 26.7535 120.031 26.6185V13.456C120.031 13.262 119.954 13.076 119.816 12.9389C119.679 12.8017 119.493 12.7247 119.299 12.7247ZM118.568 25.156L117.786 24.571C117.659 24.476 117.505 24.4247 117.347 24.4247C117.189 24.4247 117.035 24.476 116.908 24.571L115.402 25.7044L113.888 24.571C113.762 24.476 113.608 24.4247 113.449 24.4247C113.291 24.4247 113.137 24.476 113.011 24.571L111.497 25.7044L109.991 24.571C109.864 24.476 109.71 24.4247 109.552 24.4247C109.394 24.4247 109.24 24.476 109.113 24.571L108.331 25.156V14.1872H118.568V25.156Z" fill="#FCE37E"/>
<path d="M101.019 0.659174H125.881C129.718 0.659174 132.828 3.76939 132.828 7.60605V32.4686C132.828 36.3052 129.718 39.4154 125.881 39.4154H101.019C97.1819 39.4154 94.0717 36.3052 94.0717 32.4685V7.60604C94.0717 3.76939 97.1819 0.659174 101.019 0.659174Z" stroke="#F2F2F2" stroke-width="0.73125"/>
<path d="M18.7223 15.6462L19.1172 15.2147V17.8399C19.1172 18.0339 19.1942 18.2199 19.3314 18.357C19.4685 18.4941 19.6545 18.5712 19.8484 18.5712C20.0424 18.5712 20.2284 18.4941 20.3655 18.357C20.5026 18.2199 20.5797 18.0339 20.5797 17.8399V15.2147L20.9746 15.6169C21.0409 15.6919 21.122 15.7524 21.2127 15.7948C21.3035 15.8371 21.4019 15.8604 21.502 15.8632C21.6021 15.8659 21.7017 15.8481 21.7946 15.8107C21.8875 15.7734 21.9718 15.7174 22.0422 15.6462C22.1107 15.5782 22.1651 15.4973 22.2023 15.4082C22.2394 15.3191 22.2585 15.2235 22.2585 15.127C22.2585 15.0305 22.2394 14.9349 22.2023 14.8458C22.1651 14.7567 22.1107 14.6758 22.0422 14.6078L20.3676 12.9332C20.2981 12.8667 20.2161 12.8145 20.1263 12.7797C19.9483 12.7065 19.7486 12.7065 19.5706 12.7797C19.4808 12.8145 19.3988 12.8667 19.3292 12.9332L17.6547 14.5786C17.5131 14.7201 17.4336 14.9121 17.4336 15.1124C17.4336 15.3126 17.5131 15.5046 17.6547 15.6462C17.7963 15.7878 17.9883 15.8673 18.1885 15.8673C18.3887 15.8673 18.5807 15.7878 18.7223 15.6462ZM19.8484 20.0337C19.4146 20.0337 18.9904 20.1623 18.6297 20.4034C18.2689 20.6444 17.9877 20.9871 17.8217 21.3879C17.6556 21.7888 17.6122 22.2299 17.6968 22.6554C17.7815 23.081 17.9904 23.4718 18.2972 23.7786C18.604 24.0854 18.9949 24.2944 19.4205 24.379C19.846 24.4637 20.2871 24.4202 20.6879 24.2542C21.0888 24.0881 21.4314 23.807 21.6725 23.4462C21.9135 23.0854 22.0422 22.6613 22.0422 22.2274C22.0422 21.6456 21.8111 21.0876 21.3997 20.6762C20.9882 20.2648 20.4303 20.0337 19.8484 20.0337ZM19.8484 22.9587C19.7038 22.9587 19.5624 22.9158 19.4422 22.8354C19.3219 22.7551 19.2282 22.6409 19.1729 22.5073C19.1175 22.3736 19.103 22.2266 19.1312 22.0848C19.1595 21.9429 19.2291 21.8126 19.3314 21.7104C19.4336 21.6081 19.5639 21.5384 19.7058 21.5102C19.8476 21.482 19.9947 21.4965 20.1283 21.5518C20.2619 21.6072 20.3761 21.7009 20.4564 21.8212C20.5368 21.9414 20.5797 22.0828 20.5797 22.2274C20.5797 22.4214 20.5026 22.6074 20.3655 22.7445C20.2284 22.8816 20.0424 22.9587 19.8484 22.9587ZM14.7297 22.2274C14.7297 22.3721 14.7726 22.5134 14.8529 22.6337C14.9333 22.7539 15.0475 22.8477 15.1811 22.903C15.3147 22.9584 15.4617 22.9728 15.6036 22.9446C15.7454 22.9164 15.8757 22.8468 15.978 22.7445C16.0803 22.6422 16.1499 22.5119 16.1781 22.3701C16.2064 22.2282 16.1919 22.0812 16.1365 21.9476C16.0812 21.814 15.9875 21.6998 15.8672 21.6194C15.7469 21.5391 15.6056 21.4962 15.4609 21.4962C15.267 21.4962 15.081 21.5732 14.9439 21.7104C14.8067 21.8475 14.7297 22.0335 14.7297 22.2274ZM24.9672 22.2274C24.9672 22.0828 24.9243 21.9414 24.844 21.8212C24.7636 21.7009 24.6494 21.6072 24.5158 21.5518C24.3822 21.4965 24.2351 21.482 24.0933 21.5102C23.9514 21.5384 23.8211 21.6081 23.7189 21.7104C23.6166 21.8126 23.547 21.9429 23.5187 22.0848C23.4905 22.2266 23.505 22.3736 23.5604 22.5073C23.6157 22.6409 23.7094 22.7551 23.8297 22.8354C23.9499 22.9158 24.0913 22.9587 24.2359 22.9587C24.4299 22.9587 24.6159 22.8816 24.753 22.7445C24.8901 22.6074 24.9672 22.4214 24.9672 22.2274ZM25.6984 17.1087H22.7734C22.5795 17.1087 22.3935 17.1857 22.2564 17.3229C22.1192 17.46 22.0422 17.646 22.0422 17.8399C22.0422 18.0339 22.1192 18.2199 22.2564 18.357C22.3935 18.4941 22.5795 18.5712 22.7734 18.5712H25.6984C25.8924 18.5712 26.0784 18.6482 26.2155 18.7854C26.3526 18.9225 26.4297 19.1085 26.4297 19.3024V25.1524C26.4297 25.3464 26.3526 25.5324 26.2155 25.6695C26.0784 25.8066 25.8924 25.8837 25.6984 25.8837H13.9984C13.8045 25.8837 13.6185 25.8066 13.4814 25.6695C13.3442 25.5324 13.2672 25.3464 13.2672 25.1524V19.3024C13.2672 19.1085 13.3442 18.9225 13.4814 18.7854C13.6185 18.6482 13.8045 18.5712 13.9984 18.5712H16.9234C17.1174 18.5712 17.3034 18.4941 17.4405 18.357C17.5776 18.2199 17.6547 18.0339 17.6547 17.8399C17.6547 17.646 17.5776 17.46 17.4405 17.3229C17.3034 17.1857 17.1174 17.1087 16.9234 17.1087H13.9984C13.4166 17.1087 12.8586 17.3398 12.4472 17.7512C12.0358 18.1626 11.8047 18.7206 11.8047 19.3024V25.1524C11.8047 25.7342 12.0358 26.2922 12.4472 26.7036C12.8586 27.115 13.4166 27.3462 13.9984 27.3462H25.6984C26.2803 27.3462 26.8382 27.115 27.2497 26.7036C27.6611 26.2922 27.8922 25.7342 27.8922 25.1524V19.3024C27.8922 18.7206 27.6611 18.1626 27.2497 17.7512C26.8382 17.3398 26.2803 17.1087 25.6984 17.1087Z" fill="#A789FF"/>
<path d="M7.41797 0.659296H32.2805C36.1171 0.659296 39.2273 3.76952 39.2273 7.60617V32.4687C39.2273 36.3053 36.1171 39.4155 32.2805 39.4155H7.41796C3.58131 39.4155 0.471094 36.3053 0.471094 32.4687V7.60616C0.471094 3.76951 3.58131 0.659296 7.41797 0.659296Z" stroke="#F2F2F2" stroke-width="0.73125"/>
<path d="M65.5231 15.6462L65.918 15.2147V17.8399C65.918 18.0339 65.995 18.2199 66.1321 18.357C66.2693 18.4941 66.4553 18.5712 66.6492 18.5712C66.8432 18.5712 67.0292 18.4941 67.1663 18.357C67.3034 18.2199 67.3805 18.0339 67.3805 17.8399V15.2147L67.7753 15.6169C67.8417 15.6919 67.9228 15.7524 68.0135 15.7948C68.1043 15.8371 68.2027 15.8604 68.3028 15.8632C68.4029 15.8659 68.5025 15.8481 68.5954 15.8107C68.6883 15.7734 68.7726 15.7174 68.843 15.6462C68.9115 15.5782 68.9659 15.4973 69.003 15.4082C69.0402 15.3191 69.0593 15.2235 69.0593 15.127C69.0593 15.0305 69.0402 14.9349 69.003 14.8458C68.9659 14.7567 68.9115 14.6758 68.843 14.6078L67.1684 12.9332C67.0989 12.8667 67.0169 12.8145 66.9271 12.7797C66.7491 12.7065 66.5494 12.7065 66.3713 12.7797C66.2816 12.8145 66.1996 12.8667 66.13 12.9332L64.4555 14.5786C64.3139 14.7201 64.2344 14.9121 64.2344 15.1124C64.2344 15.3126 64.3139 15.5046 64.4555 15.6462C64.597 15.7878 64.7891 15.8673 64.9893 15.8673C65.1895 15.8673 65.3815 15.7878 65.5231 15.6462ZM66.6492 20.0337C66.2153 20.0337 65.7912 20.1623 65.4304 20.4034C65.0697 20.6444 64.7885 20.9871 64.6225 21.3879C64.4564 21.7888 64.413 22.2299 64.4976 22.6554C64.5823 23.081 64.7912 23.4718 65.098 23.7786C65.4048 24.0854 65.7957 24.2944 66.2212 24.379C66.6468 24.4637 67.0879 24.4202 67.4887 24.2542C67.8896 24.0881 68.2322 23.807 68.4733 23.4462C68.7143 23.0854 68.843 22.6613 68.843 22.2274C68.843 21.6456 68.6118 21.0876 68.2004 20.6762C67.789 20.2648 67.231 20.0337 66.6492 20.0337ZM66.6492 22.9587C66.5046 22.9587 66.3632 22.9158 66.243 22.8354C66.1227 22.7551 66.029 22.6409 65.9736 22.5073C65.9183 22.3736 65.9038 22.2266 65.932 22.0848C65.9602 21.9429 66.0299 21.8126 66.1321 21.7104C66.2344 21.6081 66.3647 21.5384 66.5066 21.5102C66.6484 21.482 66.7954 21.4965 66.9291 21.5518C67.0627 21.6072 67.1769 21.7009 67.2572 21.8212C67.3376 21.9414 67.3805 22.0828 67.3805 22.2274C67.3805 22.4214 67.3034 22.6074 67.1663 22.7445C67.0292 22.8816 66.8432 22.9587 66.6492 22.9587ZM61.5305 22.2274C61.5305 22.3721 61.5734 22.5134 61.6537 22.6337C61.7341 22.7539 61.8483 22.8477 61.9819 22.903C62.1155 22.9584 62.2625 22.9728 62.4044 22.9446C62.5462 22.9164 62.6765 22.8468 62.7788 22.7445C62.8811 22.6422 62.9507 22.5119 62.9789 22.3701C63.0071 22.2282 62.9927 22.0812 62.9373 21.9476C62.882 21.814 62.7882 21.6998 62.668 21.6194C62.5477 21.5391 62.4063 21.4962 62.2617 21.4962C62.0678 21.4962 61.8818 21.5732 61.7446 21.7104C61.6075 21.8475 61.5305 22.0335 61.5305 22.2274ZM71.768 22.2274C71.768 22.0828 71.7251 21.9414 71.6447 21.8212C71.5644 21.7009 71.4502 21.6072 71.3166 21.5518C71.1829 21.4965 71.0359 21.482 70.8941 21.5102C70.7522 21.5384 70.6219 21.6081 70.5196 21.7104C70.4174 21.8126 70.3477 21.9429 70.3195 22.0848C70.2913 22.2266 70.3058 22.3736 70.3611 22.5073C70.4165 22.6409 70.5102 22.7551 70.6305 22.8354C70.7507 22.9158 70.8921 22.9587 71.0367 22.9587C71.2307 22.9587 71.4167 22.8816 71.5538 22.7445C71.6909 22.6074 71.768 22.4214 71.768 22.2274ZM72.4992 17.1087H69.5742C69.3803 17.1087 69.1943 17.1857 69.0571 17.3229C68.92 17.46 68.843 17.646 68.843 17.8399C68.843 18.0339 68.92 18.2199 69.0571 18.357C69.1943 18.4941 69.3803 18.5712 69.5742 18.5712H72.4992C72.6932 18.5712 72.8792 18.6482 73.0163 18.7854C73.1534 18.9225 73.2305 19.1085 73.2305 19.3024V25.1524C73.2305 25.3464 73.1534 25.5324 73.0163 25.6695C72.8792 25.8066 72.6932 25.8837 72.4992 25.8837H60.7992C60.6053 25.8837 60.4193 25.8066 60.2821 25.6695C60.145 25.5324 60.068 25.3464 60.068 25.1524V19.3024C60.068 19.1085 60.145 18.9225 60.2821 18.7854C60.4193 18.6482 60.6053 18.5712 60.7992 18.5712H63.7242C63.9182 18.5712 64.1042 18.4941 64.2413 18.357C64.3784 18.2199 64.4555 18.0339 64.4555 17.8399C64.4555 17.646 64.3784 17.46 64.2413 17.3229C64.1042 17.1857 63.9182 17.1087 63.7242 17.1087H60.7992C60.2174 17.1087 59.6594 17.3398 59.248 17.7512C58.8366 18.1626 58.6055 18.7206 58.6055 19.3024V25.1524C58.6055 25.7342 58.8366 26.2922 59.248 26.7036C59.6594 27.115 60.2174 27.3462 60.7992 27.3462H72.4992C73.081 27.3462 73.639 27.115 74.0504 26.7036C74.4618 26.2922 74.693 25.7342 74.693 25.1524V19.3024C74.693 18.7206 74.4618 18.1626 74.0504 17.7512C73.639 17.3398 73.081 17.1087 72.4992 17.1087Z" fill="#83DEA4"/>
<path d="M54.2178 0.659296H79.0803C82.9169 0.659296 86.0271 3.76952 86.0271 7.60617V32.4687C86.0271 36.3053 82.9169 39.4155 79.0803 39.4155H54.2178C50.3811 39.4155 47.2709 36.3053 47.2709 32.4687V7.60616C47.2709 3.76951 50.3811 0.659296 54.2178 0.659296Z" stroke="#F2F2F2" stroke-width="0.73125"/>
<rect x="140.871" y="0.659174" width="38.7562" height="38.7562" rx="6.94688" stroke="#F2F2F2" stroke-width="0.73125"/>
<path fill-rule="evenodd" clip-rule="evenodd" d="M156.227 22.2307C155.896 22.2307 155.429 22.2764 154.943 22.343C154.716 22.3741 154.542 22.5474 154.511 22.7746C154.445 23.2609 154.399 23.7281 154.399 24.0588C154.399 24.3894 154.445 24.8566 154.511 25.343C154.542 25.5702 154.716 25.7435 154.943 25.7746C155.429 25.8412 155.896 25.8869 156.227 25.8869C156.558 25.8869 157.025 25.8412 157.511 25.7746C157.739 25.7435 157.912 25.5702 157.943 25.343C158.01 24.8566 158.055 24.3894 158.055 24.0588C158.055 23.7281 158.01 23.2609 157.943 22.7746C157.912 22.5474 157.739 22.3741 157.511 22.343C157.025 22.2764 156.558 22.2307 156.227 22.2307ZM154.744 20.894C153.867 21.0142 153.183 21.6987 153.062 22.5761C152.993 23.0794 152.937 23.626 152.937 24.0588C152.937 24.4916 152.993 25.0382 153.062 25.5414C153.183 26.4189 153.867 27.1034 154.744 27.2236C155.248 27.2925 155.794 27.3494 156.227 27.3494C156.66 27.3494 157.207 27.2925 157.71 27.2236C158.587 27.1034 159.272 26.4189 159.392 25.5414C159.461 25.0382 159.518 24.4916 159.518 24.0588C159.518 23.626 159.461 23.0794 159.392 22.5761C159.272 21.6987 158.587 21.0142 157.71 20.894C157.207 20.8251 156.66 20.7682 156.227 20.7682C155.794 20.7682 155.248 20.8251 154.744 20.894Z" fill="#436CFB"/>
<path fill-rule="evenodd" clip-rule="evenodd" d="M164.271 14.187C163.94 14.187 163.473 14.2327 162.987 14.2993C162.76 14.3304 162.586 14.5036 162.555 14.7309C162.489 15.2172 162.443 15.6844 162.443 16.0151C162.443 16.3457 162.489 16.8129 162.555 17.2993C162.586 17.5265 162.76 17.6998 162.987 17.7309C163.473 17.7975 163.94 17.8432 164.271 17.8432C164.602 17.8432 165.069 17.7975 165.555 17.7309C165.783 17.6998 165.956 17.5265 165.987 17.2993C166.054 16.8129 166.099 16.3457 166.099 16.0151C166.099 15.6844 166.054 15.2172 165.987 14.7309C165.956 14.5036 165.783 14.3304 165.555 14.2993C165.069 14.2327 164.602 14.187 164.271 14.187ZM162.788 12.8503C161.911 12.9705 161.226 13.655 161.106 14.5324C161.037 15.0357 160.98 15.5823 160.98 16.0151C160.98 16.4479 161.037 16.9945 161.106 17.4977C161.226 18.3752 161.911 19.0597 162.788 19.1799C163.292 19.2488 163.838 19.3057 164.271 19.3057C164.704 19.3057 165.25 19.2488 165.754 19.1799C166.631 19.0597 167.316 18.3752 167.436 17.4977C167.505 16.9945 167.562 16.4479 167.562 16.0151C167.562 15.5823 167.505 15.0357 167.436 14.5324C167.316 13.655 166.631 12.9705 165.754 12.8503C165.25 12.7814 164.704 12.7245 164.271 12.7245C163.838 12.7245 163.292 12.7814 162.788 12.8503Z" fill="#436CFB"/>
<path fill-rule="evenodd" clip-rule="evenodd" d="M156.227 14.187C155.896 14.187 155.429 14.2327 154.943 14.2993C154.716 14.3304 154.542 14.5036 154.511 14.7309C154.445 15.2172 154.399 15.6844 154.399 16.0151C154.399 16.3457 154.445 16.8129 154.511 17.2993C154.542 17.5265 154.716 17.6998 154.943 17.7309C155.429 17.7975 155.896 17.8432 156.227 17.8432C156.558 17.8432 157.025 17.7975 157.511 17.7309C157.739 17.6998 157.912 17.5265 157.943 17.2993C158.01 16.8129 158.055 16.3457 158.055 16.0151C158.055 15.6844 158.01 15.2172 157.943 14.7309C157.912 14.5036 157.739 14.3304 157.511 14.2993C157.025 14.2327 156.558 14.187 156.227 14.187ZM154.744 12.8503C153.867 12.9705 153.183 13.655 153.062 14.5324C152.993 15.0357 152.937 15.5823 152.937 16.0151C152.937 16.4479 152.993 16.9945 153.062 17.4977C153.183 18.3752 153.867 19.0597 154.744 19.1799C155.248 19.2488 155.794 19.3057 156.227 19.3057C156.66 19.3057 157.207 19.2488 157.71 19.1799C158.587 19.0597 159.272 18.3752 159.392 17.4977C159.461 16.9945 159.518 16.4479 159.518 16.0151C159.518 15.5823 159.461 15.0357 159.392 14.5324C159.272 13.655 158.587 12.9705 157.71 12.8503C157.207 12.7814 156.66 12.7245 156.227 12.7245C155.794 12.7245 155.248 12.7814 154.744 12.8503Z" fill="#436CFB"/>
<path fill-rule="evenodd" clip-rule="evenodd" d="M165.123 22.2311C165.123 21.9282 164.877 21.6826 164.574 21.6826C164.271 21.6826 164.026 21.9282 164.026 22.2311V23.8149H162.442C162.139 23.8149 161.894 24.0605 161.894 24.3634C161.894 24.6663 162.139 24.9118 162.442 24.9118H164.026V26.4967C164.026 26.7996 164.271 27.0451 164.574 27.0451C164.877 27.0451 165.123 26.7996 165.123 26.4967V24.9118H166.708C167.011 24.9118 167.256 24.6663 167.256 24.3634C167.256 24.0605 167.011 23.8149 166.708 23.8149H165.123V22.2311Z" fill="#436CFB"/>
</g>
<defs>
<clipPath id="clip0_103_25447">
<rect width="179.887" height="39.4876" fill="white" transform="translate(0.105469 0.293549)"/>
</clipPath>
</defs>
</svg>
