<svg width="13" height="12" viewBox="0 0 13 12" fill="none" xmlns="http://www.w3.org/2000/svg">
<path d="M8.74056 5.9037C8.76461 5.92774 8.78368 5.95628 8.7967 5.98768C8.80971 6.01909 8.81641 6.05275 8.81641 6.08675C8.81641 6.12075 8.80971 6.15441 8.7967 6.18582C8.78368 6.21723 8.76461 6.24576 8.74056 6.2698L6.39545 8.61491C6.35197 8.65827 6.29697 8.68311 6.24029 8.68919C6.1642 8.69825 6.08474 8.67367 6.02625 8.6153L3.67777 6.26682C3.62922 6.21829 3.60194 6.15246 3.60193 6.08382C3.60192 6.01518 3.62917 5.94934 3.6777 5.90079C3.72623 5.85225 3.79206 5.82497 3.8607 5.82495C3.92935 5.82494 3.99518 5.8522 4.04373 5.90073L5.94731 7.80418L5.94731 3.27493C5.94731 3.20629 5.97458 3.14046 6.02312 3.09192C6.07165 3.04338 6.13748 3.01611 6.20612 3.01611C6.27477 3.01611 6.3406 3.04338 6.38913 3.09192C6.43767 3.14046 6.46494 3.20629 6.46494 3.27493L6.46494 7.8135L8.37434 5.9037C8.39838 5.87966 8.42691 5.86059 8.45832 5.84757C8.48973 5.83456 8.52339 5.82786 8.55739 5.82786C8.59139 5.82786 8.62505 5.83456 8.65646 5.84757C8.68786 5.86059 8.7164 5.87966 8.74043 5.9037L8.74056 5.9037Z" fill="#FEFFFF"/>
<path d="M3.28437 0.369531H9.13438C10.5479 0.369531 11.6938 1.5154 11.6938 2.92891V8.77891C11.6938 10.1924 10.5479 11.3383 9.13438 11.3383H3.28437C1.87087 11.3383 0.725 10.1924 0.725 8.77891V2.9289C0.725 1.5154 1.87087 0.369531 3.28437 0.369531Z" stroke="#FEFFFF" stroke-width="0.73125"/>
</svg>
