<svg width="102" height="1294" viewBox="0 0 102 1294" fill="none" xmlns="http://www.w3.org/2000/svg">
<g clip-path="url(#clip0_103_16253)">
<path fill-rule="evenodd" clip-rule="evenodd" d="M15.869 1191.12C20.0598 1182.73 25.1972 1174.96 30.6265 1167.39C31.247 1167.55 30.7019 1167.93 30.9231 1168.18C31.2748 1168.34 31.6662 1167.49 32.1185 1168.25C32.5343 1168.94 32.2879 1169.46 31.995 1170C30.4538 1172.83 28.2279 1175.21 26.8846 1178.2C26.4249 1179.22 26.224 1180.46 25.0903 1181.26C24.3924 1181.75 24.5568 1182.98 23.9401 1183.8C23.554 1184.31 23.3395 1185.02 22.91 1185.6C21.1985 1187.89 20.2123 1190.48 19.931 1193.32C19.8805 1193.84 19.6668 1194.3 19.1913 1194.32C17.8948 1194.36 16.6071 1194.9 15.3363 1193.76C14.4139 1192.94 14.3281 1192.19 14.5891 1191.2C15.2182 1188.81 16.4662 1186.7 17.691 1184.59C19.1237 1182.12 20.7507 1179.77 22.2684 1177.35C24.3095 1174.11 26.5947 1171.04 28.7622 1167.89C28.9685 1167.59 29.1661 1166.97 29.6184 1167.25C29.9588 1167.45 29.6001 1167.94 29.4059 1168.24C28.1807 1170.12 26.8689 1171.94 25.5252 1173.74C24.2375 1175.46 23.1581 1177.35 22.0828 1179.23C20.3452 1182.26 18.4308 1185.18 16.8585 1188.3C16.4103 1189.19 15.9667 1190.1 15.869 1191.12Z" fill="#3777F9"/>
<path fill-rule="evenodd" clip-rule="evenodd" d="M9.24538 1227.32C8.45798 1227.95 7.88845 1226.96 7.63952 1226.76C6.96603 1226.22 5.91023 1226.78 5.64721 1226.14C5.24916 1225.17 4.39053 1224.35 4.74674 1223.05C5.43514 1220.54 6.47851 1218.17 7.44857 1215.78C8.15189 1214.04 8.82206 1212.28 9.84928 1210.69C10.3074 1209.98 10.8338 1209.36 11.6113 1209C12.4086 1208.64 13.1086 1208.61 13.8766 1209.27C14.4448 1209.75 15.1776 1210.07 15.7036 1210.64C16.2044 1211.19 16.602 1211.76 16.0114 1212.5C15.5967 1213.02 15.6717 1213.7 15.463 1214.29C14.6238 1216.67 14.3044 1219.23 12.9583 1221.43C11.9601 1223.07 11.2224 1224.82 10.4528 1226.56C10.2324 1227.06 10.0191 1227.67 9.24538 1227.32Z" fill="#3777F9"/>
<path fill-rule="evenodd" clip-rule="evenodd" d="M58.8878 1209.49C58.7026 1209.91 58.5834 1210.18 58.4682 1210.44C58.6049 1210.62 58.7312 1210.51 58.8671 1210.47C59.1458 1210.39 59.2415 1209.86 59.5791 1210.07C59.9875 1210.33 59.4623 1210.64 59.4938 1210.94C59.9407 1211.05 60.0596 1210.5 60.4241 1210.48C60.989 1211.35 60.6925 1212.05 60.1664 1212.83C58.737 1214.95 57.4981 1217.17 56.6639 1219.61C56.3492 1220.53 55.1707 1220.98 55.148 1222.05C55.119 1223.4 54.4869 1224.58 53.7765 1225.55C52.5497 1227.22 52.2875 1229.19 51.5573 1231C51.3518 1231.52 51.6335 1232.15 51.1281 1232.56C50.965 1232.7 50.7086 1233.01 50.6021 1232.75C50.2368 1231.86 49.5248 1232.29 48.9354 1232.14C47.8415 1231.87 47.6261 1230.79 47.5192 1229.85C47.351 1228.36 47.7802 1226.93 48.3836 1225.6C50.6932 1220.52 53.3793 1215.66 56.7025 1211.16C57.2086 1210.48 57.6626 1209.62 58.8878 1209.49Z" fill="#3777F9"/>
<path fill-rule="evenodd" clip-rule="evenodd" d="M43.5838 1189.34C43.3303 1190.13 43.0855 1190.96 42.8006 1191.77C40.9959 1196.92 38.6548 1201.84 36.1191 1206.66C35.147 1208.51 34.0265 1210.29 33.2909 1212.27C33.0805 1212.83 32.7023 1213.28 32.0276 1212.68C31.8685 1212.53 31.6325 1212.47 31.422 1212.4C30.0225 1211.9 29.4757 1210.83 29.9148 1209.37C30.3646 1207.88 31.1967 1206.57 32.0032 1205.26C35.4154 1199.71 38.625 1194.06 41.075 1188.01C41.3856 1187.24 41.4755 1187.24 42.0202 1187.83C42.0794 1187.89 42.1996 1187.94 42.2857 1187.93C43.3017 1187.84 43.3941 1188.58 43.5838 1189.34Z" fill="#3777F9"/>
<path fill-rule="evenodd" clip-rule="evenodd" d="M9.36956 1247.23C8.43926 1249.52 6.91832 1251.27 6.03193 1253.34C5.13601 1255.44 4.05122 1257.46 3.48873 1259.7C4.30429 1257.9 5.1153 1256.11 5.93624 1254.32C6.87897 1252.26 8.07435 1250.35 9.24944 1248.43C9.83926 1247.46 10.5016 1247.51 11.1655 1248.04C11.8138 1248.56 11.9484 1249.44 11.3378 1250.05C10.094 1251.29 9.39441 1252.88 8.94003 1254.44C8.14891 1257.16 6.75802 1259.68 6.33885 1262.52C6.24234 1263.17 5.76891 1263.73 5.67157 1264.46C5.56222 1265.28 5.51956 1265.98 5.9263 1266.75C6.16198 1267.19 6.74352 1267.78 6.22701 1268.27C5.80453 1268.68 5.18571 1268.97 4.48157 1268.6C4.21275 1268.46 3.82092 1268.56 3.485 1268.54C1.52086 1268.48 0.361511 1267.2 0.654351 1265.22C1.04701 1262.56 2.04482 1260.08 3.09855 1257.62C4.47908 1254.41 5.98015 1251.25 8.0234 1248.39C8.32494 1247.97 8.57761 1247.5 9.36956 1247.23Z" fill="#3777F9"/>
<path fill-rule="evenodd" clip-rule="evenodd" d="M62.9235 1272.28C60.2635 1272.28 59.462 1271.11 60.362 1268.91C61.0658 1267.18 62.2628 1265.76 63.4184 1264.34C66.1161 1261.01 68.924 1257.79 71.9133 1254.71C72.6443 1253.96 73.532 1253.69 74.4432 1253.42C74.7613 1253.32 75.4704 1253.13 75.4435 1253.4C75.3872 1253.97 75.9559 1254.49 75.4439 1255.09C73.1575 1257.8 71.1172 1260.7 69.0031 1263.54C68.0711 1264.79 67.0398 1265.97 66.1422 1267.25C65.5354 1268.11 64.9149 1269.05 65.5304 1270.21C65.6042 1270.35 65.5661 1270.71 65.5006 1270.73C64.4502 1271.08 63.8152 1272.2 62.9235 1272.28Z" fill="#3777F9"/>
<path fill-rule="evenodd" clip-rule="evenodd" d="M90.1146 1212.05C91.4806 1210.52 92.3306 1208.65 93.6776 1207.13C94.0744 1206.68 94.5499 1206.29 94.8891 1205.8C95.4491 1204.99 96.0252 1205.61 96.3955 1205.86C96.7551 1206.11 96.9236 1206.68 96.538 1207.22C94.9632 1209.42 93.6966 1211.84 92.6329 1214.29C91.8749 1216.05 90.6166 1217.58 90.354 1219.62C90.2542 1220.39 89.7269 1221.28 89.4345 1222.15C89.0435 1223.3 88.2403 1222.34 87.6207 1222.3C87.5229 1222.3 87.4364 1222.01 87.3469 1222.01C86.9654 1222.01 86.7409 1222.99 86.294 1222.31C85.6876 1221.4 85.0402 1220.53 85.4644 1219.18C86.1383 1217.04 87.1734 1215.1 88.3062 1213.2C89.842 1210.63 91.2586 1207.96 93.4444 1205.83C93.6055 1205.68 93.7534 1205.5 93.9257 1205.36C94.1034 1205.21 94.3423 1205.09 94.5329 1205.27C94.7752 1205.5 94.6468 1205.78 94.4347 1205.95C92.5812 1207.47 91.6579 1209.66 90.359 1211.58C90.2604 1211.72 90.1954 1211.89 90.1146 1212.05Z" fill="#3777F9"/>
<path fill-rule="evenodd" clip-rule="evenodd" d="M44.3926 1250.17C44.9642 1249.64 45.6095 1249.15 46.0879 1248.54C46.6463 1247.83 47.268 1247.67 48.0545 1247.98C48.5222 1248.17 48.4228 1248.66 48.3776 1248.97C48.2612 1249.78 47.7849 1250.4 47.007 1250.68C46.821 1250.75 46.541 1250.61 46.5415 1250.95C46.5456 1252.59 45.1046 1253.46 44.4854 1254.78C44.2952 1255.18 43.9411 1255.57 43.6918 1255.98C42.9636 1257.19 42.368 1258.5 40.8247 1258.96C40.4651 1259.07 39.8952 1259.39 40.0895 1259.94C40.6822 1261.61 39.515 1262.72 38.8526 1263.96C37.7641 1265.99 36.3832 1267.85 35.3738 1269.93C35.2599 1270.16 35.1895 1270.5 34.8622 1270.42C34.4534 1270.31 34.9952 1269.95 34.7115 1269.74C34.202 1270.01 33.7547 1270.74 33.0443 1269.88C32.7908 1269.57 32.4184 1270.09 32.2362 1270.42C32.0974 1270.67 31.945 1270.9 31.6323 1270.72C31.2541 1270.5 31.5801 1270.27 31.6799 1270.06C33.4991 1266.35 35.7461 1262.91 38.0781 1259.51C40.1317 1256.52 42.1849 1253.53 44.2381 1250.54C44.289 1250.42 44.3408 1250.3 44.3926 1250.17Z" fill="#3777F9"/>
<path fill-rule="evenodd" clip-rule="evenodd" d="M64.276 1237.01C65.5351 1235.07 66.8038 1233.12 68.2051 1231.26C66.6067 1232.46 64.6798 1235.24 64.276 1237.01ZM66.7401 1239.97C66.3482 1240.09 67.3473 1238.72 66.2795 1239.56C66.2509 1239.58 66.1946 1239.62 66.1817 1239.61C65.478 1239.06 64.8584 1239.09 64.2143 1239.76C64.0453 1239.94 62.7339 1238.47 62.7057 1238.03C62.6635 1237.38 62.8292 1236.76 63.1175 1236.18C64.7444 1232.94 67.0333 1230.25 69.9253 1228.07C71.3418 1227 72.828 1227.12 74.3113 1227.92C75.1078 1228.34 75.104 1228.86 74.4417 1229.5C73.7446 1230.17 73.0815 1230.88 72.4573 1231.62C71.737 1232.48 71.1339 1233.41 70.3411 1234.23C69.2998 1235.29 68.9411 1236.81 68.184 1238.08C67.7652 1238.77 67.3966 1239.48 66.7401 1239.97Z" fill="#3777F9"/>
<path fill-rule="evenodd" clip-rule="evenodd" d="M99.7428 1241.92C99.5771 1242.48 99.4773 1242.82 99.3253 1243.34C99.5779 1243.15 99.732 1243.09 99.7784 1242.98C100.155 1242.12 100.848 1242.34 101.393 1242.62C101.977 1242.92 102.129 1243.59 101.895 1244.17C101.514 1245.12 101.074 1246.06 100.536 1246.93C99.7941 1248.12 98.955 1249.28 98.4496 1250.59C97.9215 1251.95 97.1515 1253.28 97.4808 1254.88C97.6366 1255.64 97.0041 1256.08 96.3124 1255.77C95.9367 1255.61 95.5987 1255.63 95.2272 1255.64C92.8728 1255.76 91.6572 1254.09 92.5717 1251.84C93.8611 1248.68 95.9421 1246 98.1092 1243.39C98.5234 1242.89 98.8087 1242.23 99.7428 1241.92Z" fill="#3777F9"/>
<path fill-rule="evenodd" clip-rule="evenodd" d="M13.9191 1291.4C13.905 1292.24 14.6187 1292.66 14.7173 1293.33C13.6743 1293.47 13.017 1292.91 12.7888 1291.74C12.5411 1290.48 12.9366 1289.31 13.5521 1288.3C14.8618 1286.16 15.9549 1283.89 17.7844 1282.04C18.5002 1281.31 18.9951 1280.14 19.6914 1279.26C21.6759 1276.76 23.7473 1274.33 25.7934 1271.88C26.2043 1271.38 26.6918 1270.97 27.2543 1270.65C27.5422 1270.49 27.8259 1270.45 28.0939 1270.66C28.3818 1270.89 28.3499 1271.19 28.1892 1271.48C27.9502 1271.9 27.7356 1272.35 27.437 1272.73C24.6722 1276.24 21.8324 1279.7 19.1455 1283.27C18.0988 1284.66 17.2816 1286.26 16.7183 1287.93C16.4582 1288.7 16.7369 1289.55 16.8251 1290.36C16.8488 1290.58 17.1573 1290.88 16.7663 1291.05C16.0154 1291.36 15.3862 1291.68 16.0469 1292.66C16.1972 1292.88 15.8555 1293 15.6177 1293C15.1928 1293.01 14.7036 1293.01 14.6535 1292.48C14.6079 1291.99 14.3333 1291.75 13.9191 1291.4Z" fill="#3777F9"/>
<path fill-rule="evenodd" clip-rule="evenodd" d="M31.9223 1233.71C31.6787 1233.54 31.542 1233.5 31.4356 1233.76C31.0479 1234.71 30.7248 1235.69 30.2186 1236.56C29.9126 1237.09 29.9784 1238.19 28.8062 1237.87C28.6198 1237.82 28.6579 1238.05 28.7424 1238.18C28.94 1238.5 28.8174 1238.72 28.6033 1238.98C28.2379 1239.43 28.1373 1239.92 28.2321 1240.53C28.4082 1241.66 27.6237 1242.21 26.5923 1241.75C26.4685 1241.69 26.2485 1241.5 26.2373 1241.58C25.9739 1243.42 24.9782 1240.98 24.5718 1241.87C24.267 1241.62 24.1237 1241.3 24.0889 1240.9C24.0094 1239.99 24.383 1239.21 24.8067 1238.46C26.4121 1235.58 28.7118 1233.29 31.0702 1231.06C31.6381 1230.52 32.4939 1230.49 33.2299 1230.27C33.6619 1230.15 33.9166 1230.5 34.0802 1230.85C34.3043 1231.31 34.0575 1231.36 33.6739 1231.24C33.623 1232.08 33.0729 1232.66 32.6214 1233.3C32.4226 1233.58 32.2938 1233.92 31.9223 1233.71Z" fill="#3777F9"/>
<path fill-rule="evenodd" clip-rule="evenodd" d="M65.4967 1187.52C65.404 1187.45 65.3116 1187.39 65.2192 1187.32C64.6866 1188.16 64.1489 1189 63.6291 1189.85C63.5686 1189.95 63.4502 1190.13 63.6299 1190.24C63.755 1190.31 63.9696 1190.34 64.0122 1190.18C64.2827 1189.17 65.2292 1188.53 65.4967 1187.52ZM61.5714 1197.76C61.2421 1198.24 61.4769 1199.05 60.4393 1199.12C59.6892 1199.17 59.8247 1198.8 59.8243 1198.42C59.1793 1198.48 59.4374 1199.24 58.8662 1199.39C58.6309 1198.36 59.0132 1197.37 58.9669 1196.37C58.9739 1196.34 58.9785 1196.31 58.9814 1196.27C59.7824 1195.59 59.9671 1194.56 60.4112 1193.67C60.5943 1193.31 60.6585 1192.87 60.8834 1192.54C62.6934 1189.88 64.1663 1187 66.116 1184.42C67.644 1182.4 68.9971 1180.25 70.6291 1178.3C71.0044 1177.85 71.3361 1177.36 72.1414 1176.89C71.52 1178.02 71.047 1178.87 70.5744 1179.73C70.586 1179.69 70.5964 1179.66 70.6055 1179.62C69.36 1180.61 68.8526 1182.13 67.786 1183.27C68.1505 1183.58 68.2599 1183.25 68.4351 1183.22C68.735 1183.16 68.9201 1183.34 69.0361 1183.6C69.0932 1183.73 69.2071 1183.92 69.0054 1183.97C68.1108 1184.2 68.3253 1184.94 68.2992 1185.53C68.2702 1186.18 67.9165 1186.54 67.4079 1186.83C66.6242 1187.27 66.1582 1187.91 66.2423 1188.86C66.1048 1189.06 65.9677 1189.26 65.8302 1189.47C64.9736 1189.89 63.7484 1191.93 63.8354 1192.8C63.3466 1192.82 63.1536 1193.75 62.4884 1193.24C62.2912 1192.69 62.1794 1192.44 61.6674 1193.12C61.0205 1193.98 61.1244 1195.15 60.3441 1195.92C60.2281 1196.03 60.236 1196.2 60.395 1196.3C60.6017 1196.43 60.7935 1196.33 60.825 1196.13C60.9625 1195.25 61.6629 1194.64 61.875 1193.8C61.9648 1193.45 62.0597 1193.14 62.5199 1193.21C62.7995 1194.84 61.5477 1195.95 61.1186 1197.33C61.0619 1197.52 60.3722 1197.02 60.6224 1197.64C60.7442 1197.94 61.2035 1198.09 61.5714 1197.76Z" fill="#3777F9"/>
<path fill-rule="evenodd" clip-rule="evenodd" d="M87.1906 1272.86C86.9611 1273.49 87.1388 1274.06 87.3409 1274.61C87.4474 1274.89 87.5278 1275.11 87.1823 1275.23C86.8671 1275.34 86.6733 1275.12 86.5614 1274.88C86.276 1274.27 86.3469 1273.58 86.5163 1273C87.162 1270.77 88.3727 1268.83 89.8659 1267.07C90.3091 1266.54 90.8343 1266.07 91.1814 1265.49C91.8122 1264.43 92.8859 1264.13 93.9093 1263.8C94.3873 1263.64 94.4789 1264.28 94.577 1264.63C94.633 1264.82 94.4876 1265.21 94.3115 1265.32C92.6104 1266.43 92.3366 1268.51 91.1827 1270C90.8024 1270.49 90.9768 1271.49 90.4856 1272.14C90.0975 1272.65 89.8883 1273.3 89.1667 1273.54C88.7505 1273.68 89.0657 1274.22 88.8776 1274.54C88.7811 1274.7 88.7219 1274.9 88.5165 1274.93C88.3118 1274.95 88.0538 1274.78 88.0907 1274.65C88.3388 1273.77 87.3004 1273.54 87.1906 1272.86Z" fill="#3777F9"/>
<path fill-rule="evenodd" clip-rule="evenodd" d="M44.3921 1250.17C44.3404 1250.3 44.2886 1250.42 44.2377 1250.54C42.7436 1251.85 41.5383 1253.44 40.3686 1255.02C38.7594 1257.2 37.3043 1259.49 35.9031 1261.81C34.7172 1263.77 33.2046 1265.53 32.3729 1267.71C32.0353 1268.6 31.4753 1269.41 30.4978 1270.01C30.2675 1268.68 31.1174 1267.82 31.6074 1266.88C32.8981 1264.4 34.5284 1262.13 36.1317 1259.85C39.0245 1255.74 41.7421 1251.49 45.3473 1247.92C45.5536 1247.72 45.7184 1247.44 46.2146 1247.59C45.8907 1248.67 44.8552 1249.24 44.3921 1250.17Z" fill="#3777F9"/>
<path fill-rule="evenodd" clip-rule="evenodd" d="M88.1746 1234.43C87.7309 1234.75 88.2537 1235.63 87.5744 1235.49C86.9953 1235.37 87.2045 1234.66 87.3499 1234.21C88.2524 1231.44 90.0314 1229.38 92.6073 1228.04C92.9975 1227.83 93.5637 1227.52 93.9245 1228.1C94.2451 1228.61 93.7493 1228.92 93.4664 1229.24C92.2805 1230.59 91.1556 1231.96 90.8594 1233.81C90.7853 1234.28 90.4079 1234.44 90.0235 1234.6C89.8893 1234.66 89.7543 1234.75 89.659 1234.85C88.9064 1235.71 88.3386 1235.8 88.1746 1234.43Z" fill="#3777F9"/>
<path fill-rule="evenodd" clip-rule="evenodd" d="M64.9498 1184.63C64.8255 1186.01 63.6438 1186.78 63.0014 1187.85C62.5255 1188.65 62.1374 1189.55 61.3769 1190.19C61.1876 1190.34 61.1118 1190.69 60.7995 1190.52C60.551 1190.38 60.5004 1190.09 60.6682 1189.83C61.6784 1188.22 62.6609 1186.6 63.8679 1185.14C64.1529 1184.79 64.6023 1184.8 64.9821 1184.66L64.9498 1184.63Z" fill="#3777F9"/>
<path fill-rule="evenodd" clip-rule="evenodd" d="M64.9821 1184.66C64.8408 1184.35 64.6768 1184.07 64.9336 1183.72C66.3887 1181.74 67.8136 1179.73 69.5002 1177.94C69.6307 1177.8 69.7027 1177.47 69.9977 1177.68C70.1845 1177.81 70.1381 1178.01 70.0101 1178.17C68.3611 1180.26 66.7611 1182.38 65.2633 1184.57C65.2211 1184.63 65.0571 1184.61 64.9498 1184.63L64.9821 1184.66Z" fill="#3777F9"/>
<path fill-rule="evenodd" clip-rule="evenodd" d="M58.9813 1196.27C58.9788 1196.31 58.9738 1196.34 58.9672 1196.37C58.768 1196.87 58.333 1197.28 58.3703 1197.88C58.3836 1198.1 58.4122 1198.4 58.0854 1198.37C57.7933 1198.35 57.8327 1198.08 57.8584 1197.85C58.0874 1195.79 58.7858 1193.87 59.5641 1191.98C59.6978 1191.65 60.0893 1191.3 60.4467 1191.47C60.87 1191.67 60.5503 1192.09 60.4003 1192.33C59.6543 1193.55 59.3292 1194.91 58.9813 1196.27Z" fill="#3777F9"/>
<path fill-rule="evenodd" clip-rule="evenodd" d="M70.6063 1179.62C70.5972 1179.66 70.5868 1179.69 70.5748 1179.73C71.0511 1179.24 71.88 1179.1 71.9603 1178.21C71.9736 1178.06 72.3488 1177.52 72.7282 1177.85C73.089 1178.17 72.7038 1178.5 72.495 1178.7C71.5515 1179.59 70.8026 1180.6 70.3739 1181.96C70.0115 1181.53 69.4701 1181.26 70.1908 1180.74C70.5781 1180.47 70.4232 1179.98 70.6063 1179.62Z" fill="#3777F9"/>
<path fill-rule="evenodd" clip-rule="evenodd" d="M65.8303 1189.47C65.9678 1189.26 66.1053 1189.06 66.2424 1188.86C66.4077 1188.73 66.5729 1188.6 66.7378 1188.47C66.7962 1188.51 66.8538 1188.55 66.9118 1188.59C66.5319 1189.27 66.1517 1189.94 65.7719 1190.62C65.6907 1190.6 65.6095 1190.57 65.5283 1190.54C65.629 1190.18 65.7296 1189.83 65.8303 1189.47Z" fill="#3777F9"/>
<path fill-rule="evenodd" clip-rule="evenodd" d="M62.0119 1197.18C61.7907 1196.4 62.3578 1195.88 62.6552 1195.28C62.9468 1194.7 63.2864 1194.13 63.6053 1193.55C63.718 1193.85 63.6915 1194.11 63.5283 1194.39C63.0052 1195.31 62.5147 1196.25 62.0119 1197.18Z" fill="#3777F9"/>
</g>
<defs>
<clipPath id="clip0_103_16253">
<rect width="101.391" height="1293.35" fill="white" transform="translate(0.609375)"/>
</clipPath>
</defs>
</svg>
