<svg width="38" height="89" viewBox="0 0 38 89" fill="none" xmlns="http://www.w3.org/2000/svg">
<g clip-path="url(#clip0_103_25480)">
<path d="M16.3593 88.5874H13.377L15.2423 77.0532H18.2245L16.3593 88.5874Z" fill="white"/>
<path d="M27.1699 77.3352C26.5817 77.1018 25.6487 76.8441 24.495 76.8441C21.5498 76.8441 19.4758 78.4146 19.4631 80.66C19.4386 82.3167 20.948 83.2368 22.0769 83.7892C23.2307 84.3536 23.623 84.722 23.623 85.2252C23.6112 85.9979 22.6906 86.354 21.8319 86.354C20.6412 86.354 20.0032 86.1704 19.0337 85.7405L18.641 85.5562L18.2236 88.1454C18.9231 88.4641 20.2118 88.7469 21.5498 88.7592C24.6791 88.7592 26.7164 87.213 26.7405 84.8202C26.7524 83.5072 25.9554 82.5011 24.2371 81.679C23.194 81.1512 22.5552 80.7954 22.5552 80.2554C22.5675 79.7645 23.0955 79.2617 24.273 79.2617C25.2426 79.2371 25.9549 79.4701 26.4946 79.7034L26.7643 79.8258L27.1699 77.3352Z" fill="white"/>
<path d="M31.1328 84.5012C31.3784 83.8386 32.3235 81.2741 32.3235 81.2741C32.3111 81.2987 32.5686 80.5992 32.7159 80.1698L32.9243 81.1637C32.9243 81.1637 33.4891 83.9246 33.6117 84.5012H31.1328ZM34.8141 77.0532H32.5073C31.7959 77.0532 31.2554 77.2616 30.9485 78.0102L26.5186 88.5872H29.6479C29.6479 88.5872 30.1631 87.1636 30.2738 86.857H34.1029C34.1885 87.262 34.4588 88.5872 34.4588 88.5872H37.2202L34.8141 77.0532Z" fill="white"/>
<path d="M10.8847 77.0532L7.96397 84.9184L7.64481 83.3233C7.10483 81.4827 5.41134 79.4829 3.52148 78.4886L6.19676 88.5752H9.35054L14.0383 77.0532H10.8847Z" fill="white"/>
<path d="M5.25173 77.0532H0.453386L0.404297 77.2863C4.14731 78.2434 6.62623 80.5506 7.6447 83.3238L6.6016 78.0228C6.42987 77.2861 5.90212 77.0775 5.25173 77.0532Z" fill="white"/>
</g>
<defs>
<clipPath id="clip0_103_25480">
<rect width="36.8158" height="87.998" fill="white" transform="translate(0.404297 0.76123)"/>
</clipPath>
</defs>
</svg>
