<svg width="41" height="41" viewBox="0 0 41 41" fill="none" xmlns="http://www.w3.org/2000/svg">
<circle cx="20.8418" cy="20.3649" r="20.1094" fill="#E4F8FB"/>
<path d="M25.5941 16.3434H13.8941C13.0864 16.3434 12.4316 16.9982 12.4316 17.8059V26.5809C12.4316 27.3887 13.0864 28.0434 13.8941 28.0434H20.1098C20.3117 28.0434 20.4754 27.8797 20.4754 27.6778V24.3872C20.4754 23.5795 21.1302 22.9247 21.9379 22.9247H26.691C26.8929 22.9247 27.0566 22.761 27.0566 22.5591V17.8059C27.0566 16.9982 26.4019 16.3434 25.5941 16.3434Z" fill="#51D5EC"/>
<path d="M21.9385 25.1186C21.9385 24.7148 22.2659 24.3874 22.6697 24.3874H27.7885C28.1923 24.3874 28.5197 24.7148 28.5197 25.1186V28.7749C28.5197 29.1787 28.1923 29.5061 27.7885 29.5061H22.6697C22.2659 29.5061 21.9385 29.1787 21.9385 28.7749V25.1186Z" fill="#51D5EC"/>
</svg>
