<svg width="99" height="33" viewBox="0 0 99 33" fill="none" xmlns="http://www.w3.org/2000/svg">
<g filter="url(#filter0_d_34_831)">
<path d="M25.9402 14.2712C23.9164 14.2712 22.2385 13.6052 20.9064 12.273C19.5743 10.9281 18.9082 9.26938 18.9082 7.29684C18.9082 5.32429 19.5743 3.67197 20.9064 2.33986C22.2385 0.994945 23.9164 0.32251 25.9402 0.32251C27.157 0.32251 28.2778 0.610691 29.3025 1.18708C30.34 1.76348 31.147 2.54479 31.7233 3.53106L29.802 4.64546C29.4434 3.9794 28.9182 3.45423 28.2266 3.06997C27.5477 2.6729 26.7856 2.47437 25.9402 2.47437C24.5056 2.47437 23.34 2.92908 22.4434 3.8385C21.5596 4.74792 21.1177 5.90068 21.1177 7.29684C21.1177 8.69299 21.5596 9.84579 22.4434 10.7552C23.34 11.6646 24.5056 12.1193 25.9402 12.1193C26.7856 12.1193 27.5541 11.9272 28.2458 11.5429C28.9374 11.1459 29.4562 10.6143 29.802 9.94825L31.7233 11.0434C31.1598 12.0297 30.3592 12.8174 29.3217 13.4066C28.297 13.983 27.1698 14.2712 25.9402 14.2712ZM37.9394 14.2712C36.5304 14.2712 35.3328 13.7845 34.3466 12.811C33.3603 11.8376 32.8672 10.6399 32.8672 9.21815C32.8672 7.79638 33.3603 6.59877 34.3466 5.62531C35.3328 4.65184 36.5304 4.16513 37.9394 4.16513C39.3612 4.16513 40.5588 4.65184 41.5323 5.62531C42.5185 6.59877 43.0117 7.79638 43.0117 9.21815C43.0117 10.6399 42.5185 11.8376 41.5323 12.811C40.5588 13.7845 39.3612 14.2712 37.9394 14.2712ZM35.8068 11.3892C36.3832 11.9656 37.094 12.2538 37.9394 12.2538C38.7848 12.2538 39.4957 11.9656 40.0721 11.3892C40.6485 10.8128 40.9367 10.0891 40.9367 9.21815C40.9367 8.34715 40.6485 7.62349 40.0721 7.0471C39.4957 6.4707 38.7848 6.18248 37.9394 6.18248C37.094 6.18248 36.3832 6.4707 35.8068 7.0471C35.2304 7.62349 34.9422 8.34715 34.9422 9.21815C34.9422 10.0891 35.2304 10.8128 35.8068 11.3892ZM49.9412 4.16513C51.0428 4.16513 51.933 4.51735 52.6118 5.22183C53.2907 5.92631 53.6301 6.89339 53.6301 8.12302V14.0214H51.5551V8.33434C51.5551 7.61705 51.363 7.0663 50.9787 6.68204C50.5944 6.29778 50.0693 6.10563 49.4032 6.10563C48.6731 6.10563 48.0839 6.3362 47.6356 6.79732C47.1873 7.24562 46.9632 7.93729 46.9632 8.87232V14.0214H44.8881V4.41487H46.9632V5.64454C47.5908 4.65826 48.5835 4.16513 49.9412 4.16513ZM61.225 6.41303H58.8426V11.0242C58.8426 11.4213 58.9323 11.7095 59.1116 11.8888C59.2909 12.0553 59.5535 12.1513 59.8993 12.177C60.258 12.1898 60.6999 12.1834 61.225 12.1578V14.0214C59.6368 14.2136 58.4968 14.0791 57.8051 13.6179C57.1134 13.144 56.7676 12.2794 56.7676 11.0242V6.41303H55V4.41487H56.7676V2.33986L58.8426 1.72507V4.41487H61.225V6.41303ZM65.0664 2.58964C64.8102 2.84582 64.5028 2.97389 64.1442 2.97389C63.7855 2.97389 63.4717 2.84582 63.2027 2.58964C62.9466 2.32066 62.8185 2.00682 62.8185 1.64818C62.8185 1.28953 62.9466 0.982124 63.2027 0.725949C63.4589 0.456966 63.7727 0.32251 64.1442 0.32251C64.5156 0.32251 64.8294 0.456966 65.0856 0.725949C65.3418 0.982124 65.4699 1.28953 65.4699 1.64818C65.4699 2.00682 65.3354 2.32066 65.0664 2.58964ZM63.1067 14.0214V4.41487H65.1817V14.0214H63.1067ZM72.644 4.16513C73.7456 4.16513 74.6358 4.51735 75.3147 5.22183C75.9935 5.92631 76.3329 6.89339 76.3329 8.12302V14.0214H74.2579V8.33434C74.2579 7.61705 74.0658 7.0663 73.6815 6.68204C73.2973 6.29778 72.7721 6.10563 72.1061 6.10563C71.376 6.10563 70.7868 6.3362 70.3385 6.79732C69.8902 7.24562 69.666 7.93729 69.666 8.87232V14.0214H67.591V4.41487H69.666V5.64454C70.2936 4.65826 71.2863 4.16513 72.644 4.16513ZM85.0422 4.41487H87.1173V14.0214H85.0422V12.7918C84.4146 13.7781 83.4219 14.2712 82.0642 14.2712C80.9627 14.2712 80.0725 13.9189 79.3936 13.2145C78.7147 12.51 78.3753 11.5429 78.3753 10.3133V4.41487H80.4503V10.102C80.4503 10.8192 80.6424 11.37 81.0267 11.7543C81.411 12.1386 81.9361 12.3307 82.6022 12.3307C83.3323 12.3307 83.9215 12.1065 84.3698 11.6582C84.8181 11.1971 85.0422 10.499 85.0422 9.56401V4.41487ZM91.177 10.102C91.3307 10.832 91.6829 11.3956 92.2337 11.7927C92.7845 12.177 93.4569 12.3691 94.2511 12.3691C95.3526 12.3691 96.1788 11.972 96.7296 11.1779L98.4395 12.177C97.4917 13.5731 96.0891 14.2712 94.2319 14.2712C92.6692 14.2712 91.4075 13.7973 90.4469 12.8495C89.4862 11.8888 89.0059 10.6783 89.0059 9.21815C89.0059 7.78357 89.4798 6.58596 90.4277 5.62531C91.3755 4.65184 92.5924 4.16513 94.0782 4.16513C95.4871 4.16513 96.6399 4.65826 97.5365 5.64454C98.4459 6.63081 98.9007 7.82842 98.9007 9.23738C98.9007 9.45513 98.875 9.74331 98.8238 10.102H91.177ZM91.1578 8.41119H96.8064C96.6655 7.62986 96.3389 7.04069 95.8266 6.64362C95.327 6.24655 94.7378 6.04802 94.059 6.04802C93.2904 6.04802 92.65 6.25935 92.1376 6.68204C91.6253 7.10473 91.2987 7.68109 91.1578 8.41119Z" fill="white"/>
</g>
<defs>
<filter id="filter0_d_34_831" x="0.975973" y="0.32251" width="97.9244" height="32.5214" filterUnits="userSpaceOnUse" color-interpolation-filters="sRGB">
<feFlood flood-opacity="0" result="BackgroundImageFix"/>
<feColorMatrix in="SourceAlpha" type="matrix" values="0 0 0 0 0 0 0 0 0 0 0 0 0 0 0 0 0 0 127 0" result="hardAlpha"/>
<feOffset dx="-9.60655" dy="10.247"/>
<feGaussianBlur stdDeviation="4.16284"/>
<feColorMatrix type="matrix" values="0 0 0 0 0 0 0 0 0 0.241667 0 0 0 0 0.125667 0 0 0 0.25 0"/>
<feBlend mode="normal" in2="BackgroundImageFix" result="effect1_dropShadow_34_831"/>
<feBlend mode="normal" in="SourceGraphic" in2="effect1_dropShadow_34_831" result="shape"/>
</filter>
</defs>
</svg>
