<svg width="41" height="41" viewBox="0 0 41 41" fill="none" xmlns="http://www.w3.org/2000/svg">
<circle cx="20.584" cy="20.3649" r="20.1094" fill="#E4F8FB"/>
<path d="M25.3363 16.3434H13.6363C12.8286 16.3434 12.1738 16.9982 12.1738 17.8059V26.5809C12.1738 27.3887 12.8286 28.0434 13.6363 28.0434H19.852C20.0539 28.0434 20.2176 27.8797 20.2176 27.6778V24.3872C20.2176 23.5795 20.8724 22.9247 21.6801 22.9247H26.4332C26.6351 22.9247 26.7988 22.761 26.7988 22.5591V17.8059C26.7988 16.9982 26.144 16.3434 25.3363 16.3434Z" fill="#51D5EC"/>
<path d="M21.6807 25.1186C21.6807 24.7148 22.0081 24.3874 22.4119 24.3874H27.5307C27.9345 24.3874 28.2619 24.7148 28.2619 25.1186V28.7749C28.2619 29.1787 27.9345 29.5061 27.5307 29.5061H22.4119C22.0081 29.5061 21.6807 29.1787 21.6807 28.7749V25.1186Z" fill="#51D5EC"/>
</svg>
