<svg width="41" height="41" viewBox="0 0 41 41" fill="none" xmlns="http://www.w3.org/2000/svg">
<circle cx="20.2344" cy="20.3649" r="20.1094" fill="#FDF1E2"/>
<path fill-rule="evenodd" clip-rule="evenodd" d="M19.8691 27.3117C23.9077 27.3117 27.1816 24.0378 27.1816 19.9992C27.1816 15.9606 23.9077 12.6867 19.8691 12.6867C15.8306 12.6867 12.5566 15.9606 12.5566 19.9992C12.5566 24.0378 15.8306 27.3117 19.8691 27.3117ZM20.6004 16.343C20.6004 15.9391 20.273 15.6117 19.8691 15.6117C19.4653 15.6117 19.1379 15.9391 19.1379 16.343V19.9992C19.1379 20.1931 19.2149 20.3791 19.3521 20.5163L21.1802 22.3444C21.4658 22.63 21.9288 22.63 22.2143 22.3444C22.4999 22.0588 22.4999 21.5958 22.2143 21.3103L20.6004 19.6963V16.343Z" fill="#FFB648"/>
</svg>
