<svg width="206" height="109" viewBox="0 0 206 109" fill="none" xmlns="http://www.w3.org/2000/svg">
<rect x="0.308594" y="0.264282" width="205.481" height="108.129" rx="11.7" fill="#0177FB"/>
<mask id="mask0_16_281" style="mask-type:alpha" maskUnits="userSpaceOnUse" x="0" y="0" width="206" height="109">
<rect x="0.308594" y="0.264648" width="205.481" height="108.129" rx="11.7" fill="#0177FB"/>
</mask>
<g mask="url(#mask0_16_281)">
<path d="M53.8849 -14.845C61.8552 -4.77886 65.8993 7.83885 65.2656 20.6627C64.6319 33.4865 59.3633 45.644 50.4394 54.8752C41.5155 64.1064 29.5433 69.7834 16.7483 70.8507C3.95323 71.9181 -8.79412 68.3033 -19.1242 60.6783L-6.25505 43.2436C-0.14962 47.7503 7.38449 49.8868 14.9468 49.2559C22.5091 48.625 29.5851 45.2698 34.8594 39.8138C40.1337 34.3579 43.2476 27.1724 43.6222 19.5931C43.9967 12.0138 41.6065 4.55627 36.8958 -1.39315L53.8849 -14.845Z" fill="url(#paint0_linear_16_281)"/>
<path d="M158.551 37.7806C177.088 29.5901 200.402 33.6494 209.742 36.7029L208.844 58.4366C203.695 57.0596 191.349 54.3054 183.159 54.3054C172.92 54.3054 158.012 60.4124 147.774 68.4951C137.536 76.5779 125.502 89.6899 119.574 95.4376C114.833 100.036 106.822 106.574 103.409 109.268H45.9316C88.3211 106.574 123.167 60.7716 127.478 57.3589C131.788 53.9462 135.381 48.0187 158.551 37.7806Z" fill="url(#paint1_linear_16_281)"/>
</g>
<defs>
<linearGradient id="paint0_linear_16_281" x1="66.7945" y1="-51.9029" x2="-19.0955" y2="93.2364" gradientUnits="userSpaceOnUse">
<stop stop-color="#0177FB" stop-opacity="0"/>
<stop offset="0.442708" stop-color="#1D88FF"/>
<stop offset="1" stop-color="#0177FB" stop-opacity="0"/>
</linearGradient>
<linearGradient id="paint1_linear_16_281" x1="212.005" y1="20.739" x2="175.849" y2="151.89" gradientUnits="userSpaceOnUse">
<stop stop-color="#0177FB" stop-opacity="0"/>
<stop offset="0.442708" stop-color="#1D88FF"/>
<stop offset="1" stop-color="#0177FB" stop-opacity="0"/>
</linearGradient>
</defs>
</svg>
