<svg width="99" height="34" viewBox="0 0 99 34" fill="none" xmlns="http://www.w3.org/2000/svg">
<g filter="url(#filter0_d_34_831)">
<path d="M25.617 14.6013C23.5932 14.6013 21.9152 13.9352 20.5831 12.6031C19.251 11.2582 18.585 9.59946 18.585 7.62691C18.585 5.65437 19.251 4.00205 20.5831 2.66994C21.9152 1.32502 23.5932 0.652588 25.617 0.652588C26.8338 0.652588 27.9545 0.940769 28.9792 1.51716C30.0168 2.09355 30.8237 2.87487 31.4001 3.86114L29.4788 4.97554C29.1201 4.30948 28.595 3.78431 27.9033 3.40005C27.2245 3.00298 26.4623 2.80445 25.617 2.80445C24.1824 2.80445 23.0168 3.25916 22.1202 4.16858C21.2364 5.078 20.7945 6.23076 20.7945 7.62691C20.7945 9.02307 21.2364 10.1759 22.1202 11.0853C23.0168 11.9947 24.1824 12.4494 25.617 12.4494C26.4623 12.4494 27.2309 12.2573 27.9225 11.873C28.6142 11.4759 29.133 10.9444 29.4788 10.2783L31.4001 11.3735C30.8365 12.3598 30.036 13.1475 28.9985 13.7367C27.9738 14.3131 26.8466 14.6013 25.617 14.6013ZM37.6162 14.6013C36.2072 14.6013 35.0096 14.1146 34.0233 13.1411C33.0371 12.1676 32.5439 10.97 32.5439 9.54822C32.5439 8.12645 33.0371 6.92885 34.0233 5.95538C35.0096 4.98192 36.2072 4.49521 37.6162 4.49521C39.0379 4.49521 40.2356 4.98192 41.209 5.95538C42.1953 6.92885 42.6884 8.12645 42.6884 9.54822C42.6884 10.97 42.1953 12.1676 41.209 13.1411C40.2356 14.1146 39.0379 14.6013 37.6162 14.6013ZM35.4835 11.7193C36.0599 12.2957 36.7708 12.5839 37.6162 12.5839C38.4615 12.5839 39.1724 12.2957 39.7488 11.7193C40.3252 11.1429 40.6134 10.4192 40.6134 9.54822C40.6134 8.67723 40.3252 7.95357 39.7488 7.37717C39.1724 6.80078 38.4615 6.51256 37.6162 6.51256C36.7708 6.51256 36.0599 6.80078 35.4835 7.37717C34.9071 7.95357 34.6189 8.67723 34.6189 9.54822C34.6189 10.4192 34.9071 11.1429 35.4835 11.7193ZM49.618 4.49521C50.7195 4.49521 51.6097 4.84742 52.2886 5.55191C52.9674 6.25639 53.3069 7.22346 53.3069 8.4531V14.3515H51.2319V8.66442C51.2319 7.94713 51.0397 7.39638 50.6555 7.01212C50.2712 6.62786 49.7461 6.43571 49.08 6.43571C48.3499 6.43571 47.7607 6.66628 47.3124 7.12739C46.8641 7.5757 46.6399 8.26736 46.6399 9.2024V14.3515H44.5649V4.74495H46.6399V5.97462C47.2676 4.98834 48.2602 4.49521 49.618 4.49521ZM60.9018 6.74311H58.5194V11.3543C58.5194 11.7513 58.6091 12.0396 58.7884 12.2189C58.9677 12.3854 59.2303 12.4814 59.5761 12.507C59.9347 12.5198 60.3766 12.5135 60.9018 12.4878V14.3515C59.3135 14.5436 58.1735 14.4091 57.4819 13.948C56.7902 13.4741 56.4444 12.6095 56.4444 11.3543V6.74311H54.6768V4.74495H56.4444V2.66994L58.5194 2.05515V4.74495H60.9018V6.74311ZM64.7432 2.91972C64.487 3.17589 64.1796 3.30397 63.8209 3.30397C63.4623 3.30397 63.1485 3.17589 62.8795 2.91972C62.6233 2.65074 62.4952 2.3369 62.4952 1.97826C62.4952 1.61961 62.6233 1.3122 62.8795 1.05603C63.1357 0.787044 63.4495 0.652588 63.8209 0.652588C64.1924 0.652588 64.5062 0.787044 64.7624 1.05603C65.0185 1.3122 65.1466 1.61961 65.1466 1.97826C65.1466 2.3369 65.0121 2.65074 64.7432 2.91972ZM62.7834 14.3515V4.74495H64.8584V14.3515H62.7834ZM72.3208 4.49521C73.4224 4.49521 74.3125 4.84742 74.9914 5.55191C75.6703 6.25639 76.0097 7.22346 76.0097 8.4531V14.3515H73.9347V8.66442C73.9347 7.94713 73.7426 7.39638 73.3583 7.01212C72.974 6.62786 72.4489 6.43571 71.7828 6.43571C71.0527 6.43571 70.4635 6.66628 70.0152 7.12739C69.5669 7.5757 69.3428 8.26736 69.3428 9.2024V14.3515H67.2677V4.74495H69.3428V5.97462C69.9704 4.98834 70.9631 4.49521 72.3208 4.49521ZM84.719 4.74495H86.794V14.3515H84.719V13.1219C84.0914 14.1081 83.0987 14.6013 81.741 14.6013C80.6394 14.6013 79.7492 14.249 79.0704 13.5445C78.3915 12.8401 78.0521 11.873 78.0521 10.6434V4.74495H80.1271V10.432C80.1271 11.1493 80.3192 11.7001 80.7035 12.0844C81.0877 12.4686 81.6129 12.6608 82.2789 12.6608C83.009 12.6608 83.5982 12.4366 84.0465 11.9883C84.4949 11.5272 84.719 10.8291 84.719 9.89408V4.74495ZM90.8538 10.432C91.0075 11.1621 91.3597 11.7257 91.9105 12.1228C92.4612 12.5071 93.1337 12.6992 93.9278 12.6992C95.0294 12.6992 95.8556 12.3021 96.4063 11.508L98.1163 12.507C97.1684 13.9032 95.7659 14.6013 93.9086 14.6013C92.346 14.6013 91.0843 14.1274 90.1236 13.1795C89.163 12.2189 88.6827 11.0084 88.6827 9.54822C88.6827 8.11365 89.1566 6.91604 90.1044 5.95538C91.0523 4.98192 92.2691 4.49521 93.7549 4.49521C95.1639 4.49521 96.3167 4.98834 97.2133 5.97462C98.1227 6.96089 98.5774 8.15849 98.5774 9.56746C98.5774 9.7852 98.5518 10.0734 98.5006 10.432H90.8538ZM90.8345 8.74127H96.4832C96.3423 7.95993 96.0157 7.37077 95.5033 6.9737C95.0038 6.57662 94.4146 6.37809 93.7357 6.37809C92.9672 6.37809 92.3268 6.58943 91.8144 7.01212C91.3021 7.43481 90.9754 8.01117 90.8345 8.74127Z" fill="white"/>
</g>
<defs>
<filter id="filter0_d_34_831" x="0.652731" y="0.652588" width="97.9244" height="32.5214" filterUnits="userSpaceOnUse" color-interpolation-filters="sRGB">
<feFlood flood-opacity="0" result="BackgroundImageFix"/>
<feColorMatrix in="SourceAlpha" type="matrix" values="0 0 0 0 0 0 0 0 0 0 0 0 0 0 0 0 0 0 127 0" result="hardAlpha"/>
<feOffset dx="-9.60655" dy="10.247"/>
<feGaussianBlur stdDeviation="4.16284"/>
<feColorMatrix type="matrix" values="0 0 0 0 0 0 0 0 0 0.241667 0 0 0 0 0.125667 0 0 0 0.25 0"/>
<feBlend mode="normal" in2="BackgroundImageFix" result="effect1_dropShadow_34_831"/>
<feBlend mode="normal" in="SourceGraphic" in2="effect1_dropShadow_34_831" result="shape"/>
</filter>
</defs>
</svg>
