<svg width="18" height="18" viewBox="0 0 18 18" fill="none" xmlns="http://www.w3.org/2000/svg">
<path fill-rule="evenodd" clip-rule="evenodd" d="M1.74753 17.6314C1.20993 17.5119 0.870961 16.9793 0.990428 16.4417L1.36771 14.7439C1.00191 13.9993 0.808594 13.1775 0.808594 12.3289C0.808594 9.29992 3.26403 6.84448 6.29297 6.84448C9.32191 6.84448 11.7773 9.29992 11.7773 12.3289C11.7773 15.3578 9.32191 17.8132 6.29297 17.8132C5.4443 17.8132 4.62255 17.6199 3.87791 17.2541L2.18016 17.6314C2.03768 17.6631 1.89 17.6631 1.74753 17.6314ZM1.8058 12.3286C1.8058 13.0764 1.98855 13.7968 2.33312 14.4412C2.38933 14.5463 2.40602 14.6681 2.38016 14.7844L1.96389 16.6577L3.83713 16.2414C3.9535 16.2155 4.07528 16.2322 4.1804 16.2884C4.82476 16.633 5.54515 16.8158 6.29302 16.8158C8.77124 16.8158 10.7802 14.8068 10.7802 12.3286C10.7802 9.85033 8.77124 7.84134 6.29302 7.84134C3.81479 7.84134 1.8058 9.85033 1.8058 12.3286Z" fill="#BCCDE1"/>
<circle cx="15.8002" cy="2.88973" r="2.19375" fill="#0177FB"/>
</svg>
