<svg width="83" height="83" viewBox="0 0 83 83" fill="none" xmlns="http://www.w3.org/2000/svg">
<path d="M48.0907 82.5938C52.6751 82.5938 57.2145 81.6909 61.4499 79.9365C65.6852 78.1822 69.5336 75.6108 72.7752 72.3692C76.0168 69.1276 78.5882 65.2792 80.3425 61.0439C82.0969 56.8085 82.9998 52.269 82.9998 47.6847L48.0907 47.6847L48.0907 82.5938Z" fill="#FFA051"/>
<path opacity="0.1" d="M27 54.4126C30.5457 54.4126 34.0567 53.7142 37.3325 52.3573C40.6082 51.0005 43.5847 49.0117 46.0919 46.5045C48.5991 43.9973 50.5879 41.0208 51.9448 37.7451C53.3016 34.4693 54 30.9583 54 27.4126L27 27.4126L27 54.4126Z" fill="#E8F2FF"/>
</svg>
