<svg width="207" height="109" viewBox="0 0 207 109" fill="none" xmlns="http://www.w3.org/2000/svg">
<rect x="0.899414" y="0.706909" width="205.481" height="108.129" rx="11.7" fill="#0177FB"/>
<mask id="mask0_16_281" style="mask-type:alpha" maskUnits="userSpaceOnUse" x="0" y="0" width="207" height="109">
<rect x="0.899414" y="0.707275" width="205.481" height="108.129" rx="11.7" fill="#0177FB"/>
</mask>
<g mask="url(#mask0_16_281)">
<path d="M54.4758 -14.4024C62.446 -4.33623 66.4902 8.28148 65.8564 21.1053C65.2227 33.9291 59.9542 46.0866 51.0302 55.3178C42.1063 64.549 30.1341 70.226 17.3391 71.2934C4.54405 72.3607 -8.2033 68.7459 -18.5334 61.1209L-5.66423 43.6863C0.4412 48.1929 7.97531 50.3294 15.5376 49.6985C23.0999 49.0677 30.1759 45.7124 35.4502 40.2564C40.7245 34.8005 43.8384 27.615 44.213 20.0357C44.5875 12.4564 42.1973 4.9989 37.4866 -0.95052L54.4758 -14.4024Z" fill="url(#paint0_linear_16_281)"/>
<path d="M159.142 38.2232C177.678 30.0327 200.993 34.092 210.333 37.1455L209.435 58.8793C204.286 57.5022 191.94 54.7481 183.749 54.7481C173.511 54.7481 158.603 60.855 148.365 68.9378C138.127 77.0205 126.093 90.1325 120.165 95.8802C115.423 100.478 107.412 107.016 104 109.711H46.5225C88.9119 107.016 123.758 61.2143 128.068 57.8016C132.379 54.3888 135.971 48.4614 159.142 38.2232Z" fill="url(#paint1_linear_16_281)"/>
</g>
<defs>
<linearGradient id="paint0_linear_16_281" x1="67.3853" y1="-51.4603" x2="-18.5046" y2="93.679" gradientUnits="userSpaceOnUse">
<stop stop-color="#0177FB" stop-opacity="0"/>
<stop offset="0.442708" stop-color="#1D88FF"/>
<stop offset="1" stop-color="#0177FB" stop-opacity="0"/>
</linearGradient>
<linearGradient id="paint1_linear_16_281" x1="212.596" y1="21.1816" x2="176.439" y2="152.333" gradientUnits="userSpaceOnUse">
<stop stop-color="#0177FB" stop-opacity="0"/>
<stop offset="0.442708" stop-color="#1D88FF"/>
<stop offset="1" stop-color="#0177FB" stop-opacity="0"/>
</linearGradient>
</defs>
</svg>
