<svg width="41" height="41" viewBox="0 0 41 41" fill="none" xmlns="http://www.w3.org/2000/svg">
<circle cx="20.2861" cy="20.3649" r="20.1094" fill="#E5F7ED"/>
<path d="M18.4582 25.2436C18.4582 26.0513 17.8034 26.7061 16.9957 26.7061C16.188 26.7061 15.5332 26.0513 15.5332 25.2436C15.5332 24.4359 16.188 23.7811 16.9957 23.7811C17.8034 23.7811 18.4582 24.4359 18.4582 25.2436Z" fill="#22B573"/>
<path d="M26.9928 14.4643C27.2922 14.7352 27.3154 15.1977 27.0444 15.4971L25.313 17.4108C25.1823 17.5552 25.1878 17.7768 25.3256 17.9146L26.288 18.8769C26.5735 19.1625 26.5735 19.6255 26.288 19.9111C26.0024 20.1967 25.5394 20.1967 25.2538 19.9111L24.369 19.0263C24.2212 18.8784 23.9797 18.8845 23.8394 19.0395L20.0975 23.1753C19.8266 23.4747 19.3641 23.4979 19.0647 23.2269C18.7652 22.9559 18.7421 22.4935 19.013 22.194L25.9599 14.5159C26.2309 14.2164 26.6933 14.1933 26.9928 14.4643Z" fill="#22B573"/>
<path d="M12.8226 21.0707C13.1081 20.7851 13.5711 20.7851 13.8567 21.0707L14.9536 22.1676C15.2392 22.4531 15.2392 22.9161 14.9536 23.2017C14.668 23.4873 14.205 23.4873 13.9195 23.2017L12.8226 22.1048C12.537 21.8193 12.537 21.3563 12.8226 21.0707Z" fill="#22B573"/>
<path d="M13.6432 18.9652L15.9624 21.2845C16.5336 21.8556 17.4596 21.8556 18.0307 21.2845L21.8124 17.5027C22.3836 16.9316 22.3836 16.0056 21.8124 15.4345L19.4932 13.1152C18.9221 12.5441 17.9961 12.5441 17.4249 13.1152L13.6432 16.897C13.0721 17.4681 13.0721 18.3941 13.6432 18.9652Z" fill="#22B573"/>
</svg>
