<svg width="38" height="13" viewBox="0 0 38 13" fill="none" xmlns="http://www.w3.org/2000/svg">
<path d="M16.7373 12.5331H13.7549L15.6203 0.998901H18.6025L16.7373 12.5331Z" fill="white"/>
<path d="M27.5479 1.28085C26.9596 1.04747 26.0266 0.789795 24.8729 0.789795C21.9277 0.789795 19.8537 2.36032 19.841 4.6057C19.8166 6.26234 21.3259 7.18248 22.4548 7.73485C23.6087 8.29929 24.0009 8.66771 24.0009 9.17083C23.9891 9.94354 23.0685 10.2997 22.2099 10.2997C21.0192 10.2997 20.3812 10.1161 19.4116 9.68619L19.0189 9.5019L18.6016 12.0911C19.301 12.4097 20.5898 12.6925 21.9277 12.7049C25.057 12.7049 27.0943 11.1587 27.1185 8.76589C27.1304 7.45288 26.3334 6.44679 24.6151 5.62467C23.572 5.09692 22.9332 4.74107 22.9332 4.20108C22.9454 3.71019 23.4735 3.2074 24.6509 3.2074C25.6205 3.18277 26.3329 3.41582 26.8725 3.64903L27.1423 3.77151L27.5479 1.28085Z" fill="white"/>
<path d="M31.5107 8.44692C31.7563 7.7843 32.7014 5.21975 32.7014 5.21975C32.689 5.24438 32.9465 4.5449 33.0938 4.11549L33.3022 5.10934C33.3022 5.10934 33.867 7.87024 33.9896 8.44692H31.5107ZM35.1921 0.998901H32.8852C32.1738 0.998901 31.6333 1.20733 31.3264 1.9559L26.8965 12.5329H30.0258C30.0258 12.5329 30.541 11.1093 30.6517 10.8027H34.4808C34.5665 11.2077 34.8367 12.5329 34.8367 12.5329H37.5981L35.1921 0.998901Z" fill="white"/>
<path d="M11.2626 0.998901L8.3419 8.86409L8.02274 7.26894C7.48276 5.42834 5.78927 3.42857 3.89941 2.43423L6.57469 12.5208H9.72847L14.4162 0.998901H11.2626Z" fill="white"/>
<path d="M5.62966 0.998901H0.831316L0.782227 1.23195C4.52523 2.18911 7.00416 4.4963 8.02263 7.26943L6.97953 1.96845C6.8078 1.23179 6.28005 1.0232 5.62966 0.998901Z" fill="white"/>
</svg>
