<svg width="300" height="85" viewBox="0 0 300 85" fill="none" xmlns="http://www.w3.org/2000/svg">
<g opacity="0.5" filter="url(#filter0_f_34_800)">
<path opacity="0.5" d="M41.1443 53.8723L35.7262 44.5348H31.6915V53.8723H26.3887V26.974H37.148C39.6329 26.974 41.7463 27.845 43.4883 29.587C45.2303 31.329 46.1013 33.4296 46.1013 35.8889C46.1013 37.554 45.6274 39.1039 44.6795 40.5384C43.7317 41.9474 42.4764 43.0105 40.9138 43.7278L46.8698 53.8723H41.1443ZM31.6915 31.931V39.8852H37.148C38.1471 39.8852 39.0053 39.5009 39.7226 38.7324C40.4399 37.9383 40.7985 36.9904 40.7985 35.8889C40.7985 34.7873 40.4399 33.8523 39.7226 33.0838C39.0053 32.3152 38.1471 31.931 37.148 31.931H31.6915ZM53.5839 40.1158C53.5839 40.6281 53.9169 41.0508 54.583 41.3838C55.2747 41.6912 56.1072 41.973 57.0807 42.2292C58.0542 42.4598 59.0276 42.7672 60.0011 43.1514C60.9746 43.5101 61.7943 44.1249 62.4604 44.9959C63.152 45.8669 63.4979 46.9556 63.4979 48.2621C63.4979 50.2347 62.755 51.7589 61.2692 52.8348C59.809 53.8852 57.9773 54.4103 55.7742 54.4103C51.8291 54.4103 49.1393 52.8861 47.7047 49.8376L52.0084 47.4167C52.572 49.0819 53.8273 49.9144 55.7742 49.9144C57.5418 49.9144 58.4256 49.3637 58.4256 48.2621C58.4256 47.7498 58.0798 47.3399 57.3881 47.0325C56.7221 46.6994 55.9023 46.4049 54.9288 46.1487C53.9554 45.8925 52.9819 45.5723 52.0084 45.188C51.035 44.8038 50.2024 44.2017 49.5107 43.382C48.8447 42.5366 48.5117 41.4863 48.5117 40.231C48.5117 38.3353 49.2033 36.8495 50.5867 35.7736C51.9956 34.672 53.7376 34.1213 55.8126 34.1213C57.3753 34.1213 58.7971 34.4799 60.0779 35.1972C61.3588 35.8889 62.3707 36.888 63.1136 38.1945L58.8867 40.5C58.2719 39.1935 57.2472 38.5403 55.8126 38.5403C55.1722 38.5403 54.6342 38.6812 54.1987 38.963C53.7889 39.2448 53.5839 39.629 53.5839 40.1158ZM81.7061 26.974H86.3173V53.8723H81.0145V32.5842L75.9422 34.006L74.6357 29.4717L81.7061 26.974ZM101.177 54.4103C97.8214 54.4103 95.1828 53.1422 93.2615 50.6061C91.3658 48.0444 90.418 44.6501 90.418 40.4232C90.418 36.1963 91.3658 32.8148 93.2615 30.2787C95.1828 27.7169 97.8214 26.436 101.177 26.436C104.559 26.436 107.197 27.7169 109.093 30.2787C110.989 32.8148 111.937 36.1963 111.937 40.4232C111.937 44.6501 110.989 48.0444 109.093 50.6061C107.197 53.1422 104.559 54.4103 101.177 54.4103ZM97.1042 46.994C98.0264 48.4799 99.3841 49.2228 101.177 49.2228C102.971 49.2228 104.328 48.4671 105.251 46.9556C106.198 45.4442 106.672 43.2667 106.672 40.4232C106.672 37.554 106.198 35.3637 105.251 33.8523C104.328 32.3409 102.971 31.5851 101.177 31.5851C99.3841 31.5851 98.0264 32.3409 97.1042 33.8523C96.1819 35.3637 95.7208 37.554 95.7208 40.4232C95.7208 43.2923 96.1819 45.4826 97.1042 46.994ZM125.381 54.4103C122.025 54.4103 119.387 53.1422 117.466 50.6061C115.57 48.0444 114.622 44.6501 114.622 40.4232C114.622 36.1963 115.57 32.8148 117.466 30.2787C119.387 27.7169 122.025 26.436 125.381 26.436C128.763 26.436 131.401 27.7169 133.297 30.2787C135.193 32.8148 136.141 36.1963 136.141 40.4232C136.141 44.6501 135.193 48.0444 133.297 50.6061C131.401 53.1422 128.763 54.4103 125.381 54.4103ZM121.308 46.994C122.23 48.4799 123.588 49.2228 125.381 49.2228C127.175 49.2228 128.532 48.4671 129.455 46.9556C130.402 45.4442 130.876 43.2667 130.876 40.4232C130.876 37.554 130.402 35.3637 129.455 33.8523C128.532 32.3409 127.175 31.5851 125.381 31.5851C123.588 31.5851 122.23 32.3409 121.308 33.8523C120.386 35.3637 119.925 37.554 119.925 40.4232C119.925 43.2923 120.386 45.4826 121.308 46.994ZM145.117 48.5695L142.235 59.252H138.2L139.737 48.5695H145.117ZM157.953 54.4103C154.597 54.4103 151.959 53.1422 150.038 50.6061C148.142 48.0444 147.194 44.6501 147.194 40.4232C147.194 36.1963 148.142 32.8148 150.038 30.2787C151.959 27.7169 154.597 26.436 157.953 26.436C161.335 26.436 163.973 27.7169 165.869 30.2787C167.765 32.8148 168.713 36.1963 168.713 40.4232C168.713 44.6501 167.765 48.0444 165.869 50.6061C163.973 53.1422 161.335 54.4103 157.953 54.4103ZM153.88 46.994C154.802 48.4799 156.16 49.2228 157.953 49.2228C159.747 49.2228 161.104 48.4671 162.027 46.9556C162.974 45.4442 163.448 43.2667 163.448 40.4232C163.448 37.554 162.974 35.3637 162.027 33.8523C161.104 32.3409 159.747 31.5851 157.953 31.5851C156.16 31.5851 154.802 32.3409 153.88 33.8523C152.958 35.3637 152.497 37.554 152.497 40.4232C152.497 43.2923 152.958 45.4826 153.88 46.994ZM182.157 54.4103C178.801 54.4103 176.163 53.1422 174.242 50.6061C172.346 48.0444 171.398 44.6501 171.398 40.4232C171.398 36.1963 172.346 32.8148 174.242 30.2787C176.163 27.7169 178.801 26.436 182.157 26.436C185.539 26.436 188.177 27.7169 190.073 30.2787C191.969 32.8148 192.917 36.1963 192.917 40.4232C192.917 44.6501 191.969 48.0444 190.073 50.6061C188.177 53.1422 185.539 54.4103 182.157 54.4103ZM178.084 46.994C179.006 48.4799 180.364 49.2228 182.157 49.2228C183.951 49.2228 185.308 48.4671 186.231 46.9556C187.178 45.4442 187.652 43.2667 187.652 40.4232C187.652 37.554 187.178 35.3637 186.231 33.8523C185.308 32.3409 183.951 31.5851 182.157 31.5851C180.364 31.5851 179.006 32.3409 178.084 33.8523C177.162 35.3637 176.701 37.554 176.701 40.4232C176.701 43.2923 177.162 45.4826 178.084 46.994ZM206.361 54.4103C203.006 54.4103 200.367 53.1422 198.446 50.6061C196.55 48.0444 195.602 44.6501 195.602 40.4232C195.602 36.1963 196.55 32.8148 198.446 30.2787C200.367 27.7169 203.006 26.436 206.361 26.436C209.743 26.436 212.381 27.7169 214.277 30.2787C216.173 32.8148 217.121 36.1963 217.121 40.4232C217.121 44.6501 216.173 48.0444 214.277 50.6061C212.381 53.1422 209.743 54.4103 206.361 54.4103ZM202.288 46.994C203.21 48.4799 204.568 49.2228 206.361 49.2228C208.155 49.2228 209.512 48.4671 210.435 46.9556C211.382 45.4442 211.856 43.2667 211.856 40.4232C211.856 37.554 211.382 35.3637 210.435 33.8523C209.512 32.3409 208.155 31.5851 206.361 31.5851C204.568 31.5851 203.21 32.3409 202.288 33.8523C201.366 35.3637 200.905 37.554 200.905 40.4232C200.905 43.2923 201.366 45.4826 202.288 46.994ZM224.753 53.4112C224.112 54.0517 223.344 54.3719 222.447 54.3719C221.551 54.3719 220.782 54.0517 220.142 53.4112C219.501 52.7708 219.181 52.0023 219.181 51.1056C219.181 50.209 219.501 49.4405 220.142 48.8001C220.782 48.1596 221.551 47.8394 222.447 47.8394C223.344 47.8394 224.112 48.1596 224.753 48.8001C225.393 49.4405 225.713 50.209 225.713 51.1056C225.713 52.0023 225.393 52.7708 224.753 53.4112ZM238.521 54.4103C235.165 54.4103 232.526 53.1422 230.605 50.6061C228.709 48.0444 227.762 44.6501 227.762 40.4232C227.762 36.1963 228.709 32.8148 230.605 30.2787C232.526 27.7169 235.165 26.436 238.521 26.436C241.902 26.436 244.541 27.7169 246.437 30.2787C248.332 32.8148 249.28 36.1963 249.28 40.4232C249.28 44.6501 248.332 48.0444 246.437 50.6061C244.541 53.1422 241.902 54.4103 238.521 54.4103ZM234.448 46.994C235.37 48.4799 236.728 49.2228 238.521 49.2228C240.314 49.2228 241.672 48.4671 242.594 46.9556C243.542 45.4442 244.016 43.2667 244.016 40.4232C244.016 37.554 243.542 35.3637 242.594 33.8523C241.672 32.3409 240.314 31.5851 238.521 31.5851C236.728 31.5851 235.37 32.3409 234.448 33.8523C233.525 35.3637 233.064 37.554 233.064 40.4232C233.064 43.2923 233.525 45.4826 234.448 46.994ZM262.725 54.4103C259.369 54.4103 256.73 53.1422 254.809 50.6061C252.913 48.0444 251.966 44.6501 251.966 40.4232C251.966 36.1963 252.913 32.8148 254.809 30.2787C256.73 27.7169 259.369 26.436 262.725 26.436C266.106 26.436 268.745 27.7169 270.641 30.2787C272.536 32.8148 273.484 36.1963 273.484 40.4232C273.484 44.6501 272.536 48.0444 270.641 50.6061C268.745 53.1422 266.106 54.4103 262.725 54.4103ZM258.652 46.994C259.574 48.4799 260.932 49.2228 262.725 49.2228C264.518 49.2228 265.876 48.4671 266.798 46.9556C267.746 45.4442 268.22 43.2667 268.22 40.4232C268.22 37.554 267.746 35.3637 266.798 33.8523C265.876 32.3409 264.518 31.5851 262.725 31.5851C260.932 31.5851 259.574 32.3409 258.652 33.8523C257.73 35.3637 257.268 37.554 257.268 40.4232C257.268 43.2923 257.73 45.4826 258.652 46.994Z" fill="#161616"/>
</g>
<defs>
<filter id="filter0_f_34_800" x="0.771204" y="0.818567" width="298.331" height="84.0509" filterUnits="userSpaceOnUse" color-interpolation-filters="sRGB">
<feFlood flood-opacity="0" result="BackgroundImageFix"/>
<feBlend mode="normal" in="SourceGraphic" in2="BackgroundImageFix" result="shape"/>
<feGaussianBlur stdDeviation="12.8087" result="effect1_foregroundBlur_34_800"/>
</filter>
</defs>
</svg>
