<svg width="299" height="85" viewBox="0 0 299 85" fill="none" xmlns="http://www.w3.org/2000/svg">
<g opacity="0.5" filter="url(#filter0_f_34_800)">
<path opacity="0.5" d="M40.8211 53.2024L35.403 43.8649H31.3682V53.2024H26.0654V26.3041H36.8248C39.3097 26.3041 41.4231 27.1751 43.1651 28.9171C44.9071 30.659 45.7781 32.7597 45.7781 35.219C45.7781 36.8841 45.3041 38.4339 44.3563 39.8685C43.4085 41.2775 42.1532 42.3406 40.5905 43.0579L46.5466 53.2024H40.8211ZM31.3682 31.2611V39.2153H36.8248C37.8238 39.2153 38.682 38.831 39.3993 38.0625C40.1166 37.2684 40.4753 36.3205 40.4753 35.219C40.4753 34.1174 40.1166 33.1824 39.3993 32.4138C38.682 31.6453 37.8238 31.2611 36.8248 31.2611H31.3682ZM53.2607 39.4458C53.2607 39.9582 53.5937 40.3809 54.2598 40.7139C54.9514 41.0213 55.784 41.3031 56.7575 41.5593C57.7309 41.7898 58.7044 42.0972 59.6779 42.4815C60.6513 42.8402 61.4711 43.455 62.1371 44.326C62.8288 45.197 63.1746 46.2857 63.1746 47.5922C63.1746 49.5647 62.4317 51.089 60.9459 52.1649C59.4857 53.2152 57.6541 53.7404 55.451 53.7404C51.5059 53.7404 48.816 52.2161 47.3815 49.1677L51.6852 46.7468C52.2488 48.412 53.504 49.2445 55.451 49.2445C57.2186 49.2445 58.1024 48.6937 58.1024 47.5922C58.1024 47.0798 57.7565 46.67 57.0649 46.3626C56.3988 46.0295 55.5791 45.7349 54.6056 45.4788C53.6321 45.2226 52.6587 44.9024 51.6852 44.5181C50.7117 44.1338 49.8792 43.5318 49.1875 42.7121C48.5214 41.8667 48.1884 40.8164 48.1884 39.5611C48.1884 37.6654 48.8801 36.1796 50.2634 35.1037C51.6724 34.0021 53.4144 33.4514 55.4894 33.4514C57.0521 33.4514 58.4738 33.81 59.7547 34.5273C61.0356 35.219 62.0475 36.218 62.7904 37.5245L58.5635 39.8301C57.9487 38.5236 56.924 37.8704 55.4894 37.8704C54.849 37.8704 54.311 38.0113 53.8755 38.2931C53.4656 38.5748 53.2607 38.9591 53.2607 39.4458ZM81.3829 26.3041H85.994V53.2024H80.6912V31.9143L75.619 33.3361L74.3125 28.8018L81.3829 26.3041ZM100.854 53.7404C97.4982 53.7404 94.8596 52.4723 92.9383 49.9362C91.0426 47.3744 90.0948 43.9801 90.0948 39.7532C90.0948 35.5264 91.0426 32.1449 92.9383 29.6087C94.8596 27.047 97.4982 25.7661 100.854 25.7661C104.236 25.7661 106.874 27.047 108.77 29.6087C110.666 32.1449 111.613 35.5264 111.613 39.7532C111.613 43.9801 110.666 47.3744 108.77 49.9362C106.874 52.4723 104.236 53.7404 100.854 53.7404ZM96.7809 46.3241C97.7031 47.8099 99.0609 48.5528 100.854 48.5528C102.647 48.5528 104.005 47.7971 104.927 46.2857C105.875 44.7743 106.349 42.5968 106.349 39.7532C106.349 36.8841 105.875 34.6938 104.927 33.1824C104.005 31.6709 102.647 30.9152 100.854 30.9152C99.0609 30.9152 97.7031 31.6709 96.7809 33.1824C95.8587 34.6938 95.3976 36.8841 95.3976 39.7532C95.3976 42.6224 95.8587 44.8127 96.7809 46.3241ZM125.058 53.7404C121.702 53.7404 119.064 52.4723 117.142 49.9362C115.247 47.3744 114.299 43.9801 114.299 39.7532C114.299 35.5264 115.247 32.1449 117.142 29.6087C119.064 27.047 121.702 25.7661 125.058 25.7661C128.44 25.7661 131.078 27.047 132.974 29.6087C134.87 32.1449 135.817 35.5264 135.817 39.7532C135.817 43.9801 134.87 47.3744 132.974 49.9362C131.078 52.4723 128.44 53.7404 125.058 53.7404ZM120.985 46.3241C121.907 47.8099 123.265 48.5528 125.058 48.5528C126.851 48.5528 128.209 47.7971 129.131 46.2857C130.079 44.7743 130.553 42.5968 130.553 39.7532C130.553 36.8841 130.079 34.6938 129.131 33.1824C128.209 31.6709 126.851 30.9152 125.058 30.9152C123.265 30.9152 121.907 31.6709 120.985 33.1824C120.063 34.6938 119.602 36.8841 119.602 39.7532C119.602 42.6224 120.063 44.8127 120.985 46.3241ZM144.794 47.8996L141.912 58.5821H137.877L139.414 47.8996H144.794ZM157.63 53.7404C154.274 53.7404 151.636 52.4723 149.714 49.9362C147.819 47.3744 146.871 43.9801 146.871 39.7532C146.871 35.5264 147.819 32.1449 149.714 29.6087C151.636 27.047 154.274 25.7661 157.63 25.7661C161.012 25.7661 163.65 27.047 165.546 29.6087C167.442 32.1449 168.389 35.5264 168.389 39.7532C168.389 43.9801 167.442 47.3744 165.546 49.9362C163.65 52.4723 161.012 53.7404 157.63 53.7404ZM153.557 46.3241C154.479 47.8099 155.837 48.5528 157.63 48.5528C159.423 48.5528 160.781 47.7971 161.703 46.2857C162.651 44.7743 163.125 42.5968 163.125 39.7532C163.125 36.8841 162.651 34.6938 161.703 33.1824C160.781 31.6709 159.423 30.9152 157.63 30.9152C155.837 30.9152 154.479 31.6709 153.557 33.1824C152.635 34.6938 152.174 36.8841 152.174 39.7532C152.174 42.6224 152.635 44.8127 153.557 46.3241ZM181.834 53.7404C178.478 53.7404 175.84 52.4723 173.918 49.9362C172.023 47.3744 171.075 43.9801 171.075 39.7532C171.075 35.5264 172.023 32.1449 173.918 29.6087C175.84 27.047 178.478 25.7661 181.834 25.7661C185.216 25.7661 187.854 27.047 189.75 29.6087C191.646 32.1449 192.593 35.5264 192.593 39.7532C192.593 43.9801 191.646 47.3744 189.75 49.9362C187.854 52.4723 185.216 53.7404 181.834 53.7404ZM177.761 46.3241C178.683 47.8099 180.041 48.5528 181.834 48.5528C183.627 48.5528 184.985 47.7971 185.907 46.2857C186.855 44.7743 187.329 42.5968 187.329 39.7532C187.329 36.8841 186.855 34.6938 185.907 33.1824C184.985 31.6709 183.627 30.9152 181.834 30.9152C180.041 30.9152 178.683 31.6709 177.761 33.1824C176.839 34.6938 176.378 36.8841 176.378 39.7532C176.378 42.6224 176.839 44.8127 177.761 46.3241ZM206.038 53.7404C202.682 53.7404 200.044 52.4723 198.122 49.9362C196.227 47.3744 195.279 43.9801 195.279 39.7532C195.279 35.5264 196.227 32.1449 198.122 29.6087C200.044 27.047 202.682 25.7661 206.038 25.7661C209.42 25.7661 212.058 27.047 213.954 29.6087C215.85 32.1449 216.797 35.5264 216.797 39.7532C216.797 43.9801 215.85 47.3744 213.954 49.9362C212.058 52.4723 209.42 53.7404 206.038 53.7404ZM201.965 46.3241C202.887 47.8099 204.245 48.5528 206.038 48.5528C207.831 48.5528 209.189 47.7971 210.111 46.2857C211.059 44.7743 211.533 42.5968 211.533 39.7532C211.533 36.8841 211.059 34.6938 210.111 33.1824C209.189 31.6709 207.831 30.9152 206.038 30.9152C204.245 30.9152 202.887 31.6709 201.965 33.1824C201.043 34.6938 200.582 36.8841 200.582 39.7532C200.582 42.6224 201.043 44.8127 201.965 46.3241ZM224.43 52.7413C223.789 53.3817 223.021 53.702 222.124 53.702C221.227 53.702 220.459 53.3817 219.818 52.7413C219.178 52.1009 218.858 51.3323 218.858 50.4357C218.858 49.5391 219.178 48.7706 219.818 48.1302C220.459 47.4897 221.227 47.1695 222.124 47.1695C223.021 47.1695 223.789 47.4897 224.43 48.1302C225.07 48.7706 225.39 49.5391 225.39 50.4357C225.39 51.3323 225.07 52.1009 224.43 52.7413ZM238.198 53.7404C234.842 53.7404 232.203 52.4723 230.282 49.9362C228.386 47.3744 227.438 43.9801 227.438 39.7532C227.438 35.5264 228.386 32.1449 230.282 29.6087C232.203 27.047 234.842 25.7661 238.198 25.7661C241.579 25.7661 244.218 27.047 246.113 29.6087C248.009 32.1449 248.957 35.5264 248.957 39.7532C248.957 43.9801 248.009 47.3744 246.113 49.9362C244.218 52.4723 241.579 53.7404 238.198 53.7404ZM234.124 46.3241C235.047 47.8099 236.404 48.5528 238.198 48.5528C239.991 48.5528 241.349 47.7971 242.271 46.2857C243.219 44.7743 243.693 42.5968 243.693 39.7532C243.693 36.8841 243.219 34.6938 242.271 33.1824C241.349 31.6709 239.991 30.9152 238.198 30.9152C236.404 30.9152 235.047 31.6709 234.124 33.1824C233.202 34.6938 232.741 36.8841 232.741 39.7532C232.741 42.6224 233.202 44.8127 234.124 46.3241ZM262.402 53.7404C259.046 53.7404 256.407 52.4723 254.486 49.9362C252.59 47.3744 251.642 43.9801 251.642 39.7532C251.642 35.5264 252.59 32.1449 254.486 29.6087C256.407 27.047 259.046 25.7661 262.402 25.7661C265.783 25.7661 268.422 27.047 270.317 29.6087C272.213 32.1449 273.161 35.5264 273.161 39.7532C273.161 43.9801 272.213 47.3744 270.317 49.9362C268.422 52.4723 265.783 53.7404 262.402 53.7404ZM258.329 46.3241C259.251 47.8099 260.608 48.5528 262.402 48.5528C264.195 48.5528 265.553 47.7971 266.475 46.2857C267.423 44.7743 267.897 42.5968 267.897 39.7532C267.897 36.8841 267.423 34.6938 266.475 33.1824C265.553 31.6709 264.195 30.9152 262.402 30.9152C260.608 30.9152 259.251 31.6709 258.329 33.1824C257.406 34.6938 256.945 36.8841 256.945 39.7532C256.945 42.6224 257.406 44.8127 258.329 46.3241Z" fill="#161616"/>
</g>
<defs>
<filter id="filter0_f_34_800" x="0.447962" y="0.148645" width="298.331" height="84.0509" filterUnits="userSpaceOnUse" color-interpolation-filters="sRGB">
<feFlood flood-opacity="0" result="BackgroundImageFix"/>
<feBlend mode="normal" in="SourceGraphic" in2="BackgroundImageFix" result="shape"/>
<feGaussianBlur stdDeviation="12.8087" result="effect1_foregroundBlur_34_800"/>
</filter>
</defs>
</svg>
