<svg width="41" height="41" viewBox="0 0 41 41" fill="none" xmlns="http://www.w3.org/2000/svg">
<circle cx="20.248" cy="20.3649" r="20.1094" fill="#EFECFD"/>
<path d="M11.1074 15.6119C11.1074 14.8042 11.7622 14.1494 12.5699 14.1494H14.0324C14.8401 14.1494 15.4949 14.8042 15.4949 15.6119V17.0744C15.4949 17.8821 14.8401 18.5369 14.0324 18.5369H12.5699C11.7622 18.5369 11.1074 17.8821 11.1074 17.0744V15.6119Z" fill="#7468E4"/>
<path d="M11.1074 22.9244C11.1074 22.1167 11.7622 21.4619 12.5699 21.4619H14.0324C14.8401 21.4619 15.4949 22.1167 15.4949 22.9244V24.3869C15.4949 25.1946 14.8401 25.8494 14.0324 25.8494H12.5699C11.7622 25.8494 11.1074 25.1946 11.1074 24.3869V22.9244Z" fill="#7468E4"/>
<path d="M25.7324 17.8056C24.9247 17.8056 24.2699 18.4604 24.2699 19.2681V20.7306C24.2699 21.5384 24.9247 22.1931 25.7324 22.1931H27.1949C28.0026 22.1931 28.6574 21.5384 28.6574 20.7306V19.2681C28.6574 18.4604 28.0026 17.8056 27.1949 17.8056H25.7324Z" fill="#7468E4"/>
<path d="M17.6883 15.612C17.2844 15.612 16.957 15.9394 16.957 16.3432C16.957 16.7471 17.2844 17.0745 17.6883 17.0745H18.4195C18.8234 17.0745 19.1508 17.4019 19.1508 17.8057V22.1932C19.1508 22.5971 18.8234 22.9245 18.4195 22.9245H17.6883C17.2844 22.9245 16.957 23.2519 16.957 23.6557C16.957 24.0596 17.2844 24.387 17.6883 24.387H18.4195C19.6311 24.387 20.6133 23.4048 20.6133 22.1932V20.7307H22.0758C22.4796 20.7307 22.807 20.4033 22.807 19.9995C22.807 19.5956 22.4796 19.2682 22.0758 19.2682H20.6133V17.8057C20.6133 16.5941 19.6311 15.612 18.4195 15.612H17.6883Z" fill="#7468E4"/>
</svg>
