<svg width="42" height="41" viewBox="0 0 42 41" fill="none" xmlns="http://www.w3.org/2000/svg">
<circle cx="20.9902" cy="20.3649" r="20.1094" fill="#EFECFD"/>
<path d="M11.8496 15.6119C11.8496 14.8042 12.5044 14.1494 13.3121 14.1494H14.7746C15.5823 14.1494 16.2371 14.8042 16.2371 15.6119V17.0744C16.2371 17.8821 15.5823 18.5369 14.7746 18.5369H13.3121C12.5044 18.5369 11.8496 17.8821 11.8496 17.0744V15.6119Z" fill="#7468E4"/>
<path d="M11.8496 22.9244C11.8496 22.1167 12.5044 21.4619 13.3121 21.4619H14.7746C15.5823 21.4619 16.2371 22.1167 16.2371 22.9244V24.3869C16.2371 25.1946 15.5823 25.8494 14.7746 25.8494H13.3121C12.5044 25.8494 11.8496 25.1946 11.8496 24.3869V22.9244Z" fill="#7468E4"/>
<path d="M26.4746 17.8056C25.6669 17.8056 25.0121 18.4604 25.0121 19.2681V20.7306C25.0121 21.5384 25.6669 22.1931 26.4746 22.1931H27.9371C28.7448 22.1931 29.3996 21.5384 29.3996 20.7306V19.2681C29.3996 18.4604 28.7448 17.8056 27.9371 17.8056H26.4746Z" fill="#7468E4"/>
<path d="M18.4305 15.612C18.0266 15.612 17.6992 15.9394 17.6992 16.3432C17.6992 16.7471 18.0266 17.0745 18.4305 17.0745H19.1617C19.5656 17.0745 19.893 17.4019 19.893 17.8057V22.1932C19.893 22.5971 19.5656 22.9245 19.1617 22.9245H18.4305C18.0266 22.9245 17.6992 23.2519 17.6992 23.6557C17.6992 24.0596 18.0266 24.387 18.4305 24.387H19.1617C20.3733 24.387 21.3555 23.4048 21.3555 22.1932V20.7307H22.818C23.2218 20.7307 23.5492 20.4033 23.5492 19.9995C23.5492 19.5956 23.2218 19.2682 22.818 19.2682H21.3555V17.8057C21.3555 16.5941 20.3733 15.612 19.1617 15.612H18.4305Z" fill="#7468E4"/>
</svg>
