<svg width="41" height="41" viewBox="0 0 41 41" fill="none" xmlns="http://www.w3.org/2000/svg">
<circle cx="20.4922" cy="20.3649" r="20.1094" fill="#FDF1E2"/>
<path fill-rule="evenodd" clip-rule="evenodd" d="M20.127 27.3117C24.1655 27.3117 27.4395 24.0378 27.4395 19.9992C27.4395 15.9606 24.1655 12.6867 20.127 12.6867C16.0884 12.6867 12.8145 15.9606 12.8145 19.9992C12.8145 24.0378 16.0884 27.3117 20.127 27.3117ZM20.8582 16.343C20.8582 15.9391 20.5308 15.6117 20.127 15.6117C19.7231 15.6117 19.3957 15.9391 19.3957 16.343V19.9992C19.3957 20.1931 19.4727 20.3791 19.6099 20.5163L21.438 22.3444C21.7236 22.63 22.1866 22.63 22.4721 22.3444C22.7577 22.0588 22.7577 21.5958 22.4721 21.3103L20.8582 19.6963V16.343Z" fill="#FFB648"/>
</svg>
