<svg width="42" height="41" viewBox="0 0 42 41" fill="none" xmlns="http://www.w3.org/2000/svg">
<circle cx="21.0283" cy="20.3649" r="20.1094" fill="#E5F7ED"/>
<path d="M19.2004 25.2436C19.2004 26.0513 18.5456 26.7061 17.7379 26.7061C16.9302 26.7061 16.2754 26.0513 16.2754 25.2436C16.2754 24.4359 16.9302 23.7811 17.7379 23.7811C18.5456 23.7811 19.2004 24.4359 19.2004 25.2436Z" fill="#22B573"/>
<path d="M27.7349 14.4643C28.0344 14.7352 28.0575 15.1977 27.7866 15.4971L26.0552 17.4108C25.9245 17.5552 25.93 17.7768 26.0678 17.9146L27.0302 18.8769C27.3157 19.1625 27.3157 19.6255 27.0302 19.9111C26.7446 20.1967 26.2816 20.1967 25.996 19.9111L25.1112 19.0263C24.9634 18.8784 24.7218 18.8845 24.5816 19.0395L20.8397 23.1753C20.5688 23.4747 20.1063 23.4979 19.8069 23.2269C19.5074 22.9559 19.4843 22.4935 19.7552 22.194L26.7021 14.5159C26.973 14.2164 27.4355 14.1933 27.7349 14.4643Z" fill="#22B573"/>
<path d="M13.5648 21.0707C13.8503 20.7851 14.3133 20.7851 14.5989 21.0707L15.6958 22.1676C15.9814 22.4531 15.9814 22.9161 15.6958 23.2017C15.4102 23.4873 14.9472 23.4873 14.6616 23.2017L13.5648 22.1048C13.2792 21.8193 13.2792 21.3563 13.5648 21.0707Z" fill="#22B573"/>
<path d="M14.3854 18.9652L16.7046 21.2845C17.2757 21.8556 18.2017 21.8556 18.7729 21.2845L22.5546 17.5027C23.1257 16.9316 23.1257 16.0056 22.5546 15.4345L20.2354 13.1152C19.6642 12.5441 18.7382 12.5441 18.1671 13.1152L14.3854 16.897C13.8142 17.4681 13.8142 18.3941 14.3854 18.9652Z" fill="#22B573"/>
</svg>
