<svg width="41" height="41" viewBox="0 0 41 41" fill="none" xmlns="http://www.w3.org/2000/svg">
<rect x="1.09707" y="1.19094" width="38.7562" height="38.7562" rx="6.94688" stroke="#F2F2F2" stroke-width="0.73125"/>
<path fill-rule="evenodd" clip-rule="evenodd" d="M16.4537 22.7624C16.1231 22.7624 15.6559 22.8081 15.1695 22.8747C14.9423 22.9059 14.769 23.0791 14.7379 23.3063C14.6713 23.7927 14.6256 24.2599 14.6256 24.5906C14.6256 24.9212 14.6713 25.3884 14.7379 25.8748C14.769 26.102 14.9423 26.2752 15.1695 26.3064C15.6559 26.373 16.1231 26.4187 16.4537 26.4187C16.7844 26.4187 17.2516 26.373 17.7379 26.3064C17.9651 26.2752 18.1384 26.102 18.1695 25.8748C18.2361 25.3884 18.2818 24.9212 18.2818 24.5906C18.2818 24.2599 18.2361 23.7927 18.1695 23.3063C18.1384 23.0791 17.9651 22.9059 17.7379 22.8747C17.2516 22.8081 16.7844 22.7624 16.4537 22.7624ZM14.9711 21.4258C14.0936 21.5459 13.4091 22.2305 13.2889 23.1079C13.22 23.6111 13.1631 24.1578 13.1631 24.5906C13.1631 25.0233 13.22 25.57 13.2889 26.0732C13.4091 26.9506 14.0936 27.6352 14.9711 27.7553C15.4743 27.8243 16.0209 27.8812 16.4537 27.8812C16.8865 27.8812 17.4331 27.8243 17.9364 27.7553C18.8138 27.6352 19.4983 26.9506 19.6185 26.0732C19.6874 25.57 19.7443 25.0233 19.7443 24.5906C19.7443 24.1578 19.6874 23.6111 19.6185 23.1079C19.4983 22.2305 18.8138 21.5459 17.9364 21.4258C17.4331 21.3568 16.8865 21.2999 16.4537 21.2999C16.0209 21.2999 15.4743 21.3568 14.9711 21.4258Z" fill="#436CFB"/>
<path fill-rule="evenodd" clip-rule="evenodd" d="M24.4977 14.7187C24.167 14.7187 23.6998 14.7644 23.2134 14.831C22.9862 14.8622 22.813 15.0354 22.7818 15.2626C22.7152 15.749 22.6695 16.2162 22.6695 16.5469C22.6695 16.8775 22.7152 17.3447 22.7818 17.8311C22.813 18.0583 22.9862 18.2315 23.2134 18.2627C23.6998 18.3293 24.167 18.375 24.4977 18.375C24.8283 18.375 25.2955 18.3293 25.7819 18.2627C26.0091 18.2315 26.1823 18.0583 26.2135 17.8311C26.2801 17.3447 26.3258 16.8775 26.3258 16.5469C26.3258 16.2162 26.2801 15.749 26.2135 15.2626C26.1823 15.0354 26.0091 14.8622 25.7819 14.831C25.2955 14.7644 24.8283 14.7187 24.4977 14.7187ZM23.015 13.3821C22.1376 13.5022 21.453 14.1868 21.3329 15.0642C21.264 15.5674 21.207 16.1141 21.207 16.5469C21.207 16.9796 21.264 17.5263 21.3329 18.0295C21.453 18.9069 22.1376 19.5915 23.015 19.7116C23.5183 19.7806 24.0649 19.8375 24.4977 19.8375C24.9304 19.8375 25.4771 19.7806 25.9803 19.7116C26.8577 19.5915 27.5423 18.9069 27.6624 18.0295C27.7314 17.5263 27.7883 16.9796 27.7883 16.5469C27.7883 16.1141 27.7314 15.5674 27.6624 15.0642C27.5423 14.1868 26.8577 13.5022 25.9803 13.3821C25.4771 13.3131 24.9304 13.2562 24.4977 13.2562C24.0649 13.2562 23.5183 13.3131 23.015 13.3821Z" fill="#436CFB"/>
<path fill-rule="evenodd" clip-rule="evenodd" d="M16.4537 14.7187C16.1231 14.7187 15.6559 14.7644 15.1695 14.831C14.9423 14.8622 14.769 15.0354 14.7379 15.2626C14.6713 15.749 14.6256 16.2162 14.6256 16.5469C14.6256 16.8775 14.6713 17.3447 14.7379 17.8311C14.769 18.0583 14.9423 18.2315 15.1695 18.2627C15.6559 18.3293 16.1231 18.375 16.4537 18.375C16.7844 18.375 17.2516 18.3293 17.7379 18.2627C17.9651 18.2315 18.1384 18.0583 18.1695 17.8311C18.2361 17.3447 18.2818 16.8775 18.2818 16.5469C18.2818 16.2162 18.2361 15.749 18.1695 15.2626C18.1384 15.0354 17.9651 14.8622 17.7379 14.831C17.2516 14.7644 16.7844 14.7187 16.4537 14.7187ZM14.9711 13.3821C14.0936 13.5022 13.4091 14.1868 13.2889 15.0642C13.22 15.5674 13.1631 16.1141 13.1631 16.5469C13.1631 16.9796 13.22 17.5263 13.2889 18.0295C13.4091 18.9069 14.0936 19.5915 14.9711 19.7116C15.4743 19.7806 16.0209 19.8375 16.4537 19.8375C16.8865 19.8375 17.4331 19.7806 17.9364 19.7116C18.8138 19.5915 19.4983 18.9069 19.6185 18.0295C19.6874 17.5263 19.7443 16.9796 19.7443 16.5469C19.7443 16.1141 19.6874 15.5674 19.6185 15.0642C19.4983 14.1868 18.8138 13.5022 17.9364 13.3821C17.4331 13.3131 16.8865 13.2562 16.4537 13.2562C16.0209 13.2562 15.4743 13.3131 14.9711 13.3821Z" fill="#436CFB"/>
<path fill-rule="evenodd" clip-rule="evenodd" d="M25.3493 22.7628C25.3493 22.4599 25.1038 22.2144 24.8009 22.2144C24.498 22.2144 24.2524 22.4599 24.2524 22.7628V24.3467H22.6686C22.3657 24.3467 22.1201 24.5923 22.1201 24.8951C22.1201 25.198 22.3657 25.4436 22.6686 25.4436H24.2524V27.0284C24.2524 27.3313 24.498 27.5769 24.8009 27.5769C25.1038 27.5769 25.3493 27.3313 25.3493 27.0284V25.4436H26.9342C27.2371 25.4436 27.4826 25.198 27.4826 24.8951C27.4826 24.5923 27.2371 24.3467 26.9342 24.3467H25.3493V22.7628Z" fill="#436CFB"/>
</svg>
