<svg width="103" height="39" viewBox="0 0 103 39" fill="none" xmlns="http://www.w3.org/2000/svg">
<g opacity="0.36" filter="url(#filter0_f_34_797)">
<path opacity="0.36" d="M23.2487 27.2329L22.1503 24.0723H15.4706L14.3722 27.2329H11.5703L17.2638 11.5425H20.3571L26.0282 27.2329H23.2487ZM16.3224 21.6515H21.2985L18.8104 14.5682L16.3224 21.6515ZM39.7972 15.7338C41.0675 15.7338 42.0911 16.145 42.8681 16.9667C43.6452 17.789 44.0337 18.8944 44.0337 20.2841V27.2329H41.6129V20.441C41.6129 19.6642 41.4186 19.0667 41.0301 18.6478C40.6416 18.2149 40.1111 17.9978 39.4386 17.9978C38.6915 17.9978 38.0937 18.2443 37.6454 18.7375C37.2121 19.2306 36.9953 19.9703 36.9953 20.9566V27.2329H34.5745V20.441C34.5745 19.6642 34.3877 19.0667 34.0141 18.6478C33.6554 18.2149 33.1399 17.9978 32.4674 17.9978C31.7352 17.9978 31.1375 18.252 30.6742 18.7599C30.211 19.253 29.9793 19.9857 29.9793 20.9566V27.2329H27.5585V16.0252H29.9793V17.3701C30.6966 16.2795 31.7651 15.7338 33.1847 15.7338C34.6193 15.7338 35.6803 16.3243 36.3677 17.5046C37.1149 16.3243 38.2581 15.7338 39.7972 15.7338ZM51.9145 27.5243C50.2711 27.5243 48.8737 26.9568 47.7228 25.8207C46.5724 24.6852 45.997 23.2878 45.997 21.629C45.997 19.9703 46.5724 18.5735 47.7228 17.4374C48.8737 16.3019 50.2711 15.7338 51.9145 15.7338C53.5732 15.7338 54.9706 16.3019 56.1061 17.4374C57.257 18.5735 57.8321 19.9703 57.8321 21.629C57.8321 23.2878 57.257 24.6852 56.1061 25.8207C54.9706 26.9568 53.5732 27.5243 51.9145 27.5243ZM49.4264 24.162C50.0989 24.8344 50.9282 25.1707 51.9145 25.1707C52.9008 25.1707 53.7301 24.8344 54.4026 24.162C55.0751 23.4895 55.4113 22.6454 55.4113 21.629C55.4113 20.6133 55.0751 19.7686 54.4026 19.0961C53.7301 18.4237 52.9008 18.0874 51.9145 18.0874C50.9282 18.0874 50.0989 18.4237 49.4264 19.0961C48.7539 19.7686 48.4177 20.6133 48.4177 21.629C48.4177 22.6454 48.7539 23.4895 49.4264 24.162ZM67.5751 16.0252H69.9959V27.2329H67.5751V25.7983C66.8431 26.9491 65.6852 27.5243 64.1007 27.5243C62.816 27.5243 61.7772 27.1137 60.985 26.2914C60.1934 25.4697 59.797 24.3413 59.797 22.9067V16.0252H62.2178V22.6601C62.2178 23.4972 62.442 24.1396 62.8903 24.5879C63.3386 25.0362 63.9515 25.2603 64.7284 25.2603C65.5801 25.2603 66.268 24.999 66.7906 24.4758C67.3138 23.9378 67.5751 23.1238 67.5751 22.0325V16.0252ZM78.7219 15.7338C80.0072 15.7338 81.046 16.145 81.8376 16.9667C82.6298 17.789 83.0256 18.9168 83.0256 20.3514V27.2329H80.6048V20.5979C80.6048 19.7615 80.3806 19.1185 79.9323 18.6702C79.484 18.2219 78.8717 17.9978 78.0943 17.9978C77.2425 17.9978 76.5553 18.2667 76.0321 18.8047C75.5095 19.3279 75.2475 20.1349 75.2475 21.2256V27.2329H72.8267V16.0252H75.2475V17.4598C75.9802 16.3096 77.1381 15.7338 78.7219 15.7338ZM91.8861 18.3564H89.1066V23.7361C89.1066 24.1998 89.2116 24.536 89.4204 24.7448C89.6298 24.9395 89.9359 25.0515 90.3394 25.081C90.7583 25.0964 91.2738 25.0887 91.8861 25.0586V27.2329C90.0333 27.457 88.7031 27.3001 87.8961 26.7621C87.0892 26.2094 86.6857 25.2008 86.6857 23.7361V18.3564H84.6235V16.0252H86.6857V13.6047L89.1066 12.8874V16.0252H91.8861V18.3564Z" fill="#161616"/>
</g>
<defs>
<filter id="filter0_f_34_797" x="0.682888" y="0.655056" width="102.09" height="37.7565" filterUnits="userSpaceOnUse" color-interpolation-filters="sRGB">
<feFlood flood-opacity="0" result="BackgroundImageFix"/>
<feBlend mode="normal" in="SourceGraphic" in2="BackgroundImageFix" result="shape"/>
<feGaussianBlur stdDeviation="5.44371" result="effect1_foregroundBlur_34_797"/>
</filter>
</defs>
</svg>
