<svg width="37" height="19" viewBox="0 0 37 19" fill="none" xmlns="http://www.w3.org/2000/svg">
<g filter="url(#filter0_di_34_820)">
<path d="M16.0869 10.361H18.6052L20.1799 0.555908H17.6625L16.0869 10.361Z" fill="#3455FF"/>
<path d="M16.6466 0.556934L12.6869 10.3511H10.0221L8.07842 3.10011C7.87803 2.35272 7.35966 1.73022 6.66043 1.3972C6.60868 1.37222 6.55629 1.34788 6.50391 1.32482C6.57826 1.06609 6.65985 0.810552 6.74759 0.557579H8.77714C9.61034 0.568467 10.2231 1.0725 10.4156 1.81989L11.2659 5.9776C11.2629 5.96928 11.2586 5.96031 11.2556 5.95198L11.5144 7.21749L13.9819 0.555664V0.556934H16.6466Z" fill="#3455FF"/>
<path d="M34.1932 0.585938H32.245C31.6443 0.585938 31.1883 0.758852 30.9283 1.37495L27.1875 10.3609H29.8306L30.5581 8.41528H33.5157L33.8929 10.368H34.9438C35.2628 9.45021 35.4952 8.49213 35.6291 7.50329L34.1932 0.585938ZM31.2908 6.4517C31.3433 6.4517 32.3059 3.27641 32.3059 3.27641L33.0725 6.4517C33.0725 6.4517 31.7884 6.4517 31.2908 6.4517Z" fill="#3455FF"/>
<path d="M25.2586 4.54956C24.3786 4.11534 23.8394 3.82203 23.8394 3.37757C23.8496 2.97345 24.2953 2.55908 25.2899 2.55908C26.1084 2.53859 26.7098 2.73073 27.1658 2.92222L27.3944 3.02405L27.737 0.972727C27.2394 0.780596 26.4504 0.568604 25.4763 0.568604C22.9895 0.568604 21.2382 1.86165 21.2273 3.71123C21.2068 5.076 22.481 5.83299 23.4346 6.2877C24.4087 6.7533 24.7404 7.05558 24.7404 7.4693C24.7296 8.10526 23.9527 8.39859 23.2277 8.39859C22.2235 8.39859 21.6837 8.24745 20.8645 7.89328L20.5329 7.74215L20.1807 9.87415C20.7723 10.1374 21.8602 10.3686 22.9895 10.3807C25.6326 10.3807 27.3521 9.10691 27.3739 7.13628C27.3822 6.05459 26.7104 5.2265 25.2586 4.54956Z" fill="#3455FF"/>
</g>
<defs>
<filter id="filter0_di_34_820" x="0.739976" y="0.555664" width="35.5294" height="17.5104" filterUnits="userSpaceOnUse" color-interpolation-filters="sRGB">
<feFlood flood-opacity="0" result="BackgroundImageFix"/>
<feColorMatrix in="SourceAlpha" type="matrix" values="0 0 0 0 0 0 0 0 0 0 0 0 0 0 0 0 0 0 127 0" result="hardAlpha"/>
<feOffset dx="-2.56175" dy="4.48306"/>
<feGaussianBlur stdDeviation="1.60109"/>
<feColorMatrix type="matrix" values="0 0 0 0 0 0 0 0 0 0 0 0 0 0 0 0 0 0 0.25 0"/>
<feBlend mode="normal" in2="BackgroundImageFix" result="effect1_dropShadow_34_820"/>
<feBlend mode="normal" in="SourceGraphic" in2="effect1_dropShadow_34_820" result="shape"/>
<feColorMatrix in="SourceAlpha" type="matrix" values="0 0 0 0 0 0 0 0 0 0 0 0 0 0 0 0 0 0 127 0" result="hardAlpha"/>
<feOffset dx="-0.640437" dy="0.640437"/>
<feGaussianBlur stdDeviation="0.480328"/>
<feComposite in2="hardAlpha" operator="arithmetic" k2="-1" k3="1"/>
<feColorMatrix type="matrix" values="0 0 0 0 1 0 0 0 0 1 0 0 0 0 1 0 0 0 0.29 0"/>
<feBlend mode="normal" in2="shape" result="effect2_innerShadow_34_820"/>
</filter>
</defs>
</svg>
