<svg width="18" height="18" viewBox="0 0 18 18" fill="none" xmlns="http://www.w3.org/2000/svg">
<path fill-rule="evenodd" clip-rule="evenodd" d="M1.00534 17.6314C0.467738 17.5119 0.128774 16.9793 0.24824 16.4417L0.625519 14.7439C0.259719 13.9993 0.0664062 13.1775 0.0664062 12.3289C0.0664062 9.29992 2.52184 6.84448 5.55078 6.84448C8.57972 6.84448 11.0352 9.29992 11.0352 12.3289C11.0352 15.3578 8.57972 17.8132 5.55078 17.8132C4.70211 17.8132 3.88037 17.6199 3.13572 17.2541L1.43797 17.6314C1.2955 17.6631 1.14781 17.6631 1.00534 17.6314ZM1.06361 12.3286C1.06361 13.0764 1.24636 13.7968 1.59093 14.4412C1.64715 14.5463 1.66384 14.6681 1.63798 14.7844L1.2217 16.6577L3.09494 16.2414C3.21131 16.2155 3.33309 16.2322 3.43821 16.2884C4.08257 16.633 4.80296 16.8158 5.55083 16.8158C8.02905 16.8158 10.038 14.8068 10.038 12.3286C10.038 9.85033 8.02905 7.84134 5.55083 7.84134C3.07261 7.84134 1.06361 9.85033 1.06361 12.3286Z" fill="#BCCDE1"/>
<circle cx="15.058" cy="2.88973" r="2.19375" fill="#0177FB"/>
</svg>
