<svg width="103" height="39" viewBox="0 0 103 39" fill="none" xmlns="http://www.w3.org/2000/svg">
<g opacity="0.36" filter="url(#filter0_f_34_797)">
<path opacity="0.36" d="M22.9254 27.5629L21.8271 24.4024H15.1473L14.049 27.5629H11.2471L16.9406 11.8726H20.0339L25.7049 27.5629H22.9254ZM15.9991 21.9815H20.9753L18.4872 14.8983L15.9991 21.9815ZM39.474 16.0639C40.7442 16.0639 41.7678 16.4751 42.5449 17.2967C43.322 18.1191 43.7105 19.2245 43.7105 20.6142V27.5629H41.2896V20.7711C41.2896 19.9943 41.0954 19.3967 40.7068 18.9779C40.3183 18.545 39.7878 18.3278 39.1154 18.3278C38.3682 18.3278 37.7704 18.5744 37.3221 19.0675C36.8888 19.5607 36.6721 20.3004 36.6721 21.2867V27.5629H34.2512V20.7711C34.2512 19.9943 34.0645 19.3967 33.6909 18.9779C33.3322 18.545 32.8167 18.3278 32.1442 18.3278C31.412 18.3278 30.8143 18.5821 30.351 19.09C29.8877 19.5831 29.6561 20.3158 29.6561 21.2867V27.5629H27.2353V16.3553H29.6561V17.7002C30.3734 16.6096 31.4419 16.0639 32.8615 16.0639C34.2961 16.0639 35.3571 16.6544 36.0445 17.8347C36.7917 16.6544 37.9348 16.0639 39.474 16.0639ZM51.5912 27.8543C49.9479 27.8543 48.5505 27.2869 47.3996 26.1508C46.2491 25.0153 45.6738 23.6179 45.6738 21.9591C45.6738 20.3004 46.2491 18.9036 47.3996 17.7675C48.5505 16.632 49.9479 16.0639 51.5912 16.0639C53.25 16.0639 54.6474 16.632 55.7829 17.7675C56.9338 18.9036 57.5089 20.3004 57.5089 21.9591C57.5089 23.6179 56.9338 25.0153 55.7829 26.1508C54.6474 27.2869 53.25 27.8543 51.5912 27.8543ZM49.1032 24.492C49.7756 25.1645 50.605 25.5007 51.5912 25.5007C52.5775 25.5007 53.4069 25.1645 54.0793 24.492C54.7518 23.8196 55.088 22.9755 55.088 21.9591C55.088 20.9434 54.7518 20.0986 54.0793 19.4262C53.4069 18.7537 52.5775 18.4175 51.5912 18.4175C50.605 18.4175 49.7756 18.7537 49.1032 19.4262C48.4307 20.0986 48.0945 20.9434 48.0945 21.9591C48.0945 22.9755 48.4307 23.8196 49.1032 24.492ZM67.2518 16.3553H69.6727V27.5629H67.2518V26.1284C66.5198 27.2792 65.3619 27.8543 63.7775 27.8543C62.4928 27.8543 61.454 27.4438 60.6618 26.6215C59.8702 25.7998 59.4737 24.6714 59.4737 23.2368V16.3553H61.8946V22.9902C61.8946 23.8273 62.1187 24.4696 62.5671 24.9179C63.0154 25.3662 63.6283 25.5904 64.4051 25.5904C65.2569 25.5904 65.9447 25.3291 66.4673 24.8059C66.9906 24.2679 67.2518 23.4539 67.2518 22.3626V16.3553ZM78.3986 16.0639C79.684 16.0639 80.7228 16.4751 81.5144 17.2967C82.3066 18.1191 82.7024 19.2469 82.7024 20.6814V27.5629H80.2815V20.928C80.2815 20.0916 80.0574 19.4486 79.6091 19.0003C79.1608 18.552 78.5485 18.3278 77.771 18.3278C76.9192 18.3278 76.232 18.5968 75.7088 19.1348C75.1862 19.658 74.9243 20.465 74.9243 21.5556V27.5629H72.5034V16.3553H74.9243V17.7899C75.6569 16.6397 76.8148 16.0639 78.3986 16.0639ZM91.5628 18.6865H88.7833V24.0662C88.7833 24.5298 88.8884 24.8661 89.0971 25.0748C89.3066 25.2695 89.6127 25.3816 90.0162 25.4111C90.435 25.4264 90.9506 25.4188 91.5628 25.3887V27.5629C89.71 27.7871 88.3799 27.6302 87.5729 27.0922C86.766 26.5395 86.3625 25.5308 86.3625 24.0662V18.6865H84.3003V16.3553H86.3625V13.9348L88.7833 13.2175V16.3553H91.5628V18.6865Z" fill="#161616"/>
</g>
<defs>
<filter id="filter0_f_34_797" x="0.359646" y="0.985134" width="102.09" height="37.7565" filterUnits="userSpaceOnUse" color-interpolation-filters="sRGB">
<feFlood flood-opacity="0" result="BackgroundImageFix"/>
<feBlend mode="normal" in="SourceGraphic" in2="BackgroundImageFix" result="shape"/>
<feGaussianBlur stdDeviation="5.44371" result="effect1_foregroundBlur_34_797"/>
</filter>
</defs>
</svg>
