<svg width="12" height="12" viewBox="0 0 12 12" fill="none" xmlns="http://www.w3.org/2000/svg">
<path fill-rule="evenodd" clip-rule="evenodd" d="M1.99272 8.99703C0.101384 7.10568 0.101384 4.03922 1.99272 2.14788C3.88406 0.256535 6.95053 0.256535 8.84187 2.14788C10.5708 3.87675 10.7193 6.58754 9.2874 8.48511L11.198 10.3957C11.6965 10.8942 10.9488 11.6419 10.4503 11.1434L10.45 11.1432L10.4499 11.1432L8.5624 9.25568C6.6596 10.884 3.79351 10.7978 1.99272 8.99703ZM8.09384 2.89578C6.61545 1.41739 4.21852 1.41739 2.74014 2.89578C1.26175 4.37416 1.26175 6.77109 2.74014 8.24948C4.21852 9.72786 6.61545 9.72786 8.09384 8.24948C9.57222 6.77109 9.57222 4.37416 8.09384 2.89578Z" fill="#0276FD"/>
</svg>
