<svg width="97" height="10" viewBox="0 0 97 10" fill="none" xmlns="http://www.w3.org/2000/svg">
<path d="M5.12256 9.43831C3.77336 9.43831 2.65471 8.99448 1.76668 8.10619C0.878584 7.20958 0.43457 6.10419 0.43457 4.78874C0.43457 3.47392 0.878584 2.37237 1.76668 1.48408C2.65471 0.58747 3.77336 0.13916 5.12256 0.13916C5.93374 0.13916 6.68094 0.331297 7.36409 0.715559C8.05577 1.09982 8.59373 1.62114 8.978 2.27823L7.69712 3.02113C7.45798 2.5773 7.10792 2.22698 6.64681 1.97081C6.19421 1.70631 5.68615 1.57374 5.12256 1.57374C4.16614 1.57374 3.3891 1.87731 2.79138 2.48316C2.20217 3.08965 1.90757 3.85818 1.90757 4.78874C1.90757 5.71993 2.20217 6.48846 2.79138 7.09431C3.3891 7.70081 4.16614 8.00372 5.12256 8.00372C5.68615 8.00372 6.1985 7.87563 6.65961 7.61946C7.12073 7.35496 7.46657 7.00081 7.69712 6.55635L8.978 7.28644C8.60225 7.94417 8.06858 8.46932 7.3769 8.86191C6.69375 9.24617 5.94232 9.43831 5.12256 9.43831ZM13.5433 2.70091C14.2777 2.70091 14.8711 2.93595 15.3237 3.40539C15.7763 3.87547 16.0026 4.51974 16.0026 5.3395V9.27179H14.6192V5.4804C14.6192 5.00263 14.4911 4.63503 14.235 4.37886C13.9788 4.12268 13.6287 3.99459 13.1846 3.99459C12.6979 3.99459 12.3051 4.1483 12.0062 4.45571C11.7073 4.75479 11.5579 5.2159 11.5579 5.83904V9.27179H10.1746V0.30568H11.5579V3.68719C11.9763 3.0301 12.6382 2.70091 13.5433 2.70091ZM20.515 9.43831C19.5756 9.43831 18.7773 9.11424 18.1197 8.46484C17.4622 7.81608 17.1334 7.01746 17.1334 6.06961C17.1334 5.12176 17.4622 4.32378 18.1197 3.67437C18.7773 3.02561 19.5756 2.70091 20.515 2.70091C21.4628 2.70091 22.2612 3.02561 22.9102 3.67437C23.5677 4.32378 23.8965 5.12176 23.8965 6.06961C23.8965 7.01746 23.5677 7.81608 22.9102 8.46484C22.2612 9.11424 21.4628 9.43831 20.515 9.43831ZM19.0932 7.517C19.4774 7.90127 19.9514 8.09339 20.515 8.09339C21.0785 8.09339 21.5525 7.90127 21.9367 7.517C22.321 7.13274 22.5131 6.65049 22.5131 6.06961C22.5131 5.48938 22.321 5.00648 21.9367 4.62222C21.5525 4.23796 21.0785 4.04583 20.515 4.04583C19.9514 4.04583 19.4774 4.23796 19.0932 4.62222C18.7089 5.00648 18.5168 5.48938 18.5168 6.06961C18.5168 6.65049 18.7089 7.13274 19.0932 7.517ZM28.1705 9.43831C27.231 9.43831 26.4323 9.11424 25.7752 8.46484C25.1175 7.81608 24.789 7.01746 24.789 6.06961C24.789 5.12176 25.1175 4.32378 25.7752 3.67437C26.4323 3.02561 27.231 2.70091 28.1705 2.70091C29.1183 2.70091 29.9163 3.02561 30.5657 3.67437C31.2228 4.32378 31.552 5.12176 31.552 6.06961C31.552 7.01746 31.2228 7.81608 30.5657 8.46484C29.9163 9.11424 29.1183 9.43831 28.1705 9.43831ZM26.7487 7.517C27.133 7.90127 27.6069 8.09339 28.1705 8.09339C28.7341 8.09339 29.208 7.90127 29.5922 7.517C29.9765 7.13274 30.1686 6.65049 30.1686 6.06961C30.1686 5.48938 29.9765 5.00648 29.5922 4.62222C29.208 4.23796 28.7341 4.04583 28.1705 4.04583C27.6069 4.04583 27.133 4.23796 26.7487 4.62222C26.3644 5.00648 26.1723 5.48938 26.1723 6.06961C26.1723 6.65049 26.3644 7.13274 26.7487 7.517ZM33.9197 4.63504C33.9197 4.84894 34.035 5.01929 34.2655 5.14738C34.505 5.26714 34.7907 5.37409 35.1237 5.4676C35.4657 5.55342 35.807 5.65589 36.1484 5.77502C36.4904 5.89478 36.776 6.09971 37.0066 6.38983C37.2461 6.67162 37.3652 7.03026 37.3652 7.46576C37.3652 8.08058 37.1263 8.56347 36.6479 8.91315C36.1785 9.26347 35.5848 9.43831 34.8675 9.43831C34.2361 9.43831 33.6936 9.30637 33.2408 9.04123C32.7887 8.77673 32.4595 8.40976 32.2545 7.93968L33.4458 7.24801C33.668 7.86283 34.1419 8.17024 34.8675 8.17024C35.5938 8.17024 35.9563 7.93136 35.9563 7.45296C35.9563 7.24802 35.8371 7.0815 35.5976 6.95342C35.3671 6.82533 35.0814 6.71902 34.7394 6.6332C34.4064 6.53969 34.0695 6.43274 33.7275 6.31298C33.3862 6.19386 33.0961 5.99724 32.8566 5.72377C32.626 5.44198 32.5107 5.08781 32.5107 4.66064C32.5107 4.07144 32.7329 3.59753 33.1768 3.23888C33.6296 2.88024 34.1887 2.70091 34.8547 2.70091C35.3844 2.70091 35.8538 2.82068 36.2637 3.05956C36.6825 3.29012 37.0027 3.61481 37.2243 4.03302L36.0587 4.68626C35.8371 4.19953 35.4356 3.95617 34.8547 3.95617C34.5902 3.95617 34.368 4.01637 34.1887 4.13549C34.0093 4.24692 33.9197 4.41345 33.9197 4.63504ZM39.5075 6.6588C39.61 7.14553 39.845 7.52148 40.212 7.78598C40.5796 8.04215 41.0279 8.17024 41.5569 8.17024C42.2915 8.17024 42.8422 7.90575 43.2092 7.37611L44.3492 8.04215C43.7177 8.97334 42.7827 9.43831 41.5441 9.43831C40.5027 9.43831 39.6612 9.12257 39.0208 8.49046C38.3803 7.85002 38.0601 7.04307 38.0601 6.06961C38.0601 5.11344 38.3765 4.31481 39.0079 3.67437C39.6401 3.02561 40.4515 2.70091 41.4416 2.70091C42.3811 2.70091 43.1496 3.0301 43.7472 3.68719C44.3537 4.34491 44.6566 5.14353 44.6566 6.08241C44.6566 6.22779 44.6399 6.41992 44.6054 6.6588H39.5075ZM39.4947 5.53165H43.2604C43.1669 5.01097 42.9492 4.61838 42.6072 4.35324C42.2742 4.08873 41.8816 3.95617 41.4288 3.95617C40.9164 3.95617 40.4899 4.09707 40.1479 4.37886C39.8066 4.66065 39.5888 5.04491 39.4947 5.53165ZM55.0067 9.27179L54.3791 7.46576H50.5621L49.9344 9.27179H48.3334L51.5868 0.30568H53.3544L56.595 9.27179H55.0067ZM51.0488 6.08241H53.8923L52.4706 2.03486L51.0488 6.08241ZM60.3294 9.43831C59.3649 9.43831 58.5579 9.11424 57.9085 8.46484C57.2681 7.81608 56.9479 7.01746 56.9479 6.06961C56.9479 5.11344 57.2681 4.31481 57.9085 3.67437C58.5579 3.02561 59.3649 2.70091 60.3294 2.70091C60.9531 2.70091 61.5206 2.85078 62.0329 3.14922C62.5453 3.4483 62.9295 3.84985 63.1857 4.35324L61.9945 5.04491C61.8498 4.7375 61.6275 4.49862 61.3285 4.32762C61.0383 4.1483 60.7008 4.05864 60.3166 4.05864C59.753 4.05864 59.2791 4.25078 58.8948 4.63504C58.5195 5.0193 58.3312 5.4977 58.3312 6.06961C58.3312 6.64216 58.5195 7.11992 58.8948 7.50418C59.2791 7.88844 59.753 8.08057 60.3166 8.08057C60.6925 8.08057 61.03 7.99092 61.3285 7.8116C61.6359 7.63228 61.8664 7.3934 62.0201 7.09431L63.2113 7.77318C62.9385 8.28552 62.5453 8.69156 62.0329 8.99C61.5206 9.28909 60.9531 9.43831 60.3294 9.43831ZM67.134 9.43831C66.1695 9.43831 65.3626 9.11424 64.7132 8.46484C64.0727 7.81608 63.7525 7.01746 63.7525 6.06961C63.7525 5.11344 64.0727 4.31481 64.7132 3.67437C65.3626 3.02561 66.1695 2.70091 67.134 2.70091C67.7578 2.70091 68.3252 2.85078 68.8376 3.14922C69.3499 3.4483 69.7342 3.84985 69.9904 4.35324L68.7991 5.04491C68.6544 4.7375 68.4322 4.49862 68.1331 4.32762C67.843 4.1483 67.5055 4.05864 67.1212 4.05864C66.5576 4.05864 66.0837 4.25078 65.6994 4.63504C65.3241 5.0193 65.1358 5.4977 65.1358 6.06961C65.1358 6.64216 65.3241 7.11992 65.6994 7.50418C66.0837 7.88844 66.5576 8.08057 67.1212 8.08057C67.4971 8.08057 67.8346 7.99092 68.1331 7.8116C68.4405 7.63228 68.6711 7.3934 68.8248 7.09431L70.016 7.77318C69.7431 8.28552 69.3499 8.69156 68.8376 8.99C68.3252 9.28909 67.7578 9.43831 67.134 9.43831ZM73.9386 9.43831C72.9998 9.43831 72.2011 9.11424 71.5434 8.46484C70.8863 7.81608 70.5571 7.01746 70.5571 6.06961C70.5571 5.12176 70.8863 4.32378 71.5434 3.67437C72.2011 3.02561 72.9998 2.70091 73.9386 2.70091C74.8865 2.70091 75.6851 3.02561 76.3339 3.67437C76.9916 4.32378 77.3202 5.12176 77.3202 6.06961C77.3202 7.01746 76.9916 7.81608 76.3339 8.46484C75.6851 9.11424 74.8865 9.43831 73.9386 9.43831ZM72.5169 7.517C72.9011 7.90127 73.3751 8.09339 73.9386 8.09339C74.5022 8.09339 74.9762 7.90127 75.3604 7.517C75.7447 7.13274 75.9368 6.65049 75.9368 6.06961C75.9368 5.48938 75.7447 5.00648 75.3604 4.62222C74.9762 4.23796 74.5022 4.04583 73.9386 4.04583C73.3751 4.04583 72.9011 4.23796 72.5169 4.62222C72.1326 5.00648 71.9405 5.48938 71.9405 6.06961C71.9405 6.65049 72.1326 7.13274 72.5169 7.517ZM82.8875 2.86743H84.2708V9.27179H82.8875V8.45204C82.4693 9.10977 81.8077 9.43831 80.9021 9.43831C80.1682 9.43831 79.5745 9.20391 79.1217 8.73383C78.6696 8.26439 78.4428 7.61946 78.4428 6.7997V2.86743H79.8262V6.6588C79.8262 7.13721 79.9543 7.50418 80.2104 7.76035C80.4666 8.01653 80.8169 8.14462 81.2608 8.14462C81.7475 8.14462 82.1407 7.99541 82.4392 7.69633C82.7383 7.38892 82.8875 6.92394 82.8875 6.30016V2.86743ZM89.2573 2.70091C89.9918 2.70091 90.5855 2.93595 91.0377 3.40539C91.4905 3.87547 91.7165 4.51974 91.7165 5.3395V9.27179H90.3332V5.4804C90.3332 5.00263 90.2051 4.63503 89.9489 4.37886C89.6928 4.12268 89.3431 3.99459 88.8986 3.99459C88.4119 3.99459 88.0193 4.1483 87.7202 4.45571C87.4218 4.75479 87.2719 5.2159 87.2719 5.83904V9.27179H85.8886V2.86743H87.2719V3.68719C87.6907 3.0301 88.3523 2.70091 89.2573 2.70091ZM96.7798 4.19954H95.1915V7.27363C95.1915 7.53878 95.2511 7.7309 95.3709 7.85002C95.4906 7.96146 95.6655 8.0255 95.896 8.04215C96.1349 8.05111 96.4295 8.04664 96.7798 8.02935V9.27179C95.7212 9.39988 94.961 9.31021 94.4999 9.0028C94.0388 8.68707 93.8082 8.11069 93.8082 7.27363V4.19954H92.6298V2.86743H93.8082V1.48408L95.1915 1.0742V2.86743H96.7798V4.19954Z" fill="#666972"/>
</svg>
