<svg width="69" height="14" viewBox="0 0 69 14" fill="none" xmlns="http://www.w3.org/2000/svg">
<path d="M10.0921 13.7443L9.15061 11.0355H3.42511L2.48367 13.7443H0.0820312L4.96216 0.29541H7.61357L12.4745 13.7443H10.0921ZM4.15521 8.96052H8.42052L6.28787 2.88918L4.15521 8.96052ZM24.2763 3.88826C25.3651 3.88826 26.2425 4.2405 26.9085 4.94498C27.5746 5.64946 27.9076 6.59731 27.9076 7.78852V13.7443H25.8326V7.92301C25.8326 7.25696 25.6661 6.74461 25.333 6.38596C25 6.01451 24.5453 5.82878 23.9692 5.82878C23.3287 5.82878 22.8164 6.04013 22.4321 6.46282C22.0607 6.88551 21.8749 7.51954 21.8749 8.36491V13.7443H19.7999V7.92301C19.7999 7.25696 19.6398 6.74461 19.3196 6.38596C19.0122 6.01451 18.5703 5.82878 17.9939 5.82878C17.3663 5.82878 16.8539 6.04653 16.4568 6.48203C16.0598 6.90472 15.8612 7.53234 15.8612 8.36491V13.7443H13.7862V4.13803H15.8612V5.29082C16.4761 4.35578 17.3919 3.88826 18.6087 3.88826C19.8384 3.88826 20.7478 4.39421 21.337 5.4061C21.9774 4.39421 22.9573 3.88826 24.2763 3.88826ZM34.6629 13.994C33.254 13.994 32.0563 13.5073 31.0701 12.5342C30.0838 11.5607 29.5907 10.3631 29.5907 8.94131C29.5907 7.51954 30.0838 6.32192 31.0701 5.34846C32.0563 4.37499 33.254 3.88826 34.6629 3.88826C36.0847 3.88826 37.2823 4.37499 38.2558 5.34846C39.242 6.32192 39.7352 7.51954 39.7352 8.94131C39.7352 10.3631 39.242 11.5607 38.2558 12.5342C37.2823 13.5073 36.0847 13.994 34.6629 13.994ZM32.5303 11.1124C33.1067 11.6888 33.8175 11.977 34.6629 11.977C35.5083 11.977 36.2192 11.6888 36.7956 11.1124C37.372 10.536 37.6602 9.8123 37.6602 8.94131C37.6602 8.07031 37.372 7.34662 36.7956 6.77023C36.2192 6.19383 35.5083 5.90564 34.6629 5.90564C33.8175 5.90564 33.1067 6.19383 32.5303 6.77023C31.9539 7.34662 31.6657 8.07031 31.6657 8.94131C31.6657 9.8123 31.9539 10.536 32.5303 11.1124ZM48.0865 4.13803H50.1615V13.7443H48.0865V12.5149C47.4589 13.5009 46.4662 13.994 45.1085 13.994C44.0069 13.994 43.1167 13.6418 42.4378 12.9373C41.759 12.2332 41.4195 11.2661 41.4195 10.0365V4.13803H43.4945V9.82511C43.4945 10.5424 43.6867 11.0932 44.0709 11.4774C44.4552 11.8617 44.9804 12.0538 45.6464 12.0538C46.3765 12.0538 46.9657 11.8297 47.414 11.3814C47.8623 10.9203 48.0865 10.2222 48.0865 9.28714V4.13803ZM57.6405 3.88826C58.7421 3.88826 59.6323 4.2405 60.3111 4.94498C60.99 5.64946 61.3294 6.61652 61.3294 7.84616V13.7443H59.2544V8.0575C59.2544 7.34022 59.0623 6.78944 58.678 6.40518C58.2938 6.02092 57.7686 5.82878 57.1026 5.82878C56.3725 5.82878 55.7833 6.05934 55.3349 6.52046C54.8866 6.96876 54.6625 7.66043 54.6625 8.59547V13.7443H52.5875V4.13803H54.6625V5.36767C55.2901 4.3814 56.2828 3.88826 57.6405 3.88826ZM68.9244 6.13619H66.5419V10.7473C66.5419 11.1444 66.6316 11.4326 66.8109 11.6119C66.9902 11.7784 67.2528 11.8745 67.5987 11.9001C67.9573 11.9129 68.3992 11.9065 68.9244 11.8809V13.7443C67.3361 13.9364 66.1961 13.8019 65.5044 13.3408C64.8128 12.8669 64.4669 12.0026 64.4669 10.7473V6.13619H62.6993V4.13803H64.4669V2.06302L66.5419 1.4482V4.13803H68.9244V6.13619Z" fill="#E3E3E1"/>
</svg>
