<svg width="14" height="15" viewBox="0 0 14 15" fill="none" xmlns="http://www.w3.org/2000/svg">
<path d="M5.21348 4.64397H9.60098C9.79492 4.64397 9.98091 4.56693 10.118 4.42979C10.2552 4.29266 10.3322 4.10666 10.3322 3.91272C10.3322 3.71878 10.2552 3.53278 10.118 3.39565C9.98091 3.25851 9.79492 3.18147 9.60098 3.18147H5.21348C5.01954 3.18147 4.83354 3.25851 4.6964 3.39565C4.55927 3.53278 4.48223 3.71878 4.48223 3.91272C4.48223 4.10666 4.55927 4.29266 4.6964 4.42979C4.83354 4.56693 5.01954 4.64397 5.21348 4.64397ZM3.75098 7.56897H9.60098C9.79492 7.56897 9.98091 7.49193 10.118 7.35479C10.2552 7.21766 10.3322 7.03166 10.3322 6.83772C10.3322 6.64378 10.2552 6.45778 10.118 6.32065C9.98091 6.18351 9.79492 6.10647 9.60098 6.10647H3.75098C3.55704 6.10647 3.37104 6.18351 3.23391 6.32065C3.09677 6.45778 3.01973 6.64378 3.01973 6.83772C3.01973 7.03166 3.09677 7.21766 3.23391 7.35479C3.37104 7.49193 3.55704 7.56897 3.75098 7.56897ZM3.75098 10.494H9.60098C9.79492 10.494 9.98091 10.4169 10.118 10.2798C10.2552 10.1427 10.3322 9.95666 10.3322 9.76272C10.3322 9.56878 10.2552 9.38278 10.118 9.24565C9.98091 9.10851 9.79492 9.03147 9.60098 9.03147H3.75098C3.55704 9.03147 3.37104 9.10851 3.23391 9.24565C3.09677 9.38278 3.01973 9.56878 3.01973 9.76272C3.01973 9.95666 3.09677 10.1427 3.23391 10.2798C3.37104 10.4169 3.55704 10.494 3.75098 10.494ZM12.526 0.25647H0.825977C0.632037 0.25647 0.446041 0.333512 0.308905 0.470648C0.171769 0.607784 0.0947266 0.79378 0.0947266 0.98772V14.1502C0.0947266 14.286 0.132543 14.4191 0.203938 14.5347C0.275333 14.6502 0.377487 14.7435 0.498952 14.8043C0.620416 14.865 0.756394 14.8907 0.891647 14.8785C1.0269 14.8663 1.15609 14.8167 1.26473 14.7352L2.77841 13.6018L4.28479 14.7352C4.41137 14.8302 4.56532 14.8815 4.72354 14.8815C4.88176 14.8815 5.03571 14.8302 5.16229 14.7352L6.67598 13.6018L8.18966 14.7352C8.31624 14.8302 8.47019 14.8815 8.62842 14.8815C8.78664 14.8815 8.94059 14.8302 9.06717 14.7352L10.5735 13.6018L12.0872 14.7352C12.1964 14.8166 12.3261 14.8659 12.4618 14.8775C12.5974 14.8891 12.7336 14.8626 12.855 14.801C12.9756 14.7403 13.077 14.6473 13.148 14.5324C13.219 14.4175 13.2568 14.2853 13.2572 14.1502V0.98772C13.2572 0.79378 13.1802 0.607784 13.043 0.470648C12.9059 0.333512 12.7199 0.25647 12.526 0.25647ZM11.7947 12.6877L11.0123 12.1027C10.8857 12.0078 10.7318 11.9565 10.5735 11.9565C10.4153 11.9565 10.2614 12.0078 10.1348 12.1027L8.62842 13.2362L7.11473 12.1027C6.98815 12.0078 6.8342 11.9565 6.67598 11.9565C6.51776 11.9565 6.3638 12.0078 6.23723 12.1027L4.72354 13.2362L3.21716 12.1027C3.09059 12.0078 2.93664 11.9565 2.77841 11.9565C2.62019 11.9565 2.46624 12.0078 2.33966 12.1027L1.55723 12.6877V1.71897H11.7947V12.6877Z" fill="#FCE37E"/>
</svg>
