<svg width="14" height="16" viewBox="0 0 14 16" fill="none" xmlns="http://www.w3.org/2000/svg">
<path d="M12.6051 4.91757L8.21765 1.0712C7.81544 0.711456 7.29476 0.512573 6.75515 0.512573C6.21553 0.512573 5.69485 0.711456 5.29265 1.0712L0.905147 4.91757C0.672879 5.1253 0.487531 5.38013 0.361443 5.66509C0.235354 5.95005 0.17142 6.2586 0.173897 6.5702V12.9613C0.173897 13.5431 0.405024 14.1011 0.816432 14.5125C1.22784 14.9239 1.78583 15.1551 2.36765 15.1551H11.1426C11.7245 15.1551 12.2825 14.9239 12.6939 14.5125C13.1053 14.1011 13.3364 13.5431 13.3364 12.9613V6.56289C13.3378 6.25252 13.2734 5.94537 13.1473 5.66175C13.0213 5.37813 12.8365 5.12448 12.6051 4.91757ZM8.21765 13.6926H5.29265V10.0363C5.29265 9.84238 5.36969 9.65639 5.50683 9.51925C5.64396 9.38212 5.82996 9.30507 6.0239 9.30507H7.4864C7.68034 9.30507 7.86633 9.38212 8.00347 9.51925C8.1406 9.65639 8.21765 9.84238 8.21765 10.0363V13.6926ZM11.8739 12.9613C11.8739 13.1553 11.7969 13.3413 11.6597 13.4784C11.5226 13.6155 11.3366 13.6926 11.1426 13.6926H9.68015V10.0363C9.68015 9.4545 9.44902 8.89651 9.03761 8.48511C8.6262 8.0737 8.06822 7.84257 7.4864 7.84257H6.0239C5.44208 7.84257 4.88409 8.0737 4.47268 8.48511C4.06127 8.89651 3.83015 9.4545 3.83015 10.0363V13.6926H2.36765C2.17371 13.6926 1.98771 13.6155 1.85058 13.4784C1.71344 13.3413 1.6364 13.1553 1.6364 12.9613V6.56289C1.63653 6.45906 1.65877 6.35645 1.70164 6.26189C1.74451 6.16732 1.80702 6.08297 1.88502 6.01445L6.27252 2.17539C6.40597 2.05815 6.57752 1.9935 6.75515 1.9935C6.93277 1.9935 7.10433 2.05815 7.23777 2.17539L11.6253 6.01445C11.7033 6.08297 11.7658 6.16732 11.8087 6.26189C11.8515 6.35645 11.8738 6.45906 11.8739 6.56289V12.9613Z" fill="#0177FD"/>
</svg>
