<svg width="66" height="10" viewBox="0 0 66 10" fill="none" xmlns="http://www.w3.org/2000/svg">
<path d="M4.69773 9.1387C3.41558 9.1387 2.3531 8.71665 1.50964 7.87319C0.665547 7.02141 0.244141 5.97046 0.244141 4.72161C0.244141 3.47212 0.665547 2.42564 1.50964 1.58218C2.3531 0.730403 3.41558 0.304516 4.69773 0.304516C5.46818 0.304516 6.17778 0.487048 6.82718 0.852096C7.48427 1.21715 7.99535 1.71156 8.3604 2.33662L7.14356 3.04238C6.91621 2.62033 6.58382 2.28796 6.14576 2.04459C5.71539 1.7929 5.23314 1.66736 4.69773 1.66736C3.78895 1.66736 3.05054 1.95491 2.48311 2.53131C1.92337 3.10706 1.64349 3.83717 1.64349 4.72161C1.64349 5.60541 1.92337 6.3355 2.48311 6.91189C3.05054 7.48765 3.78895 7.77584 4.69773 7.77584C5.23314 7.77584 5.71987 7.65417 6.15793 7.41081C6.59599 7.15912 6.92453 6.82225 7.14356 6.40084L8.3604 7.09442C8.00303 7.71885 7.49645 8.21775 6.83936 8.59112C6.18996 8.95617 5.47651 9.1387 4.69773 9.1387ZM13.9828 2.89636H15.297V8.98051H13.9828V8.10439C13.4884 8.7935 12.7781 9.1387 11.8533 9.1387C11.0182 9.1387 10.3041 8.83001 9.71172 8.21391C9.11996 7.58885 8.82343 6.83056 8.82343 5.93844C8.82343 5.03798 9.11996 4.27906 9.71172 3.66296C10.3041 3.04622 11.0182 2.73817 11.8533 2.73817C12.7781 2.73817 13.4884 3.07889 13.9828 3.76031V2.89636ZM10.6852 7.33779C11.0502 7.70284 11.5088 7.88537 12.0602 7.88537C12.6123 7.88537 13.0702 7.70284 13.4352 7.33779C13.8003 6.96441 13.9828 6.49818 13.9828 5.93844C13.9828 5.37869 13.8003 4.91631 13.4352 4.55126C13.0702 4.17789 12.6123 3.9915 12.0602 3.9915C11.5088 3.9915 11.0502 4.17789 10.6852 4.55126C10.3201 4.91631 10.1376 5.37869 10.1376 5.93844C10.1376 6.49818 10.3201 6.96441 10.6852 7.33779ZM17.8818 3.9185C18.2148 3.16407 18.8392 2.78685 19.7557 2.78685V4.21054C19.2529 4.17788 18.8149 4.29956 18.4415 4.57559C18.0688 4.8433 17.8818 5.28904 17.8818 5.9141V8.98051H16.5676V2.89636H17.8818V3.9185ZM24.9989 0.46271H26.3131V8.98051H24.9989V8.10439C24.5039 8.7935 23.7943 9.1387 22.8695 9.1387C22.0337 9.1387 21.3203 8.83001 20.7279 8.21391C20.1355 7.58885 19.8396 6.83056 19.8396 5.93844C19.8396 5.03798 20.1355 4.27906 20.7279 3.66296C21.3203 3.04622 22.0337 2.73817 22.8695 2.73817C23.7943 2.73817 24.5039 3.07889 24.9989 3.76031V0.46271ZM21.7013 7.33779C22.0664 7.70284 22.5249 7.88537 23.0764 7.88537C23.6278 7.88537 24.0863 7.70284 24.4514 7.33779C24.8164 6.96441 24.9989 6.49818 24.9989 5.93844C24.9989 5.37869 24.8164 4.91631 24.4514 4.55126C24.0863 4.17789 23.6278 3.9915 23.0764 3.9915C22.5249 3.9915 22.0664 4.17789 21.7013 4.55126C21.3363 4.91631 21.1538 5.37869 21.1538 5.93844C21.1538 6.49818 21.3363 6.96441 21.7013 7.33779ZM35.4995 0.46271H36.8989V8.98051H35.4995V5.29352H31.8491V8.98051H30.4497V0.46271H31.8491V3.95501H35.4995V0.46271ZM41.1264 9.1387C40.2343 9.1387 39.476 8.83001 38.8509 8.21391C38.2265 7.59717 37.914 6.83889 37.914 5.93844C37.914 5.03798 38.2265 4.27906 38.8509 3.66296C39.476 3.04622 40.2343 2.73817 41.1264 2.73817C42.0269 2.73817 42.7858 3.04622 43.4019 3.66296C44.027 4.27906 44.3389 5.03798 44.3389 5.93844C44.3389 6.83889 44.027 7.59717 43.4019 8.21391C42.7858 8.83001 42.0269 9.1387 41.1264 9.1387ZM39.7757 7.31346C40.1408 7.6785 40.591 7.86104 41.1264 7.86104C41.6618 7.86104 42.1121 7.6785 42.4771 7.31346C42.8422 6.94841 43.0247 6.48985 43.0247 5.93844C43.0247 5.38638 42.8422 4.92847 42.4771 4.56342C42.1121 4.19837 41.6618 4.01586 41.1264 4.01586C40.591 4.01586 40.1408 4.19837 39.7757 4.56342C39.4107 4.92847 39.2282 5.38638 39.2282 5.93844C39.2282 6.48985 39.4107 6.94841 39.7757 7.31346ZM45.2662 8.98051V0.0976562H46.5804V8.98051H45.2662ZM52.6632 0.46271H53.9774V8.98051H52.6632V8.10439C52.1688 8.7935 51.4586 9.1387 50.5338 9.1387C49.6987 9.1387 48.9846 8.83001 48.3922 8.21391C47.8004 7.58885 47.5039 6.83056 47.5039 5.93844C47.5039 5.03798 47.8004 4.27906 48.3922 3.66296C48.9846 3.04622 49.6987 2.73817 50.5338 2.73817C51.4586 2.73817 52.1688 3.07889 52.6632 3.76031V0.46271ZM49.3656 7.33779C49.7307 7.70284 50.1892 7.88537 50.7407 7.88537C51.2927 7.88537 51.7506 7.70284 52.1157 7.33779C52.4807 6.96441 52.6632 6.49818 52.6632 5.93844C52.6632 5.37869 52.4807 4.91631 52.1157 4.55126C51.7506 4.17789 51.2927 3.9915 50.7407 3.9915C50.1892 3.9915 49.7307 4.17789 49.3656 4.55126C49.0006 4.91631 48.8181 5.37869 48.8181 5.93844C48.8181 6.49818 49.0006 6.96441 49.3656 7.33779ZM56.2824 6.49817C56.3797 6.96057 56.6032 7.31729 56.9516 7.56898C57.3007 7.81235 57.7265 7.93403 58.2293 7.93403C58.9274 7.93403 59.4506 7.68234 59.799 7.17959L60.882 7.81235C60.2819 8.69615 59.3936 9.1387 58.2171 9.1387C57.2276 9.1387 56.4284 8.83834 55.82 8.23825C55.2115 7.62983 54.9073 6.86323 54.9073 5.93844C54.9073 5.02966 55.2077 4.27137 55.8078 3.66296C56.4085 3.04622 57.179 2.73817 58.1198 2.73817C59.0125 2.73817 59.7426 3.05007 60.3101 3.67513C60.8865 4.29956 61.174 5.05784 61.174 5.95061C61.174 6.08831 61.158 6.27082 61.1253 6.49817H56.2824ZM56.2702 5.42736H59.8477C59.7586 4.93231 59.5518 4.55894 59.2271 4.30789C58.9107 4.0562 58.538 3.93066 58.1076 3.93066C57.6209 3.93066 57.2155 4.06452 56.8908 4.33222C56.5667 4.59993 56.3599 4.96497 56.2702 5.42736ZM63.3835 3.9185C63.7159 3.16407 64.3403 2.78685 65.2574 2.78685V4.21054C64.7541 4.17788 64.316 4.29956 63.9433 4.57559C63.5699 4.8433 63.3835 5.28904 63.3835 5.9141V8.98051H62.0693V2.89636H63.3835V3.9185Z" fill="white"/>
</svg>
