<svg width="6" height="7" viewBox="0 0 6 7" fill="none" xmlns="http://www.w3.org/2000/svg">
<path d="M5.58431 3.40956C5.60836 3.4336 5.62743 3.46213 5.64045 3.49354C5.65346 3.52495 5.66016 3.55861 5.66016 3.59261C5.66016 3.62661 5.65346 3.66027 5.64045 3.69168C5.62743 3.72309 5.60836 3.75162 5.58431 3.77566L3.2392 6.12077C3.19572 6.16412 3.14072 6.18897 3.08404 6.19505C3.00795 6.20411 2.92849 6.17952 2.87 6.12116L0.521518 3.77268C0.472971 3.72415 0.44569 3.65832 0.445678 3.58968C0.445666 3.52104 0.472923 3.4552 0.521453 3.40665C0.569983 3.35811 0.63581 3.33083 0.704454 3.33081C0.773097 3.3308 0.838934 3.35806 0.887481 3.40659L2.79106 5.31004L2.79106 0.780787C2.79106 0.712145 2.81833 0.646315 2.86687 0.597777C2.9154 0.54924 2.98123 0.521973 3.04987 0.521973C3.11852 0.521973 3.18435 0.54924 3.23288 0.597777C3.28142 0.646315 3.30869 0.712145 3.30869 0.780787L3.30869 5.31935L5.21809 3.40956C5.24213 3.38552 5.27066 3.36645 5.30207 3.35343C5.33348 3.34042 5.36714 3.33372 5.40114 3.33372C5.43514 3.33372 5.4688 3.34042 5.50021 3.35343C5.53161 3.36645 5.56015 3.38552 5.58418 3.40956L5.58431 3.40956Z" fill="#FEFFFF"/>
</svg>
