<svg width="15" height="16" viewBox="0 0 15 16" fill="none" xmlns="http://www.w3.org/2000/svg">
<path d="M4.58292 6.99373C4.43829 6.99373 4.29691 7.03661 4.17666 7.11696C4.0564 7.19731 3.96268 7.31152 3.90733 7.44514C3.85198 7.57876 3.8375 7.72579 3.86572 7.86764C3.89393 8.00948 3.96358 8.13978 4.06584 8.24205C4.16811 8.34432 4.29841 8.41396 4.44026 8.44218C4.5821 8.47039 4.72914 8.45591 4.86275 8.40056C4.99637 8.34522 5.11058 8.25149 5.19093 8.13124C5.27128 8.01098 5.31417 7.8696 5.31417 7.72498C5.31417 7.53104 5.23712 7.34504 5.09999 7.2079C4.96285 7.07077 4.77686 6.99373 4.58292 6.99373ZM7.50792 6.99373C7.36329 6.99373 7.22191 7.03661 7.10166 7.11696C6.9814 7.19731 6.88768 7.31152 6.83233 7.44514C6.77698 7.57876 6.7625 7.72579 6.79072 7.86764C6.81893 8.00948 6.88858 8.13978 6.99084 8.24205C7.09311 8.34432 7.22341 8.41396 7.36526 8.44218C7.5071 8.47039 7.65414 8.45591 7.78775 8.40056C7.92137 8.34522 8.03558 8.25149 8.11593 8.13124C8.19628 8.01098 8.23917 7.8696 8.23917 7.72498C8.23917 7.53104 8.16212 7.34504 8.02499 7.2079C7.88785 7.07077 7.70186 6.99373 7.50792 6.99373ZM10.4329 6.99373C10.2883 6.99373 10.1469 7.03661 10.0267 7.11696C9.9064 7.19731 9.81268 7.31152 9.75733 7.44514C9.70198 7.57876 9.6875 7.72579 9.71572 7.86764C9.74393 8.00948 9.81358 8.13978 9.91584 8.24205C10.0181 8.34432 10.1484 8.41396 10.2903 8.44218C10.4321 8.47039 10.5791 8.45591 10.7128 8.40056C10.8464 8.34522 10.9606 8.25149 11.0409 8.13124C11.1213 8.01098 11.1642 7.8696 11.1642 7.72498C11.1642 7.53104 11.0871 7.34504 10.95 7.2079C10.8129 7.07077 10.6269 6.99373 10.4329 6.99373ZM7.50792 0.412476C6.54763 0.412476 5.59674 0.601619 4.70954 0.969107C3.82235 1.33659 3.01623 1.87523 2.3372 2.55426C0.965838 3.92562 0.195416 5.78558 0.195416 7.72498C0.189023 9.41353 0.773683 11.0511 1.84804 12.3538L0.385541 13.8163C0.284074 13.9191 0.21534 14.0497 0.18801 14.1916C0.16068 14.3334 0.17598 14.4802 0.231978 14.6134C0.292714 14.7449 0.391175 14.8555 0.51486 14.931C0.638546 15.0065 0.781879 15.0436 0.926666 15.0375H7.50792C9.44731 15.0375 11.3073 14.2671 12.6786 12.8957C14.05 11.5243 14.8204 9.66437 14.8204 7.72498C14.8204 5.78558 14.05 3.92562 12.6786 2.55426C11.3073 1.1829 9.44731 0.412476 7.50792 0.412476ZM7.50792 13.575H2.68898L3.36904 12.8949C3.43814 12.8272 3.4931 12.7464 3.53076 12.6573C3.56842 12.5682 3.58801 12.4725 3.58842 12.3757C3.58567 12.1828 3.50682 11.9989 3.36904 11.8639C2.41153 10.9074 1.81526 9.64856 1.68182 8.30178C1.54838 6.95501 1.88602 5.60362 2.63723 4.47788C3.38843 3.35213 4.50671 2.52166 5.80156 2.12797C7.0964 1.73427 8.48769 1.80171 9.73839 2.31878C10.9891 2.83585 12.0218 3.77058 12.6606 4.9637C13.2994 6.15682 13.5048 7.53452 13.2417 8.86207C12.9787 10.1896 12.2635 11.3849 11.2179 12.2443C10.1724 13.1036 8.86129 13.5739 7.50792 13.575Z" fill="#A4B4CB"/>
</svg>
