<svg width="66" height="10" viewBox="0 0 66 10" fill="none" xmlns="http://www.w3.org/2000/svg">
<path d="M4.69773 9.44266C3.41558 9.44266 2.3531 9.02124 1.50964 8.17715C0.665547 7.32537 0.244141 6.27506 0.244141 5.02557C0.244141 3.77671 0.665547 2.73023 1.50964 1.88614C2.3531 1.03436 3.41558 0.608471 4.69773 0.608471C5.46818 0.608471 6.17778 0.791003 6.82718 1.15605C7.48427 1.5211 7.99535 2.01615 8.3604 2.64058L7.14356 3.34633C6.91621 2.92493 6.58382 2.59191 6.14576 2.34854C5.71539 2.09749 5.23314 1.97131 4.69773 1.97131C3.78895 1.97131 3.05054 2.25951 2.48311 2.83526C1.92337 3.41166 1.64349 4.14176 1.64349 5.02557C1.64349 5.91001 1.92337 6.64011 2.48311 7.21587C3.05054 7.79226 3.78895 8.07982 4.69773 8.07982C5.23314 8.07982 5.71987 7.95813 6.15793 7.71476C6.59599 7.46371 6.92453 7.12684 7.14356 6.7048L8.3604 7.39837C8.00303 8.02344 7.49645 8.52234 6.83936 8.89508C6.18996 9.26013 5.47651 9.44266 4.69773 9.44266ZM13.9828 3.20032H15.297V9.28447H13.9828V8.40836C13.4884 9.09811 12.7781 9.44266 11.8533 9.44266C11.0182 9.44266 10.3041 9.13461 9.71172 8.51787C9.11996 7.89344 8.82343 7.13516 8.82343 6.24239C8.82343 5.34194 9.11996 4.58365 9.71172 3.96691C10.3041 3.35081 11.0182 3.04212 11.8533 3.04212C12.7781 3.04212 13.4884 3.38284 13.9828 4.06427V3.20032ZM10.6852 7.64174C11.0502 8.00679 11.5088 8.18932 12.0602 8.18932C12.6123 8.18932 13.0702 8.00679 13.4352 7.64174C13.8003 7.26901 13.9828 6.80213 13.9828 6.24239C13.9828 5.68265 13.8003 5.22026 13.4352 4.85521C13.0702 4.48248 12.6123 4.29546 12.0602 4.29546C11.5088 4.29546 11.0502 4.48248 10.6852 4.85521C10.3201 5.22026 10.1376 5.68265 10.1376 6.24239C10.1376 6.80213 10.3201 7.26901 10.6852 7.64174ZM17.8818 4.22246C18.2148 3.46802 18.8392 3.09081 19.7557 3.09081V4.51449C19.2529 4.48247 18.8149 4.60416 18.4415 4.87955C18.0688 5.14725 17.8818 5.59363 17.8818 6.21806V9.28447H16.5676V3.20032H17.8818V4.22246ZM24.9989 0.766665H26.3131V9.28447H24.9989V8.40836C24.5039 9.09811 23.7943 9.44266 22.8695 9.44266C22.0337 9.44266 21.3203 9.13461 20.7279 8.51787C20.1355 7.89344 19.8396 7.13516 19.8396 6.24239C19.8396 5.34194 20.1355 4.58365 20.7279 3.96691C21.3203 3.35081 22.0337 3.04212 22.8695 3.04212C23.7943 3.04212 24.5039 3.38284 24.9989 4.06427V0.766665ZM21.7013 7.64174C22.0664 8.00679 22.5249 8.18932 23.0764 8.18932C23.6278 8.18932 24.0863 8.00679 24.4514 7.64174C24.8164 7.26901 24.9989 6.80213 24.9989 6.24239C24.9989 5.68265 24.8164 5.22026 24.4514 4.85521C24.0863 4.48248 23.6278 4.29546 23.0764 4.29546C22.5249 4.29546 22.0664 4.48248 21.7013 4.85521C21.3363 5.22026 21.1538 5.68265 21.1538 6.24239C21.1538 6.80213 21.3363 7.26901 21.7013 7.64174ZM35.4995 0.766665H36.8989V9.28447H35.4995V5.59748H31.8491V9.28447H30.4497V0.766665H31.8491V4.25897H35.4995V0.766665ZM41.1264 9.44266C40.2343 9.44266 39.476 9.13461 38.8509 8.51787C38.2265 7.90177 37.914 7.14285 37.914 6.24239C37.914 5.34194 38.2265 4.58365 38.8509 3.96691C39.476 3.35081 40.2343 3.04212 41.1264 3.04212C42.0269 3.04212 42.7858 3.35081 43.4019 3.96691C44.027 4.58365 44.3389 5.34194 44.3389 6.24239C44.3389 7.14285 44.027 7.90177 43.4019 8.51787C42.7858 9.13461 42.0269 9.44266 41.1264 9.44266ZM39.7757 7.61741C40.1408 7.98246 40.591 8.16499 41.1264 8.16499C41.6618 8.16499 42.1121 7.98246 42.4771 7.61741C42.8422 7.25236 43.0247 6.79445 43.0247 6.24239C43.0247 5.69098 42.8422 5.23242 42.4771 4.86737C42.1121 4.50232 41.6618 4.31981 41.1264 4.31981C40.591 4.31981 40.1408 4.50232 39.7757 4.86737C39.4107 5.23242 39.2282 5.69098 39.2282 6.24239C39.2282 6.79445 39.4107 7.25236 39.7757 7.61741ZM45.2662 9.28447V0.401611H46.5804V9.28447H45.2662ZM52.6632 0.766665H53.9774V9.28447H52.6632V8.40836C52.1688 9.09811 51.4586 9.44266 50.5338 9.44266C49.6987 9.44266 48.9846 9.13461 48.3922 8.51787C47.8004 7.89344 47.5039 7.13516 47.5039 6.24239C47.5039 5.34194 47.8004 4.58365 48.3922 3.96691C48.9846 3.35081 49.6987 3.04212 50.5338 3.04212C51.4586 3.04212 52.1688 3.38284 52.6632 4.06427V0.766665ZM49.3656 7.64174C49.7307 8.00679 50.1892 8.18932 50.7407 8.18932C51.2927 8.18932 51.7506 8.00679 52.1157 7.64174C52.4807 7.26901 52.6632 6.80213 52.6632 6.24239C52.6632 5.68265 52.4807 5.22026 52.1157 4.85521C51.7506 4.48248 51.2927 4.29546 50.7407 4.29546C50.1892 4.29546 49.7307 4.48248 49.3656 4.85521C49.0006 5.22026 48.8181 5.68265 48.8181 6.24239C48.8181 6.80213 49.0006 7.26901 49.3656 7.64174ZM56.2824 6.80213C56.3797 7.26452 56.6032 7.6219 56.9516 7.87296C57.3007 8.11632 57.7265 8.23799 58.2293 8.23799C58.9274 8.23799 59.4506 7.98695 59.799 7.48357L60.882 8.11631C60.2819 9.00075 59.3936 9.44266 58.2171 9.44266C57.2276 9.44266 56.4284 9.14293 55.82 8.5422C55.2115 7.93379 54.9073 7.16718 54.9073 6.24239C54.9073 5.33425 55.2077 4.57533 55.8078 3.96691C56.4085 3.35081 57.179 3.04212 58.1198 3.04212C59.0125 3.04212 59.7426 3.35466 60.3101 3.97909C60.8865 4.60416 61.174 5.36244 61.174 6.25457C61.174 6.3929 61.158 6.57541 61.1253 6.80213H56.2824ZM56.2702 5.73132H59.8477C59.7586 5.2369 59.5518 4.86354 59.2271 4.61185C58.9107 4.36079 58.538 4.23464 58.1076 4.23464C57.6209 4.23464 57.2155 4.36848 56.8908 4.63618C56.5667 4.90388 56.3599 5.26892 56.2702 5.73132ZM63.3835 4.22246C63.7159 3.46802 64.3403 3.09081 65.2574 3.09081V4.51449C64.7541 4.48247 64.316 4.60416 63.9433 4.87955C63.5699 5.14725 63.3835 5.59363 63.3835 6.21806V9.28447H62.0693V3.20032H63.3835V4.22246Z" fill="white"/>
</svg>
