<svg width="97" height="10" viewBox="0 0 97 10" fill="none" xmlns="http://www.w3.org/2000/svg">
<path d="M4.79932 9.76839C3.45011 9.76839 2.33147 9.32456 1.44344 8.43627C0.555342 7.53966 0.111328 6.43427 0.111328 5.11882C0.111328 3.804 0.555342 2.70245 1.44344 1.81416C2.33147 0.917548 3.45011 0.469238 4.79932 0.469238C5.6105 0.469238 6.3577 0.661375 7.04085 1.04564C7.73252 1.4299 8.27049 1.95122 8.65475 2.6083L7.37388 3.3512C7.13474 2.90738 6.78468 2.55706 6.32357 2.30089C5.87097 2.03639 5.36291 1.90382 4.79932 1.90382C3.84289 1.90382 3.06585 2.20739 2.46813 2.81324C1.87893 3.41973 1.58433 4.18826 1.58433 5.11882C1.58433 6.05001 1.87893 6.81854 2.46813 7.42439C3.06585 8.03089 3.84289 8.3338 4.79932 8.3338C5.36291 8.3338 5.87526 8.20571 6.33637 7.94953C6.79749 7.68503 7.14332 7.33089 7.37388 6.88643L8.65475 7.61652C8.27901 8.27424 7.74533 8.7994 7.05366 9.19198C6.37051 9.57625 5.61908 9.76839 4.79932 9.76839ZM13.22 3.03099C13.9544 3.03099 14.5479 3.26603 15.0005 3.73547C15.4531 4.20555 15.6793 4.84982 15.6793 5.66958V9.60187H14.296V5.81048C14.296 5.33271 14.1679 4.96511 13.9117 4.70894C13.6555 4.45276 13.3054 4.32467 12.8614 4.32467C12.3747 4.32467 11.9819 4.47838 11.683 4.78579C11.3841 5.08487 11.2347 5.54598 11.2347 6.16912V9.60187H9.85135V0.635758H11.2347V4.01726C11.6531 3.36018 12.3149 3.03099 13.22 3.03099ZM20.1917 9.76839C19.2524 9.76839 18.454 9.44432 17.7965 8.79492C17.1389 8.14615 16.8102 7.34754 16.8102 6.39969C16.8102 5.45184 17.1389 4.65385 17.7965 4.00445C18.454 3.35569 19.2524 3.03099 20.1917 3.03099C21.1396 3.03099 21.938 3.35569 22.5869 4.00445C23.2445 4.65385 23.5732 5.45184 23.5732 6.39969C23.5732 7.34754 23.2445 8.14615 22.5869 8.79492C21.938 9.44432 21.1396 9.76839 20.1917 9.76839ZM18.7699 7.84708C19.1542 8.23134 19.6281 8.42347 20.1917 8.42347C20.7553 8.42347 21.2292 8.23134 21.6135 7.84708C21.9977 7.46282 22.1899 6.98057 22.1899 6.39969C22.1899 5.81945 21.9977 5.33656 21.6135 4.9523C21.2292 4.56803 20.7553 4.37591 20.1917 4.37591C19.6281 4.37591 19.1542 4.56803 18.7699 4.9523C18.3857 5.33656 18.1936 5.81945 18.1936 6.39969C18.1936 6.98057 18.3857 7.46282 18.7699 7.84708ZM27.8472 9.76839C26.9077 9.76839 26.1091 9.44432 25.452 8.79492C24.7943 8.14615 24.4657 7.34754 24.4657 6.39969C24.4657 5.45184 24.7943 4.65385 25.452 4.00445C26.1091 3.35569 26.9077 3.03099 27.8472 3.03099C28.7951 3.03099 29.5931 3.35569 30.2425 4.00445C30.8996 4.65385 31.2287 5.45184 31.2287 6.39969C31.2287 7.34754 30.8996 8.14615 30.2425 8.79492C29.5931 9.44432 28.7951 9.76839 27.8472 9.76839ZM26.4255 7.84708C26.8097 8.23134 27.2836 8.42347 27.8472 8.42347C28.4108 8.42347 28.8847 8.23134 29.269 7.84708C29.6533 7.46282 29.8454 6.98057 29.8454 6.39969C29.8454 5.81945 29.6533 5.33656 29.269 4.9523C28.8847 4.56803 28.4108 4.37591 27.8472 4.37591C27.2836 4.37591 26.8097 4.56803 26.4255 4.9523C26.0412 5.33656 25.8491 5.81945 25.8491 6.39969C25.8491 6.98057 26.0412 7.46282 26.4255 7.84708ZM33.5964 4.96512C33.5964 5.17902 33.7117 5.34937 33.9423 5.47746C34.1818 5.59722 34.4674 5.70417 34.8005 5.79768C35.1424 5.8835 35.4838 5.98597 35.8252 6.10509C36.1671 6.22486 36.4528 6.42979 36.6833 6.71991C36.9229 7.0017 37.042 7.36034 37.042 7.79584C37.042 8.41066 36.8031 8.89355 36.3247 9.24323C35.8553 9.59355 35.2616 9.76839 34.5443 9.76839C33.9128 9.76839 33.3704 9.63645 32.9176 9.37131C32.4654 9.1068 32.1362 8.73983 31.9313 8.26975L33.1225 7.57809C33.3447 8.19291 33.8187 8.50032 34.5443 8.50032C35.2705 8.50032 35.633 8.26144 35.633 7.78303C35.633 7.57809 35.5139 7.41158 35.2744 7.28349C35.0438 7.15541 34.7582 7.0491 34.4162 6.96328C34.0832 6.86977 33.7463 6.76282 33.4043 6.64306C33.063 6.52394 32.7728 6.32731 32.5333 6.05385C32.3028 5.77206 32.1875 5.41789 32.1875 4.99072C32.1875 4.40152 32.4097 3.9276 32.8535 3.56896C33.3063 3.21031 33.8654 3.03099 34.5315 3.03099C35.0611 3.03099 35.5306 3.15076 35.9404 3.38964C36.3593 3.6202 36.6795 3.94489 36.9011 4.3631L35.7355 5.01634C35.5139 4.52961 35.1124 4.28625 34.5315 4.28625C34.267 4.28625 34.0447 4.34645 33.8654 4.46557C33.6861 4.577 33.5964 4.74353 33.5964 4.96512ZM39.1842 6.98888C39.2867 7.47561 39.5218 7.85155 39.8887 8.11606C40.2563 8.37223 40.7046 8.50032 41.2336 8.50032C41.9682 8.50032 42.519 8.23583 42.886 7.70619L44.0259 8.37223C43.3945 9.30342 42.4594 9.76839 41.2208 9.76839C40.1795 9.76839 39.338 9.45265 38.6975 8.82054C38.0571 8.1801 37.7369 7.37315 37.7369 6.39969C37.7369 5.44352 38.0532 4.64489 38.6847 4.00445C39.3168 3.35569 40.1283 3.03099 41.1184 3.03099C42.0579 3.03099 42.8264 3.36018 43.4239 4.01726C44.0304 4.67499 44.3334 5.47361 44.3334 6.41249C44.3334 6.55787 44.3167 6.75 44.2821 6.98888H39.1842ZM39.1714 5.86172H42.9372C42.8437 5.34105 42.6259 4.94845 42.284 4.68331C41.9509 4.41881 41.5583 4.28625 41.1056 4.28625C40.5932 4.28625 40.1667 4.42714 39.8247 4.70894C39.4833 4.99073 39.2656 5.37499 39.1714 5.86172ZM54.6835 9.60187L54.0558 7.79584H50.2388L49.6112 9.60187H48.0101L51.2635 0.635758H53.0311L56.2717 9.60187H54.6835ZM50.7256 6.41249H53.5691L52.1473 2.36494L50.7256 6.41249ZM60.0061 9.76839C59.0416 9.76839 58.2347 9.44432 57.5853 8.79492C56.9448 8.14615 56.6246 7.34754 56.6246 6.39969C56.6246 5.44352 56.9448 4.64489 57.5853 4.00445C58.2347 3.35569 59.0416 3.03099 60.0061 3.03099C60.6299 3.03099 61.1973 3.18086 61.7097 3.4793C62.222 3.77838 62.6063 4.17993 62.8625 4.68331L61.6713 5.37499C61.5265 5.06758 61.3043 4.8287 61.0052 4.6577C60.7151 4.47838 60.3776 4.38872 59.9933 4.38872C59.4297 4.38872 58.9558 4.58085 58.5715 4.96512C58.1963 5.34938 58.008 5.82778 58.008 6.39969C58.008 6.97224 58.1963 7.45 58.5715 7.83426C58.9558 8.21852 59.4297 8.41065 59.9933 8.41065C60.3693 8.41065 60.7068 8.321 61.0052 8.14168C61.3126 7.96236 61.5432 7.72348 61.6969 7.42439L62.8881 8.10325C62.6153 8.6156 62.222 9.02164 61.7097 9.32008C61.1973 9.61916 60.6299 9.76839 60.0061 9.76839ZM66.8108 9.76839C65.8463 9.76839 65.0393 9.44432 64.3899 8.79492C63.7495 8.14615 63.4293 7.34754 63.4293 6.39969C63.4293 5.44352 63.7495 4.64489 64.3899 4.00445C65.0393 3.35569 65.8463 3.03099 66.8108 3.03099C67.4345 3.03099 68.002 3.18086 68.5143 3.4793C69.0267 3.77838 69.4109 4.17993 69.6671 4.68331L68.4759 5.37499C68.3312 5.06758 68.1089 4.8287 67.8099 4.6577C67.5197 4.47838 67.1822 4.38872 66.798 4.38872C66.2344 4.38872 65.7605 4.58085 65.3762 4.96512C65.0009 5.34938 64.8126 5.82778 64.8126 6.39969C64.8126 6.97224 65.0009 7.45 65.3762 7.83426C65.7605 8.21852 66.2344 8.41065 66.798 8.41065C67.1739 8.41065 67.5114 8.321 67.8099 8.14168C68.1173 7.96236 68.3478 7.72348 68.5015 7.42439L69.6927 8.10325C69.4199 8.6156 69.0267 9.02164 68.5143 9.32008C68.002 9.61916 67.4345 9.76839 66.8108 9.76839ZM73.6154 9.76839C72.6765 9.76839 71.8779 9.44432 71.2202 8.79492C70.5631 8.14615 70.2339 7.34754 70.2339 6.39969C70.2339 5.45184 70.5631 4.65385 71.2202 4.00445C71.8779 3.35569 72.6765 3.03099 73.6154 3.03099C74.5632 3.03099 75.3619 3.35569 76.0106 4.00445C76.6684 4.65385 76.9969 5.45184 76.9969 6.39969C76.9969 7.34754 76.6684 8.14615 76.0106 8.79492C75.3619 9.44432 74.5632 9.76839 73.6154 9.76839ZM72.1936 7.84708C72.5779 8.23134 73.0518 8.42347 73.6154 8.42347C74.179 8.42347 74.6529 8.23134 75.0372 7.84708C75.4214 7.46282 75.6136 6.98057 75.6136 6.39969C75.6136 5.81945 75.4214 5.33656 75.0372 4.9523C74.6529 4.56803 74.179 4.37591 73.6154 4.37591C73.0518 4.37591 72.5779 4.56803 72.1936 4.9523C71.8094 5.33656 71.6172 5.81945 71.6172 6.39969C71.6172 6.98057 71.8094 7.46282 72.1936 7.84708ZM82.5642 3.19751H83.9476V9.60187H82.5642V8.78211C82.146 9.43984 81.4845 9.76839 80.5789 9.76839C79.8449 9.76839 79.2512 9.53399 78.7985 9.06391C78.3463 8.59447 78.1196 7.94954 78.1196 7.12978V3.19751H79.5029V6.98888C79.5029 7.46729 79.631 7.83426 79.8872 8.09043C80.1434 8.34661 80.4937 8.4747 80.9375 8.4747C81.4242 8.4747 81.8175 8.32549 82.1159 8.0264C82.415 7.71899 82.5642 7.25402 82.5642 6.63024V3.19751ZM88.934 3.03099C89.6686 3.03099 90.2623 3.26603 90.7144 3.73547C91.1672 4.20555 91.3933 4.84982 91.3933 5.66958V9.60187H90.0099V5.81048C90.0099 5.33271 89.8819 4.96511 89.6257 4.70894C89.3695 4.45276 89.0198 4.32467 88.5754 4.32467C88.0886 4.32467 87.6961 4.47838 87.397 4.78579C87.0985 5.08487 86.9487 5.54598 86.9487 6.16912V9.60187H85.5653V3.19751H86.9487V4.01726C87.3675 3.36018 88.0291 3.03099 88.934 3.03099ZM96.4566 4.52961H94.8683V7.60371C94.8683 7.86885 94.9279 8.06098 95.0476 8.1801C95.1674 8.29154 95.3422 8.35557 95.5728 8.37223C95.8117 8.38119 96.1063 8.37672 96.4566 8.35942V9.60187C95.3979 9.72996 94.6377 9.64029 94.1766 9.33288C93.7155 9.01715 93.485 8.44076 93.485 7.60371V4.52961H92.3066V3.19751H93.485V1.81416L94.8683 1.40428V3.19751H96.4566V4.52961Z" fill="#666972"/>
</svg>
