<svg width="17" height="15" viewBox="0 0 17 15" fill="none" xmlns="http://www.w3.org/2000/svg">
<path d="M6.94887 3.17795L7.34375 2.74651V5.3717C7.34375 5.56563 7.42079 5.75163 7.55793 5.88877C7.69506 6.0259 7.88106 6.10294 8.075 6.10294C8.26894 6.10294 8.45494 6.0259 8.59207 5.88877C8.72921 5.75163 8.80625 5.56563 8.80625 5.3717V2.74651L9.20113 3.1487C9.2675 3.22366 9.34857 3.2842 9.4393 3.32656C9.53003 3.36891 9.6285 3.39218 9.72859 3.39493C9.82869 3.39767 9.92828 3.37983 10.0212 3.3425C10.1141 3.30518 10.1984 3.24917 10.2688 3.17795C10.3373 3.10997 10.3917 3.02909 10.4288 2.93998C10.4659 2.85087 10.4851 2.75529 10.4851 2.65876C10.4851 2.56222 10.4659 2.46665 10.4288 2.37754C10.3917 2.28843 10.3373 2.20755 10.2688 2.13957L8.59419 0.465008C8.52464 0.398434 8.44264 0.346249 8.35287 0.311445C8.17484 0.238307 7.97516 0.238307 7.79712 0.311445C7.70736 0.346249 7.62536 0.398434 7.55581 0.465008L5.88125 2.11032C5.73967 2.2519 5.66014 2.44391 5.66014 2.64413C5.66014 2.84435 5.73967 3.03637 5.88125 3.17795C6.02283 3.31952 6.21484 3.39906 6.41506 3.39906C6.61528 3.39906 6.8073 3.31952 6.94887 3.17795ZM8.075 7.56544C7.64112 7.56544 7.21698 7.69411 6.85622 7.93516C6.49546 8.17621 6.21428 8.51883 6.04824 8.91968C5.8822 9.32054 5.83876 9.76163 5.9234 10.1872C6.00805 10.6127 6.21698 11.0036 6.52378 11.3104C6.83059 11.6172 7.22147 11.8261 7.64702 11.9108C8.07257 11.9954 8.51366 11.952 8.91451 11.786C9.31537 11.6199 9.65798 11.3387 9.89904 10.978C10.1401 10.6172 10.2688 10.1931 10.2688 9.75919C10.2688 9.17738 10.0376 8.61939 9.62622 8.20798C9.21481 7.79657 8.65682 7.56544 8.075 7.56544ZM8.075 10.4904C7.93037 10.4904 7.78899 10.4476 7.66874 10.3672C7.54849 10.2869 7.45476 10.1727 7.39941 10.039C7.34407 9.90541 7.32959 9.75838 7.3578 9.61653C7.38602 9.47469 7.45566 9.34439 7.55793 9.24212C7.6602 9.13986 7.79049 9.07021 7.93234 9.042C8.07419 9.01378 8.22122 9.02826 8.35484 9.08361C8.48846 9.13895 8.60266 9.23268 8.68301 9.35293C8.76336 9.47319 8.80625 9.61457 8.80625 9.75919C8.80625 9.95313 8.72921 10.1391 8.59207 10.2763C8.45494 10.4134 8.26894 10.4904 8.075 10.4904ZM2.95625 9.75919C2.95625 9.90382 2.99914 10.0452 3.07949 10.1655C3.15984 10.2857 3.27404 10.3794 3.40766 10.4348C3.54128 10.4901 3.68831 10.5046 3.83016 10.4764C3.97201 10.4482 4.1023 10.3785 4.20457 10.2763C4.30684 10.174 4.37648 10.0437 4.4047 9.90185C4.43291 9.76 4.41843 9.61298 4.36309 9.47936C4.30774 9.34574 4.21401 9.23153 4.09376 9.15118C3.97351 9.07083 3.83213 9.02794 3.6875 9.02794C3.49356 9.02794 3.30756 9.10499 3.17043 9.24212C3.03329 9.37926 2.95625 9.56526 2.95625 9.75919ZM13.1937 9.75919C13.1937 9.61457 13.1509 9.47319 13.0705 9.35293C12.9902 9.23268 12.876 9.13895 12.7423 9.08361C12.6087 9.02826 12.4617 9.01378 12.3198 9.042C12.178 9.07021 12.0477 9.13986 11.9454 9.24212C11.8432 9.34439 11.7735 9.47469 11.7453 9.61653C11.7171 9.75838 11.7316 9.90541 11.7869 10.039C11.8423 10.1727 11.936 10.2869 12.0562 10.3672C12.1765 10.4476 12.3179 10.4904 12.4625 10.4904C12.6564 10.4904 12.8424 10.4134 12.9796 10.2763C13.1167 10.1391 13.1937 9.95313 13.1937 9.75919ZM13.925 4.64045H11C10.8061 4.64045 10.6201 4.71749 10.4829 4.85462C10.3458 4.99176 10.2688 5.17776 10.2688 5.3717C10.2688 5.56563 10.3458 5.75163 10.4829 5.88877C10.6201 6.0259 10.8061 6.10294 11 6.10294H13.925C14.1189 6.10294 14.3049 6.17999 14.4421 6.31712C14.5792 6.45426 14.6562 6.64025 14.6562 6.83419V12.6842C14.6562 12.8781 14.5792 13.0641 14.4421 13.2013C14.3049 13.3384 14.1189 13.4154 13.925 13.4154H2.225C2.03106 13.4154 1.84506 13.3384 1.70793 13.2013C1.57079 13.0641 1.49375 12.8781 1.49375 12.6842V6.83419C1.49375 6.64025 1.57079 6.45426 1.70793 6.31712C1.84506 6.17999 2.03106 6.10294 2.225 6.10294H5.15C5.34394 6.10294 5.52994 6.0259 5.66707 5.88877C5.80421 5.75163 5.88125 5.56563 5.88125 5.3717C5.88125 5.17776 5.80421 4.99176 5.66707 4.85462C5.52994 4.71749 5.34394 4.64045 5.15 4.64045H2.225C1.64318 4.64045 1.08519 4.87157 0.673784 5.28298C0.262377 5.69439 0.03125 6.25238 0.03125 6.83419V12.6842C0.03125 13.266 0.262377 13.824 0.673784 14.2354C1.08519 14.6468 1.64318 14.8779 2.225 14.8779H13.925C14.5068 14.8779 15.0648 14.6468 15.4762 14.2354C15.8876 13.824 16.1187 13.266 16.1187 12.6842V6.83419C16.1187 6.25238 15.8876 5.69439 15.4762 5.28298C15.0648 4.87157 14.5068 4.64045 13.925 4.64045Z" fill="#A789FF"/>
</svg>
