<svg width="15" height="15" viewBox="0 0 15 15" fill="none" xmlns="http://www.w3.org/2000/svg">
<path d="M7.4873 3.18702C7.29337 3.18702 7.10737 3.26407 6.97023 3.4012C6.8331 3.53834 6.75605 3.72433 6.75605 3.91827V11.2308C6.75605 11.4247 6.8331 11.6107 6.97023 11.7478C7.10737 11.885 7.29337 11.962 7.4873 11.962C7.68124 11.962 7.86724 11.885 8.00438 11.7478C8.14151 11.6107 8.21855 11.4247 8.21855 11.2308V3.91827C8.21855 3.72433 8.14151 3.53834 8.00438 3.4012C7.86724 3.26407 7.68124 3.18702 7.4873 3.18702ZM3.83105 7.57452C3.63712 7.57452 3.45112 7.65157 3.31398 7.7887C3.17685 7.92584 3.0998 8.11183 3.0998 8.30577V11.2308C3.0998 11.4247 3.17685 11.6107 3.31398 11.7478C3.45112 11.885 3.63712 11.962 3.83105 11.962C4.02499 11.962 4.21099 11.885 4.34813 11.7478C4.48526 11.6107 4.5623 11.4247 4.5623 11.2308V8.30577C4.5623 8.11183 4.48526 7.92584 4.34813 7.7887C4.21099 7.65157 4.02499 7.57452 3.83105 7.57452ZM11.1436 6.11202C10.9496 6.11202 10.7636 6.18907 10.6265 6.3262C10.4893 6.46334 10.4123 6.64933 10.4123 6.84327V11.2308C10.4123 11.4247 10.4893 11.6107 10.6265 11.7478C10.7636 11.885 10.9496 11.962 11.1436 11.962C11.3375 11.962 11.5235 11.885 11.6606 11.7478C11.7978 11.6107 11.8748 11.4247 11.8748 11.2308V6.84327C11.8748 6.64933 11.7978 6.46334 11.6606 6.3262C11.5235 6.18907 11.3375 6.11202 11.1436 6.11202ZM12.6061 0.262024H2.36855C1.78674 0.262024 1.22875 0.493151 0.817339 0.904558C0.405931 1.31597 0.174805 1.87396 0.174805 2.45577V12.6933C0.174805 13.2751 0.405931 13.8331 0.817339 14.2445C1.22875 14.6559 1.78674 14.887 2.36855 14.887H12.6061C13.1879 14.887 13.7459 14.6559 14.1573 14.2445C14.5687 13.8331 14.7998 13.2751 14.7998 12.6933V2.45577C14.7998 1.87396 14.5687 1.31597 14.1573 0.904558C13.7459 0.493151 13.1879 0.262024 12.6061 0.262024ZM13.3373 12.6933C13.3373 12.8872 13.2603 13.0732 13.1231 13.2103C12.986 13.3475 12.8 13.4245 12.6061 13.4245H2.36855C2.17462 13.4245 1.98862 13.3475 1.85148 13.2103C1.71435 13.0732 1.6373 12.8872 1.6373 12.6933V2.45577C1.6373 2.26183 1.71435 2.07584 1.85148 1.9387C1.98862 1.80157 2.17462 1.72452 2.36855 1.72452H12.6061C12.8 1.72452 12.986 1.80157 13.1231 1.9387C13.2603 2.07584 13.3373 2.26183 13.3373 2.45577V12.6933Z" fill="#A4B4CB"/>
</svg>
