<svg width="66" height="10" viewBox="0 0 66 10" fill="none" xmlns="http://www.w3.org/2000/svg">
<path d="M5.02098 9.11258C3.73882 9.11258 2.67634 8.69116 1.83288 7.84707C0.988789 6.99529 0.567383 5.94498 0.567383 4.69549C0.567383 3.44664 0.988789 2.40016 1.83288 1.55606C2.67634 0.70428 3.73882 0.278393 5.02098 0.278393C5.79142 0.278393 6.50102 0.460925 7.15043 0.825973C7.80752 1.19102 8.31859 1.68608 8.68364 2.3105L7.4668 3.01626C7.23945 2.59485 6.90706 2.26183 6.46901 2.01847C6.03863 1.76742 5.55638 1.64124 5.02098 1.64124C4.1122 1.64124 3.37378 1.92943 2.80635 2.50518C2.24661 3.08158 1.96674 3.81168 1.96674 4.69549C1.96674 5.57993 2.24661 6.31004 2.80635 6.88579C3.37378 7.46218 4.1122 7.74974 5.02098 7.74974C5.55638 7.74974 6.04311 7.62805 6.48117 7.38468C6.91923 7.13363 7.24778 6.79677 7.4668 6.37472L8.68364 7.0683C8.32628 7.69336 7.81969 8.19227 7.1626 8.565C6.5132 8.93005 5.79975 9.11258 5.02098 9.11258ZM14.306 2.87024H15.6202V8.95439H14.306V8.07828C13.8116 8.76803 13.1014 9.11258 12.1766 9.11258C11.3414 9.11258 10.6274 8.80453 10.035 8.18779C9.4432 7.56336 9.14667 6.80508 9.14667 5.91231C9.14667 5.01186 9.4432 4.25358 10.035 3.63684C10.6274 3.02074 11.3414 2.71204 12.1766 2.71204C13.1014 2.71204 13.8116 3.05276 14.306 3.73419V2.87024ZM11.0084 7.31167C11.3735 7.67671 11.832 7.85925 12.3834 7.85925C12.9355 7.85925 13.3934 7.67671 13.7585 7.31167C14.1235 6.93893 14.306 6.47205 14.306 5.91231C14.306 5.35257 14.1235 4.89019 13.7585 4.52514C13.3934 4.1524 12.9355 3.96538 12.3834 3.96538C11.832 3.96538 11.3735 4.1524 11.0084 4.52514C10.6434 4.89019 10.4608 5.35257 10.4608 5.91231C10.4608 6.47205 10.6434 6.93893 11.0084 7.31167ZM18.205 3.89238C18.538 3.13795 19.1625 2.76073 20.0789 2.76073V4.18442C19.5762 4.15239 19.1381 4.27408 18.7648 4.54947C18.392 4.81717 18.205 5.26355 18.205 5.88798V8.95439H16.8908V2.87024H18.205V3.89238ZM25.3222 0.436587H26.6364V8.95439H25.3222V8.07828C24.8271 8.76803 24.1175 9.11258 23.1927 9.11258C22.357 9.11258 21.6435 8.80453 21.0511 8.18779C20.4587 7.56336 20.1628 6.80508 20.1628 5.91231C20.1628 5.01186 20.4587 4.25358 21.0511 3.63684C21.6435 3.02074 22.357 2.71204 23.1927 2.71204C24.1175 2.71204 24.8271 3.05276 25.3222 3.73419V0.436587ZM22.0246 7.31167C22.3896 7.67671 22.8482 7.85925 23.3996 7.85925C23.951 7.85925 24.4096 7.67671 24.7746 7.31167C25.1397 6.93893 25.3222 6.47205 25.3222 5.91231C25.3222 5.35257 25.1397 4.89019 24.7746 4.52514C24.4096 4.1524 23.951 3.96538 23.3996 3.96538C22.8482 3.96538 22.3896 4.1524 22.0246 4.52514C21.6595 4.89019 21.477 5.35257 21.477 5.91231C21.477 6.47205 21.6595 6.93893 22.0246 7.31167ZM35.8228 0.436587H37.2221V8.95439H35.8228V5.2674H32.1723V8.95439H30.7729V0.436587H32.1723V3.92889H35.8228V0.436587ZM41.4497 9.11258C40.5575 9.11258 39.7993 8.80453 39.1742 8.18779C38.5498 7.57169 38.2372 6.81277 38.2372 5.91231C38.2372 5.01186 38.5498 4.25358 39.1742 3.63684C39.7993 3.02074 40.5575 2.71204 41.4497 2.71204C42.3501 2.71204 43.109 3.02074 43.7251 3.63684C44.3502 4.25358 44.6621 5.01186 44.6621 5.91231C44.6621 6.81277 44.3502 7.57169 43.7251 8.18779C43.109 8.80453 42.3501 9.11258 41.4497 9.11258ZM40.099 7.28733C40.464 7.65238 40.9143 7.83491 41.4497 7.83491C41.9851 7.83491 42.4353 7.65238 42.8003 7.28733C43.1654 6.92228 43.3479 6.46437 43.3479 5.91231C43.3479 5.3609 43.1654 4.90234 42.8003 4.53729C42.4353 4.17224 41.9851 3.98973 41.4497 3.98973C40.9143 3.98973 40.464 4.17224 40.099 4.53729C39.7339 4.90234 39.5514 5.3609 39.5514 5.91231C39.5514 6.46437 39.7339 6.92228 40.099 7.28733ZM45.5894 8.95439V0.0715332H46.9036V8.95439H45.5894ZM52.9865 0.436587H54.3007V8.95439H52.9865V8.07828C52.4921 8.76803 51.7818 9.11258 50.857 9.11258C50.0219 9.11258 49.3078 8.80453 48.7154 8.18779C48.1236 7.56336 47.8271 6.80508 47.8271 5.91231C47.8271 5.01186 48.1236 4.25358 48.7154 3.63684C49.3078 3.02074 50.0219 2.71204 50.857 2.71204C51.7818 2.71204 52.4921 3.05276 52.9865 3.73419V0.436587ZM49.6889 7.31167C50.0539 7.67671 50.5125 7.85925 51.0639 7.85925C51.616 7.85925 52.0739 7.67671 52.4389 7.31167C52.804 6.93893 52.9865 6.47205 52.9865 5.91231C52.9865 5.35257 52.804 4.89019 52.4389 4.52514C52.0739 4.1524 51.616 3.96538 51.0639 3.96538C50.5125 3.96538 50.0539 4.1524 49.6889 4.52514C49.3238 4.89019 49.1413 5.35257 49.1413 5.91231C49.1413 6.47205 49.3238 6.93893 49.6889 7.31167ZM56.6056 6.47205C56.7029 6.93445 56.9265 7.29183 57.2749 7.54288C57.6239 7.78624 58.0498 7.90791 58.5525 7.90791C59.2506 7.90791 59.7738 7.65687 60.1222 7.15349L61.2052 7.78623C60.6051 8.67067 59.7168 9.11258 58.5404 9.11258C57.5509 9.11258 56.7516 8.81285 56.1432 8.21212C55.5348 7.60371 55.2306 6.8371 55.2306 5.91231C55.2306 5.00417 55.5309 4.24525 56.131 3.63684C56.7318 3.02074 57.5022 2.71204 58.443 2.71204C59.3358 2.71204 60.0659 3.02459 60.6333 3.64901C61.2097 4.27408 61.4973 5.03236 61.4973 5.92449C61.4973 6.06282 61.4812 6.24534 61.4486 6.47205H56.6056ZM56.5934 5.40124H60.1709C60.0819 4.90682 59.875 4.53346 59.5503 4.28177C59.2339 4.03072 58.8612 3.90456 58.4308 3.90456C57.9441 3.90456 57.5387 4.0384 57.214 4.3061C56.89 4.5738 56.6831 4.93885 56.5934 5.40124ZM63.7068 3.89238C64.0391 3.13795 64.6636 2.76073 65.5807 2.76073V4.18442C65.0773 4.15239 64.6392 4.27408 64.2665 4.54947C63.8931 4.81717 63.7068 5.26355 63.7068 5.88798V8.95439H62.3926V2.87024H63.7068V3.89238Z" fill="white"/>
</svg>
