<svg width="15" height="15" viewBox="0 0 15 15" fill="none" xmlns="http://www.w3.org/2000/svg">
<path d="M14.3026 5.72199L12.9205 5.2613L13.5713 3.95968C13.6373 3.82344 13.6593 3.67008 13.6345 3.52076C13.6096 3.37145 13.539 3.23353 13.4324 3.12605L11.8748 1.56849C11.7668 1.46033 11.6275 1.38875 11.4767 1.36383C11.3258 1.33891 11.171 1.36189 11.0339 1.42955L9.73224 2.08036L9.27156 0.698302C9.2229 0.55424 9.13055 0.428929 9.00735 0.339806C8.88415 0.250682 8.73623 0.202182 8.58418 0.201052H6.39043C6.23713 0.200657 6.08758 0.248451 5.96292 0.33768C5.83826 0.42691 5.7448 0.553061 5.69574 0.698302L5.23506 2.08036L3.93343 1.42955C3.79719 1.36358 3.64383 1.34151 3.49452 1.3664C3.3452 1.39128 3.20729 1.4619 3.09981 1.56849L1.54224 3.12605C1.43408 3.23411 1.36251 3.37334 1.33759 3.52419C1.31266 3.67503 1.33565 3.82989 1.40331 3.96699L2.05412 5.26862L0.672057 5.7293C0.527995 5.77796 0.402683 5.87031 0.31356 5.99351C0.224437 6.11671 0.175936 6.26463 0.174807 6.41668V8.61043C0.174411 8.76373 0.222206 8.91328 0.311435 9.03794C0.400665 9.1626 0.526816 9.25606 0.672057 9.30511L2.05412 9.7658L1.40331 11.0674C1.33733 11.2037 1.31527 11.357 1.34015 11.5063C1.36504 11.6557 1.43565 11.7936 1.54224 11.9011L3.09981 13.4586C3.20786 13.5668 3.3471 13.6384 3.49794 13.6633C3.64878 13.6882 3.80364 13.6652 3.94074 13.5976L5.24237 12.9467L5.70306 14.3288C5.75211 14.474 5.84558 14.6002 5.97024 14.6894C6.09489 14.7787 6.24444 14.8264 6.39774 14.8261H8.59149C8.7448 14.8264 8.89435 14.7787 9.019 14.6894C9.14366 14.6002 9.23713 14.474 9.28618 14.3288L9.74687 12.9467L11.0485 13.5976C11.1839 13.6619 11.3357 13.683 11.4835 13.6582C11.6313 13.6333 11.7679 13.5637 11.8748 13.4586L13.4324 11.9011C13.5405 11.793 13.6121 11.6538 13.637 11.5029C13.662 11.3521 13.639 11.1972 13.5713 11.0601L12.9205 9.75849L14.3026 9.2978C14.4466 9.24915 14.5719 9.1568 14.6611 9.0336C14.7502 8.9104 14.7987 8.76248 14.7998 8.61043V6.41668C14.8002 6.26338 14.7524 6.11383 14.6632 5.98917C14.574 5.86451 14.4478 5.77105 14.3026 5.72199ZM13.3373 8.08393L12.4598 8.37643C12.258 8.44188 12.0729 8.55045 11.9173 8.6946C11.7616 8.83874 11.6392 9.01502 11.5585 9.21121C11.4778 9.40739 11.4408 9.61878 11.4499 9.83072C11.4591 10.0427 11.5142 10.2501 11.6116 10.4386L12.0284 11.2722L11.224 12.0766L10.4123 11.6378C10.2248 11.5444 10.0194 11.4923 9.80999 11.4852C9.6006 11.478 9.39212 11.516 9.19866 11.5964C9.00521 11.6768 8.8313 11.7979 8.68869 11.9514C8.54609 12.1049 8.43813 12.2872 8.37212 12.4861L8.07962 13.3636H6.91693L6.62443 12.4861C6.55898 12.2843 6.45041 12.0991 6.30626 11.9435C6.16212 11.7879 5.98584 11.6655 5.78965 11.5848C5.59347 11.5041 5.38208 11.467 5.17014 11.4762C4.9582 11.4853 4.7508 11.5405 4.56231 11.6378L3.72868 12.0546L2.92431 11.2502L3.36306 10.4386C3.46038 10.2501 3.51554 10.0427 3.5247 9.83072C3.53386 9.61878 3.4968 9.40739 3.4161 9.21121C3.3354 9.01502 3.21299 8.83874 3.05735 8.6946C2.90172 8.55045 2.71659 8.44188 2.51481 8.37643L1.63731 8.08393V6.94318L2.51481 6.65068C2.71659 6.58522 2.90172 6.47666 3.05735 6.33251C3.21299 6.18836 3.3354 6.01208 3.4161 5.8159C3.4968 5.61971 3.53386 5.40832 3.5247 5.19639C3.51554 4.98445 3.46038 4.77704 3.36306 4.58855L2.94624 3.77686L3.75062 2.97249L4.56231 3.3893C4.7508 3.48663 4.9582 3.54178 5.17014 3.55094C5.38208 3.5601 5.59347 3.52305 5.78965 3.44235C5.98584 3.36165 6.16212 3.23923 6.30626 3.0836C6.45041 2.92797 6.55898 2.74284 6.62443 2.54105L6.91693 1.66355H8.05768L8.35018 2.54105C8.41564 2.74284 8.5242 2.92797 8.66835 3.0836C8.8125 3.23923 8.98878 3.36165 9.18496 3.44235C9.38115 3.52305 9.59254 3.5601 9.80447 3.55094C10.0164 3.54178 10.2238 3.48663 10.4123 3.3893L11.2459 2.97249L12.0503 3.77686L11.6116 4.58855C11.5181 4.77608 11.4661 4.98149 11.4589 5.19087C11.4518 5.40026 11.4897 5.60874 11.5702 5.8022C11.6506 5.99565 11.7717 6.16957 11.9251 6.31217C12.0786 6.45477 12.261 6.56273 12.4598 6.62874L13.3373 6.92124V8.08393ZM7.48731 4.58855C6.9088 4.58855 6.34328 4.7601 5.86227 5.0815C5.38125 5.40291 5.00635 5.85973 4.78496 6.3942C4.56357 6.92868 4.50565 7.5168 4.61851 8.08419C4.73137 8.65159 5.00995 9.17277 5.41902 9.58184C5.82809 9.99091 6.34927 10.2695 6.91667 10.3823C7.48406 10.4952 8.07218 10.4373 8.60666 10.2159C9.14113 9.99451 9.59795 9.61961 9.91936 9.13859C10.2408 8.65758 10.4123 8.09206 10.4123 7.51355C10.4123 6.73779 10.1041 5.99381 9.55559 5.44527C9.00705 4.89672 8.26307 4.58855 7.48731 4.58855ZM7.48731 8.97605C7.19805 8.97605 6.91529 8.89028 6.67479 8.72958C6.43428 8.56888 6.24683 8.34046 6.13613 8.07323C6.02544 7.80599 5.99648 7.51193 6.05291 7.22823C6.10934 6.94454 6.24863 6.68394 6.45316 6.47941C6.6577 6.27487 6.91829 6.13558 7.20199 6.07915C7.48568 6.02272 7.77974 6.05169 8.04698 6.16238C8.31422 6.27307 8.54263 6.46052 8.70333 6.70103C8.86403 6.94154 8.94981 7.2243 8.94981 7.51355C8.94981 7.90143 8.79572 8.27342 8.52145 8.5477C8.24718 8.82197 7.87519 8.97605 7.48731 8.97605Z" fill="#A4B4CB"/>
</svg>
