<svg width="148" height="149" viewBox="0 0 148 149" fill="none" xmlns="http://www.w3.org/2000/svg">
<g opacity="0.3">
<path d="M0 0.412598H4V4.4126H0V0.412598Z" fill="#C4C4C4"/>
<path d="M24 0.412598H28V4.4126H24V0.412598Z" fill="#C4C4C4"/>
<path d="M48 0.412598H52V4.4126H48V0.412598Z" fill="#C4C4C4"/>
<path d="M72 0.412598H76V4.4126H72V0.412598Z" fill="#C4C4C4"/>
<path d="M96 0.412598H100V4.4126H96V0.412598Z" fill="#C4C4C4"/>
<path d="M120 0.412598H124V4.4126H120V0.412598Z" fill="#C4C4C4"/>
<path d="M144 0.412598H148V4.4126H144V0.412598Z" fill="#C4C4C4"/>
<path d="M0 24.4126H4V28.4126H0V24.4126Z" fill="#C4C4C4"/>
<path d="M24 24.4126H28V28.4126H24V24.4126Z" fill="#C4C4C4"/>
<path d="M48 24.4126H52V28.4126H48V24.4126Z" fill="#C4C4C4"/>
<path d="M72 24.4126H76V28.4126H72V24.4126Z" fill="#C4C4C4"/>
<path d="M96 24.4126H100V28.4126H96V24.4126Z" fill="#C4C4C4"/>
<path d="M120 24.4126H124V28.4126H120V24.4126Z" fill="#C4C4C4"/>
<path d="M144 24.4126H148V28.4126H144V24.4126Z" fill="#C4C4C4"/>
<path d="M0 48.4126H4V52.4126H0V48.4126Z" fill="#C4C4C4"/>
<path d="M24 48.4126H28V52.4126H24V48.4126Z" fill="#C4C4C4"/>
<path d="M48 48.4126H52V52.4126H48V48.4126Z" fill="#C4C4C4"/>
<path d="M72 48.4126H76V52.4126H72V48.4126Z" fill="#C4C4C4"/>
<path d="M96 48.4126H100V52.4126H96V48.4126Z" fill="#C4C4C4"/>
<path d="M120 48.4126H124V52.4126H120V48.4126Z" fill="#C4C4C4"/>
<path d="M144 48.4126H148V52.4126H144V48.4126Z" fill="#C4C4C4"/>
<path d="M0 72.4126H4V76.4126H0V72.4126Z" fill="#C4C4C4"/>
<path d="M24 72.4126H28V76.4126H24V72.4126Z" fill="#C4C4C4"/>
<path d="M48 72.4126H52V76.4126H48V72.4126Z" fill="#C4C4C4"/>
<path d="M72 72.4126H76V76.4126H72V72.4126Z" fill="#C4C4C4"/>
<path d="M96 72.4126H100V76.4126H96V72.4126Z" fill="#C4C4C4"/>
<path d="M120 72.4126H124V76.4126H120V72.4126Z" fill="#C4C4C4"/>
<path d="M144 72.4126H148V76.4126H144V72.4126Z" fill="#C4C4C4"/>
<path d="M0 96.4126H4V100.413H0V96.4126Z" fill="#C4C4C4"/>
<path d="M24 96.4126H28V100.413H24V96.4126Z" fill="#C4C4C4"/>
<path d="M48 96.4126H52V100.413H48V96.4126Z" fill="#C4C4C4"/>
<path d="M72 96.4126H76V100.413H72V96.4126Z" fill="#C4C4C4"/>
<path d="M96 96.4126H100V100.413H96V96.4126Z" fill="#C4C4C4"/>
<path d="M120 96.4126H124V100.413H120V96.4126Z" fill="#C4C4C4"/>
<path d="M144 96.4126H148V100.413H144V96.4126Z" fill="#C4C4C4"/>
<path d="M0 120.413H4V124.413H0V120.413Z" fill="#C4C4C4"/>
<path d="M24 120.413H28V124.413H24V120.413Z" fill="#C4C4C4"/>
<path d="M48 120.413H52V124.413H48V120.413Z" fill="#C4C4C4"/>
<path d="M72 120.413H76V124.413H72V120.413Z" fill="#C4C4C4"/>
<path d="M96 120.413H100V124.413H96V120.413Z" fill="#C4C4C4"/>
<path d="M120 120.413H124V124.413H120V120.413Z" fill="#C4C4C4"/>
<path d="M144 120.413H148V124.413H144V120.413Z" fill="#C4C4C4"/>
<path d="M0 144.413H4V148.413H0V144.413Z" fill="#C4C4C4"/>
<path d="M24 144.413H28V148.413H24V144.413Z" fill="#C4C4C4"/>
<path d="M48 144.413H52V148.413H48V144.413Z" fill="#C4C4C4"/>
<path d="M72 144.413H76V148.413H72V144.413Z" fill="#C4C4C4"/>
<path d="M96 144.413H100V148.413H96V144.413Z" fill="#C4C4C4"/>
<path d="M120 144.413H124V148.413H120V144.413Z" fill="#C4C4C4"/>
<path d="M144 144.413H148V148.413H144V144.413Z" fill="#C4C4C4"/>
</g>
</svg>
