<svg width="134" height="10" viewBox="0 0 134 10" fill="none" xmlns="http://www.w3.org/2000/svg">
<path d="M2.02124 6.43573C1.57677 6.43573 1.19252 6.27753 0.868458 5.96179C0.552082 5.63709 0.394531 5.25284 0.394531 4.80901C0.394531 4.37352 0.552082 4.00207 0.868458 3.69466C1.18419 3.38725 1.56845 3.23354 2.02124 3.23354C2.45673 3.23354 2.82819 3.38725 3.1356 3.69466C3.44301 4.00207 3.59671 4.37352 3.59671 4.80901C3.59671 5.26116 3.44301 5.64541 3.1356 5.96179C2.82819 6.27753 2.45673 6.43573 2.02124 6.43573ZM8.03942 6.43573C7.59496 6.43573 7.21069 6.27753 6.88663 5.96179C6.57026 5.63709 6.41272 5.25284 6.41272 4.80901C6.41272 4.37352 6.57026 4.00207 6.88663 3.69466C7.20237 3.38725 7.58663 3.23354 8.03942 3.23354C8.47492 3.23354 8.84638 3.38725 9.15379 3.69466C9.46119 4.00207 9.6149 4.37352 9.6149 4.80901C9.6149 5.26116 9.46119 5.64541 9.15379 5.96179C8.84638 6.27753 8.47492 6.43573 8.03942 6.43573ZM14.0576 6.43573C13.6131 6.43573 13.2289 6.27753 12.9048 5.96179C12.5884 5.63709 12.4309 5.25284 12.4309 4.80901C12.4309 4.37352 12.5884 4.00207 12.9048 3.69466C13.2206 3.38725 13.6048 3.23354 14.0576 3.23354C14.4931 3.23354 14.8646 3.38725 15.172 3.69466C15.4794 4.00207 15.6331 4.37352 15.6331 4.80901C15.6331 5.26116 15.4794 5.64541 15.172 5.96179C14.8646 6.27753 14.4931 6.43573 14.0576 6.43573ZM20.0751 6.43573C19.6313 6.43573 19.2471 6.27753 18.9224 5.96179C18.6066 5.63709 18.4484 5.25284 18.4484 4.80901C18.4484 4.37352 18.6066 4.00207 18.9224 3.69466C19.2387 3.38725 19.623 3.23354 20.0751 3.23354C20.5106 3.23354 20.8821 3.38725 21.1895 3.69466C21.4969 4.00207 21.6506 4.37352 21.6506 4.80901C21.6506 5.26116 21.4969 5.64541 21.1895 5.96179C20.8821 6.27753 20.5106 6.43573 20.0751 6.43573ZM35.828 6.43573C35.3841 6.43573 34.9999 6.27753 34.6752 5.96179C34.3594 5.63709 34.2013 5.25284 34.2013 4.80901C34.2013 4.37352 34.3594 4.00207 34.6752 3.69466C34.9916 3.38725 35.3758 3.23354 35.828 3.23354C36.2635 3.23354 36.6349 3.38725 36.9423 3.69466C37.2497 4.00207 37.4035 4.37352 37.4035 4.80901C37.4035 5.26116 37.2497 5.64541 36.9423 5.96179C36.6349 6.27753 36.2635 6.43573 35.828 6.43573ZM41.8462 6.43573C41.4023 6.43573 41.0181 6.27753 40.6934 5.96179C40.3776 5.63709 40.2195 5.25284 40.2195 4.80901C40.2195 4.37352 40.3776 4.00207 40.6934 3.69466C41.0097 3.38725 41.394 3.23354 41.8462 3.23354C42.2817 3.23354 42.6531 3.38725 42.9605 3.69466C43.2679 4.00207 43.4216 4.37352 43.4216 4.80901C43.4216 5.26116 43.2679 5.64541 42.9605 5.96179C42.6531 6.27753 42.2817 6.43573 41.8462 6.43573ZM47.8643 6.43573C47.4205 6.43573 47.0363 6.27753 46.7116 5.96179C46.3958 5.63709 46.2376 5.25284 46.2376 4.80901C46.2376 4.37352 46.3958 4.00207 46.7116 3.69466C47.0273 3.38725 47.4116 3.23354 47.8643 3.23354C48.2998 3.23354 48.6713 3.38725 48.9787 3.69466C49.2861 4.00207 49.4398 4.37352 49.4398 4.80901C49.4398 5.26116 49.2861 5.64541 48.9787 5.96179C48.6713 6.27753 48.2998 6.43573 47.8643 6.43573ZM53.8825 6.43573C53.4387 6.43573 53.0544 6.27753 52.7297 5.96179C52.414 5.63709 52.2558 5.25284 52.2558 4.80901C52.2558 4.37352 52.414 4.00207 52.7297 3.69466C53.0455 3.38725 53.4297 3.23354 53.8825 3.23354C54.318 3.23354 54.6895 3.38725 54.9969 3.69466C55.3043 4.00207 55.458 4.37352 55.458 4.80901C55.458 5.26116 55.3043 5.64541 54.9969 5.96179C54.6895 6.27753 54.318 6.43573 53.8825 6.43573ZM69.6353 6.43573C69.1909 6.43573 68.8066 6.27753 68.4826 5.96179C68.1662 5.63709 68.0086 5.25284 68.0086 4.80901C68.0086 4.37352 68.1662 4.00207 68.4826 3.69466C68.7983 3.38725 69.1825 3.23354 69.6353 3.23354C70.0708 3.23354 70.4423 3.38725 70.7497 3.69466C71.0571 4.00207 71.2108 4.37352 71.2108 4.80901C71.2108 5.26116 71.0571 5.64541 70.7497 5.96179C70.4423 6.27753 70.0708 6.43573 69.6353 6.43573ZM75.6535 6.43573C75.2091 6.43573 74.8248 6.27753 74.5007 5.96179C74.1844 5.63709 74.0268 5.25284 74.0268 4.80901C74.0268 4.37352 74.1844 4.00207 74.5007 3.69466C74.8165 3.38725 75.2007 3.23354 75.6535 3.23354C76.089 3.23354 76.4605 3.38725 76.7679 3.69466C77.0753 4.00207 77.229 4.37352 77.229 4.80901C77.229 5.26116 77.0753 5.64541 76.7679 5.96179C76.4605 6.27753 76.089 6.43573 75.6535 6.43573ZM81.6717 6.43573C81.2272 6.43573 80.843 6.27753 80.5189 5.96179C80.2026 5.63709 80.045 5.25284 80.045 4.80901C80.045 4.37352 80.2026 4.00207 80.5189 3.69466C80.8347 3.38725 81.2189 3.23354 81.6717 3.23354C82.1072 3.23354 82.4787 3.38725 82.7861 3.69466C83.0935 4.00207 83.2472 4.37352 83.2472 4.80901C83.2472 5.26116 83.0935 5.64541 82.7861 5.96179C82.4787 6.27753 82.1072 6.43573 81.6717 6.43573ZM87.6893 6.43573C87.2454 6.43573 86.8612 6.27753 86.5365 5.96179C86.2207 5.63709 86.0625 5.25284 86.0625 4.80901C86.0625 4.37352 86.2207 4.00207 86.5365 3.69466C86.8529 3.38725 87.2371 3.23354 87.6893 3.23354C88.1247 3.23354 88.4962 3.38725 88.8036 3.69466C89.111 4.00207 89.2647 4.37352 89.2647 4.80901C89.2647 5.26116 89.111 5.64541 88.8036 5.96179C88.4962 6.27753 88.1247 6.43573 87.6893 6.43573ZM104.761 3.73308C105.616 3.73308 106.337 3.98925 106.926 4.5016C107.515 5.00498 107.81 5.70562 107.81 6.60223C107.81 7.49884 107.507 8.20333 106.9 8.71568C106.295 9.22803 105.552 9.48419 104.672 9.48419C103.963 9.48419 103.336 9.32154 102.789 8.99747C102.243 8.66445 101.854 8.18603 101.623 7.56288L102.891 6.83279C103.131 7.64359 103.724 8.04962 104.672 8.04962C105.176 8.04962 105.577 7.92153 105.876 7.66535C106.183 7.40021 106.337 7.04605 106.337 6.60223C106.337 6.15776 106.188 5.8081 105.889 5.55192C105.59 5.29575 105.193 5.16766 104.697 5.16766H102.084L102.43 0.351578H107.426V1.73492H103.788L103.634 3.73308H104.761ZM117.096 6.33325V7.70378H116.071V9.31769H114.585V7.70378H110.179V6.33325L113.266 0.351578H114.867L111.78 6.33325H114.585V4.00206H116.071V6.33325H117.096ZM123.257 4.01488C123.907 4.16858 124.432 4.4715 124.833 4.92429C125.243 5.36811 125.447 5.92721 125.447 6.60223C125.447 7.49884 125.145 8.20333 124.538 8.71568C123.932 9.22803 123.189 9.48419 122.309 9.48419C121.627 9.48419 121.012 9.32601 120.465 9.01028C119.927 8.6939 119.539 8.23278 119.299 7.62693L120.555 6.89684C120.82 7.66537 121.404 8.04962 122.309 8.04962C122.822 8.04962 123.228 7.92153 123.526 7.66535C123.825 7.40021 123.974 7.04605 123.974 6.60223C123.974 6.15776 123.825 5.8081 123.526 5.55192C123.228 5.29575 122.822 5.16766 122.309 5.16766H121.976L121.387 4.28385L123.321 1.73492H119.568V0.351578H125.076V1.60683L123.257 4.01488ZM127.834 9.31769V8.16489L130.959 4.97553C131.719 4.21533 132.099 3.55759 132.099 3.00298C132.099 2.56748 131.966 2.22998 131.702 1.99109C131.446 1.74325 131.117 1.61963 130.716 1.61963C129.964 1.61963 129.409 1.9911 129.051 2.734L127.808 2.0039C128.09 1.40573 128.487 0.953583 128.999 0.646174C129.512 0.338764 130.079 0.185059 130.703 0.185059C131.488 0.185059 132.163 0.43227 132.727 0.927968C133.29 1.42303 133.572 2.09741 133.572 2.95175C133.572 3.86501 133.064 4.83847 132.048 5.87214L130.024 7.89592H133.739V9.31769H127.834Z" fill="white"/>
</svg>
