<svg width="15" height="12" viewBox="0 0 15 12" fill="none" xmlns="http://www.w3.org/2000/svg">
<path d="M3.83105 8.13708H6.0248C6.21874 8.13708 6.40474 8.06004 6.54188 7.92291C6.67901 7.78577 6.75605 7.59977 6.75605 7.40583C6.75605 7.2119 6.67901 7.0259 6.54188 6.88876C6.40474 6.75163 6.21874 6.67458 6.0248 6.67458H3.83105C3.63712 6.67458 3.45112 6.75163 3.31398 6.88876C3.17685 7.0259 3.0998 7.2119 3.0998 7.40583C3.0998 7.59977 3.17685 7.78577 3.31398 7.92291C3.45112 8.06004 3.63712 8.13708 3.83105 8.13708ZM12.6061 0.824585H2.36855C1.78674 0.824585 1.22875 1.05571 0.817339 1.46712C0.405931 1.87853 0.174805 2.43652 0.174805 3.01833V9.59958C0.174805 10.1814 0.405931 10.7394 0.817339 11.1508C1.22875 11.5622 1.78674 11.7933 2.36855 11.7933H12.6061C13.1879 11.7933 13.7459 11.5622 14.1573 11.1508C14.5687 10.7394 14.7998 10.1814 14.7998 9.59958V3.01833C14.7998 2.43652 14.5687 1.87853 14.1573 1.46712C13.7459 1.05571 13.1879 0.824585 12.6061 0.824585ZM13.3373 9.59958C13.3373 9.79352 13.2603 9.97952 13.1231 10.1167C12.986 10.2538 12.8 10.3308 12.6061 10.3308H2.36855C2.17462 10.3308 1.98862 10.2538 1.85148 10.1167C1.71435 9.97952 1.6373 9.79352 1.6373 9.59958V5.21208H13.3373V9.59958ZM13.3373 3.74958H1.6373V3.01833C1.6373 2.8244 1.71435 2.6384 1.85148 2.50126C1.98862 2.36413 2.17462 2.28708 2.36855 2.28708H12.6061C12.8 2.28708 12.986 2.36413 13.1231 2.50126C13.2603 2.6384 13.3373 2.8244 13.3373 3.01833V3.74958Z" fill="#A4B4CB"/>
</svg>
