<svg width="70" height="15" viewBox="0 0 70 15" fill="none" xmlns="http://www.w3.org/2000/svg">
<path d="M10.7688 14.0743L9.82737 11.3656H4.10187L3.16043 14.0743H0.758789L5.63891 0.625488H8.29033L13.1512 14.0743H10.7688ZM4.83197 9.2906H9.09727L6.96462 3.21926L4.83197 9.2906ZM24.9531 4.21834C26.0418 4.21834 26.9192 4.57058 27.5853 5.27506C28.2513 5.97954 28.5844 6.92739 28.5844 8.1186V14.0743H26.5093V8.25309C26.5093 7.58704 26.3428 7.07469 26.0098 6.71604C25.6768 6.34459 25.2221 6.15886 24.6459 6.15886C24.0055 6.15886 23.4931 6.37021 23.1089 6.7929C22.7374 7.21559 22.5517 7.84961 22.5517 8.69499V14.0743H20.4767V8.25309C20.4767 7.58704 20.3166 7.07469 19.9964 6.71604C19.6889 6.34459 19.247 6.15886 18.6707 6.15886C18.043 6.15886 17.5307 6.37661 17.1336 6.81211C16.7365 7.2348 16.538 7.86242 16.538 8.69499V14.0743H14.463V4.46811H16.538V5.6209C17.1528 4.68586 18.0686 4.21834 19.2855 4.21834C20.5151 4.21834 21.4245 4.72429 22.0137 5.73618C22.6542 4.72429 23.634 4.21834 24.9531 4.21834ZM35.3397 14.3241C33.9307 14.3241 32.7331 13.8374 31.7468 12.8642C30.7606 11.8908 30.2674 10.6932 30.2674 9.27138C30.2674 7.84961 30.7606 6.652 31.7468 5.67853C32.7331 4.70507 33.9307 4.21834 35.3397 4.21834C36.7615 4.21834 37.9591 4.70507 38.9325 5.67853C39.9188 6.652 40.4119 7.84961 40.4119 9.27138C40.4119 10.6932 39.9188 11.8908 38.9325 12.8642C37.9591 13.8374 36.7615 14.3241 35.3397 14.3241ZM33.207 11.4425C33.7834 12.0189 34.4943 12.3071 35.3397 12.3071C36.1851 12.3071 36.8959 12.0189 37.4723 11.4425C38.0487 10.8661 38.3369 10.1424 38.3369 9.27138C38.3369 8.40039 38.0487 7.6767 37.4723 7.1003C36.8959 6.52391 36.1851 6.23572 35.3397 6.23572C34.4943 6.23572 33.7834 6.52391 33.207 7.1003C32.6306 7.6767 32.3424 8.40039 32.3424 9.27138C32.3424 10.1424 32.6306 10.8661 33.207 11.4425ZM48.7632 4.46811H50.8383V14.0743H48.7632V12.845C48.1356 13.831 47.1429 14.3241 45.7852 14.3241C44.6837 14.3241 43.7935 13.9719 43.1146 13.2674C42.4357 12.5632 42.0963 11.5962 42.0963 10.3665V4.46811H44.1713V10.1552C44.1713 10.8725 44.3634 11.4233 44.7477 11.8075C45.132 12.1918 45.6571 12.3839 46.3232 12.3839C47.0533 12.3839 47.6425 12.1598 48.0908 11.7115C48.5391 11.2503 48.7632 10.5523 48.7632 9.61722V4.46811ZM58.3173 4.21834C59.4188 4.21834 60.309 4.57058 60.9879 5.27506C61.6668 5.97954 62.0062 6.9466 62.0062 8.17624V14.0743H59.9312V8.38758C59.9312 7.67029 59.739 7.11952 59.3548 6.73526C58.9705 6.35099 58.4454 6.15886 57.7793 6.15886C57.0492 6.15886 56.46 6.38942 56.0117 6.85053C55.5634 7.29884 55.3392 7.99051 55.3392 8.92555V14.0743H53.2642V4.46811H55.3392V5.69775C55.9669 4.71147 56.9595 4.21834 58.3173 4.21834ZM69.6011 6.46627H67.2187V11.0774C67.2187 11.4745 67.3084 11.7627 67.4877 11.942C67.667 12.1085 67.9296 12.2046 68.2754 12.2302C68.6341 12.243 69.076 12.2366 69.6011 12.211V14.0743C68.0128 14.2665 66.8729 14.132 66.1812 13.6709C65.4895 13.1969 65.1437 12.3327 65.1437 11.0774V6.46627H63.3761V4.46811H65.1437V2.3931L67.2187 1.77828V4.46811H69.6011V6.46627Z" fill="#E3E3E1"/>
</svg>
