<svg width="17" height="15" viewBox="0 0 17 15" fill="none" xmlns="http://www.w3.org/2000/svg">
<path d="M7.74966 3.17795L8.14453 2.74651V5.3717C8.14453 5.56563 8.22157 5.75163 8.35871 5.88877C8.49585 6.0259 8.68184 6.10294 8.87578 6.10294C9.06972 6.10294 9.25572 6.0259 9.39285 5.88877C9.52999 5.75163 9.60703 5.56563 9.60703 5.3717V2.74651L10.0019 3.1487C10.0683 3.22366 10.1494 3.2842 10.2401 3.32656C10.3308 3.36891 10.4293 3.39218 10.5294 3.39493C10.6295 3.39767 10.7291 3.37983 10.822 3.3425C10.9149 3.30518 10.9991 3.24917 11.0695 3.17795C11.1381 3.10997 11.1925 3.02909 11.2296 2.93998C11.2667 2.85087 11.2858 2.75529 11.2858 2.65876C11.2858 2.56222 11.2667 2.46665 11.2296 2.37754C11.1925 2.28843 11.1381 2.20755 11.0695 2.13957L9.39497 0.465008C9.32542 0.398434 9.24342 0.346249 9.15366 0.311445C8.97563 0.238307 8.77594 0.238307 8.59791 0.311445C8.50814 0.346249 8.42614 0.398434 8.35659 0.465008L6.68203 2.11032C6.54046 2.2519 6.46092 2.44391 6.46092 2.64413C6.46092 2.84435 6.54046 3.03637 6.68203 3.17795C6.82361 3.31952 7.01562 3.39906 7.21584 3.39906C7.41606 3.39906 7.60808 3.31952 7.74966 3.17795ZM8.87578 7.56544C8.4419 7.56544 8.01776 7.69411 7.657 7.93516C7.29624 8.17621 7.01506 8.51883 6.84902 8.91968C6.68298 9.32054 6.63954 9.76163 6.72418 10.1872C6.80883 10.6127 7.01776 11.0036 7.32457 11.3104C7.63137 11.6172 8.02226 11.8261 8.4478 11.9108C8.87335 11.9954 9.31444 11.952 9.71529 11.786C10.1161 11.6199 10.4588 11.3387 10.6998 10.978C10.9409 10.6172 11.0695 10.1931 11.0695 9.75919C11.0695 9.17738 10.8384 8.61939 10.427 8.20798C10.0156 7.79657 9.4576 7.56544 8.87578 7.56544ZM8.87578 10.4904C8.73115 10.4904 8.58977 10.4476 8.46952 10.3672C8.34927 10.2869 8.25554 10.1727 8.20019 10.039C8.14485 9.90541 8.13037 9.75838 8.15858 9.61653C8.1868 9.47469 8.25644 9.34439 8.35871 9.24212C8.46098 9.13986 8.59127 9.07021 8.73312 9.042C8.87497 9.01378 9.022 9.02826 9.15562 9.08361C9.28924 9.13895 9.40344 9.23268 9.48379 9.35293C9.56414 9.47319 9.60703 9.61457 9.60703 9.75919C9.60703 9.95313 9.52999 10.1391 9.39285 10.2763C9.25572 10.4134 9.06972 10.4904 8.87578 10.4904ZM3.75703 9.75919C3.75703 9.90382 3.79992 10.0452 3.88027 10.1655C3.96062 10.2857 4.07483 10.3794 4.20844 10.4348C4.34206 10.4901 4.48909 10.5046 4.63094 10.4764C4.77279 10.4482 4.90309 10.3785 5.00535 10.2763C5.10762 10.174 5.17727 10.0437 5.20548 9.90185C5.2337 9.76 5.21921 9.61298 5.16387 9.47936C5.10852 9.34574 5.0148 9.23153 4.89454 9.15118C4.77429 9.07083 4.63291 9.02794 4.48828 9.02794C4.29434 9.02794 4.10835 9.10499 3.97121 9.24212C3.83407 9.37926 3.75703 9.56526 3.75703 9.75919ZM13.9945 9.75919C13.9945 9.61457 13.9516 9.47319 13.8713 9.35293C13.7909 9.23268 13.6767 9.13895 13.5431 9.08361C13.4095 9.02826 13.2625 9.01378 13.1206 9.042C12.9788 9.07021 12.8485 9.13986 12.7462 9.24212C12.6439 9.34439 12.5743 9.47469 12.5461 9.61653C12.5179 9.75838 12.5323 9.90541 12.5877 10.039C12.643 10.1727 12.7368 10.2869 12.857 10.3672C12.9773 10.4476 13.1187 10.4904 13.2633 10.4904C13.4572 10.4904 13.6432 10.4134 13.7804 10.2763C13.9175 10.1391 13.9945 9.95313 13.9945 9.75919ZM14.7258 4.64045H11.8008C11.6068 4.64045 11.4208 4.71749 11.2837 4.85462C11.1466 4.99176 11.0695 5.17776 11.0695 5.3717C11.0695 5.56563 11.1466 5.75163 11.2837 5.88877C11.4208 6.0259 11.6068 6.10294 11.8008 6.10294H14.7258C14.9197 6.10294 15.1057 6.17999 15.2429 6.31712C15.38 6.45426 15.457 6.64025 15.457 6.83419V12.6842C15.457 12.8781 15.38 13.0641 15.2429 13.2013C15.1057 13.3384 14.9197 13.4154 14.7258 13.4154H3.02578C2.83184 13.4154 2.64585 13.3384 2.50871 13.2013C2.37157 13.0641 2.29453 12.8781 2.29453 12.6842V6.83419C2.29453 6.64025 2.37157 6.45426 2.50871 6.31712C2.64585 6.17999 2.83184 6.10294 3.02578 6.10294H5.95078C6.14472 6.10294 6.33072 6.0259 6.46785 5.88877C6.60499 5.75163 6.68203 5.56563 6.68203 5.3717C6.68203 5.17776 6.60499 4.99176 6.46785 4.85462C6.33072 4.71749 6.14472 4.64045 5.95078 4.64045H3.02578C2.44396 4.64045 1.88597 4.87157 1.47457 5.28298C1.06316 5.69439 0.832031 6.25238 0.832031 6.83419V12.6842C0.832031 13.266 1.06316 13.824 1.47457 14.2354C1.88597 14.6468 2.44396 14.8779 3.02578 14.8779H14.7258C15.3076 14.8779 15.8656 14.6468 16.277 14.2354C16.6884 13.824 16.9195 13.266 16.9195 12.6842V6.83419C16.9195 6.25238 16.6884 5.69439 16.277 5.28298C15.8656 4.87157 15.3076 4.64045 14.7258 4.64045Z" fill="#83DEA4"/>
</svg>
