<svg width="135" height="11" viewBox="0 0 135 11" fill="none" xmlns="http://www.w3.org/2000/svg">
<path d="M2.34448 7.10565C1.90002 7.10565 1.51576 6.94745 1.1917 6.63171C0.875324 6.30701 0.717773 5.92276 0.717773 5.47893C0.717773 5.04344 0.875324 4.67199 1.1917 4.36458C1.50744 4.05717 1.89169 3.90347 2.34448 3.90347C2.77998 3.90347 3.15143 4.05717 3.45884 4.36458C3.76625 4.67199 3.91996 5.04344 3.91996 5.47893C3.91996 5.93108 3.76625 6.31534 3.45884 6.63171C3.15143 6.94745 2.77998 7.10565 2.34448 7.10565ZM8.36266 7.10565C7.9182 7.10565 7.53394 6.94745 7.20988 6.63171C6.8935 6.30701 6.73596 5.92276 6.73596 5.47893C6.73596 5.04344 6.8935 4.67199 7.20988 4.36458C7.52561 4.05717 7.90988 3.90347 8.36266 3.90347C8.79816 3.90347 9.16962 4.05717 9.47703 4.36458C9.78444 4.67199 9.93814 5.04344 9.93814 5.47893C9.93814 5.93108 9.78444 6.31534 9.47703 6.63171C9.16962 6.94745 8.79816 7.10565 8.36266 7.10565ZM14.3808 7.10565C13.9364 7.10565 13.5521 6.94745 13.2281 6.63171C12.9117 6.30701 12.7541 5.92276 12.7541 5.47893C12.7541 5.04344 12.9117 4.67199 13.2281 4.36458C13.5438 4.05717 13.9281 3.90347 14.3808 3.90347C14.8163 3.90347 15.1878 4.05717 15.4952 4.36458C15.8026 4.67199 15.9563 5.04344 15.9563 5.47893C15.9563 5.93108 15.8026 6.31534 15.4952 6.63171C15.1878 6.94745 14.8163 7.10565 14.3808 7.10565ZM20.3984 7.10565C19.9546 7.10565 19.5703 6.94745 19.2456 6.63171C18.9299 6.30701 18.7717 5.92276 18.7717 5.47893C18.7717 5.04344 18.9299 4.67199 19.2456 4.36458C19.562 4.05717 19.9462 3.90347 20.3984 3.90347C20.8339 3.90347 21.2053 4.05717 21.5128 4.36458C21.8202 4.67199 21.9739 5.04344 21.9739 5.47893C21.9739 5.93108 21.8202 6.31534 21.5128 6.63171C21.2053 6.94745 20.8339 7.10565 20.3984 7.10565ZM36.1512 7.10565C35.7074 7.10565 35.3231 6.94745 34.9984 6.63171C34.6827 6.30701 34.5245 5.92276 34.5245 5.47893C34.5245 5.04344 34.6827 4.67199 34.9984 4.36458C35.3148 4.05717 35.6991 3.90347 36.1512 3.90347C36.5867 3.90347 36.9582 4.05717 37.2656 4.36458C37.573 4.67199 37.7267 5.04344 37.7267 5.47893C37.7267 5.93108 37.573 6.31534 37.2656 6.63171C36.9582 6.94745 36.5867 7.10565 36.1512 7.10565ZM42.1694 7.10565C41.7256 7.10565 41.3413 6.94745 41.0166 6.63171C40.7009 6.30701 40.5427 5.92276 40.5427 5.47893C40.5427 5.04344 40.7009 4.67199 41.0166 4.36458C41.333 4.05717 41.7173 3.90347 42.1694 3.90347C42.6049 3.90347 42.9764 4.05717 43.2838 4.36458C43.5912 4.67199 43.7449 5.04344 43.7449 5.47893C43.7449 5.93108 43.5912 6.31534 43.2838 6.63171C42.9764 6.94745 42.6049 7.10565 42.1694 7.10565ZM48.1876 7.10565C47.7438 7.10565 47.3595 6.94745 47.0348 6.63171C46.7191 6.30701 46.5609 5.92276 46.5609 5.47893C46.5609 5.04344 46.7191 4.67199 47.0348 4.36458C47.3505 4.05717 47.7348 3.90347 48.1876 3.90347C48.6231 3.90347 48.9945 4.05717 49.3019 4.36458C49.6093 4.67199 49.7631 5.04344 49.7631 5.47893C49.7631 5.93108 49.6093 6.31534 49.3019 6.63171C48.9945 6.94745 48.6231 7.10565 48.1876 7.10565ZM54.2058 7.10565C53.7619 7.10565 53.3777 6.94745 53.053 6.63171C52.7372 6.30701 52.5791 5.92276 52.5791 5.47893C52.5791 5.04344 52.7372 4.67199 53.053 4.36458C53.3687 4.05717 53.753 3.90347 54.2058 3.90347C54.6413 3.90347 55.0127 4.05717 55.3201 4.36458C55.6275 4.67199 55.7812 5.04344 55.7812 5.47893C55.7812 5.93108 55.6275 6.31534 55.3201 6.63171C55.0127 6.94745 54.6413 7.10565 54.2058 7.10565ZM69.9586 7.10565C69.5141 7.10565 69.1299 6.94745 68.8058 6.63171C68.4894 6.30701 68.3319 5.92276 68.3319 5.47893C68.3319 5.04344 68.4894 4.67199 68.8058 4.36458C69.1215 4.05717 69.5058 3.90347 69.9586 3.90347C70.3941 3.90347 70.7655 4.05717 71.073 4.36458C71.3804 4.67199 71.5341 5.04344 71.5341 5.47893C71.5341 5.93108 71.3804 6.31534 71.073 6.63171C70.7655 6.94745 70.3941 7.10565 69.9586 7.10565ZM75.9768 7.10565C75.5323 7.10565 75.148 6.94745 74.824 6.63171C74.5076 6.30701 74.3501 5.92276 74.3501 5.47893C74.3501 5.04344 74.5076 4.67199 74.824 4.36458C75.1397 4.05717 75.524 3.90347 75.9768 3.90347C76.4123 3.90347 76.7837 4.05717 77.0911 4.36458C77.3985 4.67199 77.5522 5.04344 77.5522 5.47893C77.5522 5.93108 77.3985 6.31534 77.0911 6.63171C76.7837 6.94745 76.4123 7.10565 75.9768 7.10565ZM81.995 7.10565C81.5505 7.10565 81.1662 6.94745 80.8422 6.63171C80.5258 6.30701 80.3682 5.92276 80.3682 5.47893C80.3682 5.04344 80.5258 4.67199 80.8422 4.36458C81.1579 4.05717 81.5422 3.90347 81.995 3.90347C82.4305 3.90347 82.8019 4.05717 83.1093 4.36458C83.4167 4.67199 83.5704 5.04344 83.5704 5.47893C83.5704 5.93108 83.4167 6.31534 83.1093 6.63171C82.8019 6.94745 82.4305 7.10565 81.995 7.10565ZM88.0125 7.10565C87.5687 7.10565 87.1844 6.94745 86.8597 6.63171C86.544 6.30701 86.3858 5.92276 86.3858 5.47893C86.3858 5.04344 86.544 4.67199 86.8597 4.36458C87.1761 4.05717 87.5603 3.90347 88.0125 3.90347C88.448 3.90347 88.8195 4.05717 89.1269 4.36458C89.4343 4.67199 89.588 5.04344 89.588 5.47893C89.588 5.93108 89.4343 6.31534 89.1269 6.63171C88.8195 6.94745 88.448 7.10565 88.0125 7.10565ZM105.085 4.40301C105.939 4.40301 106.66 4.65917 107.249 5.17152C107.839 5.6749 108.133 6.37554 108.133 7.27215C108.133 8.16876 107.83 8.87325 107.224 9.3856C106.618 9.89795 105.875 10.1541 104.995 10.1541C104.287 10.1541 103.659 9.99146 103.112 9.6674C102.566 9.33437 102.177 8.85595 101.946 8.2328L103.215 7.50272C103.454 8.31351 104.047 8.71954 104.995 8.71954C105.499 8.71954 105.901 8.59145 106.199 8.33528C106.506 8.07014 106.66 7.71597 106.66 7.27215C106.66 6.82769 106.511 6.47802 106.212 6.22184C105.913 5.96567 105.516 5.83758 105.021 5.83758H102.408L102.753 1.0215H107.749V2.40485H104.111L103.957 4.40301H105.085ZM117.419 7.00318V8.3737H116.394V9.98761H114.908V8.3737H110.502V7.00318L113.589 1.0215H115.19L112.103 7.00318H114.908V4.67198H116.394V7.00318H117.419ZM123.58 4.6848C124.23 4.8385 124.755 5.14142 125.156 5.59421C125.566 6.03803 125.771 6.59713 125.771 7.27215C125.771 8.16876 125.468 8.87325 124.861 9.3856C124.255 9.89795 123.513 10.1541 122.633 10.1541C121.95 10.1541 121.335 9.99593 120.788 9.6802C120.25 9.36382 119.862 8.90271 119.623 8.29685L120.878 7.56676C121.143 8.33529 121.728 8.71954 122.633 8.71954C123.145 8.71954 123.551 8.59145 123.849 8.33528C124.148 8.07014 124.298 7.71597 124.298 7.27215C124.298 6.82769 124.148 6.47802 123.849 6.22184C123.551 5.96567 123.145 5.83758 122.633 5.83758H122.3L121.71 4.95377L123.644 2.40485H119.892V1.0215H125.399V2.27675L123.58 4.6848ZM128.157 9.98761V8.83482L131.282 5.64545C132.042 4.88526 132.422 4.22752 132.422 3.6729C132.422 3.2374 132.29 2.8999 132.025 2.66102C131.769 2.41317 131.44 2.28955 131.039 2.28955C130.287 2.28955 129.732 2.66102 129.374 3.40393L128.131 2.67382C128.413 2.07565 128.81 1.62351 129.323 1.3161C129.835 1.00869 130.402 0.85498 131.026 0.85498C131.811 0.85498 132.486 1.10219 133.05 1.59789C133.614 2.09295 133.895 2.76733 133.895 3.62167C133.895 4.53493 133.387 5.5084 132.371 6.54206L130.347 8.56584H134.062V9.98761H128.157Z" fill="white"/>
</svg>
