<svg width="15" height="16" viewBox="0 0 15 16" fill="none" xmlns="http://www.w3.org/2000/svg">
<path d="M6.02402 4.85015H10.4115C10.6055 4.85015 10.7915 4.7731 10.9286 4.63597C11.0657 4.49883 11.1428 4.31284 11.1428 4.1189C11.1428 3.92496 11.0657 3.73896 10.9286 3.60182C10.7915 3.46469 10.6055 3.38765 10.4115 3.38765H6.02402C5.83008 3.38765 5.64409 3.46469 5.50695 3.60182C5.36982 3.73896 5.29277 3.92496 5.29277 4.1189C5.29277 4.31284 5.36982 4.49883 5.50695 4.63597C5.64409 4.7731 5.83008 4.85015 6.02402 4.85015ZM4.56152 7.77515H10.4115C10.6055 7.77515 10.7915 7.6981 10.9286 7.56097C11.0657 7.42383 11.1428 7.23784 11.1428 7.0439C11.1428 6.84996 11.0657 6.66396 10.9286 6.52682C10.7915 6.38969 10.6055 6.31265 10.4115 6.31265H4.56152C4.36758 6.31265 4.18159 6.38969 4.04445 6.52682C3.90732 6.66396 3.83027 6.84996 3.83027 7.0439C3.83027 7.23784 3.90732 7.42383 4.04445 7.56097C4.18159 7.6981 4.36758 7.77515 4.56152 7.77515ZM4.56152 10.7001H10.4115C10.6055 10.7001 10.7915 10.6231 10.9286 10.486C11.0657 10.3488 11.1428 10.1628 11.1428 9.9689C11.1428 9.77496 11.0657 9.58896 10.9286 9.45183C10.7915 9.31469 10.6055 9.23765 10.4115 9.23765H4.56152C4.36758 9.23765 4.18159 9.31469 4.04445 9.45183C3.90732 9.58896 3.83027 9.77496 3.83027 9.9689C3.83027 10.1628 3.90732 10.3488 4.04445 10.486C4.18159 10.6231 4.36758 10.7001 4.56152 10.7001ZM13.3365 0.462646H1.63652C1.44258 0.462646 1.25659 0.539689 1.11945 0.676825C0.982316 0.813961 0.905273 0.999957 0.905273 1.1939V14.3564C0.905273 14.4922 0.94309 14.6253 1.01449 14.7408C1.08588 14.8564 1.18803 14.9497 1.3095 15.0104C1.43096 15.0712 1.56694 15.0969 1.70219 15.0847C1.83745 15.0725 1.96663 15.0229 2.07527 14.9414L3.58896 13.808L5.09534 14.9414C5.22191 15.0363 5.37587 15.0876 5.53409 15.0876C5.69231 15.0876 5.84626 15.0363 5.97284 14.9414L7.48652 13.808L9.00021 14.9414C9.12679 15.0363 9.28074 15.0876 9.43896 15.0876C9.59718 15.0876 9.75113 15.0363 9.87771 14.9414L11.3841 13.808L12.8978 14.9414C13.0069 15.0228 13.1367 15.072 13.2723 15.0837C13.408 15.0953 13.5442 15.0688 13.6656 15.0072C13.7862 14.9464 13.8876 14.8535 13.9586 14.7386C14.0296 14.6237 14.0674 14.4914 14.0678 14.3564V1.1939C14.0678 0.999957 13.9907 0.813961 13.8536 0.676825C13.7165 0.539689 13.5305 0.462646 13.3365 0.462646ZM12.6053 12.8939L11.8228 12.3089C11.6963 12.214 11.5423 12.1626 11.3841 12.1626C11.2259 12.1626 11.0719 12.214 10.9453 12.3089L9.43896 13.4423L7.92527 12.3089C7.7987 12.214 7.64474 12.1626 7.48652 12.1626C7.3283 12.1626 7.17435 12.214 7.04777 12.3089L5.53409 13.4423L4.02771 12.3089C3.90113 12.214 3.74718 12.1626 3.58896 12.1626C3.43074 12.1626 3.27679 12.214 3.15021 12.3089L2.36777 12.8939V1.92515H12.6053V12.8939Z" fill="#A4B4CB"/>
</svg>
