<svg width="15" height="15" viewBox="0 0 15 15" fill="none" xmlns="http://www.w3.org/2000/svg">
<path d="M7.48731 3.90582C7.29337 3.90582 7.10737 3.98287 6.97024 4.12C6.8331 4.25714 6.75606 4.44313 6.75606 4.63707V7.56207C6.75606 7.75601 6.8331 7.94201 6.97024 8.07914C7.10737 8.21628 7.29337 8.29332 7.48731 8.29332C7.68125 8.29332 7.86724 8.21628 8.00438 8.07914C8.14152 7.94201 8.21856 7.75601 8.21856 7.56207V4.63707C8.21856 4.44313 8.14152 4.25714 8.00438 4.12C7.86724 3.98287 7.68125 3.90582 7.48731 3.90582ZM8.16006 10.2092C8.14405 10.1626 8.12192 10.1183 8.09425 10.0776L8.0065 9.96789C7.90366 9.86642 7.77308 9.79768 7.63123 9.77035C7.48937 9.74302 7.3426 9.75832 7.20943 9.81432C7.12082 9.85136 7.0392 9.90329 6.96812 9.96789C6.90035 10.0362 6.84673 10.1172 6.81034 10.2063C6.77395 10.2954 6.7555 10.3908 6.75606 10.4871C6.75721 10.5826 6.77709 10.677 6.81456 10.7649C6.8474 10.8557 6.8998 10.9381 6.96804 11.0063C7.03628 11.0746 7.11869 11.127 7.20943 11.1598C7.29696 11.1985 7.39161 11.2185 7.48731 11.2185C7.58301 11.2185 7.67765 11.1985 7.76518 11.1598C7.85593 11.127 7.93834 11.0746 8.00658 11.0063C8.07482 10.9381 8.12722 10.8557 8.16006 10.7649C8.19753 10.677 8.2174 10.5826 8.21856 10.4871C8.22215 10.4384 8.22215 10.3895 8.21856 10.3408C8.20597 10.2942 8.18623 10.2498 8.16006 10.2092ZM7.48731 0.249573C6.04103 0.249573 4.62723 0.678443 3.4247 1.48195C2.22217 2.28546 1.2849 3.42752 0.731439 4.7637C0.177973 6.09988 0.0331612 7.57018 0.315316 8.98867C0.59747 10.4072 1.29392 11.7101 2.31659 12.7328C3.33926 13.7555 4.64222 14.4519 6.06071 14.7341C7.4792 15.0162 8.9495 14.8714 10.2857 14.3179C11.6219 13.7645 12.7639 12.8272 13.5674 11.6247C14.3709 10.4221 14.7998 9.00835 14.7998 7.56207C14.7998 6.60178 14.6107 5.65089 14.2432 4.7637C13.8757 3.87651 13.3371 3.07038 12.658 2.39135C11.979 1.71233 11.1729 1.17369 10.2857 0.806204C9.39849 0.438716 8.4476 0.249573 7.48731 0.249573ZM7.48731 13.4121C6.33029 13.4121 5.19925 13.069 4.23722 12.4262C3.27519 11.7834 2.52539 10.8697 2.08261 9.80077C1.63984 8.73182 1.52399 7.55558 1.74971 6.42079C1.97544 5.28601 2.5326 4.24364 3.35073 3.4255C4.16887 2.60736 5.21124 2.0502 6.34603 1.82448C7.48082 1.59876 8.65706 1.71461 9.72601 2.15738C10.795 2.60015 11.7086 3.34996 12.3514 4.31199C12.9942 5.27401 13.3373 6.40505 13.3373 7.56207C13.3373 9.11359 12.721 10.6016 11.6239 11.6986C10.5268 12.7957 9.03882 13.4121 7.48731 13.4121Z" fill="#A4B4CB"/>
</svg>
