<svg width="66" height="10" viewBox="0 0 66 10" fill="none" xmlns="http://www.w3.org/2000/svg">
<path d="M5.02098 9.80863C3.73882 9.80863 2.67634 9.38657 1.83288 8.54311C0.988789 7.69133 0.567383 6.64038 0.567383 5.39153C0.567383 4.14204 0.988789 3.09556 1.83288 2.25211C2.67634 1.40033 3.73882 0.974438 5.02098 0.974438C5.79142 0.974438 6.50102 1.15697 7.15043 1.52202C7.80752 1.88707 8.31859 2.38148 8.68364 3.00655L7.4668 3.7123C7.23945 3.29025 6.90706 2.95788 6.46901 2.71451C6.03863 2.46282 5.55638 2.33728 5.02098 2.33728C4.1122 2.33728 3.37378 2.62484 2.80635 3.20123C2.24661 3.77698 1.96674 4.50709 1.96674 5.39153C1.96674 6.27533 2.24661 7.00542 2.80635 7.58181C3.37378 8.15757 4.1122 8.44576 5.02098 8.44576C5.55638 8.44576 6.04311 8.32409 6.48117 8.08073C6.91923 7.82904 7.24778 7.49217 7.4668 7.07076L8.68364 7.76434C8.32628 8.38877 7.81969 8.88767 7.1626 9.26105C6.5132 9.62609 5.79975 9.80863 5.02098 9.80863ZM14.306 3.56628H15.6202V9.65043H14.306V8.77431C13.8116 9.46342 13.1014 9.80863 12.1766 9.80863C11.3414 9.80863 10.6274 9.49994 10.035 8.88383C9.4432 8.25877 9.14667 7.50049 9.14667 6.60836C9.14667 5.7079 9.4432 4.94898 10.035 4.33288C10.6274 3.71614 11.3414 3.40809 12.1766 3.40809C13.1014 3.40809 13.8116 3.74881 14.306 4.43023V3.56628ZM11.0084 8.00771C11.3735 8.37276 11.832 8.55529 12.3834 8.55529C12.9355 8.55529 13.3934 8.37276 13.7585 8.00771C14.1235 7.63434 14.306 7.1681 14.306 6.60836C14.306 6.04862 14.1235 5.58623 13.7585 5.22118C13.3934 4.84781 12.9355 4.66142 12.3834 4.66142C11.832 4.66142 11.3735 4.84781 11.0084 5.22118C10.6434 5.58623 10.4608 6.04862 10.4608 6.60836C10.4608 7.1681 10.6434 7.63434 11.0084 8.00771ZM18.205 4.58843C18.538 3.83399 19.1625 3.45678 20.0789 3.45678V4.88046C19.5762 4.8478 19.1381 4.96949 18.7648 5.24551C18.392 5.51322 18.205 5.95896 18.205 6.58402V9.65043H16.8908V3.56628H18.205V4.58843ZM25.3222 1.13263H26.6364V9.65043H25.3222V8.77431C24.8271 9.46342 24.1175 9.80863 23.1927 9.80863C22.357 9.80863 21.6435 9.49994 21.0511 8.88383C20.4587 8.25877 20.1628 7.50049 20.1628 6.60836C20.1628 5.7079 20.4587 4.94898 21.0511 4.33288C21.6435 3.71614 22.357 3.40809 23.1927 3.40809C24.1175 3.40809 24.8271 3.74881 25.3222 4.43023V1.13263ZM22.0246 8.00771C22.3896 8.37276 22.8482 8.55529 23.3996 8.55529C23.951 8.55529 24.4096 8.37276 24.7746 8.00771C25.1397 7.63434 25.3222 7.1681 25.3222 6.60836C25.3222 6.04862 25.1397 5.58623 24.7746 5.22118C24.4096 4.84781 23.951 4.66142 23.3996 4.66142C22.8482 4.66142 22.3896 4.84781 22.0246 5.22118C21.6595 5.58623 21.477 6.04862 21.477 6.60836C21.477 7.1681 21.6595 7.63434 22.0246 8.00771ZM35.8228 1.13263H37.2221V9.65043H35.8228V5.96345H32.1723V9.65043H30.7729V1.13263H32.1723V4.62493H35.8228V1.13263ZM41.4497 9.80863C40.5575 9.80863 39.7993 9.49994 39.1742 8.88383C38.5498 8.26709 38.2372 7.50881 38.2372 6.60836C38.2372 5.7079 38.5498 4.94898 39.1742 4.33288C39.7993 3.71614 40.5575 3.40809 41.4497 3.40809C42.3501 3.40809 43.109 3.71614 43.7251 4.33288C44.3502 4.94898 44.6621 5.7079 44.6621 6.60836C44.6621 7.50881 44.3502 8.26709 43.7251 8.88383C43.109 9.49994 42.3501 9.80863 41.4497 9.80863ZM40.099 7.98338C40.464 8.34843 40.9143 8.53096 41.4497 8.53096C41.9851 8.53096 42.4353 8.34843 42.8003 7.98338C43.1654 7.61833 43.3479 7.15977 43.3479 6.60836C43.3479 6.0563 43.1654 5.59839 42.8003 5.23334C42.4353 4.86829 41.9851 4.68578 41.4497 4.68578C40.9143 4.68578 40.464 4.86829 40.099 5.23334C39.7339 5.59839 39.5514 6.0563 39.5514 6.60836C39.5514 7.15977 39.7339 7.61833 40.099 7.98338ZM45.5894 9.65043V0.767578H46.9036V9.65043H45.5894ZM52.9865 1.13263H54.3007V9.65043H52.9865V8.77431C52.4921 9.46342 51.7818 9.80863 50.857 9.80863C50.0219 9.80863 49.3078 9.49994 48.7154 8.88383C48.1236 8.25877 47.8271 7.50049 47.8271 6.60836C47.8271 5.7079 48.1236 4.94898 48.7154 4.33288C49.3078 3.71614 50.0219 3.40809 50.857 3.40809C51.7818 3.40809 52.4921 3.74881 52.9865 4.43023V1.13263ZM49.6889 8.00771C50.0539 8.37276 50.5125 8.55529 51.0639 8.55529C51.616 8.55529 52.0739 8.37276 52.4389 8.00771C52.804 7.63434 52.9865 7.1681 52.9865 6.60836C52.9865 6.04862 52.804 5.58623 52.4389 5.22118C52.0739 4.84781 51.616 4.66142 51.0639 4.66142C50.5125 4.66142 50.0539 4.84781 49.6889 5.22118C49.3238 5.58623 49.1413 6.04862 49.1413 6.60836C49.1413 7.1681 49.3238 7.63434 49.6889 8.00771ZM56.6056 7.1681C56.7029 7.63049 56.9265 7.98721 57.2749 8.2389C57.6239 8.48227 58.0498 8.60396 58.5525 8.60396C59.2506 8.60396 59.7738 8.35226 60.1222 7.84952L61.2052 8.48227C60.6051 9.36607 59.7168 9.80863 58.5404 9.80863C57.5509 9.80863 56.7516 9.50826 56.1432 8.90817C55.5348 8.29975 55.2306 7.53315 55.2306 6.60836C55.2306 5.69958 55.5309 4.9413 56.131 4.33288C56.7318 3.71614 57.5022 3.40809 58.443 3.40809C59.3358 3.40809 60.0659 3.71999 60.6333 4.34506C61.2097 4.96948 61.4973 5.72777 61.4973 6.62053C61.4973 6.75823 61.4812 6.94074 61.4486 7.1681H56.6056ZM56.5934 6.09729H60.1709C60.0819 5.60223 59.875 5.22886 59.5503 4.97781C59.2339 4.72612 58.8612 4.60058 58.4308 4.60058C57.9441 4.60058 57.5387 4.73444 57.214 5.00215C56.89 5.26985 56.6831 5.63489 56.5934 6.09729ZM63.7068 4.58843C64.0391 3.83399 64.6636 3.45678 65.5807 3.45678V4.88046C65.0773 4.8478 64.6392 4.96949 64.2665 5.24551C63.8931 5.51322 63.7068 5.95896 63.7068 6.58402V9.65043H62.3926V3.56628H63.7068V4.58843Z" fill="white"/>
</svg>
