<svg width="15" height="15" viewBox="0 0 15 15" fill="none" xmlns="http://www.w3.org/2000/svg">
<path d="M12.6061 7.62463H7.4873V2.50588C7.4873 2.06713 7.1948 1.77463 6.75605 1.77463C3.0998 1.77463 0.174805 4.69963 0.174805 8.35588C0.174805 12.0121 3.0998 14.9371 6.75605 14.9371C10.4123 14.9371 13.3373 12.0121 13.3373 8.35588C13.3373 7.91713 13.0448 7.62463 12.6061 7.62463ZM7.4873 13.4015C4.70855 13.8403 2.07605 11.8659 1.71043 9.08713C1.27168 6.30838 3.24605 3.67588 6.0248 3.31026V8.35588C6.0248 8.79463 6.3173 9.08713 6.75605 9.08713H11.8017C11.5092 11.354 9.75418 13.109 7.4873 13.4015ZM9.68105 0.312134C9.2423 0.312134 8.9498 0.604634 8.9498 1.04338V5.43088C8.9498 5.86963 9.2423 6.16213 9.68105 6.16213H14.0686C14.5073 6.16213 14.7998 5.86963 14.7998 5.43088C14.7998 2.57901 12.5329 0.312134 9.68105 0.312134ZM10.4123 4.69963V1.84776C11.8748 2.14026 12.9717 3.23713 13.2642 4.69963H10.4123Z" fill="#A4B4CB"/>
</svg>
