<svg width="135" height="10" viewBox="0 0 135 10" fill="none" xmlns="http://www.w3.org/2000/svg">
<path d="M2.34448 6.40959C1.90002 6.40959 1.51576 6.25141 1.1917 5.93567C0.875324 5.61097 0.717773 5.2267 0.717773 4.78287C0.717773 4.34738 0.875324 3.97593 1.1917 3.66852C1.50744 3.36111 1.89169 3.2074 2.34448 3.2074C2.77998 3.2074 3.15143 3.36111 3.45884 3.66852C3.76625 3.97593 3.91996 4.34738 3.91996 4.78287C3.91996 5.23566 3.76625 5.61994 3.45884 5.93567C3.15143 6.25141 2.77998 6.40959 2.34448 6.40959ZM8.36266 6.40959C7.9182 6.40959 7.53394 6.25141 7.20988 5.93567C6.8935 5.61097 6.73596 5.2267 6.73596 4.78287C6.73596 4.34738 6.8935 3.97593 7.20988 3.66852C7.52561 3.36111 7.90988 3.2074 8.36266 3.2074C8.79816 3.2074 9.16962 3.36111 9.47703 3.66852C9.78444 3.97593 9.93814 4.34738 9.93814 4.78287C9.93814 5.23566 9.78444 5.61994 9.47703 5.93567C9.16962 6.25141 8.79816 6.40959 8.36266 6.40959ZM14.3809 6.40959C13.9364 6.40959 13.5521 6.25141 13.2281 5.93567C12.9117 5.61097 12.7541 5.2267 12.7541 4.78287C12.7541 4.34738 12.9117 3.97593 13.2281 3.66852C13.5438 3.36111 13.9281 3.2074 14.3809 3.2074C14.8163 3.2074 15.1878 3.36111 15.4952 3.66852C15.8026 3.97593 15.9563 4.34738 15.9563 4.78287C15.9563 5.23566 15.8026 5.61994 15.4952 5.93567C15.1878 6.25141 14.8163 6.40959 14.3809 6.40959ZM20.3984 6.40959C19.9546 6.40959 19.5703 6.25141 19.2456 5.93567C18.9299 5.61097 18.7717 5.2267 18.7717 4.78287C18.7717 4.34738 18.9299 3.97593 19.2456 3.66852C19.562 3.36111 19.9462 3.2074 20.3984 3.2074C20.8339 3.2074 21.2053 3.36111 21.5128 3.66852C21.8202 3.97593 21.9739 4.34738 21.9739 4.78287C21.9739 5.23566 21.8202 5.61994 21.5128 5.93567C21.2053 6.25141 20.8339 6.40959 20.3984 6.40959ZM36.1512 6.40959C35.7074 6.40959 35.3231 6.25141 34.9984 5.93567C34.6827 5.61097 34.5245 5.2267 34.5245 4.78287C34.5245 4.34738 34.6827 3.97593 34.9984 3.66852C35.3148 3.36111 35.6991 3.2074 36.1512 3.2074C36.5867 3.2074 36.9582 3.36111 37.2656 3.66852C37.573 3.97593 37.7267 4.34738 37.7267 4.78287C37.7267 5.23566 37.573 5.61994 37.2656 5.93567C36.9582 6.25141 36.5867 6.40959 36.1512 6.40959ZM42.1694 6.40959C41.7256 6.40959 41.3413 6.25141 41.0166 5.93567C40.7009 5.61097 40.5427 5.2267 40.5427 4.78287C40.5427 4.34738 40.7009 3.97593 41.0166 3.66852C41.333 3.36111 41.7173 3.2074 42.1694 3.2074C42.6049 3.2074 42.9764 3.36111 43.2838 3.66852C43.5912 3.97593 43.7449 4.34738 43.7449 4.78287C43.7449 5.23566 43.5912 5.61994 43.2838 5.93567C42.9764 6.25141 42.6049 6.40959 42.1694 6.40959ZM48.1876 6.40959C47.7438 6.40959 47.3595 6.25141 47.0348 5.93567C46.7191 5.61097 46.5609 5.2267 46.5609 4.78287C46.5609 4.34738 46.7191 3.97593 47.0348 3.66852C47.3505 3.36111 47.7348 3.2074 48.1876 3.2074C48.6231 3.2074 48.9945 3.36111 49.3019 3.66852C49.6094 3.97593 49.7631 4.34738 49.7631 4.78287C49.7631 5.23566 49.6094 5.61994 49.3019 5.93567C48.9945 6.25141 48.6231 6.40959 48.1876 6.40959ZM54.2058 6.40959C53.762 6.40959 53.3777 6.25141 53.053 5.93567C52.7373 5.61097 52.5791 5.2267 52.5791 4.78287C52.5791 4.34738 52.7373 3.97593 53.053 3.66852C53.3687 3.36111 53.753 3.2074 54.2058 3.2074C54.6413 3.2074 55.0127 3.36111 55.3201 3.66852C55.6275 3.97593 55.7812 4.34738 55.7812 4.78287C55.7812 5.23566 55.6275 5.61994 55.3201 5.93567C55.0127 6.25141 54.6413 6.40959 54.2058 6.40959ZM69.9586 6.40959C69.5141 6.40959 69.1299 6.25141 68.8058 5.93567C68.4894 5.61097 68.3319 5.2267 68.3319 4.78287C68.3319 4.34738 68.4894 3.97593 68.8058 3.66852C69.1215 3.36111 69.5058 3.2074 69.9586 3.2074C70.3941 3.2074 70.7655 3.36111 71.073 3.66852C71.3804 3.97593 71.5341 4.34738 71.5341 4.78287C71.5341 5.23566 71.3804 5.61994 71.073 5.93567C70.7655 6.25141 70.3941 6.40959 69.9586 6.40959ZM75.9768 6.40959C75.5323 6.40959 75.1481 6.25141 74.824 5.93567C74.5076 5.61097 74.3501 5.2267 74.3501 4.78287C74.3501 4.34738 74.5076 3.97593 74.824 3.66852C75.1397 3.36111 75.524 3.2074 75.9768 3.2074C76.4123 3.2074 76.7837 3.36111 77.0911 3.66852C77.3985 3.97593 77.5522 4.34738 77.5522 4.78287C77.5522 5.23566 77.3985 5.61994 77.0911 5.93567C76.7837 6.25141 76.4123 6.40959 75.9768 6.40959ZM81.995 6.40959C81.5505 6.40959 81.1662 6.25141 80.8422 5.93567C80.5258 5.61097 80.3682 5.2267 80.3682 4.78287C80.3682 4.34738 80.5258 3.97593 80.8422 3.66852C81.1579 3.36111 81.5422 3.2074 81.995 3.2074C82.4305 3.2074 82.8019 3.36111 83.1093 3.66852C83.4167 3.97593 83.5704 4.34738 83.5704 4.78287C83.5704 5.23566 83.4167 5.61994 83.1093 5.93567C82.8019 6.25141 82.4305 6.40959 81.995 6.40959ZM88.0125 6.40959C87.5687 6.40959 87.1844 6.25141 86.8597 5.93567C86.544 5.61097 86.3858 5.2267 86.3858 4.78287C86.3858 4.34738 86.544 3.97593 86.8597 3.66852C87.1761 3.36111 87.5604 3.2074 88.0125 3.2074C88.448 3.2074 88.8195 3.36111 89.1269 3.66852C89.4343 3.97593 89.588 4.34738 89.588 4.78287C89.588 5.23566 89.4343 5.61994 89.1269 5.93567C88.8195 6.25141 88.448 6.40959 88.0125 6.40959ZM105.059 3.33548C105.99 3.33548 106.75 3.62177 107.339 4.19368C107.928 4.75727 108.223 5.49185 108.223 6.39679C108.223 7.30172 107.928 8.04078 107.339 8.61269C106.75 9.17628 105.99 9.45807 105.059 9.45807C104.12 9.45807 103.355 9.17628 102.766 8.61269C102.177 8.04078 101.882 7.30172 101.882 6.39679C101.882 5.71344 102.062 5.11143 102.42 4.59075L105.264 0.325439H106.942L104.892 3.33548H105.059ZM105.059 8.06191C105.555 8.06191 105.96 7.9127 106.276 7.61361C106.592 7.3062 106.75 6.90081 106.75 6.39679C106.75 5.89276 106.592 5.49185 106.276 5.19276C105.96 4.88535 105.555 4.73165 105.059 4.73165C104.556 4.73165 104.146 4.88535 103.829 5.19276C103.514 5.49185 103.355 5.89276 103.355 6.39679C103.355 6.90081 103.514 7.3062 103.829 7.61361C104.146 7.9127 104.556 8.06191 105.059 8.06191ZM113.479 3.70694C114.333 3.70694 115.055 3.96313 115.644 4.47548C116.233 4.9795 116.528 5.6795 116.528 6.57611C116.528 7.47272 116.225 8.17719 115.619 8.68954C115.012 9.20189 114.269 9.45807 113.39 9.45807C112.681 9.45807 112.053 9.29604 111.507 8.97134C110.961 8.63831 110.572 8.15991 110.341 7.53676L111.609 6.80666C111.848 7.61809 112.442 8.02348 113.39 8.02348C113.894 8.02348 114.295 7.89539 114.594 7.63922C114.901 7.37472 115.055 7.01993 115.055 6.57611C115.055 6.13229 114.906 5.78196 114.607 5.52578C114.308 5.26961 113.91 5.14152 113.415 5.14152H110.802L111.148 0.325439H116.144V1.70879H112.506L112.352 3.70694H113.479ZM125.814 6.30712V7.67766H124.789V9.29155H123.303V7.67766H118.897V6.30712L121.984 0.325439H123.585L120.498 6.30712H123.303V3.97592H124.789V6.30712H125.814ZM131.382 3.33548C132.312 3.33548 133.072 3.62177 133.662 4.19368C134.251 4.75727 134.545 5.49185 134.545 6.39679C134.545 7.30172 134.251 8.04078 133.662 8.61269C133.072 9.17628 132.312 9.45807 131.382 9.45807C130.442 9.45807 129.678 9.17628 129.089 8.61269C128.5 8.04078 128.205 7.30172 128.205 6.39679C128.205 5.71344 128.384 5.11143 128.743 4.59075L131.587 0.325439H133.264L131.215 3.33548H131.382ZM131.382 8.06191C131.877 8.06191 132.283 7.9127 132.598 7.61361C132.914 7.3062 133.072 6.90081 133.072 6.39679C133.072 5.89276 132.914 5.49185 132.598 5.19276C132.283 4.88535 131.877 4.73165 131.382 4.73165C130.878 4.73165 130.468 4.88535 130.152 5.19276C129.836 5.49185 129.678 5.89276 129.678 6.39679C129.678 6.90081 129.836 7.3062 130.152 7.61361C130.468 7.9127 130.878 8.06191 131.382 8.06191Z" fill="white"/>
</svg>
