<svg width="135" height="10" viewBox="0 0 135 10" fill="none" xmlns="http://www.w3.org/2000/svg">
<path d="M2.02124 6.73967C1.57677 6.73967 1.19252 6.58149 0.868458 6.26575C0.552082 5.94105 0.394531 5.55677 0.394531 5.11295C0.394531 4.67745 0.552082 4.30601 0.868458 3.9986C1.18419 3.69119 1.56845 3.53748 2.02124 3.53748C2.45673 3.53748 2.82819 3.69119 3.1356 3.9986C3.44301 4.30601 3.59671 4.67745 3.59671 5.11295C3.59671 5.56574 3.44301 5.95001 3.1356 6.26575C2.82819 6.58149 2.45673 6.73967 2.02124 6.73967ZM8.03942 6.73967C7.59496 6.73967 7.2107 6.58149 6.88663 6.26575C6.57026 5.94105 6.41272 5.55677 6.41272 5.11295C6.41272 4.67745 6.57026 4.30601 6.88663 3.9986C7.20237 3.69119 7.58663 3.53748 8.03942 3.53748C8.47492 3.53748 8.84638 3.69119 9.15379 3.9986C9.4612 4.30601 9.6149 4.67745 9.6149 5.11295C9.6149 5.56574 9.4612 5.95001 9.15379 6.26575C8.84638 6.58149 8.47492 6.73967 8.03942 6.73967ZM14.0576 6.73967C13.6131 6.73967 13.2289 6.58149 12.9048 6.26575C12.5884 5.94105 12.4309 5.55677 12.4309 5.11295C12.4309 4.67745 12.5884 4.30601 12.9048 3.9986C13.2206 3.69119 13.6048 3.53748 14.0576 3.53748C14.4931 3.53748 14.8646 3.69119 15.172 3.9986C15.4794 4.30601 15.6331 4.67745 15.6331 5.11295C15.6331 5.56574 15.4794 5.95001 15.172 6.26575C14.8646 6.58149 14.4931 6.73967 14.0576 6.73967ZM20.0751 6.73967C19.6313 6.73967 19.2471 6.58149 18.9224 6.26575C18.6066 5.94105 18.4484 5.55677 18.4484 5.11295C18.4484 4.67745 18.6066 4.30601 18.9224 3.9986C19.2387 3.69119 19.623 3.53748 20.0751 3.53748C20.5106 3.53748 20.8821 3.69119 21.1895 3.9986C21.4969 4.30601 21.6506 4.67745 21.6506 5.11295C21.6506 5.56574 21.4969 5.95001 21.1895 6.26575C20.8821 6.58149 20.5106 6.73967 20.0751 6.73967ZM35.828 6.73967C35.3842 6.73967 34.9999 6.58149 34.6752 6.26575C34.3595 5.94105 34.2013 5.55677 34.2013 5.11295C34.2013 4.67745 34.3595 4.30601 34.6752 3.9986C34.9916 3.69119 35.3758 3.53748 35.828 3.53748C36.2635 3.53748 36.6349 3.69119 36.9423 3.9986C37.2497 4.30601 37.4035 4.67745 37.4035 5.11295C37.4035 5.56574 37.2497 5.95001 36.9423 6.26575C36.6349 6.58149 36.2635 6.73967 35.828 6.73967ZM41.8462 6.73967C41.4023 6.73967 41.0181 6.58149 40.6934 6.26575C40.3776 5.94105 40.2195 5.55677 40.2195 5.11295C40.2195 4.67745 40.3776 4.30601 40.6934 3.9986C41.0097 3.69119 41.394 3.53748 41.8462 3.53748C42.2817 3.53748 42.6531 3.69119 42.9605 3.9986C43.2679 4.30601 43.4216 4.67745 43.4216 5.11295C43.4216 5.56574 43.2679 5.95001 42.9605 6.26575C42.6531 6.58149 42.2817 6.73967 41.8462 6.73967ZM47.8643 6.73967C47.4205 6.73967 47.0363 6.58149 46.7116 6.26575C46.3958 5.94105 46.2376 5.55677 46.2376 5.11295C46.2376 4.67745 46.3958 4.30601 46.7116 3.9986C47.0273 3.69119 47.4116 3.53748 47.8643 3.53748C48.2998 3.53748 48.6713 3.69119 48.9787 3.9986C49.2861 4.30601 49.4398 4.67745 49.4398 5.11295C49.4398 5.56574 49.2861 5.95001 48.9787 6.26575C48.6713 6.58149 48.2998 6.73967 47.8643 6.73967ZM53.8825 6.73967C53.4387 6.73967 53.0544 6.58149 52.7297 6.26575C52.414 5.94105 52.2558 5.55677 52.2558 5.11295C52.2558 4.67745 52.414 4.30601 52.7297 3.9986C53.0455 3.69119 53.4297 3.53748 53.8825 3.53748C54.318 3.53748 54.6895 3.69119 54.9969 3.9986C55.3043 4.30601 55.458 4.67745 55.458 5.11295C55.458 5.56574 55.3043 5.95001 54.9969 6.26575C54.6895 6.58149 54.318 6.73967 53.8825 6.73967ZM69.6353 6.73967C69.1909 6.73967 68.8066 6.58149 68.4826 6.26575C68.1662 5.94105 68.0087 5.55677 68.0087 5.11295C68.0087 4.67745 68.1662 4.30601 68.4826 3.9986C68.7983 3.69119 69.1826 3.53748 69.6353 3.53748C70.0708 3.53748 70.4423 3.69119 70.7497 3.9986C71.0571 4.30601 71.2108 4.67745 71.2108 5.11295C71.2108 5.56574 71.0571 5.95001 70.7497 6.26575C70.4423 6.58149 70.0708 6.73967 69.6353 6.73967ZM75.6535 6.73967C75.2091 6.73967 74.8248 6.58149 74.5008 6.26575C74.1844 5.94105 74.0268 5.55677 74.0268 5.11295C74.0268 4.67745 74.1844 4.30601 74.5008 3.9986C74.8165 3.69119 75.2007 3.53748 75.6535 3.53748C76.089 3.53748 76.4605 3.69119 76.7679 3.9986C77.0753 4.30601 77.229 4.67745 77.229 5.11295C77.229 5.56574 77.0753 5.95001 76.7679 6.26575C76.4605 6.58149 76.089 6.73967 75.6535 6.73967ZM81.6717 6.73967C81.2273 6.73967 80.843 6.58149 80.5189 6.26575C80.2026 5.94105 80.045 5.55677 80.045 5.11295C80.045 4.67745 80.2026 4.30601 80.5189 3.9986C80.8347 3.69119 81.2189 3.53748 81.6717 3.53748C82.1072 3.53748 82.4787 3.69119 82.7861 3.9986C83.0935 4.30601 83.2472 4.67745 83.2472 5.11295C83.2472 5.56574 83.0935 5.95001 82.7861 6.26575C82.4787 6.58149 82.1072 6.73967 81.6717 6.73967ZM87.6893 6.73967C87.2454 6.73967 86.8612 6.58149 86.5365 6.26575C86.2207 5.94105 86.0625 5.55677 86.0625 5.11295C86.0625 4.67745 86.2207 4.30601 86.5365 3.9986C86.8529 3.69119 87.2371 3.53748 87.6893 3.53748C88.1248 3.53748 88.4962 3.69119 88.8036 3.9986C89.111 4.30601 89.2647 4.67745 89.2647 5.11295C89.2647 5.56574 89.111 5.95001 88.8036 6.26575C88.4962 6.58149 88.1248 6.73967 87.6893 6.73967ZM104.736 3.66556C105.667 3.66556 106.427 3.95185 107.016 4.52376C107.605 5.08735 107.9 5.82193 107.9 6.72687C107.9 7.6318 107.605 8.37086 107.016 8.94277C106.427 9.50636 105.667 9.78815 104.736 9.78815C103.797 9.78815 103.032 9.50636 102.443 8.94277C101.854 8.37086 101.559 7.6318 101.559 6.72687C101.559 6.04352 101.739 5.4415 102.097 4.92083L104.941 0.655518H106.619L104.569 3.66556H104.736ZM104.736 8.39198C105.231 8.39198 105.637 8.24277 105.953 7.94369C106.269 7.63628 106.427 7.23089 106.427 6.72687C106.427 6.22284 106.269 5.82192 105.953 5.52284C105.637 5.21543 105.231 5.06173 104.736 5.06173C104.232 5.06173 103.822 5.21543 103.506 5.52284C103.19 5.82192 103.032 6.22284 103.032 6.72687C103.032 7.23089 103.19 7.63628 103.506 7.94369C103.822 8.24277 104.232 8.39198 104.736 8.39198ZM113.156 4.03702C114.01 4.03702 114.732 4.29321 115.321 4.80555C115.91 5.30958 116.205 6.00958 116.205 6.90619C116.205 7.8028 115.902 8.50727 115.295 9.01962C114.689 9.53197 113.946 9.78815 113.067 9.78815C112.358 9.78815 111.73 9.62612 111.184 9.30141C110.637 8.96839 110.249 8.48999 110.018 7.86684L111.286 7.13673C111.525 7.94817 112.119 8.35356 113.067 8.35356C113.571 8.35356 113.972 8.22547 114.271 7.96929C114.578 7.70479 114.732 7.35001 114.732 6.90619C114.732 6.46236 114.582 6.11204 114.283 5.85586C113.984 5.59969 113.587 5.47159 113.092 5.47159H110.479L110.825 0.655518H115.82V2.03886H112.183L112.029 4.03702H113.156ZM125.49 6.63719V8.00774H124.466V9.62163H122.98V8.00774H118.574V6.63719L121.661 0.655518H123.262L120.175 6.63719H122.98V4.306H124.466V6.63719H125.49ZM131.058 3.66556C131.989 3.66556 132.749 3.95185 133.338 4.52376C133.928 5.08735 134.222 5.82193 134.222 6.72687C134.222 7.6318 133.928 8.37086 133.338 8.94277C132.749 9.50636 131.989 9.78815 131.058 9.78815C130.119 9.78815 129.355 9.50636 128.766 8.94277C128.176 8.37086 127.882 7.6318 127.882 6.72687C127.882 6.04352 128.061 5.4415 128.42 4.92083L131.263 0.655518H132.941L130.892 3.66556H131.058ZM131.058 8.39198C131.553 8.39198 131.959 8.24277 132.275 7.94369C132.591 7.63628 132.749 7.23089 132.749 6.72687C132.749 6.22284 132.591 5.82192 132.275 5.52284C131.959 5.21543 131.553 5.06173 131.058 5.06173C130.554 5.06173 130.144 5.21543 129.829 5.52284C129.513 5.82192 129.355 6.22284 129.355 6.72687C129.355 7.23089 129.513 7.63628 129.829 7.94369C130.144 8.24277 130.554 8.39198 131.058 8.39198Z" fill="white"/>
</svg>
