<svg width="57" height="55" viewBox="0 0 57 55" fill="none" xmlns="http://www.w3.org/2000/svg">
<path d="M51.3056 38.6086C50.54 44.5924 45.4821 49.4964 39.3106 50.2388C35.5752 50.6887 32.0951 49.6989 29.3805 47.7643C27.826 46.662 28.1973 44.3225 30.0534 43.7826C37.0369 41.7355 42.5356 36.3815 44.6701 29.6104C45.2269 27.8332 47.6398 27.4733 48.7767 28.958C50.7488 31.6125 51.7696 34.9868 51.3056 38.6086Z" fill="white"/>
<path d="M23.6266 5.42749C13.3949 5.42749 5.08887 13.4809 5.08887 23.4014C5.08887 33.322 13.3949 41.3754 23.6266 41.3754C33.8583 41.3754 42.1643 33.322 42.1643 23.4014C42.1411 13.4809 33.8583 5.42749 23.6266 5.42749ZM21.4457 20.8819L27.0371 22.7716C29.0556 23.4689 30.0301 24.8412 30.0301 26.9557C30.0301 29.3853 28.0348 31.3874 25.5987 31.3874H25.3899V31.4998C25.3899 32.4222 24.601 33.187 23.6498 33.187C22.6985 33.187 21.9097 32.4222 21.9097 31.4998V31.3649C19.3344 31.2524 17.2695 29.1603 17.2695 26.5508C17.2695 25.6285 18.0583 24.8636 19.0095 24.8636C19.9608 24.8636 20.7496 25.6285 20.7496 26.5508C20.7496 27.3607 21.3529 28.013 22.0953 28.013H25.5755C26.1091 28.013 26.5267 27.5406 26.5267 26.9557C26.5267 26.1684 26.3875 26.1234 25.8539 25.9434L20.2624 24.0538C18.2671 23.3789 17.2695 22.0067 17.2695 19.8696C17.2695 17.4401 19.2648 15.438 21.7009 15.438H21.9097V15.348C21.9097 14.4257 22.6985 13.6609 23.6498 13.6609C24.601 13.6609 25.3899 14.4257 25.3899 15.348V15.483C27.9652 15.5955 30.0301 17.6876 30.0301 20.297C30.0301 21.2194 29.2412 21.9842 28.29 21.9842C27.3388 21.9842 26.5499 21.2194 26.5499 20.297C26.5499 19.4872 25.9467 18.8348 25.2043 18.8348H21.7241C21.1905 18.8348 20.7728 19.3072 20.7728 19.8921C20.7496 20.657 20.8888 20.702 21.4457 20.8819Z" fill="#BDD4F1"/>
</svg>
