<svg width="33" height="33" viewBox="0 0 33 33" fill="none" xmlns="http://www.w3.org/2000/svg">
<path d="M23.728 24.7897H8.71898C3.34704 24.7897 1.71387 23.1565 1.71387 17.7846V9.22728C1.71387 3.85535 3.34704 2.22217 8.71898 2.22217H23.7145C29.0865 2.22217 30.7196 3.85535 30.7196 9.22728V17.7711C30.7331 23.1565 29.1 24.7897 23.728 24.7897ZM8.71898 4.24677C4.48082 4.24677 3.73847 4.98912 3.73847 9.22728V17.7711C3.73847 22.0093 4.48082 22.7516 8.71898 22.7516H23.7145C27.9527 22.7516 28.695 22.0093 28.695 17.7711V9.22728C28.695 4.98912 27.9527 4.24677 23.7145 4.24677H8.71898Z" fill="#BDD4F1"/>
<path d="M16.2232 31.2415C15.6698 31.2415 15.2109 30.7826 15.2109 30.2292V23.7774C15.2109 23.224 15.6698 22.7651 16.2232 22.7651C16.7766 22.7651 17.2355 23.224 17.2355 23.7774V30.2292C17.2355 30.7826 16.7766 31.2415 16.2232 31.2415Z" fill="#BDD4F1"/>
<path d="M29.7208 19.0937H2.72617C2.17278 19.0937 1.71387 18.6348 1.71387 18.0814C1.71387 17.528 2.17278 17.0691 2.72617 17.0691H29.7208C30.2742 17.0691 30.7331 17.528 30.7331 18.0814C30.7331 18.6348 30.2742 19.0937 29.7208 19.0937Z" fill="#BDD4F1"/>
<path d="M22.2966 31.2414H10.149C9.59563 31.2414 9.13672 30.7825 9.13672 30.2291C9.13672 29.6757 9.59563 29.2168 10.149 29.2168H22.2966C22.85 29.2168 23.3089 29.6757 23.3089 30.2291C23.3089 30.7825 22.85 31.2414 22.2966 31.2414Z" fill="#BDD4F1"/>
</svg>
