<svg width="56" height="55" viewBox="0 0 56 55" fill="none" xmlns="http://www.w3.org/2000/svg">
<path d="M50.9111 37.9384C50.1454 43.9222 45.0876 48.8263 38.9161 49.5686C35.1807 50.0185 31.7005 49.0287 28.986 47.0941C27.4315 45.9918 27.8027 43.6523 29.6588 43.1124C36.6424 41.0653 42.141 35.7114 44.2755 28.9402C44.8324 27.1631 47.2453 26.8031 48.3821 28.2878C50.3542 30.9423 51.3751 34.3166 50.9111 37.9384Z" fill="white"/>
<path d="M23.2311 4.75757C12.9994 4.75757 4.69336 12.811 4.69336 22.7315C4.69336 32.6521 12.9994 40.7055 23.2311 40.7055C33.4628 40.7055 41.7688 32.6521 41.7688 22.7315C41.7456 12.811 33.4628 4.75757 23.2311 4.75757ZM21.0502 20.212L26.6416 22.1016C28.6601 22.799 29.6346 24.1712 29.6346 26.2858C29.6346 28.7153 27.6393 30.7174 25.2032 30.7174H24.9944V30.8299C24.9944 31.7522 24.2055 32.5171 23.2543 32.5171C22.303 32.5171 21.5142 31.7522 21.5142 30.8299V30.6949C18.9389 30.5825 16.874 28.4904 16.874 25.8809C16.874 24.9586 17.6628 24.1937 18.614 24.1937C19.5653 24.1937 20.3541 24.9586 20.3541 25.8809C20.3541 26.6907 20.9574 27.3431 21.6998 27.3431H25.18C25.7136 27.3431 26.1312 26.8707 26.1312 26.2858C26.1312 25.4985 25.992 25.4535 25.4584 25.2735L19.8669 23.3839C17.8716 22.709 16.874 21.3368 16.874 19.1997C16.874 16.7702 18.8693 14.7681 21.3054 14.7681H21.5142V14.6781C21.5142 13.7558 22.303 12.9909 23.2543 12.9909C24.2055 12.9909 24.9944 13.7558 24.9944 14.6781V14.8131C27.5697 14.9256 29.6346 17.0176 29.6346 19.6271C29.6346 20.5494 28.8457 21.3143 27.8945 21.3143C26.9432 21.3143 26.1544 20.5494 26.1544 19.6271C26.1544 18.8173 25.5512 18.1649 24.8087 18.1649H21.3286C20.7949 18.1649 20.3773 18.6373 20.3773 19.2222C20.3541 19.9871 20.4933 20.032 21.0502 20.212Z" fill="#BDD4F1"/>
</svg>
