<svg width="34" height="34" viewBox="0 0 34 34" fill="none" xmlns="http://www.w3.org/2000/svg">
<path d="M24.3335 25.1198H9.32445C3.95251 25.1198 2.31934 23.4866 2.31934 18.1147V9.55736C2.31934 4.18542 3.95251 2.55225 9.32445 2.55225H24.32C29.6919 2.55225 31.3251 4.18542 31.3251 9.55736V18.1012C31.3386 23.4866 29.7054 25.1198 24.3335 25.1198ZM9.32445 4.57685C5.08629 4.57685 4.34394 5.3192 4.34394 9.55736V18.1012C4.34394 22.3393 5.08629 23.0817 9.32445 23.0817H24.32C28.5581 23.0817 29.3005 22.3393 29.3005 18.1012V9.55736C29.3005 5.3192 28.5581 4.57685 24.32 4.57685H9.32445V4.57685Z" fill="#BDD4F1"/>
<path d="M16.8287 31.5713C16.2753 31.5713 15.8164 31.1124 15.8164 30.559V24.1073C15.8164 23.5539 16.2753 23.095 16.8287 23.095C17.3821 23.095 17.841 23.5539 17.841 24.1073V30.559C17.841 31.1124 17.3821 31.5713 16.8287 31.5713Z" fill="#BDD4F1"/>
<path d="M30.3263 19.4238H3.33164C2.77825 19.4238 2.31934 18.9649 2.31934 18.4115C2.31934 17.8581 2.77825 17.3992 3.33164 17.3992H30.3263C30.8797 17.3992 31.3386 17.8581 31.3386 18.4115C31.3386 18.9649 30.8797 19.4238 30.3263 19.4238Z" fill="#BDD4F1"/>
<path d="M22.9021 31.5715H10.7545C10.2011 31.5715 9.74219 31.1126 9.74219 30.5592C9.74219 30.0058 10.2011 29.5469 10.7545 29.5469H22.9021C23.4555 29.5469 23.9144 30.0058 23.9144 30.5592C23.9144 31.1126 23.4555 31.5715 22.9021 31.5715Z" fill="#BDD4F1"/>
</svg>
