<svg width="16" height="10" viewBox="0 0 16 10" fill="none" xmlns="http://www.w3.org/2000/svg">
<path d="M5.95801 1.17255H9.94375V8.33423H5.95801V1.17255Z" fill="#FFA051"/>
<path d="M6.2117 4.75362C6.2117 3.29851 6.89497 2.00789 7.94518 1.17278C7.17334 0.565429 6.19905 0.198486 5.13619 0.198486C2.61821 0.198486 0.581055 2.23564 0.581055 4.75362C0.581055 7.27159 2.61821 9.30875 5.13619 9.30875C6.19905 9.30875 7.17334 8.94181 7.94518 8.33446C6.89497 7.512 6.2117 6.20873 6.2117 4.75362Z" fill="#EB001B"/>
<path d="M15.3231 4.75362C15.3231 7.27159 13.286 9.30875 10.768 9.30875C9.70512 9.30875 8.73083 8.94181 7.95898 8.33446C9.02185 7.49935 9.69247 6.20873 9.69247 4.75362C9.69247 3.29851 9.0092 2.00789 7.95898 1.17278C8.73083 0.565429 9.70512 0.198486 10.768 0.198486C13.286 0.198486 15.3231 2.2483 15.3231 4.75362Z" fill="#FFA051"/>
</svg>
