<svg width="16" height="10" viewBox="0 0 16 10" fill="none" xmlns="http://www.w3.org/2000/svg">
<path d="M6.36523 1.07098H10.351V8.23266H6.36523V1.07098Z" fill="#FFA051"/>
<path d="M6.61893 4.65205C6.61893 3.19694 7.3022 1.90632 8.35241 1.07122C7.58057 0.463866 6.60628 0.0969238 5.54341 0.0969238C3.02544 0.0969238 0.988281 2.13408 0.988281 4.65205C0.988281 7.17003 3.02544 9.20719 5.54341 9.20719C6.60628 9.20719 7.58057 8.84025 8.35241 8.2329C7.3022 7.41044 6.61893 6.10717 6.61893 4.65205Z" fill="#EB001B"/>
<path d="M15.7294 4.65205C15.7294 7.17003 13.6922 9.20719 11.1742 9.20719C10.1114 9.20719 9.13708 8.84025 8.36523 8.2329C9.4281 7.39779 10.0987 6.10717 10.0987 4.65205C10.0987 3.19694 9.41545 1.90632 8.36523 1.07122C9.13708 0.463866 10.1114 0.0969238 11.1742 0.0969238C13.6922 0.0969238 15.7294 2.14673 15.7294 4.65205Z" fill="#FFA051"/>
</svg>
